<svg width="20" height="20" viewBox="0 0 20 20" fill="none" xmlns="http://www.w3.org/2000/svg">
<path d="M16.667 3.33337H3.33366C2.41699 3.33337 1.67533 4.08337 1.67533 5.00004L1.66699 15C1.66699 15.9167 2.41699 16.6667 3.33366 16.6667H16.667C17.5837 16.6667 18.3337 15.9167 18.3337 15V5.00004C18.3337 4.08337 17.5837 3.33337 16.667 3.33337ZM16.3337 6.87504L10.442 10.5584C10.1753 10.725 9.82533 10.725 9.55866 10.5584L3.66699 6.87504C3.58343 6.82813 3.51026 6.76476 3.4519 6.68875C3.39354 6.61275 3.35121 6.52569 3.32747 6.43285C3.30373 6.34001 3.29908 6.24332 3.31379 6.14863C3.3285 6.05394 3.36227 5.96322 3.41306 5.88196C3.46385 5.8007 3.5306 5.73059 3.60926 5.67587C3.68793 5.62115 3.77689 5.58297 3.87074 5.56362C3.96459 5.54428 4.06139 5.54418 4.15529 5.56333C4.24918 5.58248 4.33821 5.62048 4.41699 5.67504L10.0003 9.16671L15.5837 5.67504C15.6624 5.62048 15.7515 5.58248 15.8454 5.56333C15.9393 5.54418 16.0361 5.54428 16.1299 5.56362C16.2238 5.58297 16.3127 5.62115 16.3914 5.67587C16.4701 5.73059 16.5368 5.8007 16.5876 5.88196C16.6384 5.96322 16.6722 6.05394 16.6869 6.14863C16.7016 6.24332 16.6969 6.34001 16.6732 6.43285C16.6494 6.52569 16.6071 6.61275 16.5488 6.68875C16.4904 6.76476 16.4172 6.82813 16.3337 6.87504Z" fill="white"/>
</svg>
