<svg width="20" height="20" viewBox="0 0 20 20" fill="none" xmlns="http://www.w3.org/2000/svg">
<path d="M19.3605 16.0554L15.5574 12.5976C15.3776 12.4342 15.1414 12.3471 14.8986 12.3546C14.6558 12.3621 14.4254 12.4636 14.256 12.6378L12.0172 14.9402C11.4784 14.8373 10.395 14.4996 9.27978 13.3872C8.16458 12.2711 7.82684 11.1849 7.72674 10.6498L10.0273 8.41004C10.2017 8.24082 10.3034 8.01039 10.3109 7.76751C10.3184 7.52462 10.2311 7.28835 10.0675 7.10868L6.61061 3.30657C6.44693 3.12635 6.21943 3.01702 5.97644 3.00183C5.73345 2.98663 5.4941 3.06675 5.30924 3.22518L3.27906 4.96625C3.11731 5.12859 3.02077 5.34464 3.00775 5.57343C2.99371 5.80732 2.72614 11.3477 7.02226 15.6456C10.7701 19.3925 15.4648 19.6667 16.7577 19.6667C16.9467 19.6667 17.0627 19.6611 17.0936 19.6592C17.3224 19.6464 17.5383 19.5494 17.6999 19.3869L19.44 17.3558C19.5991 17.1716 19.6798 16.9324 19.6649 16.6894C19.6501 16.4465 19.5408 16.2189 19.3605 16.0554Z" fill="white"/>
</svg>
