<svg width="89" height="89" viewBox="0 0 89 89" fill="none" xmlns="http://www.w3.org/2000/svg">
<path d="M44.5 0L44.6397 41.8337L49.1515 0.243774L44.9177 41.8629L53.7521 0.972431L45.191 41.921L58.2513 2.17799L45.4568 42.0073L62.5998 3.84723L45.7122 42.121L66.75 5.96187L45.9542 42.2607L70.6564 8.49874L46.1803 42.425L74.2763 11.4301L46.388 42.612L77.5699 14.7237L46.575 42.8197L80.5013 18.3436L46.7393 43.0458L83.0381 22.25L46.879 43.2878L85.1528 26.4002L46.9927 43.5432L86.822 30.7487L47.079 43.809L88.0276 35.2479L47.1371 44.0823L88.7562 39.8485L47.1663 44.3603L89 44.5L47.1663 44.6397L88.7562 49.1515L47.1371 44.9177L88.0276 53.7521L47.079 45.191L86.822 58.2513L46.9927 45.4568L85.1528 62.5998L46.879 45.7122L83.0381 66.75L46.7393 45.9542L80.5013 70.6564L46.575 46.1803L77.5699 74.2763L46.388 46.388L74.2763 77.5699L46.1803 46.575L70.6564 80.5013L45.9542 46.7393L66.75 83.0381L45.7122 46.879L62.5998 85.1528L45.4568 46.9927L58.2513 86.822L45.191 47.079L53.7521 88.0276L44.9177 47.1371L49.1515 88.7562L44.6397 47.1663L44.5 89L44.3603 47.1663L39.8485 88.7562L44.0823 47.1371L35.2479 88.0276L43.809 47.079L30.7487 86.822L43.5432 46.9927L26.4002 85.1528L43.2878 46.879L22.25 83.0381L43.0458 46.7393L18.3436 80.5013L42.8197 46.575L14.7237 77.5699L42.612 46.388L11.4301 74.2763L42.425 46.1803L8.49874 70.6564L42.2607 45.9542L5.96187 66.75L42.121 45.7122L3.84723 62.5998L42.0073 45.4568L2.17799 58.2513L41.921 45.191L0.972431 53.7521L41.8629 44.9177L0.243774 49.1515L41.8337 44.6397L0 44.5L41.8337 44.3603L0.243774 39.8485L41.8629 44.0823L0.972431 35.2479L41.921 43.809L2.17799 30.7487L42.0073 43.5432L3.84723 26.4002L42.121 43.2878L5.96187 22.25L42.2607 43.0458L8.49874 18.3436L42.425 42.8197L11.4301 14.7237L42.612 42.612L14.7237 11.4301L42.8197 42.425L18.3436 8.49874L43.0458 42.2607L22.25 5.96187L43.2878 42.121L26.4002 3.84723L43.5432 42.0073L30.7487 2.17799L43.809 41.921L35.2479 0.972431L44.0823 41.8629L39.8485 0.243774L44.3603 41.8337L44.5 0Z" fill="#C8434B"/>
</svg>
