<svg width="45" height="45" viewBox="0 0 45 45" fill="none" xmlns="http://www.w3.org/2000/svg">
<g clip-path="url(#clip0)">
<path d="M37.3441 30.7753V27.0247C37.3441 26.66 37.0483 26.3642 36.6836 26.3642C36.3188 26.3642 36.0231 26.66 36.0231 27.0247V30.7753C32.4012 31.1098 29.5553 34.1641 29.5553 37.8718C29.5553 40.2655 30.7425 42.3858 32.5576 43.6791H26.1965C24.5262 43.6791 22.9564 42.942 21.8897 41.6567C20.8229 40.3715 20.3876 38.6928 20.6953 37.0511L21.9427 30.3951H28.9032C30.2386 30.3951 31.325 29.3087 31.325 27.9734V19.2359C32.2181 19.0248 33.1465 18.9129 34.0971 18.9129C35.1591 18.9129 36.0232 19.777 36.0232 20.839V24.3829C36.0232 24.7476 36.3189 25.0434 36.6837 25.0434C37.0484 25.0434 37.3442 24.7476 37.3442 24.3829V20.8389C37.3442 19.5159 36.5485 18.3761 35.4108 17.8705V14.3672C35.4108 14.0025 35.1151 13.7067 34.7503 13.7067H34.7403V4.83073C34.7402 2.16703 32.5732 0 29.9096 0C28.0064 0 26.2751 1.1228 25.4988 2.86066L21.7441 11.2666C21.5953 11.5996 21.7447 11.9902 22.0777 12.139C22.4109 12.288 22.8013 12.1384 22.9501 11.8054L26.7048 3.39943C27.2688 2.1368 28.5268 1.321 29.9095 1.321C31.8449 1.321 33.4193 2.89547 33.4193 4.83073V13.7068H32.0983V4.83073C32.0983 3.62382 31.1164 2.6419 29.9095 2.6419C29.0472 2.6419 28.2628 3.15062 27.911 3.93812L12.828 37.7053H11.3813L21.8724 14.2181C22.0212 13.885 21.8718 13.4945 21.5387 13.3457C21.2055 13.1966 20.8151 13.3463 20.6663 13.6793L9.9346 37.7053H9.57847C8.72874 37.7053 8.03739 38.3966 8.03739 39.2463V40.6267H5.79601C3.63847 40.6267 1.75295 42.0852 1.21067 44.1735C1.15925 44.3713 1.20249 44.5818 1.32747 44.7435C1.45254 44.9052 1.64546 44.9999 1.84989 44.9999H12.2366C12.6014 44.9999 12.8971 44.7043 12.8971 44.3394C12.8971 43.9746 12.6014 43.6789 12.2366 43.6789H2.82372C3.41927 42.6284 4.54418 41.9476 5.79601 41.9476H16.9942C17.9391 41.9476 18.765 42.5863 19.0025 43.501L19.0487 43.6789H14.8786C14.5139 43.6789 14.2181 43.9747 14.2181 44.3394C14.2181 44.7042 14.5139 44.9999 14.8786 44.9999H19.9025C20.107 44.9999 20.2999 44.9053 20.425 44.7435C20.55 44.5818 20.5932 44.3713 20.5418 44.1734L20.2809 43.1691C19.8923 41.6721 18.5407 40.6267 16.9941 40.6267H15.539V39.2462C15.539 38.4872 14.987 37.8562 14.2637 37.7297L29.117 4.4768C29.2565 4.16452 29.5676 3.96281 29.9095 3.96281C30.3881 3.96281 30.7773 4.35217 30.7773 4.83073V13.7068H30.6644C30.2997 13.7068 30.0039 14.0025 30.0039 14.3673V18.2333C25.4356 19.7041 21.8767 23.5762 20.9538 28.5006L19.3969 36.8078C19.0166 38.8369 19.5548 40.9119 20.8732 42.5004C22.1918 44.0889 24.132 45 26.1965 45H36.6836C40.6141 45 43.8119 41.8023 43.8119 37.8717C43.8119 34.164 40.966 31.1098 37.3441 30.7753ZM9.35821 40.6268V39.2464C9.35821 39.125 9.457 39.0263 9.57838 39.0263H13.998C14.1193 39.0263 14.2181 39.125 14.2181 39.2464V40.6268H9.35821ZM31.325 15.0277H34.0898V17.592C33.145 17.5925 32.2199 17.6927 31.325 17.8822V15.0277ZM30.004 19.6291V27.9733C30.004 28.5803 29.5102 29.074 28.9032 29.074H22.1902L22.2521 28.7439C23.0566 24.4524 26.0824 21.0478 30.004 19.6291ZM36.6836 43.6791C33.4814 43.6791 30.8763 41.0739 30.8763 37.8718C30.8763 34.6697 33.4815 32.0645 36.6836 32.0645C39.8857 32.0645 42.4909 34.6697 42.4909 37.8718C42.4909 41.0739 39.8857 43.6791 36.6836 43.6791Z" fill="#205B59"/>
<path d="M36.6834 34.905C35.0475 34.905 33.7168 36.2359 33.7168 37.8716C33.7168 39.5074 35.0476 40.8382 36.6834 40.8382C38.3191 40.8382 39.6499 39.5073 39.6499 37.8716C39.6499 36.2359 38.3191 34.905 36.6834 34.905ZM36.6834 39.5173C35.776 39.5173 35.0377 38.779 35.0377 37.8716C35.0377 36.9642 35.776 36.2259 36.6834 36.2259C37.5908 36.2259 38.329 36.9642 38.329 37.8716C38.329 38.7791 37.5908 39.5173 36.6834 39.5173Z" fill="#205B59"/>
</g>
<defs>
<clipPath id="clip0">
<rect width="45" height="45" fill="white"/>
</clipPath>
</defs>
</svg>
