<svg width="45" height="45" viewBox="0 0 45 45" fill="none" xmlns="http://www.w3.org/2000/svg">
<g clip-path="url(#clip0)">
<path d="M36.6672 0H32.7584C32.3943 0 32.0992 0.295049 32.0992 0.65918C32.0992 1.02331 32.3943 1.31836 32.7584 1.31836H36.6136V1.93913L29.5451 4.25426C29.3725 2.99874 28.4274 1.98677 27.2061 1.71439V1.31836H30.0742C30.4384 1.31836 30.7334 1.02331 30.7334 0.65918C30.7334 0.295049 30.4384 0 30.0742 0H27.1775C26.4663 0 25.8877 0.578584 25.8877 1.28979V1.71439C25.1818 1.87181 24.5682 2.2761 24.1426 2.8321H21.8876C21.2453 2.8321 20.7228 3.35452 20.7228 3.99683V4.00939H18.8335C14.3357 4.00939 10.6765 7.66863 10.6765 12.1664V23.1144H9.79223C8.96501 23.1144 8.29203 23.7873 8.29203 24.6146V25.6626C8.29203 26.0397 8.47792 26.3734 8.76207 26.5795L7.8081 33.6473C7.75941 34.008 8.01236 34.3401 8.37324 34.3888C8.73315 34.4375 9.06599 34.1845 9.11469 33.8237L10.0633 26.7957H12.6082L14.2798 39.18C14.3047 39.3649 14.2324 39.5002 14.1909 39.5368H8.48055C8.43907 39.5002 8.36665 39.365 8.39161 39.1799L8.75539 36.4852C8.80408 36.1245 8.55113 35.7924 8.19025 35.7437C7.83025 35.6949 7.4975 35.948 7.44881 36.3088L7.08503 39.0036C7.01621 39.5138 7.16307 40.0333 7.47772 40.3933C7.73814 40.6912 8.08637 40.8552 8.45823 40.8552H14.213C14.585 40.8552 14.9332 40.6912 15.1936 40.3932C15.5083 40.0331 15.655 39.5137 15.5862 39.0036L13.9092 26.5794C14.1934 26.3733 14.3792 26.0395 14.3792 25.6625V24.6146C14.3792 23.7872 13.7063 23.1143 12.879 23.1143H11.9948V12.1663C11.9948 8.39558 15.0626 5.32767 18.8335 5.32767H20.7228V5.34023C20.7228 5.98245 21.2452 6.50487 21.8875 6.50487H23.8058V8.19369C23.8058 8.24142 23.7724 8.28334 23.728 8.29116C20.0253 8.94981 17.3377 12.1608 17.3377 15.9262V16.1784H17.2773C16.9131 16.1784 16.6181 16.4734 16.6181 16.8376C16.6181 17.2017 16.9131 17.4967 17.2773 17.4967H17.3377V35.6015H17.2773C16.9131 35.6015 16.6181 35.8966 16.6181 36.2607C16.6181 36.6248 16.9131 36.9199 17.2773 36.9199H17.3377V39.5162C17.3377 40.861 18.2522 41.9955 19.4918 42.3323V43.2489C19.4918 44.2144 20.2774 45 21.2431 45H32.11C33.0756 45 33.8612 44.2144 33.8612 43.2489V42.2488C34.9668 41.8332 35.756 40.7653 35.756 39.5162V36.9199H35.8165C36.1806 36.9199 36.4757 36.6248 36.4757 36.2607C36.4757 35.8966 36.1806 35.6015 35.8165 35.6015H35.756V24.8454C35.756 24.4813 35.461 24.1863 35.0968 24.1863C34.7327 24.1863 34.4376 24.4813 34.4376 24.8454V35.6016H18.6563V17.4967H34.4377V22.1612C34.4377 22.5253 34.7328 22.8204 35.0969 22.8204C35.461 22.8204 35.7561 22.5253 35.7561 22.1612V17.4967H35.8166C36.1807 17.4967 36.4757 17.2017 36.4757 16.8376C36.4757 16.4734 36.1807 16.1784 35.8166 16.1784H35.7561V15.9262C35.7561 12.1608 33.0686 8.94981 29.3657 8.29116C29.3214 8.28325 29.288 8.24142 29.288 8.19369V5.9516C29.3279 5.86652 29.3642 5.77942 29.3963 5.6903L30.7447 5.24865L36.1737 6.57545C36.2263 6.58828 36.2789 6.59452 36.3307 6.59452C36.6274 6.59452 36.8969 6.39272 36.9705 6.09161C37.0569 5.73803 36.8403 5.38119 36.4866 5.29488L33.1174 4.47152L37.0608 3.17997C37.5819 3.00938 37.932 2.52624 37.932 1.97789V1.26492C37.932 0.567422 37.3646 0 36.6672 0V0ZM13.0611 24.6147V25.4775H9.61048V24.6147C9.61048 24.5144 9.69213 24.4328 9.79232 24.4328H12.879C12.9794 24.4327 13.0611 24.5144 13.0611 24.6147ZM32.5429 43.2489C32.5429 43.4875 32.3487 43.6816 32.1101 43.6816H21.2432C21.0044 43.6816 20.8103 43.4875 20.8103 43.2489V42.4345H32.5428V43.2489H32.5429ZM34.4376 36.9199V39.5162C34.4376 40.3984 33.7199 41.1161 32.8377 41.1161H20.2561C19.374 41.1161 18.6563 40.3984 18.6563 39.5162V36.9199H34.4376ZM26.5469 2.95963C27.4892 2.95963 28.2558 3.7263 28.2558 4.66849C28.2558 5.61067 27.4891 6.37726 26.5469 6.37726C25.6047 6.37726 24.8381 5.61067 24.8381 4.66849C24.8381 3.7263 25.6046 2.95963 26.5469 2.95963ZM22.0412 4.15046H23.5649C23.5357 4.31895 23.5196 4.49183 23.5196 4.66857C23.5196 4.84523 23.5357 5.01812 23.5649 5.1866H22.0412V4.15046ZM34.4376 15.9262V16.1784H18.6563V15.9262C18.6563 12.8007 20.8864 10.1356 23.9591 9.58904C24.6342 9.46898 25.1243 8.88214 25.1243 8.1936V7.33948C25.5487 7.56642 26.033 7.69562 26.547 7.69562C27.061 7.69562 27.5453 7.5665 27.9697 7.33948V8.1936C27.9697 8.88214 28.4598 9.46898 29.1349 9.58904C32.2075 10.1356 34.4376 12.8008 34.4376 15.9262Z" fill="#205B59"/>
<path d="M22.3704 19.6362C21.625 19.6362 21.0186 20.2426 21.0186 20.9881V32.1105C21.0186 32.8559 21.6249 33.4623 22.3704 33.4623H30.724C31.4694 33.4623 32.0758 32.856 32.0758 32.1105V20.9881C32.0758 20.2427 31.4695 19.6362 30.724 19.6362H22.3704ZM30.7574 20.9881V32.1105C30.7574 32.1289 30.7423 32.144 30.7239 32.144H22.3704C22.3519 32.144 22.3369 32.1289 22.3369 32.1105V20.9881C22.3369 20.9696 22.3519 20.9546 22.3704 20.9546H30.724C30.7424 20.9546 30.7574 20.9696 30.7574 20.9881Z" fill="#205B59"/>
<path d="M28.7022 22.1707H24.3906C24.0265 22.1707 23.7314 22.4657 23.7314 22.8298C23.7314 23.194 24.0265 23.489 24.3906 23.489H28.7022C29.0663 23.489 29.3614 23.194 29.3614 22.8298C29.3614 22.4657 29.0663 22.1707 28.7022 22.1707Z" fill="#205B59"/>
<path d="M28.7022 24.6501H24.3906C24.0265 24.6501 23.7314 24.9452 23.7314 25.3093C23.7314 25.6735 24.0265 25.9685 24.3906 25.9685H28.7022C29.0663 25.9685 29.3614 25.6735 29.3614 25.3093C29.3614 24.9452 29.0663 24.6501 28.7022 24.6501Z" fill="#205B59"/>
<path d="M28.7022 27.1299H24.3906C24.0265 27.1299 23.7314 27.4249 23.7314 27.7891C23.7314 28.1532 24.0265 28.4482 24.3906 28.4482H28.7022C29.0663 28.4482 29.3614 28.1532 29.3614 27.7891C29.3614 27.4249 29.0663 27.1299 28.7022 27.1299Z" fill="#205B59"/>
<path d="M28.7022 29.6094H24.3906C24.0265 29.6094 23.7314 29.9044 23.7314 30.2686C23.7314 30.6327 24.0265 30.9277 24.3906 30.9277H28.7022C29.0663 30.9277 29.3614 30.6327 29.3614 30.2686C29.3614 29.9044 29.0663 29.6094 28.7022 29.6094Z" fill="#205B59"/>
</g>
<defs>
<clipPath id="clip0">
<rect width="45" height="45" fill="white"/>
</clipPath>
</defs>
</svg>
