<svg width="45" height="45" viewBox="0 0 45 45" fill="none" xmlns="http://www.w3.org/2000/svg">
<path d="M37.9575 37.44L38.2324 35.2435L36.8374 35.0691L36.5625 37.2657H34.4531V38.6719H36.5625C37.2705 38.6719 37.8703 38.1425 37.9575 37.44Z" fill="#205B59"/>
<path d="M42.8829 14.8929C42.8843 14.85 42.8906 14.8078 42.8906 14.7656C42.8906 13.0472 41.651 11.6128 40.0191 11.3091C39.7153 9.67711 38.2809 8.4375 36.5625 8.4375C35.4108 8.4375 34.3638 8.99016 33.7106 9.91125C33.0525 9.77836 32.3895 9.84586 31.7883 10.0765C31.1541 9.07242 30.0431 8.4375 28.8281 8.4375C27.4134 8.4375 26.1485 9.29813 25.6015 10.5609C25.1719 10.5202 24.7556 10.5673 24.3457 10.6882C23.5491 9.71016 22.3706 9.14062 21.0938 9.14062C20.0123 9.14062 19.0287 9.55266 18.2812 10.2234V3.51562C18.2812 1.96453 17.0198 0.703125 15.4688 0.703125C13.9177 0.703125 12.6562 1.96453 12.6562 3.51562V27.4219H11.25C10.087 27.4219 9.14062 28.3683 9.14062 29.5312V31.6406H4.21875C2.28023 31.6406 0.703125 33.2177 0.703125 35.1562V37.2656H2.10938V44.2969H28.8281V41.4844H36.8923C38.662 41.4844 40.1618 40.1604 40.3833 38.385L42.1228 20.3906H42.1875C43.3505 20.3906 44.2969 19.4442 44.2969 18.2812V16.875C44.2969 15.9567 43.7034 15.1819 42.8829 14.8929ZM21.0938 10.5469C22.0753 10.5469 22.9697 11.0552 23.4879 11.9067L23.8212 12.4537L24.397 12.1732C24.8632 11.9468 25.2682 11.8688 25.8855 12.0452L26.6105 12.2513L26.7666 11.5144C26.9705 10.5462 27.8381 9.84375 28.8281 9.84375C29.7162 9.84375 30.5121 10.4133 30.8088 11.2613L31.1105 12.1233L31.867 11.6114C32.4155 11.2409 33.0968 11.1312 33.7894 11.3934L34.3913 11.6213L34.6711 11.0419C35.0276 10.3029 35.7532 9.84375 36.5625 9.84375C37.7255 9.84375 38.6719 10.7902 38.6719 11.9531V12.6562H39.375C40.538 12.6562 41.4844 13.6027 41.4844 14.7656H18.9844C18.7369 14.7656 18.502 14.8162 18.2812 14.895V13.3594C18.2812 11.8083 19.5427 10.5469 21.0938 10.5469ZM19.0491 20.3906L19.729 27.4261C19.7149 27.4261 19.7016 27.4219 19.6875 27.4219H18.2812V20.2612C18.502 20.34 18.7369 20.3906 18.9844 20.3906H19.0491ZM14.0625 3.51562C14.0625 2.74008 14.6932 2.10938 15.4688 2.10938C16.2443 2.10938 16.875 2.74008 16.875 3.51562V16.875V18.2812V27.4219H14.0625V3.51562ZM10.5469 29.5312C10.5469 29.1438 10.8626 28.8281 11.25 28.8281H19.6875C20.0749 28.8281 20.3906 29.1438 20.3906 29.5312V31.6406H10.5469V29.5312ZM2.10938 35.1562C2.10938 33.9933 3.05578 33.0469 4.21875 33.0469H26.7188C27.8817 33.0469 28.8281 33.9933 28.8281 35.1562V35.8594H2.10938V35.1562ZM18.9844 38.6719V42.8906H17.5781V37.2656H21.7969V42.8906H20.3906V38.6719H18.9844ZM13.3594 38.6719V42.8906H11.9531V37.2656H16.1719V42.8906H14.7656V38.6719H13.3594ZM7.73438 38.6719V42.8906H6.32812V37.2656H10.5469V42.8906H9.14062V38.6719H7.73438ZM3.51562 37.2656H4.92188V42.8906H3.51562V37.2656ZM26.0156 42.8906V38.6719H24.6094V42.8906H23.2031V37.2656H27.4219V42.8906H26.0156ZM38.9855 38.2303C38.854 39.2836 37.954 40.0781 36.8923 40.0781H28.8281V37.2656H30.2344V35.1562C30.2344 33.2177 28.6573 31.6406 26.7188 31.6406H21.7969V29.5312C21.7969 28.9645 21.5698 28.452 21.2048 28.0723L20.4616 20.3906H40.7102L38.9855 38.2303ZM42.8906 18.2812C42.8906 18.6687 42.5749 18.9844 42.1875 18.9844H18.9844C18.597 18.9844 18.2812 18.6687 18.2812 18.2812V16.875C18.2812 16.4876 18.597 16.1719 18.9844 16.1719H42.1875C42.5749 16.1719 42.8906 16.4876 42.8906 16.875V18.2812Z" fill="#205B59"/>
<path d="M42.1875 8.4375C43.3505 8.4375 44.2969 7.49109 44.2969 6.32812C44.2969 5.16516 43.3505 4.21875 42.1875 4.21875C41.0245 4.21875 40.0781 5.16516 40.0781 6.32812C40.0781 7.49109 41.0245 8.4375 42.1875 8.4375ZM42.1875 5.625C42.5749 5.625 42.8906 5.9407 42.8906 6.32812C42.8906 6.71555 42.5749 7.03125 42.1875 7.03125C41.8001 7.03125 41.4844 6.71555 41.4844 6.32812C41.4844 5.9407 41.8001 5.625 42.1875 5.625Z" fill="#205B59"/>
<path d="M26.7188 7.03125C27.8817 7.03125 28.8281 6.08484 28.8281 4.92188C28.8281 3.75891 27.8817 2.8125 26.7188 2.8125C25.5558 2.8125 24.6094 3.75891 24.6094 4.92188C24.6094 6.08484 25.5558 7.03125 26.7188 7.03125ZM26.7188 4.21875C27.1062 4.21875 27.4219 4.53445 27.4219 4.92188C27.4219 5.3093 27.1062 5.625 26.7188 5.625C26.3313 5.625 26.0156 5.3093 26.0156 4.92188C26.0156 4.53445 26.3313 4.21875 26.7188 4.21875Z" fill="#205B59"/>
<path d="M36.5625 6.32812C38.1136 6.32812 39.375 5.06672 39.375 3.51562C39.375 1.96453 38.1136 0.703125 36.5625 0.703125C35.0114 0.703125 33.75 1.96453 33.75 3.51562C33.75 5.06672 35.0114 6.32812 36.5625 6.32812ZM36.5625 2.10938C37.338 2.10938 37.9688 2.74008 37.9688 3.51562C37.9688 4.29117 37.338 4.92188 36.5625 4.92188C35.787 4.92188 35.1562 4.29117 35.1562 3.51562C35.1562 2.74008 35.787 2.10938 36.5625 2.10938Z" fill="#205B59"/>
<path d="M31.6406 37.2656H33.0469V38.6719H31.6406V37.2656Z" fill="#205B59"/>
<path d="M24.6094 21.7969H26.0156V23.2031H24.6094V21.7969Z" fill="#205B59"/>
<path d="M21.7969 21.7969H23.2031V23.2031H21.7969V21.7969Z" fill="#205B59"/>
<path d="M27.4219 21.7969H28.8281V23.2031H27.4219V21.7969Z" fill="#205B59"/>
<path d="M4.21875 25.3125C5.38172 25.3125 6.32812 24.3661 6.32812 23.2031C6.32812 22.0402 5.38172 21.0938 4.21875 21.0938C3.05578 21.0938 2.10938 22.0402 2.10938 23.2031C2.10938 24.3661 3.05578 25.3125 4.21875 25.3125ZM4.21875 22.5C4.60617 22.5 4.92188 22.8157 4.92188 23.2031C4.92188 23.5905 4.60617 23.9062 4.21875 23.9062C3.83133 23.9062 3.51562 23.5905 3.51562 23.2031C3.51562 22.8157 3.83133 22.5 4.21875 22.5Z" fill="#205B59"/>
<path d="M8.4375 16.875C9.98859 16.875 11.25 15.6136 11.25 14.0625C11.25 12.5114 9.98859 11.25 8.4375 11.25C6.88641 11.25 5.625 12.5114 5.625 14.0625C5.625 15.6136 6.88641 16.875 8.4375 16.875ZM8.4375 12.6562C9.21305 12.6562 9.84375 13.287 9.84375 14.0625C9.84375 14.838 9.21305 15.4688 8.4375 15.4688C7.66195 15.4688 7.03125 14.838 7.03125 14.0625C7.03125 13.287 7.66195 12.6562 8.4375 12.6562Z" fill="#205B59"/>
<path d="M4.21875 9.14062C5.38172 9.14062 6.32812 8.19422 6.32812 7.03125C6.32812 5.86828 5.38172 4.92188 4.21875 4.92188C3.05578 4.92188 2.10938 5.86828 2.10938 7.03125C2.10938 8.19422 3.05578 9.14062 4.21875 9.14062ZM4.21875 6.32812C4.60617 6.32812 4.92188 6.64383 4.92188 7.03125C4.92188 7.41867 4.60617 7.73438 4.21875 7.73438C3.83133 7.73438 3.51562 7.41867 3.51562 7.03125C3.51562 6.64383 3.83133 6.32812 4.21875 6.32812Z" fill="#205B59"/>
</svg>
