<svg width="45" height="45" viewBox="0 0 45 45" fill="none" xmlns="http://www.w3.org/2000/svg">
<path d="M41.4903 23.2496H40.8805C40.7934 22.6299 40.5139 22.0325 40.0402 21.5569C39.633 21.1482 39.1209 20.8695 38.5649 20.7482C38.3802 20.2519 38.0909 19.7992 37.7142 19.4209C37.0135 18.7175 36.0819 18.3302 35.0908 18.3302C34.9517 18.3302 34.8139 18.3387 34.6775 18.3538C34.1677 16.9051 32.7896 15.8643 31.1733 15.8643C29.7129 15.8643 28.4473 16.7145 27.8407 17.9473C27.3634 16.9601 26.3556 16.2778 25.1921 16.2778C23.5818 16.2778 22.2694 17.5845 22.2495 19.1984C21.1609 19.4496 20.3027 20.3099 20.0459 21.4014H13.8005V15.8202C13.8005 15.4561 13.5054 15.161 13.1413 15.161C12.7773 15.161 12.4822 15.4561 12.4822 15.8202V34.4439H12.1245V7.37112H12.4822V12.8319C12.4822 13.1961 12.7773 13.4911 13.1413 13.4911C13.5054 13.4911 13.8005 13.1961 13.8005 12.8319V1.09863C13.8005 0.492803 13.3077 0 12.7019 0H11.9047C11.2989 0 10.8061 0.492803 10.8061 1.09863V21.4014H10.336C9.73014 21.4014 9.23733 21.8942 9.23733 22.5V26.0241C9.23733 26.63 9.73014 27.1228 10.336 27.1228H10.8061V34.4439H10.6942C10.0884 34.4439 9.59558 34.9368 9.59558 35.5425V37.7963H7.24881C6.64298 37.7963 6.15018 38.2891 6.15018 38.8949V40.1243H4.3326C3.27308 40.1243 2.41113 40.9863 2.41113 42.0457C2.41113 42.6945 2.73466 43.2686 3.22843 43.6168L2.97047 43.8747C2.71304 44.1323 2.71304 44.5496 2.97047 44.807C3.09914 44.9357 3.2678 45 3.43655 45C3.60521 45 3.77396 44.9357 3.90264 44.807L4.74252 43.9671H5.12897C4.95161 44.224 4.97675 44.5784 5.20535 44.807C5.33402 44.9357 5.50277 45 5.67144 45C5.84019 45 6.00885 44.9357 6.13752 44.807L6.9774 43.9671H7.36377C7.18649 44.2239 7.21163 44.5784 7.44015 44.8069C7.56891 44.9357 7.73757 45 7.90632 45C8.07498 45 8.24373 44.9357 8.3724 44.807L9.21229 43.9671H9.59865C9.42138 44.2239 9.44651 44.5784 9.67503 44.8069C9.80379 44.9357 9.97245 45 10.1412 45C10.3099 45 10.4786 44.9357 10.6073 44.807L11.4472 43.9671H11.7867V44.3408C11.7867 44.705 12.0818 45 12.4459 45C12.8099 45 13.105 44.705 13.105 44.3408V43.9671H13.4446L14.2845 44.807C14.4132 44.9357 14.5819 45 14.7505 45C14.9192 45 15.0879 44.9357 15.2167 44.8069C15.4452 44.5784 15.4704 44.2239 15.2931 43.9671H15.6795L16.5194 44.807C16.6481 44.9357 16.8168 45 16.9855 45C17.1542 45 17.3229 44.9357 17.4516 44.807C17.6802 44.5784 17.7053 44.224 17.528 43.9671H17.9143L18.7542 44.807C18.8829 44.9357 19.0516 45 19.2203 45C19.389 45 19.5577 44.9357 19.6864 44.807C19.915 44.5784 19.9401 44.224 19.7628 43.9671H20.1491L20.989 44.807C21.1177 44.9357 21.2864 45 21.4551 45C21.6238 45 21.7925 44.9357 21.9212 44.807C22.1786 44.5495 22.1786 44.1322 21.9212 43.8747L21.5379 43.4914C21.7142 43.3372 21.8621 43.1515 21.9728 42.9429H30.0586C30.4227 42.9429 30.7178 42.6478 30.7178 42.2837C30.7178 41.9196 30.4227 41.6246 30.0586 41.6246H22.1487C21.9561 40.7671 21.1891 40.1244 20.2743 40.1244H18.4565V38.895C18.4565 38.2892 17.9637 37.7964 17.3579 37.7964H15.0111V35.5426C15.0111 34.9369 14.5183 34.444 13.9125 34.444H13.8006V27.1229H39.3182L37.6352 36.246L29.4182 31.8686C29.3411 30.0017 27.7989 28.5064 25.9133 28.5064C23.9785 28.5064 22.4045 30.0804 22.4045 32.0151C22.4045 33.9499 23.9785 35.5239 25.9133 35.5239C26.5723 35.5239 27.1887 35.3402 27.716 35.0227L36.9532 39.9437L36.7031 41.2999C36.6728 41.4637 36.4796 41.6246 36.313 41.6246H33.5742C33.2102 41.6246 32.9151 41.9196 32.9151 42.2837C32.9151 42.6478 33.2102 42.9429 33.5742 42.9429H36.3129C37.1134 42.9429 37.8543 42.3262 37.9995 41.539L38.2317 40.2796C38.8227 40.2195 39.3484 39.8717 39.6316 39.3402C40.0962 38.4681 39.7647 37.3806 38.8927 36.9159L38.8559 36.8963L40.6588 27.1229H41.4903C42.0961 27.1229 42.5889 26.6301 42.5889 26.0242V24.3484C42.5889 23.7425 42.0961 23.2496 41.4903 23.2496ZM12.1245 1.31836H12.4823V6.05276H12.1245V1.31836ZM10.914 35.7622H13.6929V37.7962H10.914V35.7622ZM10.5559 22.7197H10.8063V23.9562H10.5559V22.7197ZM10.5559 25.8044V25.2746H10.8063V25.8044H10.5559ZM17.1383 39.1146V40.1242H17.1383H16.3477C15.9836 40.1242 15.6885 40.4192 15.6885 40.7834C15.6885 41.1475 15.9836 41.4425 16.3477 41.4425H20.2744C20.607 41.4425 20.8775 41.7131 20.8775 42.0456C20.8775 42.3781 20.6069 42.6487 20.2744 42.6487H4.3326C4.00002 42.6487 3.72949 42.3781 3.72949 42.0456C3.72949 41.7131 4.00011 41.4425 4.3326 41.4425H12.92C13.284 41.4425 13.5791 41.1475 13.5791 40.7834C13.5791 40.4192 13.284 40.1242 12.92 40.1242H7.46853V39.1146H17.1383ZM25.9133 34.2054C24.7055 34.2054 23.7228 33.2228 23.7228 32.015C23.7228 30.8073 24.7055 29.8247 25.9133 29.8247C26.7738 29.8247 27.5194 30.3239 27.8773 31.0475L27.1541 30.6623C26.8954 30.5245 26.6044 30.4517 26.3125 30.4517C25.6484 30.4517 25.042 30.8157 24.73 31.4014C24.5048 31.8239 24.4577 32.3087 24.5974 32.7666C24.7369 33.2244 25.0465 33.6005 25.469 33.8256L26.1549 34.1909C26.0754 34.1997 25.995 34.2054 25.9133 34.2054ZM38.4682 38.7202C38.3856 38.8752 38.2251 38.9714 38.0491 38.9714C37.9716 38.9714 37.8971 38.9526 37.8274 38.9155L26.0889 32.662C25.9772 32.6025 25.8953 32.503 25.8584 32.382C25.8215 32.261 25.834 32.1329 25.8935 32.0213C25.976 31.8662 26.1367 31.7701 26.3125 31.7701C26.3901 31.7701 26.4646 31.7888 26.5342 31.8259L38.2729 38.0793C38.5033 38.2021 38.591 38.4897 38.4682 38.7202ZM35.0909 19.6487C35.7288 19.6487 36.3288 19.8983 36.7802 20.3514C37.0942 20.6666 37.314 21.0617 37.4159 21.4938C37.4831 21.7782 37.7294 21.9846 38.0212 22.0007C38.4308 22.0234 38.8161 22.1962 39.1062 22.4874C39.3238 22.7058 39.4679 22.9702 39.5395 23.2497H36.8419C36.5451 22.2571 35.6282 21.5316 34.5447 21.5316H34.142C34.0212 21.0626 33.7729 20.6454 33.4387 20.316C33.8857 19.8856 34.4701 19.6487 35.0909 19.6487ZM31.1735 17.1826C32.1941 17.1826 33.0672 17.8272 33.4122 18.7324C33.0676 18.9083 32.7488 19.1387 32.4676 19.421C32.3956 19.4933 32.3285 19.5684 32.2638 19.645C32.0543 19.5906 31.8348 19.5614 31.6086 19.5614C31.0597 19.5614 30.5332 19.7364 30.0978 20.0465C29.7824 19.5957 29.3473 19.2431 28.8434 19.0288C29.0963 17.9711 30.0447 17.1826 31.1735 17.1826ZM22.7241 20.4535C22.7376 20.4519 22.8565 20.4424 22.9032 20.4422C22.9221 20.4435 22.9674 20.4448 22.9711 20.4449C23.3489 20.4594 23.7092 20.6043 23.9915 20.8594C24.2617 21.1036 24.6785 21.0826 24.9226 20.8123C25.1666 20.5422 25.1455 20.1255 24.8754 19.8813C24.5015 19.5433 24.0519 19.3106 23.5695 19.1991C23.5889 18.3121 24.3086 17.5961 25.1922 17.5961C26.088 17.5961 26.8168 18.3316 26.8168 19.2356C26.8168 19.29 26.814 19.3441 26.8084 19.4012C26.7889 19.5979 26.8588 19.793 26.9987 19.9326C27.1386 20.0724 27.3337 20.1421 27.5306 20.1219C27.5867 20.1162 27.64 20.1134 27.6935 20.1134C28.3709 20.1134 28.9633 20.533 29.2034 21.1562C29.0675 21.4738 28.9918 21.8235 28.9918 22.1906C28.9918 22.5548 29.2869 22.8498 29.651 22.8498C30.015 22.8498 30.3102 22.5548 30.3102 22.1906C30.3102 21.9373 30.3831 21.7017 30.507 21.501C30.514 21.4896 30.5638 21.4146 30.583 21.3896C30.827 21.0713 31.2059 20.8795 31.6085 20.8795C32.3244 20.8795 32.9069 21.4675 32.9069 22.1905C32.9069 22.5547 33.202 22.8497 33.5661 22.8497H34.5446C34.8805 22.8497 35.1801 23.0058 35.3782 23.2494H26.2305V22.5C26.2305 21.8942 25.7377 21.4014 25.1319 21.4014H21.4342C21.6659 20.8905 22.1487 20.5195 22.7241 20.4535ZM13.8007 22.7197H24.9123V23.9562H13.8007V22.7197ZM41.2706 25.8044H13.8007V25.2746H25.1321C25.5996 25.2746 25.9988 24.9805 26.1572 24.5681H41.2706V25.8044Z" fill="#205B59"/>
<path d="M31.0248 3.98071C28.6273 3.98071 26.6768 5.95772 26.6768 8.3879C26.6768 10.818 28.6272 12.7949 31.0248 12.7949C33.4225 12.7949 35.3731 10.818 35.3731 8.3879C35.3731 5.95781 33.4225 3.98071 31.0248 3.98071ZM31.0248 11.4766C29.3543 11.4766 27.9951 10.091 27.9951 8.38799C27.9951 6.68484 29.3542 5.29916 31.0248 5.29916C32.6955 5.29916 34.0547 6.68484 34.0547 8.38799C34.0547 10.091 32.6955 11.4766 31.0248 11.4766Z" fill="#205B59"/>
<path d="M37.5293 11.7219C36.0895 11.7219 34.918 12.9073 34.918 14.3644C34.918 15.8215 36.0895 17.0069 37.5293 17.0069C38.969 17.0069 40.1403 15.8215 40.1403 14.3644C40.1403 12.9074 38.969 11.7219 37.5293 11.7219ZM37.5293 15.6885C36.8164 15.6885 36.2363 15.0945 36.2363 14.3644C36.2363 13.6343 36.8164 13.0403 37.5293 13.0403C38.2421 13.0403 38.822 13.6343 38.822 14.3644C38.822 15.0946 38.2421 15.6885 37.5293 15.6885Z" fill="#205B59"/>
</svg>
