<svg width="45" height="45" viewBox="0 0 45 45" fill="none" xmlns="http://www.w3.org/2000/svg">
<path d="M26.4971 25.9798C26.5357 25.9924 30.3361 27.2925 30.9521 30.3729L32.3309 30.0966C31.5568 26.2259 27.1299 24.7085 26.9422 24.6459L26.4971 25.9798Z" fill="#205B59"/>
<path d="M21.7969 16.875L20.3913 16.8448C20.3906 16.856 20.2591 18.0289 17.8594 19.8281L18.7031 20.9531C21.6485 18.7446 21.7969 17.1682 21.7969 16.875Z" fill="#205B59"/>
<path d="M36.7637 5.83447L40.2787 2.31941L41.2729 3.31363L37.7579 6.82869L36.7637 5.83447Z" fill="#205B59"/>
<path d="M39.375 7.03125H43.5938V8.4375H39.375V7.03125Z" fill="#205B59"/>
<path d="M36.7627 9.64062L37.7569 8.64641L41.272 12.1615L40.2778 13.1557L36.7627 9.64062Z" fill="#205B59"/>
<path d="M1.05762 30.3272L1.75512 31.5478L6.1609 29.0306C6.7916 29.707 7.2641 30.0593 7.32598 30.1036C7.44762 30.1908 7.59106 30.2344 7.73449 30.2344C7.85754 30.2344 7.98199 30.202 8.09238 30.1366L21.9953 21.9213C21.4018 24.6888 21.0939 27.5231 21.0939 30.3546V39.375C21.0939 39.7631 21.4089 40.0781 21.797 40.0781H33.7501C34.0637 40.0781 34.34 39.87 34.4258 39.5684L35.4418 36.0127C35.7189 35.043 35.8595 34.0397 35.8595 33.0321C35.8595 30.1331 34.731 27.4085 32.6807 25.3589L29.5314 22.2089V20.2612C30.3477 19.9702 30.9376 19.1967 30.9376 18.2812C30.9376 17.7391 30.726 17.2491 30.3892 16.875C30.7267 16.5009 30.9376 16.0109 30.9376 15.4688C30.9376 15.0089 30.7857 14.5856 30.5347 14.239L31.5514 13.5612L32.5499 14.5596L33.5441 13.5654L33.0667 13.088L34.3625 12.8285C35.2295 12.6555 35.8595 11.887 35.8595 11.0025C35.8595 9.97664 35.0256 9.14203 33.9561 9.14203C33.9554 9.14203 33.9547 9.14203 33.954 9.14203L33.7909 9.15187L33.9203 9.11953C34.2339 9.04148 34.4532 8.76023 34.4532 8.4375V7.03125C34.4532 6.70852 34.2332 6.42727 33.921 6.34922L31.1085 5.64609L31.105 5.65875C31.0501 5.64469 30.9967 5.625 30.9376 5.625H22.5001C22.112 5.625 21.797 5.94 21.797 6.32812V9.84375C21.797 10.1102 21.9475 10.3535 22.1858 10.473L22.536 10.6481L16.6072 14.798L2.70855 16.8827C2.36402 16.9341 2.10949 17.2301 2.10949 17.5781C2.10949 17.8545 2.12848 18.1111 2.13832 18.3769L1.29949 18.5055L1.51324 19.8956L2.23535 19.7845C2.63684 23.618 4.01918 26.2765 5.25035 27.9316L1.05762 30.3272ZM22.5001 38.6719V37.2656H33.6214L33.2193 38.6719H22.5001ZM31.6864 26.3524C33.471 28.137 34.4532 30.5086 34.4532 33.0321C34.4532 33.9096 34.3309 34.7829 34.0897 35.6266L34.0236 35.8594H22.5001V30.3546C22.5001 27.5259 22.8109 24.6923 23.4247 21.9319L25.1734 14.0625H26.5642C26.2267 14.4366 26.0157 14.9266 26.0157 15.4688C26.0157 16.0109 26.2274 16.5009 26.5642 16.875C26.2267 17.2491 26.0157 17.7391 26.0157 18.2812C26.0157 19.4442 26.9621 20.3906 28.1251 20.3906V22.5C28.1251 22.6863 28.1989 22.8656 28.3311 22.9971L31.6864 26.3524ZM29.5314 15.4688C29.5314 15.8562 29.2157 16.1719 28.8282 16.1719H28.1251C27.7377 16.1719 27.422 15.8562 27.422 15.4688C27.422 15.0813 27.7377 14.7656 28.1251 14.7656H28.8282C29.2157 14.7656 29.5314 15.0813 29.5314 15.4688ZM28.8282 18.9844H28.1251C27.7377 18.9844 27.422 18.6687 27.422 18.2812C27.422 17.8938 27.7377 17.5781 28.1251 17.5781H28.8282C29.2157 17.5781 29.5314 17.8938 29.5314 18.2812C29.5314 18.6687 29.2157 18.9844 28.8282 18.9844ZM29.2536 13.4023C29.1165 13.3741 28.9738 13.3594 28.8282 13.3594H28.2798C28.6173 12.9853 28.8282 12.4952 28.8282 11.9531C28.8282 11.5622 28.7143 11.2008 28.5287 10.8865L28.8564 10.8661L30.5368 12.5466L29.2536 13.4023ZM33.9976 10.5469C34.2486 10.5469 34.4532 10.7515 34.4532 11.0025C34.4532 11.2191 34.2993 11.4075 34.0869 11.4497L31.8721 11.8927L30.7288 10.7494L33.9976 10.5469ZM33.047 7.88836L31.6407 8.23992V7.22883L33.047 7.58039V7.88836ZM23.2032 7.03125H30.2345V8.66461L27.1632 9.89297C27.0198 9.86203 26.8714 9.84375 26.7189 9.84375H24.0723L23.2032 9.40922V7.03125ZM16.9792 16.1641C17.0868 16.148 17.1887 16.1072 17.278 16.0453L24.1279 11.25H26.7189C27.1063 11.25 27.422 11.5657 27.422 11.9531C27.422 12.3405 27.1063 12.6562 26.7189 12.6562H23.9064C23.6399 12.6562 23.3966 12.8067 23.2771 13.0451L21.8708 15.8576L23.1287 16.4869L23.2461 16.2513L22.4024 20.0468L7.8041 28.6734C6.76699 27.7334 3.71121 24.442 3.52488 18.1828L16.9792 16.1641Z" fill="#205B59"/>
</svg>
