<?xml version="1.0" standalone="no"?>
<!DOCTYPE svg PUBLIC "-//W3C//DTD SVG 20010904//EN"
 "http://www.w3.org/TR/2001/REC-SVG-20010904/DTD/svg10.dtd">
<svg version="1.0" xmlns="http://www.w3.org/2000/svg"
 width="327.000000pt" height="327.000000pt" viewBox="0 0 327.000000 327.000000"
 preserveAspectRatio="xMidYMid meet">
<metadata>
Created by potrace 1.11, written by Peter Selinger 2001-2013
</metadata>
<g transform="translate(0.000000,327.000000) scale(0.100000,-0.100000)"
fill="#000000" stroke="none">
<path d="M1609 3239 c-7 -13 -10 -76 -10 -171 2 -146 1 -149 -19 -143 -11 4
-20 2 -20 -4 0 -6 -8 -11 -18 -11 -24 0 -42 -19 -42 -46 0 -28 17 -42 60 -46
l35 -3 3 -280 c3 -271 0 -326 -16 -324 -21 4 -33 -4 -46 -28 -13 -25 -12 -29
7 -45 11 -10 28 -18 38 -18 15 0 17 -10 17 -80 l0 -79 -39 31 c-21 17 -36 36
-32 42 3 6 3 8 -2 4 -4 -4 -13 -1 -21 6 -21 21 -65 128 -59 143 3 9 0 11 -7 7
-8 -5 -9 -2 -5 10 4 10 3 15 -3 11 -10 -6 -15 15 -10 45 1 8 -2 12 -6 8 -9
-10 -64 119 -58 136 3 7 22 20 43 29 34 15 37 20 33 48 -6 42 -37 55 -85 35
-26 -10 -39 -12 -43 -4 -5 7 -2 8 7 4 8 -4 6 -1 -3 7 -10 8 -15 17 -11 20 3 4
2 7 -4 7 -10 0 -26 39 -27 65 -1 6 -7 16 -14 24 -7 7 -11 20 -8 28 3 8 1 11
-4 8 -9 -6 -14 11 -13 43 1 7 -2 11 -5 8 -8 -9 -33 54 -26 65 3 5 1 9 -4 9
-12 0 -34 49 -27 61 4 5 2 9 -3 9 -5 0 -9 7 -9 15 0 14 4 16 34 19 33 3 56 73
31 94 -15 11 -79 22 -73 11 3 -4 -6 -9 -20 -11 -13 -3 -22 -1 -19 3 3 5 1 9
-4 9 -9 0 -25 40 -26 65 -1 6 -7 16 -14 24 -7 7 -10 23 -7 35 2 11 2 15 -1 9
-3 -7 -16 -13 -30 -13 -16 0 -25 -7 -29 -22 -6 -25 12 -70 265 -678 84 -201
158 -379 165 -397 l13 -31 -261 -219 c-143 -120 -267 -222 -274 -226 -9 -6
-53 14 -130 58 -64 36 -122 65 -129 63 -7 -2 -141 -77 -298 -168 -281 -162
-286 -165 -286 -197 0 -17 5 -35 10 -38 9 -5 103 46 513 282 33 18 63 33 68
33 5 0 56 -27 113 -60 57 -33 111 -63 120 -66 10 -4 77 46 203 153 356 301
397 334 414 331 10 -2 131 -98 268 -215 l250 -212 83 69 c45 39 85 70 88 70 3
0 45 -34 94 -76 58 -49 96 -74 107 -71 10 3 154 84 322 181 167 97 312 176
323 176 10 0 57 -23 104 -50 l85 -50 8 23 c14 44 -7 71 -95 121 -45 26 -92 49
-104 52 -11 3 -28 20 -38 38 -46 86 -153 167 -291 220 -204 78 -334 93 -533
60 -135 -23 -337 -22 -422 3 l-65 18 -3 73 c-2 57 0 72 11 72 8 0 27 10 42 22
25 20 27 25 23 84 -3 47 -13 81 -41 136 -33 66 -37 81 -37 151 0 42 3 77 8 77
15 0 102 -91 140 -147 22 -32 50 -68 64 -80 85 -79 327 -107 440 -50 64 33 90
84 86 169 -3 55 -9 75 -34 110 -81 116 -307 200 -576 214 l-128 7 0 43 c0 23
-3 49 -6 58 -9 23 -51 20 -65 -5z"/>
<path d="M1498 3243 c7 -3 16 -2 19 1 4 3 -2 6 -13 5 -11 0 -14 -3 -6 -6z"/>
<path d="M2563 2792 c-7 -5 -24 -36 -37 -69 -33 -86 -69 -128 -133 -160 -60
-29 -105 -32 -308 -23 -82 4 -106 2 -132 -13 -67 -36 -50 -97 40 -144 58 -31
98 -33 347 -19 174 10 276 -10 425 -84 98 -48 128 -69 255 -177 66 -57 104
-67 133 -35 35 39 15 93 -95 257 -34 50 -89 124 -122 165 -85 104 -254 279
-288 296 -30 15 -66 18 -85 6z"/>
<path d="M694 2526 c-3 -8 -4 -25 -2 -38 2 -19 9 -23 38 -23 33 0 35 2 35 35
0 32 -3 35 -33 38 -21 2 -34 -2 -38 -12z"/>
<path d="M1101 2113 c-37 -25 -21 -73 25 -73 29 0 48 24 40 54 -7 29 -38 39
-65 19z"/>
<path d="M552 2068 c-26 -26 -7 -78 28 -78 19 0 50 30 50 48 0 32 -54 54 -78
30z"/>
</g>
</svg>
