<svg width="129" height="63" viewBox="0 0 129 63" fill="none" xmlns="http://www.w3.org/2000/svg">
<path fill-rule="evenodd" clip-rule="evenodd" d="M2.31121 27.22C2.23325 20.1575 -4.1829 11.6782 4.7096 6.59315C13.7616 1.41687 29.7808 5.4073 42.6285 4.16506C52.9003 3.17188 61.8561 -0.532547 72.2283 0.0647774C84.2831 0.759003 95.7044 3.36159 104.846 7.74809C115.849 13.0278 127.47 19.2137 128.819 27.22C130.205 35.4419 123.525 44.3122 111.885 49.5105C101.001 54.3708 84.7027 50.552 71.3495 52.8845C58.1627 55.1879 48.8744 63.9885 35.1806 62.9086C21.3745 61.8199 11.4758 54.5195 5.16295 47.6652C-0.591289 41.4174 2.38854 34.2265 2.31121 27.22Z" fill="#6C63FF"/>
<path d="M11.8877 22.916V26.4072H15.7764C16.471 26.4072 17.0332 26.2783 17.4629 26.0205C17.8997 25.7555 18.1182 25.29 18.1182 24.624C18.1182 23.8864 17.8317 23.3994 17.2588 23.1631C16.7646 22.9984 16.1344 22.916 15.3682 22.916H11.8877ZM11.8877 29.0283V33.25H15.7764C16.471 33.25 17.0117 33.1569 17.3984 32.9707C18.1003 32.627 18.4512 31.9681 18.4512 30.9941C18.4512 30.1706 18.111 29.6048 17.4307 29.2969C17.0511 29.125 16.5176 29.0355 15.8301 29.0283H11.8877ZM16.4209 20.166C18.3617 20.1947 19.7367 20.7568 20.5459 21.8525C21.0329 22.5257 21.2764 23.3314 21.2764 24.2695C21.2764 25.2363 21.0329 26.0133 20.5459 26.6006C20.2738 26.93 19.8727 27.2308 19.3428 27.5029C20.152 27.7965 20.7607 28.262 21.1689 28.8994C21.5843 29.5368 21.792 30.3102 21.792 31.2197C21.792 32.1579 21.5557 32.9993 21.083 33.7441C20.7822 34.2383 20.4062 34.6536 19.9551 34.9902C19.4466 35.377 18.8451 35.6419 18.1504 35.7852C17.4629 35.9284 16.7145 36 15.9053 36H8.72949V20.166H16.4209ZM27.6035 36H24.3164V20.166H27.6035V36ZM42.2021 20.166V22.9697H37.4648V36H34.1348V22.9697H29.376V20.166H42.2021ZM44.6514 32.2617C44.7158 32.806 44.8555 33.1927 45.0703 33.4219C45.4499 33.8301 46.1517 34.0342 47.1758 34.0342C47.7773 34.0342 48.2536 33.9447 48.6045 33.7656C48.9626 33.5866 49.1416 33.318 49.1416 32.96C49.1416 32.6162 48.9984 32.3548 48.7119 32.1758C48.4255 31.9967 47.362 31.6888 45.5215 31.252C44.1966 30.9225 43.262 30.5107 42.7178 30.0166C42.1735 29.5296 41.9014 28.8278 41.9014 27.9111C41.9014 26.8298 42.3239 25.9023 43.1689 25.1289C44.0212 24.3483 45.2171 23.958 46.7568 23.958C48.2178 23.958 49.4066 24.2516 50.3232 24.8389C51.2471 25.4189 51.777 26.4251 51.9131 27.8574H48.8516C48.8086 27.4635 48.6976 27.152 48.5186 26.9229C48.182 26.5075 47.609 26.2998 46.7998 26.2998C46.1338 26.2998 45.6576 26.4036 45.3711 26.6113C45.0918 26.819 44.9521 27.0625 44.9521 27.3418C44.9521 27.6927 45.1025 27.9469 45.4033 28.1045C45.7041 28.2692 46.7676 28.5521 48.5938 28.9531C49.8112 29.2396 50.7243 29.6729 51.333 30.2529C51.9346 30.8402 52.2354 31.5742 52.2354 32.4551C52.2354 33.6152 51.8021 34.5641 50.9355 35.3018C50.0762 36.0322 48.7441 36.3975 46.9395 36.3975C45.099 36.3975 43.7383 36.0107 42.8574 35.2373C41.9837 34.4567 41.5469 33.4648 41.5469 32.2617H44.6514ZM59.1318 26.5039C58.4229 26.5039 57.8714 26.7259 57.4775 27.1699C57.0908 27.6139 56.8473 28.2155 56.7471 28.9746H61.5059C61.4557 28.1654 61.2087 27.5531 60.7646 27.1377C60.3278 26.7152 59.7835 26.5039 59.1318 26.5039ZM59.1318 23.9795C60.1058 23.9795 60.9831 24.1621 61.7637 24.5273C62.5443 24.8926 63.1888 25.4691 63.6973 26.2568C64.1556 26.9515 64.4528 27.7572 64.5889 28.6738C64.6676 29.2109 64.6999 29.9844 64.6855 30.9941H56.6719C56.7148 32.1686 57.0837 32.9922 57.7783 33.4648C58.2008 33.7585 58.7093 33.9053 59.3037 33.9053C59.9339 33.9053 60.446 33.7262 60.8398 33.3682C61.0547 33.1748 61.2445 32.9062 61.4092 32.5625H64.5352C64.4564 33.2572 64.0947 33.9626 63.4502 34.6787C62.4476 35.8174 61.0439 36.3867 59.2393 36.3867C57.7497 36.3867 56.4355 35.9069 55.2969 34.9473C54.1582 33.9876 53.5889 32.4264 53.5889 30.2637C53.5889 28.237 54.1009 26.6829 55.125 25.6016C56.1562 24.5202 57.4919 23.9795 59.1318 23.9795ZM73.1182 24.0117C73.1755 24.0117 73.222 24.0153 73.2578 24.0225C73.3008 24.0225 73.3903 24.026 73.5264 24.0332V27.1699C73.333 27.1484 73.1611 27.1341 73.0107 27.127C72.8604 27.1198 72.7386 27.1162 72.6455 27.1162C71.4137 27.1162 70.5866 27.5173 70.1641 28.3193C69.9277 28.7705 69.8096 29.4652 69.8096 30.4033V36H66.7266V24.291H69.6484V26.332C70.1211 25.5514 70.5329 25.0179 70.8838 24.7314C71.4567 24.2516 72.2015 24.0117 73.1182 24.0117ZM82.5498 24.291H85.8369L81.6152 36H78.3818L74.1816 24.291H77.6191L80.0576 32.9277L82.5498 24.291ZM90.7246 22.8945H87.6201V20.0693H90.7246V22.8945ZM87.6201 24.291H90.7246V36H87.6201V24.291ZM100.693 28.4912C100.636 28.0544 100.489 27.6605 100.253 27.3096C99.9092 26.8369 99.3757 26.6006 98.6523 26.6006C97.6211 26.6006 96.9157 27.1126 96.5361 28.1367C96.3356 28.681 96.2354 29.4043 96.2354 30.3066C96.2354 31.166 96.3356 31.8571 96.5361 32.3799C96.9014 33.3538 97.5889 33.8408 98.5986 33.8408C99.3148 33.8408 99.8232 33.6475 100.124 33.2607C100.425 32.874 100.607 32.3727 100.672 31.7568H103.798C103.726 32.6878 103.39 33.5687 102.788 34.3994C101.828 35.7386 100.407 36.4082 98.5234 36.4082C96.64 36.4082 95.2542 35.8496 94.3662 34.7324C93.4782 33.6152 93.0342 32.165 93.0342 30.3818C93.0342 28.3695 93.5247 26.8047 94.5059 25.6875C95.487 24.5703 96.8405 24.0117 98.5664 24.0117C100.035 24.0117 101.234 24.3411 102.165 25C103.103 25.6589 103.658 26.8226 103.83 28.4912H100.693ZM110.565 26.5039C109.856 26.5039 109.305 26.7259 108.911 27.1699C108.524 27.6139 108.281 28.2155 108.181 28.9746H112.939C112.889 28.1654 112.642 27.5531 112.198 27.1377C111.761 26.7152 111.217 26.5039 110.565 26.5039ZM110.565 23.9795C111.539 23.9795 112.417 24.1621 113.197 24.5273C113.978 24.8926 114.622 25.4691 115.131 26.2568C115.589 26.9515 115.886 27.7572 116.022 28.6738C116.101 29.2109 116.133 29.9844 116.119 30.9941H108.105C108.148 32.1686 108.517 32.9922 109.212 33.4648C109.634 33.7585 110.143 33.9053 110.737 33.9053C111.368 33.9053 111.88 33.7262 112.273 33.3682C112.488 33.1748 112.678 32.9062 112.843 32.5625H115.969C115.89 33.2572 115.528 33.9626 114.884 34.6787C113.881 35.8174 112.478 36.3867 110.673 36.3867C109.183 36.3867 107.869 35.9069 106.73 34.9473C105.592 33.9876 105.022 32.4264 105.022 30.2637C105.022 28.237 105.535 26.6829 106.559 25.6016C107.59 24.5202 108.925 23.9795 110.565 23.9795ZM118.139 32.7988H121.394V36H118.139V32.7988Z" fill="white"/>
</svg>
