<svg width="60" height="60" viewBox="0 0 60 60" fill="none" xmlns="http://www.w3.org/2000/svg">
<g clip-path="url(#clip0)">
<path d="M58.3059 28.2967C54.9432 25.9378 50.1884 25.443 46.7918 25.443H46.0475L34.2106 19.9191C32.7361 19.2307 31.0964 18.8672 29.4695 18.8672H19.0206C18.0053 18.8672 17.0174 19.07 16.084 19.4696L5.23637 24.1187C4.64082 24.3741 4.01048 24.5036 3.36228 24.5036H2.64039C1.12015 24.5032 -0.117188 25.7405 -0.117188 27.2612V33.2277C-0.117188 34.5447 0.82123 35.6832 2.11396 35.9345L5.59205 36.6111C6.02189 39.2615 8.32536 41.2917 11.0948 41.2917C13.1667 41.2917 14.9767 40.1551 15.938 38.4733H45.7064C46.6677 40.1551 48.4777 41.2917 50.5496 41.2917C52.621 41.2917 54.4314 40.1551 55.3927 38.4733H57.1254C58.6456 38.4733 59.8829 37.2364 59.8829 35.7157V31.328C59.8829 30.1227 59.2933 28.9893 58.3059 28.2967V28.2967ZM33.4672 21.5122L41.891 25.443H29.3477L25.2178 20.625H29.4691C30.8414 20.625 32.2239 20.9317 33.4672 21.5122ZM22.9029 20.625L27.0328 25.443H25.5428C24.9761 25.443 24.4391 25.1962 24.0702 24.7655L20.5211 20.625H22.9029ZM16.5793 36.7154C16.6384 36.3909 16.6709 36.0572 16.6709 35.7157C16.6709 35.3412 16.6333 34.9663 16.5592 34.6015C16.4626 34.1259 15.9989 33.8187 15.5233 33.9148C15.0472 34.0114 14.74 34.4756 14.8366 34.9512C14.8874 35.2007 14.9131 35.458 14.9131 35.7157C14.9131 37.8209 13.2001 39.5334 11.0948 39.5334C8.98958 39.5334 7.27708 37.8209 7.27708 35.7157C7.27708 33.6104 8.98958 31.8975 11.0948 31.8975C11.6281 31.8975 12.1431 32.005 12.6265 32.217C13.0706 32.4115 13.5892 32.2092 13.7842 31.7647C13.9792 31.3202 13.7769 30.802 13.3324 30.607C12.6251 30.2971 11.8721 30.1396 11.0948 30.1396C8.32536 30.1396 6.02189 32.1698 5.59205 34.8203L2.4495 34.2092C1.98075 34.1181 1.64017 33.7052 1.64017 33.2277V30.0188H2.64039C3.12562 30.0188 3.51929 29.6251 3.51929 29.1399C3.51929 28.6547 3.12562 28.261 2.64039 28.261H1.64063V27.2612C1.64063 26.7096 2.08924 26.2615 2.64039 26.2615H3.36228C4.24989 26.2615 5.11323 26.0839 5.92897 25.7346L16.7762 21.0855C17.2518 20.8818 17.7457 20.7468 18.2515 20.6781L22.7358 25.9094C23.4389 26.7302 24.462 27.2008 25.5428 27.2008H46.7918C49.1406 27.2008 53.3314 27.4759 56.4364 29.2003H56.186C55.7003 29.2003 55.3071 29.594 55.3071 30.0792C55.3071 30.5649 55.7003 30.9581 56.186 30.9581H58.089C58.1123 31.079 58.1251 31.2026 58.1251 31.328V32.9581H55.3927C54.4314 31.2763 52.6214 30.1401 50.5496 30.1401C48.4777 30.1401 46.6677 31.2763 45.7064 32.9581H43.9742C43.4886 32.9581 43.0953 33.3513 43.0953 33.837C43.0953 34.3222 43.4886 34.7159 43.9742 34.7159H45.0651C45.006 35.0405 44.9735 35.3742 44.9735 35.7157C44.9735 36.0572 45.006 36.3909 45.0651 36.7154H16.5793ZM50.5496 39.5334C48.4443 39.5334 46.7314 37.8209 46.7314 35.7157C46.7314 33.6104 48.4443 31.8975 50.5496 31.8975C52.6548 31.8975 54.3678 33.6104 54.3678 35.7157C54.3678 37.8209 52.6548 39.5334 50.5496 39.5334ZM57.1254 36.7154H56.034C56.0931 36.3909 56.1256 36.0572 56.1256 35.7157C56.1256 35.3742 56.0931 35.0405 56.034 34.7159H58.1251V35.7157C58.1251 36.2668 57.6765 36.7154 57.1254 36.7154Z" fill="#205B59"/>
<path d="M40.2168 32.958H28.444L26.4532 30.3034C25.935 29.6126 25.1101 29.2002 24.2468 29.2002H20.4894C20.1562 29.2002 19.8522 29.3883 19.7034 29.6863C19.5542 29.9839 19.5863 30.3405 19.7863 30.6064L22.0408 33.6126C22.5585 34.3033 23.3834 34.7158 24.2468 34.7158H40.2168C40.702 34.7158 41.0957 34.3221 41.0957 33.8369C41.0957 33.3512 40.702 32.958 40.2168 32.958ZM24.2468 32.958C23.9336 32.958 23.6347 32.8083 23.447 32.5579L22.2472 30.958H24.2468C24.5599 30.958 24.8588 31.1077 25.0469 31.3581L26.2467 32.958H24.2468Z" fill="#205B59"/>
<path d="M11.0946 33.8975C10.0921 33.8975 9.27637 34.7132 9.27637 35.7157C9.27637 36.7182 10.0921 37.5339 11.0946 37.5339C12.0976 37.5339 12.9128 36.7182 12.9128 35.7157C12.9128 34.7132 12.0976 33.8975 11.0946 33.8975Z" fill="#205B59"/>
<path d="M50.5497 33.8975C49.5472 33.8975 48.7314 34.7132 48.7314 35.7157C48.7314 36.7182 49.5472 37.5339 50.5497 37.5339C51.5522 37.5339 52.3679 36.7182 52.3679 35.7157C52.3679 34.7132 51.5522 33.8975 50.5497 33.8975Z" fill="#205B59"/>
</g>
<defs>
<clipPath id="clip0">
<rect width="60" height="60" fill="white"/>
</clipPath>
</defs>
</svg>
