<svg width="45" height="45" viewBox="0 0 45 45" fill="none" xmlns="http://www.w3.org/2000/svg">
<g clip-path="url(#clip0)">
<path d="M15.166 34.4444C15.1546 34.3881 15.1379 34.3328 15.1159 34.2791C15.0939 34.2264 15.0667 34.1754 15.0351 34.128C15.0034 34.0796 14.9665 34.0348 14.9261 33.9944C14.8856 33.954 14.8408 33.917 14.7925 33.8854C14.745 33.8538 14.694 33.8265 14.6404 33.8045C14.5877 33.7826 14.5323 33.765 14.4761 33.7544C14.3627 33.7316 14.2458 33.7316 14.1333 33.7544C14.0771 33.765 14.0217 33.7826 13.9681 33.8045C13.9153 33.8265 13.8644 33.8538 13.8169 33.8854C13.7686 33.917 13.7237 33.954 13.6833 33.9944C13.6429 34.0348 13.606 34.0796 13.5743 34.128C13.5418 34.1754 13.5154 34.2264 13.4935 34.2791C13.4715 34.3328 13.4539 34.3881 13.4434 34.4444C13.4319 34.5006 13.4258 34.5586 13.4258 34.6158C13.4258 34.6729 13.4319 34.7309 13.4434 34.7872C13.4539 34.8434 13.4715 34.8988 13.4935 34.9515C13.5154 35.0051 13.5418 35.0561 13.5743 35.1036C13.606 35.1519 13.6429 35.1967 13.6833 35.2372C13.7237 35.2776 13.7686 35.3145 13.8169 35.3461C13.8644 35.3779 13.9153 35.4051 13.9681 35.4271C14.0217 35.4491 14.0771 35.4666 14.1333 35.4772C14.1896 35.4886 14.2476 35.4948 14.3047 35.4948C14.3618 35.4948 14.4198 35.4886 14.4761 35.4772C14.5323 35.4666 14.5877 35.4491 14.6404 35.4271C14.694 35.4051 14.745 35.3778 14.7925 35.3461C14.8408 35.3145 14.8856 35.2776 14.9261 35.2372C14.9665 35.1967 15.0034 35.1519 15.0351 35.1036C15.0667 35.0561 15.0939 35.0051 15.1159 34.9515C15.1379 34.8988 15.1546 34.8434 15.166 34.7872C15.1774 34.7309 15.1836 34.6729 15.1836 34.6158C15.1836 34.5586 15.1774 34.5006 15.166 34.4444Z" fill="#205B59"/>
<path d="M40.4291 34.7152C40.4256 34.7064 40.4221 34.6977 40.4184 34.6891C39.6095 32.7962 37.7123 32.0966 35.467 32.8635L29.3439 34.5568C28.9898 33.4847 28.1068 32.5724 26.8582 32.109C26.8505 32.1062 26.8428 32.1034 26.8349 32.1008L20.1042 29.8163C19.544 29.0922 17.7892 27.2393 14.5035 27.2393C12.2074 27.2393 10.1762 28.8144 9.01406 30.5314H0.878906C0.393486 30.5314 0 30.9249 0 31.4103V42.4913C0 42.9767 0.393486 43.3702 0.878906 43.3702H6.10462C6.59004 43.3702 6.98353 42.9767 6.98353 42.4913V41.7324H9.43418C9.9196 41.7324 10.3131 41.3389 10.3131 40.8535V40.6006C11.7417 40.7252 12.2115 40.9962 13.5236 41.7527C14.5325 42.3346 16.0575 43.2139 18.8038 44.4487C18.8165 44.4544 18.8294 44.4598 18.8423 44.4649C19.3694 44.6723 20.3998 44.998 21.67 44.998C22.5542 44.998 23.5549 44.8401 24.582 44.3745L38.1163 39.5286C38.1404 39.52 38.1641 39.5103 38.1873 39.4996C39.4808 38.9045 41.4084 37.2272 40.4291 34.7152ZM5.22571 41.6123H1.75781V32.2891H5.22571V41.6123ZM8.55527 39.9745H6.98353V32.2891H8.55527V39.9745ZM37.485 37.8874L23.9567 42.7311C23.9448 42.7353 23.9287 42.7417 23.9171 42.7464C23.9052 42.7513 23.8933 42.7563 23.8816 42.7617C21.9975 43.6276 20.2066 43.1092 19.5047 42.8363C16.852 41.6427 15.4361 40.8263 14.4017 40.2298C12.9634 39.4004 12.2704 39.0007 10.3131 38.8391V31.7602C11.1462 30.3947 12.7618 28.997 14.5036 28.997C17.4907 28.997 18.7564 30.9398 18.8061 31.0182C18.9134 31.1928 19.0784 31.3243 19.2724 31.3902L26.2575 33.7609C27.3731 34.1796 27.9627 35.135 27.6917 36.0877C27.5666 36.5277 27.2776 36.8926 26.8781 37.1153C26.482 37.336 26.0241 37.3905 25.5876 37.2698L17.7132 34.7744C17.2502 34.6277 16.7564 34.884 16.6098 35.3467C16.4631 35.8095 16.7194 36.3034 17.1822 36.4501L25.0703 38.9498C25.0786 38.9524 25.087 38.955 25.0954 38.9574C25.4103 39.0469 25.7309 39.0912 26.0496 39.0912C26.6331 39.0912 27.2101 38.9426 27.7337 38.6508C28.5434 38.1997 29.129 37.4601 29.3825 36.5685C29.4027 36.4973 29.4206 36.4261 29.4362 36.3549L36.0352 34.5268C36.9883 34.2013 38.2395 34.0839 38.7965 35.3669C39.3731 36.873 37.8745 37.7016 37.485 37.8874Z" fill="#205B59"/>
<path d="M31.5575 11.5616C31.5461 11.5053 31.5294 11.45 31.5065 11.3963C31.4846 11.3436 31.4582 11.2926 31.4257 11.2452C31.394 11.1968 31.3571 11.152 31.3167 11.1116C31.2763 11.0711 31.2314 11.0342 31.1831 11.0026C31.1356 10.9709 31.0847 10.9437 31.0319 10.9217C30.9783 10.8998 30.9229 10.8822 30.8676 10.8716C30.7542 10.8488 30.6373 10.8488 30.5239 10.8716C30.4677 10.8822 30.4123 10.8998 30.3596 10.9217C30.306 10.9437 30.255 10.9709 30.2075 11.0026C30.1592 11.0342 30.1144 11.0711 30.0739 11.1116C30.0335 11.152 29.9966 11.1968 29.9649 11.2452C29.9333 11.2926 29.9061 11.3436 29.8841 11.3963C29.8621 11.45 29.8445 11.5053 29.834 11.5616C29.8226 11.6178 29.8164 11.6758 29.8164 11.733C29.8164 11.7901 29.8226 11.8481 29.834 11.9043C29.8445 11.9606 29.8621 12.016 29.8841 12.0687C29.9061 12.1223 29.9333 12.1733 29.9649 12.2208C29.9966 12.2691 30.0335 12.3139 30.0739 12.3543C30.1144 12.3948 30.1592 12.4317 30.2075 12.4633C30.255 12.495 30.306 12.5222 30.3596 12.5442C30.4123 12.5662 30.4677 12.5829 30.5239 12.5943C30.5802 12.6057 30.6382 12.6119 30.6953 12.6119C30.7524 12.6119 30.8104 12.6057 30.8676 12.5943C30.9229 12.5829 30.9783 12.5662 31.0319 12.5442C31.0847 12.5222 31.1356 12.495 31.1831 12.4633C31.2314 12.4317 31.2763 12.3948 31.3167 12.3543C31.3571 12.3139 31.394 12.2691 31.4257 12.2208C31.4582 12.1733 31.4846 12.1223 31.5065 12.0687C31.5294 12.016 31.5461 11.9606 31.5575 11.9043C31.5689 11.8481 31.5742 11.7901 31.5742 11.733C31.5742 11.6758 31.5689 11.6178 31.5575 11.5616Z" fill="#205B59"/>
<path d="M44.1209 2.97861H38.8952C38.4098 2.97861 38.0163 3.3721 38.0163 3.85752V4.61636H35.5657C35.0802 4.61636 34.6868 5.00985 34.6868 5.49527V5.74822C33.2582 5.6235 32.7883 5.35262 31.4764 4.59606C30.4674 4.01423 28.9424 3.13488 26.1961 1.9001C26.1833 1.8943 26.1705 1.88894 26.1574 1.88385C25.2635 1.53211 22.9206 0.840056 20.4182 1.97411L16.8815 3.24044L13.9004 0.259363C13.5571 -0.0838501 13.0006 -0.0838501 12.6574 0.259363L2.87008 10.0466C2.5535 10.3633 2.49277 10.9123 2.87008 11.2896L19.5945 28.0141C19.8622 28.2818 20.4888 28.3627 20.8376 28.0141L29.773 19.0788C30.0053 19.0988 30.2463 19.1096 30.4962 19.1096C32.7924 19.1096 34.8236 17.5344 35.9856 15.8176H44.1209C44.6064 15.8176 44.9998 15.4241 44.9998 14.9387V3.85752C44.9998 3.3721 44.6064 2.97861 44.1209 2.97861ZM13.2788 2.12379L15.282 4.12699C14.6865 4.49525 13.9981 4.6923 13.2788 4.6923C12.5594 4.6923 11.871 4.49534 11.2756 4.12699L13.2788 2.12379ZM6.7378 12.6714L4.73459 10.6681L6.7378 8.66487C7.10606 9.26033 7.30311 9.94878 7.30311 10.6681C7.30311 11.3874 7.10615 12.0758 6.7378 12.6714ZM20.2161 26.1496L18.2132 24.1467C19.4361 23.3921 20.9959 23.3921 22.2189 24.1467L20.2161 26.1496ZM23.4852 22.8806C21.543 21.4717 18.8892 21.4717 16.947 22.8806L8.00404 13.9375C8.69038 12.9936 9.06092 11.8597 9.06092 10.6681C9.06092 9.47637 8.69046 8.34258 8.00404 7.39863L10.0094 5.39332C10.9534 6.07966 12.0872 6.4502 13.2789 6.4502C14.4706 6.4502 15.6044 6.07966 16.5483 5.39332L18.4493 7.2943C18.0391 7.35486 17.6391 7.49004 17.2661 7.6979C16.6361 8.04893 16.1418 8.57461 15.834 9.21058C14.8426 9.39419 13.9248 9.87416 13.2048 10.5941C11.2514 12.5475 11.2514 15.7259 13.2049 17.6794C14.1815 18.656 15.4645 19.1444 16.7475 19.1444C18.0304 19.1444 19.3135 18.6561 20.2902 17.6794C20.9256 17.0439 21.3708 16.2629 21.5938 15.4118L24.5613 16.4189C24.2272 17.9665 24.5694 19.5946 25.4923 20.8734L23.4852 22.8806ZM18.1416 14.2398C18.1493 14.2426 18.1571 14.2454 18.1649 14.248L19.9224 14.8445C19.7896 15.4435 19.4893 15.9942 19.0472 16.4364C17.7791 17.7043 15.7158 17.7045 14.4479 16.4364C13.1798 15.1684 13.1798 13.1052 14.4479 11.8371C14.7538 11.5311 15.1147 11.2919 15.5081 11.1298C15.6703 12.4799 16.6425 13.6834 18.1416 14.2398ZM26.7588 19.6069C26.4195 19.0541 26.2275 18.4231 26.1972 17.7791C26.6182 18.0835 27.1327 18.3817 27.7473 18.6184L26.7588 19.6069ZM34.6867 14.5883C33.8536 15.9539 32.238 17.3516 30.4962 17.3516C30.1703 17.3516 29.8649 17.3284 29.5793 17.2871C29.5782 17.2869 29.5771 17.2868 29.5759 17.2866C27.6778 17.0109 26.6568 15.9321 26.3203 15.505C26.3023 15.4786 26.226 15.3787 26.2146 15.362C26.1122 15.1791 25.9444 15.0319 25.7303 14.9592L18.7423 12.5875C17.6271 12.169 17.0376 11.2141 17.3078 10.2617C17.308 10.2611 17.3081 10.2604 17.3083 10.2598C17.3086 10.2591 17.3088 10.2583 17.3089 10.2576C17.4345 9.81905 17.723 9.45527 18.1217 9.23317C18.5177 9.01248 18.9755 8.95772 19.4122 9.07875L27.2865 11.574C27.7494 11.7209 28.2433 11.4645 28.3899 11.0017C28.5365 10.539 28.2803 10.045 27.8176 9.89833L21.5549 7.91376L21.5003 7.85909C21.4997 7.85856 21.4992 7.85795 21.4986 7.85742L18.2563 4.61513L21.0431 3.61722C21.0525 3.6138 21.0641 3.60949 21.0735 3.60571C21.0758 3.60474 21.0804 3.60299 21.0827 3.60202C21.0946 3.59719 21.1064 3.59209 21.1181 3.58673C23.0021 2.72083 24.793 3.23912 25.495 3.51211C28.1478 4.70575 29.5637 5.52217 30.5982 6.11868C32.0364 6.9481 32.7294 7.34774 34.6867 7.50937V14.5883ZM38.0163 14.0596H36.4446V6.37418H38.0163V14.0596ZM43.242 14.0596H39.7741V4.73642H43.242V14.0596Z" fill="#205B59"/>
</g>
<defs>
<clipPath id="clip0">
<rect width="45" height="45" fill="white"/>
</clipPath>
</defs>
</svg>
