<svg width="45" height="45" viewBox="0 0 45 45" fill="none" xmlns="http://www.w3.org/2000/svg">
<path d="M26.2499 2.25H18.75C18.336 2.25 18 2.58601 18 2.99997C18 3.41393 18.336 3.74994 18.75 3.74994H26.2499C26.6639 3.74994 26.9999 3.41393 26.9999 2.99997C26.9999 2.58601 26.6639 2.25 26.2499 2.25Z" fill="#205B59"/>
<path d="M31.4999 2.25H30.75C30.336 2.25 30 2.58601 30 2.99997C30 3.41393 30.336 3.74994 30.75 3.74994H31.4999C31.9139 3.74994 32.2499 3.41393 32.2499 2.99997C32.2499 2.58601 31.9139 2.25 31.4999 2.25Z" fill="#205B59"/>
<path d="M23.4314 38.25H21.5692C20.4285 38.25 19.5 39.1785 19.5 40.3192V40.6815C19.5 41.8222 20.4285 42.75 21.5685 42.75H23.4307C24.5715 42.75 25.4999 41.8222 25.4999 40.6815V40.3192C25.4999 39.1785 24.5715 38.25 23.4314 38.25ZM24 40.6815C24 40.995 23.745 41.25 23.4315 41.25H21.5692C21.255 41.25 20.9999 40.995 20.9999 40.6815V40.3192C20.9999 40.005 21.2549 39.7499 21.5692 39.7499H23.4307C23.745 39.7499 24 40.0049 24 40.3192V40.6815Z" fill="#205B59"/>
<path d="M32.5405 0H12.4622C10.9675 0 9.75098 1.21649 9.75098 2.71125V42.2887C9.75098 43.7835 10.9675 45 12.4622 45H32.5397C34.0345 45 35.251 43.7835 35.251 42.2895V2.71125C35.251 1.21649 34.0345 0 32.5405 0ZM33.751 42.2887C33.751 42.9563 33.208 43.5 32.5405 43.5H12.4622C11.794 43.5 11.251 42.9562 11.251 42.2895V2.71125C11.251 2.04372 11.794 1.50003 12.4622 1.50003H32.5397C33.2079 1.50003 33.7509 2.04381 33.7509 2.71125V42.2887H33.751Z" fill="#205B59"/>
<path d="M34.5009 4.5H10.5009C10.087 4.5 9.75098 4.83601 9.75098 5.24997V36.75C9.75098 37.1639 10.087 37.4999 10.5009 37.4999H34.501C34.9149 37.4999 35.2509 37.1639 35.2509 36.75V5.24997C35.2509 4.83601 34.9149 4.5 34.5009 4.5ZM33.7509 36H11.2509V6.00003H33.7509V36Z" fill="#205B59"/>
</svg>
