<?xml version="1.0" standalone="no"?>
<!DOCTYPE svg PUBLIC "-//W3C//DTD SVG 1.1//EN" "http://www.w3.org/Graphics/SVG/1.1/DTD/svg11.dtd" >
<svg xmlns="http://www.w3.org/2000/svg" xmlns:xlink="http://www.w3.org/1999/xlink" version="1.1">
<metadata>
Created by FontForge 20190801 at Wed May 14 17:56:00 2014
 By Jimmy Wärting
Copyright (c) 2010 by TypeTogether. All rights reserved.This font is ONLY licensed for use when accessed from the Extensis WebINK font service. Any other use of this font file is illegal under United States and international copyright laws. Please respect the rights of the people who design and license fonts.
</metadata>
<defs>
<font id="AdelleCyrillic-Bold" horiz-adv-x="500" >
  <font-face 
    font-family="Adelle Cyrillic"
    font-weight="700"
    font-stretch="normal"
    units-per-em="1000"
    panose-1="2 0 8 3 0 0 0 2 0 4"
    ascent="755"
    descent="-245"
    x-height="521"
    cap-height="724"
    bbox="-162 -256 1094 955"
    underline-thickness="50"
    underline-position="-150"
    unicode-range="U+000D-25CA"
  />
<missing-glyph 
 />
    <glyph glyph-name=".notdef" 
 />
    <glyph glyph-name=".null" horiz-adv-x="0" 
 />
    <glyph glyph-name="nonmarkingreturn" unicode="&#xd;" 
 />
    <glyph glyph-name="NULL" horiz-adv-x="0" 
 />
    <glyph glyph-name="NULL" horiz-adv-x="0" 
 />
    <glyph glyph-name="space" unicode=" " horiz-adv-x="202" 
 />
    <glyph glyph-name="exclam" unicode="!" horiz-adv-x="278" 
d="M76 196l-18 351v177h161v-177l-17 -351h-126zM225 66q0 -78 -86 -78t-86 78t86 78t86 -78z" />
    <glyph glyph-name="quotedbl" unicode="&#x22;" horiz-adv-x="403" 
d="M40 447v259h135v-259h-135zM228 447v259h135v-259h-135z" />
    <glyph glyph-name="numbersign" unicode="#" horiz-adv-x="607" 
d="M303 0l17 121h-86l-18 -121h-104l18 121h-100l22 101h94l17 113h-100l21 102h94l16 106h104l-16 -106h86l16 106h104l-16 -106h101l-20 -102h-96l-17 -113h101l-20 -101h-97l-18 -121h-103zM353 335h-86l-18 -113h87z" />
    <glyph glyph-name="dollar" unicode="$" horiz-adv-x="529" 
d="M488 195q0 -81 -43 -126.5t-113 -60.5v-88h-124v81q-48 2 -95 11t-79 25v160h109l13 -70q2 -11 5.5 -15t13.5 -7q11 -4 30 -6.5t44 -2.5q101 0 101 71q0 32 -23 49.5t-57.5 29t-74.5 22t-74.5 30.5t-57.5 53t-23 90q0 41 12.5 72.5t35 54.5t53.5 38.5t67 22.5v78h125v-73
q42 -3 77 -10.5t66 -18.5v-171l-110 11l-12 66q-2 11 -6 15t-14 7q-12 3 -27 4t-30 1q-44 0 -71.5 -16t-27.5 -51q0 -30 23 -47t57.5 -29t74.5 -23.5t74.5 -32t57.5 -54.5t23 -90z" />
    <glyph glyph-name="percent" unicode="%" horiz-adv-x="888" 
d="M200 257q-47 0 -79.5 14t-52 38t-28 56t-8.5 68q0 85 42.5 136t133.5 51q90 0 128.5 -47t38.5 -127q0 -86 -43.5 -137.5t-131.5 -51.5zM184 -17l377 638h138l-376 -638h-139zM205 339q31 0 44 25t13 78q0 48 -12.5 71.5t-43.5 23.5t-45 -25t-14 -72q0 -51 13 -76t45 -25z
M681 -12q-48 0 -80 14t-51.5 38t-28 56t-8.5 68q0 85 42.5 136t133.5 51q90 0 128.5 -47t38.5 -127q0 -86 -43.5 -137.5t-131.5 -51.5zM685 70q32 0 44.5 25t12.5 78q0 48 -12 71.5t-44 23.5q-31 0 -44.5 -25t-13.5 -72q0 -51 12.5 -76t44.5 -25z" />
    <glyph glyph-name="ampersand" unicode="&#x26;" horiz-adv-x="718" 
d="M519 0l-55 64q-40 -38 -89.5 -57t-112.5 -19q-50 0 -92 13.5t-72 40t-46.5 65t-16.5 87.5q0 70 36 122t108 82q-14 23 -25.5 51.5t-11.5 64.5q0 39 14.5 69.5t40 51.5t61 32.5t77.5 11.5q27 0 53.5 -4t50 -10t43 -14t31.5 -16v-157l-107 4l-12 67q-2 8 -4.5 11t-9.5 5
q-8 2 -17 3t-19 1q-30 0 -44.5 -15.5t-14.5 -39.5q0 -26 13 -49.5t42 -56.5l112 -132q9 28 14.5 58t8.5 53h172v-77l-46 -9q-9 -2 -12 -4.5t-5 -12.5q-6 -29 -15 -58t-22 -55l63 -72q4 -5 8 -8t11 -4l59 -9v-78h-169zM251 305q-32 -14 -51.5 -39.5t-19.5 -64.5
q0 -37 21.5 -65t72.5 -28q29 0 57.5 10.5t51.5 36.5z" />
    <glyph glyph-name="quotesingle" unicode="'" horiz-adv-x="216" 
d="M40 447v259h135v-259h-135z" />
    <glyph glyph-name="parenleft" unicode="(" horiz-adv-x="356" 
d="M205 -173q-32 42 -61.5 92.5t-52 108t-36 121.5t-13.5 131q0 69 13.5 133t37 122t55 110.5t66.5 98.5l113 -67q-63 -94 -93.5 -188t-30.5 -209q0 -63 8.5 -115t24 -98.5t37 -89t47.5 -85.5z" />
    <glyph glyph-name="parenright" unicode=")" horiz-adv-x="356" 
d="M145 -173l-113 66q29 44 51.5 88.5t38.5 92.5t24 101t8 113t-8 111t-23.5 97.5t-37.5 91t-51 90.5l114 66q32 -41 62 -92.5t53 -110t37 -122.5t14 -131q0 -70 -13.5 -133t-36.5 -120.5t-53.5 -109.5t-65.5 -98z" />
    <glyph glyph-name="asterisk" unicode="*" horiz-adv-x="477" 
d="M82 445l43 56l87 56l-104 -4l-67 22l34 100l67 -22l79 -65l-36 97v70h105v-70l-35 -97h-34l-9 -31l26 -20l-29 -98l-42 -57zM310 382l-42 57l-30 98l27 20l-10 31l80 65l67 22l33 -100l-67 -22l-103 4l87 -56l43 -56z" />
    <glyph glyph-name="plus" unicode="+" horiz-adv-x="570" 
d="M224 121v144h-133v116h133v140h120v-140h134v-116h-134v-144h-120z" />
    <glyph glyph-name="comma" unicode="," horiz-adv-x="252" 
d="M69 -99l27 107q3 9 -5 12l-41 14l22 108q29 0 54.5 -2.5t44.5 -11t30 -23.5t11 -41q0 -16 -6.5 -35t-14.5 -34l-54 -114z" />
    <glyph glyph-name="hyphen" unicode="-" horiz-adv-x="311" 
d="M20 227v127h271v-127h-271z" />
    <glyph glyph-name="period" unicode="." horiz-adv-x="271" 
d="M221 66q0 -78 -85 -78q-86 0 -86 78t86 78q85 0 85 -78z" />
    <glyph glyph-name="slash" unicode="/" horiz-adv-x="454" 
d="M11 -92l281 847h142l-280 -847h-143z" />
    <glyph glyph-name="zero" unicode="0" horiz-adv-x="602" 
d="M296 -12q-75 0 -124.5 22t-79.5 61.5t-42 95.5t-12 123q0 68 14.5 123.5t46.5 95t83.5 61t125.5 21.5t123.5 -21.5t79 -60t41.5 -92.5t12 -119q0 -70 -13.5 -127.5t-45 -98t-83 -62.5t-126.5 -22zM302 95q56 0 79 45.5t23 151.5q0 103 -21.5 146.5t-77.5 43.5t-81 -44.5
t-25 -149.5q0 -102 22 -147.5t81 -45.5z" />
    <glyph glyph-name="one" unicode="1" horiz-adv-x="406" 
d="M35 0v79l86 7q11 1 13.5 5t2.5 15v349q0 17 -13 21l-87 18l11 82h240v-470q0 -12 2.5 -15.5t13.5 -4.5l82 -7v-79h-351z" />
    <glyph glyph-name="two" unicode="2" horiz-adv-x="524" 
d="M32 0v93l134 131q38 37 65 64t44.5 49t26 41.5t8.5 40.5q0 28 -15.5 46t-55.5 18q-42 0 -60 -17.5t-18 -71.5l-136 12q0 60 21 96t53.5 56t73 26.5t79.5 6.5q58 0 98 -12t65 -33t36 -50.5t11 -64.5t-11.5 -65t-30.5 -57t-44 -52.5t-52 -51.5l-113 -108h147q8 0 11 2t5 10
l14 79h106v-188h-462z" />
    <glyph glyph-name="three" unicode="3" horiz-adv-x="519" 
d="M353 265q64 -10 98 -48t34 -106q0 -49 -17.5 -86t-49.5 -61t-76.5 -35.5t-98.5 -11.5q-76 0 -140 25t-102 67l80 88q29 -28 63 -47t87 -19q21 0 40 4t33 14.5t22.5 28t8.5 43.5q0 46 -26.5 66t-73.5 20q-19 0 -35 -1.5t-39 -5.5v100l49 6q54 7 82.5 33.5t28.5 74.5
q0 29 -15.5 49t-57.5 20q-41 0 -60.5 -17.5t-19.5 -71.5l-137 12q0 59 20 95.5t52.5 56.5t72.5 26.5t79 6.5q116 0 164.5 -43t48.5 -123q0 -63 -33.5 -102.5t-81.5 -53.5v-4z" />
    <glyph glyph-name="four" unicode="4" horiz-adv-x="557" 
d="M318 -67v129h-292v103l205 429l131 -60l-189 -355h145v161l138 21v-182h83v-117h-83v-129h-138z" />
    <glyph glyph-name="five" unicode="5" horiz-adv-x="542" 
d="M195 450l-14 -137q20 13 51.5 23.5t75.5 10.5q88 0 140.5 -50.5t52.5 -153.5q0 -46 -16 -87t-47 -72t-77 -49t-106 -18q-83 0 -147.5 24.5t-104.5 67.5l80 91q29 -29 67 -48.5t92 -19.5q45 0 76.5 26t31.5 80q0 31 -9 50t-23 29.5t-30.5 14t-30.5 3.5q-30 0 -54 -12
t-42 -31l-99 41l22 343h261q7 0 9 3.5t4 8.5l13 55l89 6v-199h-265z" />
    <glyph glyph-name="six" unicode="6" horiz-adv-x="565" 
d="M380 473q0 46 -16 62.5t-55 16.5q-32 0 -53 -15t-34 -41t-18.5 -59.5t-6.5 -71.5q26 15 61 27t79 12q87 0 141 -47.5t54 -145.5q0 -58 -18 -100.5t-50 -69.5t-76 -40t-96 -13q-73 0 -121 25.5t-76.5 69.5t-40 104t-11.5 130q0 53 11.5 112.5t42 109.5t82.5 83t133 33
q35 0 72 -6t67.5 -24t50 -50t19.5 -85zM197 265q1 -30 5 -60t14 -54t29 -38.5t50 -14.5q47 0 65.5 31.5t18.5 74.5q0 51 -18 72t-63 21q-26 0 -53.5 -10t-47.5 -22z" />
    <glyph glyph-name="seven" unicode="7" horiz-adv-x="532" 
d="M146 -67q9 102 34.5 185t58 147.5t66.5 110.5t59 74h-191q-8 0 -9.5 -3t-3.5 -10l-16 -84l-105 -8v231h483v-113q-44 -46 -82.5 -106.5t-67.5 -129t-47 -143.5t-20 -151h-159z" />
    <glyph glyph-name="eight" unicode="8" horiz-adv-x="540" 
d="M402 340q45 -26 75 -62.5t30 -96.5q0 -49 -19 -85t-52 -60t-78 -36t-98 -12q-108 0 -167.5 43t-59.5 130q0 59 28 99t67 72q-31 21 -52.5 55t-21.5 82q0 46 16.5 80.5t46 58t69.5 35.5t87 12q99 0 153.5 -42.5t54.5 -117.5q0 -48 -24 -88t-55 -67zM224 281
q-33 -31 -49.5 -57.5t-16.5 -54.5q0 -38 26 -59.5t78 -21.5q48 0 70.5 22t22.5 54q0 23 -11.5 39.5t-30.5 30t-42 24.5t-47 23zM302 388q23 24 37.5 48.5t14.5 51.5q0 35 -21.5 51.5t-58.5 16.5q-38 0 -57 -18t-19 -47q0 -19 8 -33.5t22 -26.5t33 -22t41 -21z" />
    <glyph glyph-name="nine" unicode="9" horiz-adv-x="570" 
d="M117 83q28 -23 64.5 -38.5t74.5 -15.5q36 0 58.5 13t35.5 36t18.5 53.5t6.5 64.5q-23 -15 -57 -26.5t-83 -11.5q-41 0 -76.5 13.5t-62 40.5t-41.5 66t-15 90q0 109 63.5 166t173.5 57q74 0 122.5 -25t77.5 -68.5t41 -102t12 -126.5q0 -64 -11 -127t-40.5 -113
t-81.5 -80.5t-134 -30.5q-59 0 -117 19t-93 54zM375 304q-1 33 -5.5 64.5t-15 57t-29 41t-49.5 15.5q-24 0 -40 -9t-25.5 -23.5t-13.5 -33.5t-4 -40q0 -54 17.5 -81t62.5 -27q29 0 54 9.5t48 26.5z" />
    <glyph glyph-name="colon" unicode=":" horiz-adv-x="271" 
d="M221 66q0 -78 -85 -78q-86 0 -86 78t86 78q85 0 85 -78zM221 446q0 -78 -85 -78q-86 0 -86 78t86 78q85 0 85 -78z" />
    <glyph glyph-name="semicolon" unicode=";" horiz-adv-x="255" 
d="M69 -99l27 107q3 9 -5 12l-41 14l22 108q29 0 54.5 -2.5t44.5 -11t30 -23.5t11 -41q0 -16 -6.5 -35t-14.5 -34l-54 -114zM225 446q0 -78 -85 -78q-86 0 -86 78t86 78q85 0 85 -78z" />
    <glyph glyph-name="less" unicode="&#x3c;" horiz-adv-x="570" 
d="M69 221v140l388 142l34 -113l-292 -98l294 -98l-34 -110z" />
    <glyph glyph-name="equal" unicode="=" horiz-adv-x="570" 
d="M92 130v117h386v-117h-386zM92 316v117h386v-117h-386z" />
    <glyph glyph-name="greater" unicode="&#x3e;" horiz-adv-x="570" 
d="M103 84l-34 110l294 98l-291 98l33 113l388 -142v-140z" />
    <glyph glyph-name="question" unicode="?" horiz-adv-x="528" 
d="M142 196v182q33 3 68 8t64.5 18.5t48.5 39.5t19 69t-21.5 65.5t-59.5 22.5q-22 0 -38 -3.5t-29 -8.5q-8 -3 -9.5 -6t-3.5 -14l-9 -64l-122 -9v184q51 20 105 32t113 12q50 0 94 -9.5t77 -33t52 -63.5t19 -100q0 -96 -54 -156.5t-163 -73.5v-92h-151zM303 66
q0 -78 -85 -78q-86 0 -86 78t86 78q85 0 85 -78z" />
    <glyph glyph-name="at" unicode="@" horiz-adv-x="841" 
d="M619 -152q-29 -13 -78.5 -24t-124.5 -11q-81 0 -147.5 22.5t-113.5 67t-72.5 111t-25.5 154.5q0 90 28.5 164t79.5 126.5t122.5 81t157.5 28.5q77 0 140.5 -21t109 -61.5t71 -99.5t25.5 -136q0 -69 -14.5 -118.5t-41 -81.5t-62.5 -47t-79 -15q-90 0 -115 69
q-29 -28 -58 -48.5t-64 -20.5q-52 0 -83 35.5t-31 105.5q0 54 15 102.5t43 85t69 58.5t93 22q42 0 77 -9.5t62 -22.5l-23 -147q-5 -25 -9 -56.5t-4 -49.5t8.5 -28.5t28.5 -10.5q27 0 44 18.5t27 44.5t13.5 55t3.5 51q0 109 -59 172.5t-190 63.5q-73 0 -126.5 -26t-88.5 -69
t-52 -99t-17 -116q0 -133 71 -201t199 -68q45 0 86.5 8.5t80.5 22.5zM499 312q-8 6 -20 9t-24 3q-21 0 -41 -13t-35.5 -36t-25 -56t-9.5 -74q0 -38 11 -54t29 -16q20 0 43 15t43 38z" />
    <glyph glyph-name="A" unicode="A" horiz-adv-x="759" 
d="M440 0v78l82 9l-36 104h-248l-35 -104l79 -9v-78h-279v78l44 11q9 2 15.5 6t9.5 13l219 616h177l218 -618q3 -9 9 -12t15 -5l46 -11v-78h-316zM367 571h-6l-92 -272h187z" />
    <glyph glyph-name="B" unicode="B" horiz-adv-x="672" 
d="M38 0v78l63 7q11 2 13.5 5.5t2.5 14.5v512q0 11 -2.5 15t-13.5 5l-63 7v80h337q64 0 106.5 -13.5t67.5 -37.5t35 -56.5t10 -69.5q0 -36 -10.5 -63.5t-27.5 -48.5t-39 -34.5t-45 -21.5v-3q86 -10 126.5 -56t40.5 -121q0 -55 -20.5 -93.5t-57 -61.5t-86.5 -33.5t-109 -10.5
h-328zM340 108q32 0 57.5 4.5t43.5 16.5t28 32.5t10 53.5q0 31 -10 51.5t-26.5 32.5t-39 16.5t-48.5 4.5h-84v-212h69zM311 420q27 0 51.5 4t43.5 15t30 31t11 52q0 31 -9 49.5t-25.5 28t-38.5 12.5t-48 3h-55v-195h40z" />
    <glyph glyph-name="C" unicode="C" horiz-adv-x="677" 
d="M632 43q-22 -13 -51 -23.5t-62 -17.5t-68 -10.5t-69 -3.5q-93 0 -159.5 26.5t-109 75t-62.5 118.5t-20 157q0 80 23 148t69.5 118t116.5 78t163 28q63 0 124 -15t103 -42v-196l-110 9l-16 98q-3 14 -16 18q-17 5 -40.5 8.5t-48.5 3.5q-96 0 -152 -64t-56 -192
q0 -134 53.5 -198.5t147.5 -64.5q25 0 52.5 3.5t47.5 9.5q9 2 12.5 6t5.5 15l15 93h107v-186z" />
    <glyph glyph-name="D" unicode="D" horiz-adv-x="752" 
d="M38 0v80l63 7q11 1 13.5 5t2.5 15v511q0 11 -2.5 14.5t-13.5 5.5l-63 7v79h324q94 0 162 -24.5t111.5 -70t64.5 -110.5t21 -146q0 -83 -22.5 -152t-68.5 -118t-117 -76t-168 -27h-307zM329 108q66 0 111 18.5t72.5 52.5t39.5 81t12 104q0 69 -13.5 117t-41.5 78t-71 43.5
t-103 13.5h-63v-508h57z" />
    <glyph glyph-name="E" unicode="E" horiz-adv-x="627" 
d="M38 0v78l63 7q11 2 13.5 5.5t2.5 14.5v513q0 11 -2.5 15t-13.5 5l-63 7v79h532v-202l-110 5l-14 76q-3 13 -17 13h-157v-197h234v-111h-234v-201h179q8 0 11 1.5t5 9.5l16 88h109v-206h-554z" />
    <glyph glyph-name="F" unicode="F" horiz-adv-x="603" 
d="M38 0v78l63 7q11 2 13.5 5.5t2.5 14.5v513q0 11 -2.5 15t-13.5 5l-63 7v79h528v-202l-110 5l-14 76q-3 13 -17 13h-153v-196h230v-111h-230v-202q0 -12 2.5 -15t13.5 -5l147 -8v-79h-397z" />
    <glyph glyph-name="G" unicode="G" horiz-adv-x="722" 
d="M672 265q-16 -1 -16 -14v-215q-57 -27 -126.5 -37.5t-132.5 -10.5q-102 0 -172.5 28.5t-113.5 79t-62 119t-19 149.5q0 80 23 148.5t70 118.5t117.5 78t164.5 28q27 0 57 -3.5t60 -10.5t58 -18t51 -26v-189l-111 8l-15 90q-2 11 -5.5 14.5t-10.5 5.5q-19 5 -44 9t-48 4
q-48 0 -86.5 -18t-65 -51t-40.5 -80t-14 -106q0 -125 52.5 -194t160.5 -69q20 0 43 2t40 5q8 2 12 5t4 13v131h-111l14 90h307v-80z" />
    <glyph glyph-name="H" unicode="H" horiz-adv-x="818" 
d="M467 0v78l63 7q11 2 13.5 5.5t2.5 14.5v211h-274v-210q0 -12 2.5 -15t13.5 -5l67 -8v-78h-317v78l63 7q11 2 13.5 5.5t2.5 14.5v512q0 11 -2.5 15t-13.5 5l-63 7v80h317v-80l-67 -8q-11 -2 -13.5 -5t-2.5 -14v-189h274v189q0 11 -2.5 15t-13.5 5l-63 7v80h316v-80l-67 -8
q-11 -2 -13.5 -5t-2.5 -14v-511q0 -12 2.5 -15t13.5 -5l67 -8v-78h-316z" />
    <glyph glyph-name="I" unicode="I" horiz-adv-x="404" 
d="M36 0v78l73 7q11 1 13.5 5t2.5 15v512q0 11 -2.5 15t-13.5 5l-73 7v80h336v-80l-77 -8q-11 -2 -13.5 -5t-2.5 -14v-511q0 -12 2.5 -15t13.5 -5l77 -8v-78h-336z" />
    <glyph glyph-name="J" unicode="J" horiz-adv-x="516" 
d="M257 618q0 11 -3 14.5t-13 4.5l-90 7v80h344v-80l-67 -8q-11 -2 -13.5 -4.5t-2.5 -13.5v-455q0 -89 -44.5 -132t-144.5 -43q-30 0 -59 3.5t-54.5 9t-44.5 12.5t-30 14v178l112 -8l10 -72q1 -10 11 -13q5 -2 16 -4t24 -2q28 0 38.5 13t10.5 45v454z" />
    <glyph glyph-name="K" unicode="K" horiz-adv-x="752" 
d="M522 0l-187 289l-63 -75v-107q0 -12 2.5 -15t13.5 -5l77 -8v-79h-327v79l63 7q11 1 13.5 5t2.5 15v512q0 11 -2.5 14.5t-13.5 5.5l-63 7v79h317v-79l-67 -8q-11 -2 -13.5 -5t-2.5 -14v-250l236 268l-62 8v80h262v-80l-42 -7q-14 -2 -19 -5.5t-12 -11.5l-184 -208
l201 -307q7 -10 12 -12t17 -4l62 -10v-79h-221z" />
    <glyph glyph-name="L" unicode="L" horiz-adv-x="624" 
d="M38 0v79l63 7q11 2 13.5 5.5t2.5 14.5v512q0 11 -2.5 15t-13.5 5l-63 7v79h333v-79l-83 -8q-11 -1 -13.5 -4.5t-2.5 -14.5v-511h178q8 0 11 1.5t5 9.5l16 100h110v-218h-554z" />
    <glyph glyph-name="M" unicode="M" horiz-adv-x="962" 
d="M598 0v78l82 7q11 2 13.5 5.5t2.5 14.5v380h-4l-143 -341h-163l-141 342h-5v-380q0 -12 2.5 -15t13.5 -5l86 -8v-78h-304v78l63 7q11 2 13.5 5.5t2.5 14.5v513q0 11 -2.5 14.5t-13.5 5.5l-63 7v79h268l174 -453h4l183 453h260v-78l-67 -8q-11 -2 -13.5 -5t-2.5 -14v-514
q0 -10 3 -13.5t13 -5.5l67 -8v-78h-329z" />
    <glyph glyph-name="N" unicode="N" horiz-adv-x="827" 
d="M552 0l-319 522v-416q0 -12 2.5 -15t13.5 -5l67 -8v-78h-278v78l63 7q11 2 13.5 5.5t2.5 14.5v514q0 11 -2.5 15t-13.5 5l-63 7v78h248l314 -523v416q0 11 -2.5 15t-13.5 5l-63 7v80h278v-80l-67 -8q-11 -2 -13.5 -5t-2.5 -14v-617h-164z" />
    <glyph glyph-name="O" unicode="O" horiz-adv-x="759" 
d="M375 -12q-91 0 -156 27.5t-107 77t-61.5 118t-19.5 149.5q0 80 22.5 149t67.5 119.5t112 79.5t156 29t153 -28.5t105.5 -78t61 -116t19.5 -141.5q0 -88 -21.5 -159t-65.5 -121.5t-110.5 -77.5t-155.5 -27zM381 111q42 0 76.5 13.5t59.5 44t38.5 78.5t13.5 117
q0 130 -48.5 188.5t-133.5 58.5q-43 0 -79 -14.5t-62 -45t-40.5 -77t-14.5 -111.5q0 -67 13.5 -115t38.5 -78.5t60 -44.5t78 -14z" />
    <glyph glyph-name="P" unicode="P" horiz-adv-x="646" 
d="M38 0v79l63 7q11 2 13.5 5.5t2.5 14.5v511q0 11 -2.5 15t-13.5 5l-63 7v80h339q69 0 115.5 -17t74.5 -46.5t39.5 -68t11.5 -81.5q0 -65 -19 -111.5t-54.5 -76t-86.5 -43t-114 -13.5h-73v-160q0 -12 2.5 -15t13.5 -5l143 -8v-79h-392zM321 374q25 0 49.5 4t44.5 17.5
t32.5 39t12.5 67.5q0 36 -10.5 58t-28 34.5t-41 16.5t-50.5 4h-59v-241h50z" />
    <glyph glyph-name="Q" unicode="Q" horiz-adv-x="758" 
d="M606 -174q-30 -16 -67 -26.5t-75 -10.5q-45 0 -75.5 11.5t-48.5 31.5t-26 47t-8 59q0 27 3 54q-74 9 -127 39.5t-87.5 79t-51 112t-16.5 137.5q0 80 22.5 149t67.5 119.5t112 79.5t156 29t153.5 -28.5t105.5 -78t60.5 -116t19.5 -141.5q0 -78 -17 -143t-51.5 -113.5
t-86.5 -79.5t-121 -42q-2 -9 -2 -17.5v-16.5q0 -30 12.5 -46t46.5 -16q35 0 72 15zM378 111q42 0 76.5 13.5t59 44t38.5 78.5t14 117q0 130 -49 188.5t-133 58.5q-43 0 -79.5 -14.5t-62.5 -45t-40.5 -77t-14.5 -111.5q0 -67 13.5 -115t38.5 -78.5t60.5 -44.5t78.5 -14z" />
    <glyph glyph-name="R" unicode="R" horiz-adv-x="687" 
d="M467 0l-90 251q-9 26 -21 35.5t-38 9.5h-47v-188q0 -12 2.5 -15t13.5 -5l70 -8v-80h-319v80l63 7q11 1 13.5 5t2.5 15v511q0 11 -2.5 14.5t-13.5 5.5l-63 7v79h341q68 0 112.5 -16.5t71.5 -44.5t38 -64t11 -75q0 -77 -36.5 -121.5t-95.5 -70.5q22 -11 34 -29.5t24 -50.5
l55 -143q6 -11 12.5 -14t17.5 -5l62 -10v-80h-218zM317 400q27 0 51.5 4t43.5 16.5t30 35t11 59.5q0 58 -32.5 79t-99.5 21h-50v-215h46z" />
    <glyph glyph-name="S" unicode="S" horiz-adv-x="593" 
d="M419 512l-12 81q-2 9 -4.5 13t-7.5 6q-12 4 -30 7.5t-43 3.5q-57 0 -84.5 -23.5t-27.5 -61.5q0 -25 12 -41.5t31.5 -28t46 -20t54.5 -17.5q36 -11 71.5 -25t64.5 -37.5t47 -60t18 -92.5q0 -61 -22.5 -104.5t-60.5 -71t-89.5 -40t-108.5 -12.5q-34 0 -68.5 4t-65.5 10
t-56 13t-39 14v195h112l20 -95q2 -9 4.5 -12.5t12.5 -5.5q9 -2 32 -6.5t52 -4.5q61 0 93.5 23.5t32.5 69.5q0 24 -10 40.5t-27 28t-39.5 19.5t-47.5 15q-37 11 -76 23t-71.5 35t-53 60.5t-20.5 97.5q0 58 20.5 100.5t56.5 70t85 41t106 13.5q65 0 118 -13t87 -27v-195z" />
    <glyph glyph-name="T" unicode="T" horiz-adv-x="694" 
d="M151 0v79l103 7q11 1 13.5 5t2.5 15v509h-103q-8 0 -11 -1.5t-5 -9.5l-16 -82l-110 -5v207h644v-207l-109 5l-16 82q-2 8 -5 9.5t-11 1.5h-103v-509q0 -11 2.5 -14.5t13.5 -4.5l110 -8v-79h-400z" />
    <glyph glyph-name="U" unicode="U" horiz-adv-x="785" 
d="M543 618q0 11 -2.5 15t-13.5 5l-63 7v79h296v-79l-67 -8q-11 -2 -13.5 -5t-2.5 -14v-359q0 -71 -20 -122.5t-56.5 -84.5t-89.5 -48.5t-119 -15.5q-149 0 -216.5 67.5t-67.5 207.5v355q0 11 -2.5 15t-13.5 5l-62 7v79h316v-79l-67 -8q-11 -2 -13.5 -5t-2.5 -14v-327
q0 -43 6 -76t21 -55.5t41 -34t67 -11.5q80 0 112.5 39.5t32.5 133.5v331z" />
    <glyph glyph-name="V" unicode="V" horiz-adv-x="735" 
d="M275 0l-201 618q-3 9 -9 12t-15 5l-45 11l10 78h303v-78l-81 -9l150 -500h8l145 500l-80 9l10 78h259v-78l-42 -11q-9 -2 -16 -6t-9 -13l-183 -616h-204z" />
    <glyph glyph-name="W" unicode="W" horiz-adv-x="1043" 
d="M622 0l-98 366h-6l-92 -366h-196l-151 617q-2 10 -7.5 13t-14.5 5l-51 11l10 78h306v-78l-84 -10l102 -489h8l115 443h152l114 -446h8l103 492l-84 10l10 78h270v-78l-47 -11q-10 -2 -15 -5t-8 -13l-142 -617h-202z" />
    <glyph glyph-name="X" unicode="X" horiz-adv-x="773" 
d="M428 0v78l79 9l-136 183l-135 -183l77 -9v-78h-286v78l58 11q17 4 26 19l190 246l-200 264q-8 13 -24 17l-52 11l10 78h313v-78l-78 -9l130 -182l136 182l-77 9l10 78h264v-78l-49 -11q-9 -2 -14.5 -6.5t-10.5 -12.5l-187 -242l205 -266q6 -7 11 -12t14 -7l54 -11v-78
h-328z" />
    <glyph glyph-name="Y" unicode="Y" horiz-adv-x="676" 
d="M155 0v79l100 7q11 1 13.5 5t2.5 15v164l-199 348q-5 8 -10 11t-14 6l-45 11l10 78h300v-78l-78 -9l121 -236h8l121 236l-77 9l10 78h255v-78l-42 -11q-8 -2 -14.5 -6.5t-10.5 -12.5l-181 -344v-166q0 -11 2.5 -14.5t13.5 -4.5l106 -8v-79h-392z" />
    <glyph glyph-name="Z" unicode="Z" horiz-adv-x="672" 
d="M51 0v97l374 519h-222q-8 0 -11 -1.5t-5 -9.5l-19 -94l-108 -3v216h549v-101l-369 -516h244q8 0 11 1.5t5 9.5l19 107h108v-225h-576z" />
    <glyph glyph-name="bracketleft" unicode="[" horiz-adv-x="308" 
d="M48 -143v867h224v-76l-62 -11q-10 -2 -13 -6t-3 -14v-652q0 -11 3 -15t13 -6l62 -11v-76h-224z" />
    <glyph glyph-name="backslash" unicode="\" horiz-adv-x="450" 
d="M300 -92l-280 847h137l281 -847h-138z" />
    <glyph glyph-name="bracketright" unicode="]" horiz-adv-x="308" 
d="M260 -143h-227v76l65 11q10 2 13 6t3 15v632q0 14 -2 26t-14 14l-65 11v76h227v-867z" />
    <glyph glyph-name="asciicircum" unicode="^" horiz-adv-x="609" 
d="M435 299l-133 240l-130 -240h-142l197 365h153l199 -365h-144z" />
    <glyph glyph-name="underscore" unicode="_" 
d="M0 -181v107h500v-107h-500z" />
    <glyph glyph-name="grave" unicode="`" 
d="M315 561l-178 146l82 78l153 -174z" />
    <glyph glyph-name="a" unicode="a" horiz-adv-x="557" 
d="M362 0l-10 54l-5 1q-29 -28 -68.5 -47.5t-99.5 -19.5q-47 0 -76 14.5t-44.5 36.5t-20.5 48t-5 49q0 75 46.5 111.5t140.5 42.5l115 8v55q0 18 -1.5 32.5t-8.5 25t-20.5 16t-36.5 5.5q-18 0 -31.5 -2t-23 -9t-14 -20t-4.5 -36l-141 12q0 51 20.5 81t52.5 46.5t70 21.5
t72 5q57 0 97.5 -8.5t66 -29.5t37.5 -55.5t12 -87.5v-243q0 -12 2.5 -15t13.5 -5l48 -8v-79h-184zM335 215l-68 -5q-45 -3 -62.5 -16t-17.5 -43t16 -42.5t41 -12.5q26 0 50 11.5t41 24.5v83z" />
    <glyph glyph-name="b" unicode="b" horiz-adv-x="609" 
d="M62 0q5 34 10 71.5t5 74.5v488q0 17 -13 21l-55 19l11 81h206v-277l4 -1q32 26 68.5 40t82.5 14q41 0 76 -14t61 -44.5t41 -79t15 -118.5q0 -77 -15.5 -131.5t-43.5 -89t-66.5 -50.5t-84.5 -16q-50 0 -87 18.5t-60 44.5l-5 -1l-7 -50h-143zM227 144q17 -16 41.5 -27.5
t50.5 -11.5q50 0 73.5 43.5t23.5 118.5q0 29 -5 55.5t-16 46.5t-28.5 32t-42.5 12q-27 0 -53 -11.5t-44 -23.5v-234z" />
    <glyph glyph-name="c" unicode="c" horiz-adv-x="510" 
d="M479 37q-35 -21 -85 -35t-105 -14q-68 0 -117.5 20t-81.5 55.5t-47.5 84t-15.5 105.5q0 70 20.5 122.5t56.5 87t86.5 51.5t110.5 17q59 0 107 -13.5t71 -28.5v-157l-107 5l-12 66q-1 5 -3 9.5t-9 6.5q-9 3 -22.5 5t-28.5 2q-22 0 -42.5 -8t-35.5 -27t-24 -49t-9 -74
q0 -49 10 -81t27.5 -51t41 -27t50.5 -8q38 0 70 9.5t55 19.5z" />
    <glyph glyph-name="d" unicode="d" horiz-adv-x="611" 
d="M410 0l-10 56l-7 1q-32 -31 -70.5 -50t-93.5 -19q-44 0 -80 14.5t-61.5 46.5t-39 82.5t-13.5 122.5q0 75 17.5 128t47 86t67.5 48t80 15q44 0 78 -13.5t63 -34.5v152q0 16 -13 20l-55 19l11 81h201v-650q0 -11 2.5 -14t13.5 -5l48 -7v-79h-186zM382 385
q-19 13 -41.5 21.5t-44.5 8.5q-28 0 -47.5 -12t-32 -33.5t-18 -50.5t-5.5 -62q0 -73 21.5 -112t69.5 -39q26 0 52 13t46 30v236z" />
    <glyph glyph-name="e" unicode="e" horiz-adv-x="525" 
d="M491 39q-47 -23 -97.5 -37t-107.5 -14q-72 0 -121.5 21t-80 58.5t-44 88t-13.5 108.5q0 68 19.5 118t53 83t79 49.5t96.5 16.5q50 0 90.5 -13.5t69 -42.5t44.5 -75t16 -111q0 -9 -0.5 -30.5t-1.5 -36.5h-306q4 -54 30 -86t88 -32q29 0 63.5 7.5t85.5 26.5zM347 317
q0 32 -6 52.5t-16.5 32.5t-24 16.5t-28.5 4.5q-32 0 -55.5 -22t-28.5 -84h159z" />
    <glyph glyph-name="f" unicode="f" horiz-adv-x="437" 
d="M27 0v80l56 6q11 2 13.5 6t2.5 15v304q0 5 -1 7.5t-7 2.5h-67v100h75v55q0 102 55 146.5t159 44.5q35 0 67.5 -5.5t57 -21t39.5 -44t15 -73.5l-140 -17q1 38 -10 50.5t-36 12.5q-38 0 -47 -19.5t-9 -55.5v-63q0 -5 1 -7.5t7 -2.5h158v-100h-166v-311q0 -12 3.5 -15.5
t14.5 -4.5l122 -11v-79h-363z" />
    <glyph glyph-name="g" unicode="g" horiz-adv-x="569" 
d="M464 429q14 -17 25.5 -41.5t11.5 -59.5q0 -42 -15.5 -74.5t-43.5 -55t-67.5 -34.5t-86.5 -12q-24 0 -44.5 2.5t-34.5 6.5l-33 -53l98 -6q65 -4 116 -9t86.5 -19.5t54 -42.5t18.5 -78q0 -87 -72 -133.5t-203 -46.5q-136 0 -193 33t-57 92q0 34 14.5 55.5t40.5 46.5
q-25 11 -34.5 28.5t-9.5 37.5q0 17 7.5 32t21.5 29t29 28.5t33 31.5q-37 18 -61.5 56t-24.5 94q0 86 57 140t172 54q32 0 53.5 -2.5t38.5 -7.5h195v-85zM369 342q0 45 -24 67.5t-67 22.5q-42 0 -69 -21.5t-27 -70.5q0 -37 21.5 -60t71.5 -23q42 0 68 23t26 62zM168 -27
q-10 -12 -18 -25t-8 -28q0 -30 34 -41t87 -11q22 0 46 1.5t44.5 7.5t33.5 17.5t13 31.5q0 24 -25 29.5t-61 7.5z" />
    <glyph glyph-name="h" unicode="h" horiz-adv-x="624" 
d="M395 0v326q0 11 -1 26t-6.5 28t-16 22t-29.5 9q-28 0 -56.5 -11.5t-47.5 -25.5v-268q0 -12 2.5 -15t13.5 -5l48 -7v-79h-276v79l45 7q11 2 13.5 5.5t2.5 14.5v528q0 17 -13 21l-55 19l11 81h206v-283l5 -1q34 28 73 44t87 16q80 0 112.5 -42t32.5 -120v-263
q0 -12 2.5 -15t13.5 -5l50 -7v-79h-217z" />
    <glyph glyph-name="i" unicode="i" horiz-adv-x="316" 
d="M240 691q0 -43 -23.5 -66.5t-67.5 -23.5q-43 0 -66.5 23.5t-23.5 66.5t23.5 65.5t66.5 22.5q44 0 67.5 -22.5t23.5 -65.5zM20 0v79l51 7q11 2 13.5 5.5t2.5 14.5v294q0 17 -13 21l-54 19l11 81h207v-415q0 -12 2.5 -15t13.5 -5l51 -7v-79h-285z" />
    <glyph glyph-name="j" unicode="j" horiz-adv-x="304" 
d="M85 400q0 17 -13 21l-57 19l12 81h209v-574q0 -91 -45 -130.5t-129 -39.5q-31 0 -58 5.5t-48.5 13.5t-37 16.5t-23.5 15.5l43 83q12 -8 36 -17t51 -9q31 0 45.5 17.5t14.5 69.5v428zM239 691q0 -43 -23.5 -66.5t-67.5 -23.5q-43 0 -67 23.5t-24 66.5t24 65.5t67 22.5
q44 0 67.5 -22.5t23.5 -65.5z" />
    <glyph glyph-name="k" unicode="k" horiz-adv-x="620" 
d="M419 0l-127 255l-54 -59v-90q0 -12 2.5 -15t13.5 -5l60 -7v-79h-293v79l50 7q11 2 13.5 5.5t2.5 14.5v528q0 17 -13 21l-55 19l11 81h208v-427l183 193h138v-79l-52 -10q-10 -2 -14 -4.5t-11 -10.5l-71 -75l128 -239q5 -11 11.5 -13.5t18.5 -4.5l44 -7v-78h-194z" />
    <glyph glyph-name="l" unicode="l" horiz-adv-x="316" 
d="M21 0v79l50 7q11 2 13.5 5.5t2.5 14.5v528q0 17 -13 21l-55 19l11 81h208v-649q0 -12 2.5 -15t13.5 -5l49 -7v-79h-282z" />
    <glyph glyph-name="m" unicode="m" horiz-adv-x="889" 
d="M659 0v323q0 15 -1.5 30t-7 27.5t-16.5 20.5t-31 8q-40 0 -81 -27q3 -24 3 -49v-227q0 -13 2.5 -16t13.5 -5l40 -6v-79h-207v328q0 14 -1 28.5t-6.5 26t-16 19t-29.5 7.5q-23 0 -45.5 -9.5t-37.5 -22.5v-271q0 -13 2.5 -15.5t13.5 -4.5l49 -7v-79h-277v79l45 7
q11 2 13.5 5.5t2.5 14.5v294q0 17 -13 21l-54 19l11 81h176l8 -52l5 -1q34 28 73 45.5t87 17.5q37 0 69 -12.5t53 -47.5q25 20 66.5 40t94.5 20q81 0 114 -40.5t33 -128.5v-256q0 -12 2.5 -15.5t13.5 -5.5l50 -6v-79h-217z" />
    <glyph glyph-name="n" unicode="n" horiz-adv-x="624" 
d="M395 0v323q0 18 -1 34t-6.5 28t-16 19t-29.5 7q-28 0 -58 -12.5t-46 -24.5v-268q0 -12 2.5 -15t13.5 -5l48 -7v-79h-276v80l45 6q11 2 13.5 5.5t2.5 14.5v294q0 17 -13 21l-54 19l12 81h175l8 -52l4 -2q38 28 81.5 46t94.5 18q82 0 116.5 -43.5t34.5 -126.5v-255
q0 -12 2.5 -15t13.5 -5l50 -7v-79h-217z" />
    <glyph glyph-name="o" unicode="o" horiz-adv-x="581" 
d="M284 -12q-69 0 -117.5 20t-79.5 55.5t-45.5 85t-14.5 108.5q0 62 16.5 112.5t50 86.5t84 55.5t119.5 19.5t118 -19.5t80 -54.5t45 -83.5t14 -105.5q0 -64 -16.5 -115.5t-49.5 -88t-84 -56.5t-120 -20zM291 93q49 0 77 38t28 132q0 89 -26 124.5t-75 35.5t-79.5 -35.5
t-30.5 -125.5q0 -91 27.5 -130t78.5 -39z" />
    <glyph glyph-name="p" unicode="p" horiz-adv-x="615" 
d="M25 -212v80l40 6q11 2 14.5 6t3.5 15v505q0 17 -13 21l-53 19l11 81h176l9 -51l5 -2q36 29 81.5 46t88.5 17q42 0 77.5 -14t61 -44.5t39.5 -79t14 -118.5q0 -45 -9 -95.5t-32 -93t-63 -70.5t-102 -28q-80 0 -143 51v-143q0 -12 2.5 -15.5t13.5 -4.5l104 -9v-79h-326z
M233 143q17 -14 41.5 -26t52.5 -12q51 0 73 44t22 118q0 78 -23.5 111.5t-61.5 33.5q-32 0 -59.5 -12.5t-44.5 -23.5v-233z" />
    <glyph glyph-name="q" unicode="q" horiz-adv-x="596" 
d="M291 -212v80l86 7q12 1 16 4.5t4 13.5v157l-5 2q-30 -26 -67 -45t-91 -19q-44 0 -80.5 14.5t-63 46t-41 81.5t-14.5 120q0 77 18 130.5t48 87t68.5 48.5t79.5 15q45 0 80.5 -16t64.5 -41l15 47h131q-5 -42 -6.5 -83t-1.5 -79v-466q0 -11 2.5 -14t13.5 -5l47 -7v-79h-304z
M381 383q-19 13 -42 22.5t-46 9.5q-27 0 -46 -12t-31.5 -33.5t-18 -50.5t-5.5 -62q0 -73 21.5 -112t72.5 -39q26 0 50.5 12t44.5 29v236z" />
    <glyph glyph-name="r" unicode="r" horiz-adv-x="473" 
d="M26 0v81l45 6q11 2 13.5 5.5t2.5 14.5v293q0 17 -13 21l-54 19l11 81h176l12 -80h6q25 38 59 64t82 26q9 0 21 -0.5t24.5 -2t23.5 -3t18 -3.5v-182l-120 4l-10 53q-2 11 -13 11q-20 0 -40.5 -12.5t-31.5 -22.5v-265q0 -12 2.5 -15.5t13.5 -4.5l99 -8v-80h-327z" />
    <glyph glyph-name="s" unicode="s" horiz-adv-x="487" 
d="M338 364l-10 52q-1 12 -10 14q-10 3 -27 5.5t-37 2.5q-38 0 -58 -13.5t-20 -37.5q0 -15 9.5 -25t25.5 -17t37 -12t44 -10q30 -7 60 -16.5t54 -27.5t39 -46.5t15 -72.5q0 -46 -17.5 -78.5t-48 -53.5t-71.5 -30.5t-89 -9.5q-34 0 -66.5 4t-59.5 9.5t-46 12t-26 10.5v145
l107 -8l10 -57q1 -7 3 -10t9 -5q9 -3 28.5 -6.5t48.5 -3.5q40 0 61.5 12t21.5 40q0 30 -26.5 42t-64.5 19q-31 6 -65.5 13.5t-63 25t-47 47t-18.5 78.5q0 47 18.5 80t49 54t70.5 31t83 10q30 0 58.5 -3t53 -7.5t43.5 -9.5t29 -9v-145z" />
    <glyph glyph-name="t" unicode="t" horiz-adv-x="436" 
d="M413 28q-32 -16 -76 -28t-87 -12q-90 0 -127 38t-37 123v262q0 5 -1 7.5t-7 2.5h-70v89q66 8 96 44.5t38 118.5h95v-142q0 -5 1 -7.5t7 -2.5h141v-100h-149v-239q0 -45 13.5 -63.5t54.5 -18.5q21 0 42 4.5t39 11.5z" />
    <glyph glyph-name="u" unicode="u" horiz-adv-x="623" 
d="M420 0l-8 54l-5 1q-15 -12 -33 -23.5t-39.5 -21.5t-47.5 -16t-58 -6q-79 0 -112 44t-33 132v244q0 12 -2.5 15.5t-13.5 5.5l-48 10l10 82h205v-331q0 -46 10.5 -65t42.5 -19q33 0 59.5 15t43.5 31v257q0 12 -2.5 15t-13.5 5l-43 10l11 82h199v-415q0 -10 2 -14t12 -5
l50 -7v-80h-186z" />
    <glyph glyph-name="v" unicode="v" horiz-adv-x="623" 
d="M225 0l-159 414q-4 9 -8 12t-13 5l-42 9l16 81h271v-81l-64 -8l102 -285h7l106 285l-65 8l13 81h231v-81l-36 -6q-10 -2 -15.5 -5t-9.5 -12l-159 -417h-175z" />
    <glyph glyph-name="w" unicode="w" horiz-adv-x="879" 
d="M535 0l-78 335h-6l-79 -335h-180l-126 414q-3 9 -7.5 12t-13.5 5l-42 9l16 81h253v-83l-56 -6l80 -281h7l89 357h151l86 -357h6l75 281l-57 6l13 83h210v-81l-36 -7q-19 -3 -24 -20l-123 -413h-158z" />
    <glyph glyph-name="x" unicode="x" horiz-adv-x="603" 
d="M309 0v78l47 9l-76 100l-83 -99l56 -9v-79h-240v78l45 9q9 2 14 5.5t12 11.5l132 146l-136 162q-7 8 -11 11t-13 6l-40 11l10 81h266v-81l-49 -8l74 -93l82 93l-55 8l10 81h221v-81l-46 -10q-9 -3 -13 -7.5t-12 -11.5l-122 -135l140 -171q8 -8 12.5 -12t13.5 -6l45 -8
v-79h-284z" />
    <glyph glyph-name="y" unicode="y" horiz-adv-x="619" 
d="M110 -212v81l78 9q10 1 15 6t10 16l43 95l-191 418q-3 9 -7.5 12t-13.5 5l-41 10l16 81h265v-81l-63 -8l111 -264h7l106 264l-65 8l13 81h223v-81l-32 -6q-9 -2 -15 -5t-10 -12l-220 -538l104 -11v-80h-333z" />
    <glyph glyph-name="z" unicode="z" horiz-adv-x="517" 
d="M35 0v84l268 343h-140q-7 0 -8.5 -4t-2.5 -9l-12 -56l-106 -6v169h439v-86l-263 -342h147q7 0 8.5 4t2.5 9l12 69l109 5v-180h-454z" />
    <glyph glyph-name="braceleft" unicode="{" horiz-adv-x="331" 
d="M288 -149q-59 1 -100 8t-66.5 23t-37 42.5t-11.5 65.5q0 42 7 86.5t7 98.5q0 43 -17.5 57.5t-52.5 16.5v79q35 2 52.5 16.5t17.5 57.5q0 54 -7 99t-7 87q0 39 11.5 65.5t37 42.5t66.5 23t100 8l10 -80q-39 -9 -55 -21.5t-16 -50.5q0 -39 8 -83t8 -90q0 -51 -17 -76.5
t-46 -37.5q29 -12 46 -37t17 -76q0 -46 -8 -89t-8 -83q0 -38 16 -50.5t55 -21.5z" />
    <glyph glyph-name="bar" unicode="|" horiz-adv-x="280" 
d="M71 -143v898h137v-898h-137z" />
    <glyph glyph-name="braceright" unicode="}" horiz-adv-x="331" 
d="M33 -69q39 9 55 21.5t16 50.5q0 40 -8 83t-8 89q0 51 17 76t46 37q-29 12 -46 37.5t-17 76.5q0 46 8 90t8 83q0 38 -16 50.5t-55 21.5l10 80q59 -1 100 -8t66.5 -23t37 -42.5t11.5 -65.5q0 -42 -7 -87t-7 -99q0 -43 17.5 -57.5t52.5 -16.5v-79q-35 -2 -52.5 -16.5
t-17.5 -57.5q0 -54 7 -98.5t7 -86.5q0 -39 -11.5 -65.5t-37 -42.5t-66.5 -23t-100 -8z" />
    <glyph glyph-name="asciitilde" unicode="~" horiz-adv-x="524" 
d="M502 431q-12 -72 -38.5 -106.5t-74.5 -34.5q-27 0 -57 7t-59 16t-56 16t-49 7q-24 0 -39.5 -9.5t-31.5 -38.5l-74 36q15 56 47.5 94.5t81.5 38.5q29 0 57 -7t56 -16t54 -16t50 -7q23 0 34 10.5t21 38.5z" />
    <glyph glyph-name="uni00A0" unicode="&#xa0;" horiz-adv-x="202" 
 />
    <glyph glyph-name="sterling" unicode="&#xa3;" horiz-adv-x="563" 
d="M45 0l-16 90q23 14 37 27t22 32.5t10.5 48t2.5 73.5v8h-70v110h70v41q0 43 9.5 83.5t36 72t72.5 50.5t118 19q37 0 73 -6t64.5 -24t46 -50t17.5 -85l-137 -18q0 35 -12 55t-50 20q-42 0 -65 -23t-23 -77v-58h146v-110h-146q0 -58 -11.5 -102t-47.5 -80h209q8 0 9.5 3.5
t2.5 8.5l16 79h106v-188h-490z" />
    <glyph glyph-name="currency" unicode="&#xa4;" horiz-adv-x="570" 
d="M483 -3l-87 86q-25 -14 -54 -22t-63 -8q-73 0 -122 29l-38 -38l-47 -47l-80 80l88 89q-14 26 -19 53.5t-5 59.5q0 59 26 105q-9 9 -20.5 21t-23.5 24.5t-23.5 24t-19.5 18.5l82 83l82 -83q26 17 56.5 25.5t69.5 8.5q38 0 67.5 -8t55.5 -24l80 80l79 -81l-84 -84
q10 -23 17 -51t7 -55q0 -30 -7.5 -60.5t-21.5 -56.5l88 -88zM283 161q49 0 74.5 34.5t25.5 83.5q0 55 -25.5 85.5t-76.5 30.5t-75.5 -32.5t-24.5 -83.5q0 -49 24 -83.5t78 -34.5z" />
    <glyph glyph-name="brokenbar" unicode="&#xa6;" horiz-adv-x="280" 
d="M71 -143v388h137v-388h-137zM71 408v347h137v-347h-137z" />
    <glyph glyph-name="section" unicode="&#xa7;" horiz-adv-x="569" 
d="M68 36l107 -8l10 -58q1 -5 3 -8t9 -6q9 -4 28 -8t47 -4q38 0 58.5 12.5t20.5 41.5q0 26 -21 38.5t-53 20.5t-68.5 16.5t-68.5 25t-53 45t-21 78.5q0 47 22 80.5t51 56.5q-23 18 -36.5 44.5t-13.5 65.5q0 42 17 73t46 51t67.5 30t81.5 10q30 0 59 -3t53 -7.5t43 -9.5
t29 -10v-145l-107 6l-10 56q-1 5 -2.5 8t-8.5 5q-11 4 -25.5 6.5t-37.5 2.5q-37 0 -56.5 -15.5t-19.5 -39.5q0 -23 21 -35.5t53 -21t68.5 -18t68.5 -27t53 -46.5t21 -78q0 -48 -22 -82t-46 -51q20 -16 32.5 -39.5t12.5 -60.5q0 -45 -16 -77t-45 -53t-68.5 -30.5t-86.5 -9.5
q-33 0 -65.5 4t-59 9.5t-45.5 11.5t-26 11v142zM224 318q-17 -11 -26.5 -27.5t-9.5 -34.5q0 -29 27 -42.5t65 -24.5l60 -17q19 11 29.5 28t10.5 37q0 15 -8 25t-22 17t-32 12.5t-39 11.5z" />
    <glyph glyph-name="dieresis" unicode="&#xa8;" 
d="M215 666q0 -32 -19.5 -51t-51.5 -19t-51.5 19t-19.5 51t19.5 51t51.5 19t51.5 -19t19.5 -51zM423 666q0 -32 -19.5 -51t-51.5 -19t-51.5 19t-19.5 51t19.5 51t51.5 19t51.5 -19t19.5 -51z" />
    <glyph glyph-name="copyright" unicode="&#xa9;" horiz-adv-x="770" 
d="M720 319q0 -75 -24.5 -137t-68.5 -106t-106 -68t-136 -24q-83 0 -146 24.5t-105 67.5t-63 102t-21 127q0 79 26.5 141t72 105t107 65.5t131.5 22.5q77 0 139 -22.5t105 -64.5t66 -101t23 -132zM387 56q59 0 106 18t80 51t50.5 80.5t17.5 107.5q0 62 -19 109.5t-52.5 79.5
t-80 48.5t-102.5 16.5q-55 0 -102 -17.5t-81 -51t-53.5 -82t-19.5 -110.5q0 -118 67.5 -184t188.5 -66zM511 144q-20 -12 -52 -18t-62 -6q-51 0 -86.5 14.5t-58 40.5t-33 62t-10.5 78q0 43 12 78.5t36 61t59.5 40t83.5 14.5q31 0 62.5 -6.5t49.5 -13.5v-111l-54 4l-8 41
q-2 6 -3.5 9.5t-6.5 5.5q-9 4 -18.5 5.5t-26.5 1.5q-43 0 -70 -29t-27 -103q0 -27 5 -50.5t17 -41.5t32 -28t49 -10q10 0 20.5 1t18.5 4q7 3 9 11l12 51h50v-106z" />
    <glyph glyph-name="guillemotleft" unicode="&#xab;" horiz-adv-x="472" 
d="M121 103l-86 154l89 151h122l-80 -139q-4 -6 -4 -9.5t3 -9.5l76 -147h-120zM312 103l-86 154l89 151h122l-80 -139q-4 -6 -4 -9.5t3 -9.5l76 -147h-120z" />
    <glyph glyph-name="logicalnot" unicode="&#xac;" horiz-adv-x="570" 
d="M361 172v94h-276v117h387v-211h-111z" />
    <glyph glyph-name="uni00AD" unicode="&#xad;" horiz-adv-x="311" 
d="M20 227v127h271v-127h-271z" />
    <glyph glyph-name="registered" unicode="&#xae;" horiz-adv-x="453" 
d="M413 480q0 -41 -13.5 -75.5t-38.5 -59t-59.5 -38t-75.5 -13.5q-46 0 -80.5 14t-58 38t-35.5 56.5t-12 70.5q0 43 14.5 77.5t40 59t59.5 37.5t73 13q86 0 136 -49.5t50 -130.5zM364 477q0 68 -38.5 103t-98.5 35q-29 0 -54 -9.5t-44 -27.5t-29.5 -44.5t-10.5 -59.5
q0 -63 37 -99t101 -36t100.5 37t36.5 101zM262 384l-20 53q-4 11 -8 16t-13 5h-12v-41q0 -5 5 -6l15 -3v-24h-85v24l14 2q5 1 5 7v123q0 6 -5 7l-14 2v26h89q41 0 55 -16.5t14 -37.5q0 -20 -10 -33t-25 -18q13 -4 19 -19l14 -34q2 -5 8 -6l15 -3v-24h-61zM223 491
q14 0 23.5 5t9.5 22q0 14 -9 18.5t-21 4.5h-17v-50h14z" />
    <glyph glyph-name="macron" unicode="&#xaf;" 
d="M91 599v100h317v-100h-317z" />
    <glyph glyph-name="degree" unicode="&#xb0;" horiz-adv-x="302" 
d="M152 617q20 0 33 14.5t13 36.5t-13 35.5t-33 13.5t-34 -14t-14 -38q0 -20 13 -34t35 -14zM266 668q0 -52 -31.5 -83.5t-82.5 -31.5q-52 0 -84 30.5t-32 81.5q0 27 9.5 48.5t25 36.5t36.5 23t45 8q48 0 81 -30t33 -83z" />
    <glyph glyph-name="plusminus" unicode="&#xb1;" horiz-adv-x="570" 
d="M91 0v116h387v-116h-387zM224 136v129h-133v116h133v140h120v-140h134v-116h-134v-129h-120z" />
    <glyph glyph-name="mu" unicode="&#xb5;" horiz-adv-x="629" 
d="M418 0l-8 54h-6q-22 -26 -53.5 -46t-75.5 -20q-14 0 -28.5 3.5t-25.5 8.5l-3 -4l19 -172h-156v697h151v-331q0 -13 1 -27.5t6.5 -26.5t17 -20t31.5 -8q53 0 100 44v369h151v-415q0 -10 2.5 -14t11.5 -5l50 -7v-80h-185z" />
    <glyph glyph-name="paragraph" unicode="&#xb6;" horiz-adv-x="636" 
d="M407 -133v686h-56v-686h-181v73l65 8q10 2 12.5 6t2.5 13v198q-111 7 -163.5 67.5t-52.5 163.5q0 69 22 116.5t60 77t89.5 42.5t110.5 13h275v-79l-67 -8q-11 -2 -13.5 -5t-2.5 -14v-572q0 -11 3 -14t13 -5l67 -8v-73h-184z" />
    <glyph glyph-name="periodcentered" unicode="&#xb7;" horiz-adv-x="238" 
d="M205 323q0 -78 -86 -78t-86 78t86 78t86 -78z" />
    <glyph glyph-name="cedilla" unicode="&#xb8;" 
d="M143 -185q6 -1 12 -1.5t13 -0.5q38 0 53.5 14.5t15.5 35.5q0 23 -17.5 32t-48.5 10l16 125l72 -8l-9 -67q14 -3 28.5 -9t25.5 -17t18 -27t7 -37q0 -24 -8.5 -46t-26.5 -38.5t-46.5 -26.5t-69.5 -10q-13 0 -25.5 1t-15.5 2z" />
    <glyph glyph-name="guillemotright" unicode="&#xbb;" horiz-adv-x="472" 
d="M39 103l77 144q3 7 3 10t-4 9l-80 142h122l89 -152l-86 -153h-121zM230 103l77 144q3 7 3 10t-4 9l-80 142h122l89 -152l-86 -153h-121z" />
    <glyph glyph-name="multiply" unicode="&#xd7;" horiz-adv-x="570" 
d="M285 237l-99 -99l-84 84l99 99l-99 100l84 84l99 -99l99 99l84 -84l-99 -100l99 -99l-84 -84z" />
    <glyph glyph-name="divide" unicode="&#xf7;" horiz-adv-x="570" 
d="M360 156q0 -35 -19 -54t-59 -19q-79 0 -79 73q0 32 19.5 52.5t59.5 20.5t59 -20.5t19 -52.5zM91 263v116h387v-116h-387zM360 486q0 -34 -19 -53t-59 -19t-59.5 18.5t-19.5 53.5q0 32 19.5 52.5t59.5 20.5t59 -20.5t19 -52.5z" />
    <glyph glyph-name="florin" unicode="&#x192;" horiz-adv-x="544" 
d="M294 287l-32 -191q-10 -60 -28 -99.5t-44.5 -63t-62 -33.5t-82.5 -10q-45 0 -89.5 14.5t-70.5 34.5l41 92q23 -15 53 -26t57 -11q17 0 31 3t24.5 12.5t18 26.5t12.5 45l35 196q1 10 -7 10h-90l15 95h100l15 85q9 50 24 85.5t38.5 58t57.5 33.5t81 11q50 0 93.5 -11.5
t78.5 -31.5l-24 -146l-94 9l-1 59q0 12 -10 16q-5 2 -14.5 4t-23.5 2q-32 0 -47 -19.5t-22 -57.5l-15 -87q-1 -10 8 -10h125l-16 -95h-135z" />
    <glyph glyph-name="circumflex" unicode="&#x2c6;" 
d="M365 562l-115 93l-115 -93l-60 52l123 129h104l123 -129z" />
    <glyph glyph-name="caron" unicode="&#x2c7;" 
d="M197 582l-122 128l60 53l114 -93l116 93l59 -52l-123 -129h-104z" />
    <glyph glyph-name="uni02C9" unicode="&#x2c9;" 
d="M91 599v100h317v-100h-317z" />
    <glyph glyph-name="breve" unicode="&#x2d8;" 
d="M422 708q-17 -65 -57 -100.5t-115 -35.5t-115 35.5t-57 100.5l76 29q14 -39 37.5 -57t58.5 -18t57.5 17.5t38.5 57.5z" />
    <glyph glyph-name="dotaccent" unicode="&#x2d9;" 
d="M341 694q0 -44 -23.5 -67.5t-67.5 -23.5q-43 0 -66.5 23.5t-23.5 67.5q0 43 23.5 65.5t66.5 22.5q44 0 67.5 -22.5t23.5 -65.5z" />
    <glyph glyph-name="ring" unicode="&#x2da;" 
d="M360 672q0 -46 -30 -73.5t-75 -27.5q-47 0 -77.5 27t-30.5 70q0 48 32 75t76 27q43 0 74 -26.5t31 -71.5zM255 630q17 0 27.5 9.5t10.5 32.5q0 20 -10.5 30t-27.5 10q-19 0 -30 -10t-11 -32q0 -40 41 -40z" />
    <glyph glyph-name="ogonek" unicode="&#x2db;" 
d="M362 -207q-31 -14 -62 -20.5t-56 -6.5q-55 0 -81 24.5t-26 64.5q0 29 13.5 55t32.5 47t41 37.5t38 27.5l71 -19q-11 -10 -25 -23.5t-26 -29t-20.5 -32t-8.5 -32.5q0 -29 29 -29q9 0 23.5 2.5t28.5 7.5z" />
    <glyph glyph-name="tilde" unicode="&#x2dc;" 
d="M409 640q-16 -29 -30 -43t-36 -14q-15 0 -31 4t-41 10q-13 3 -29 7.5t-30 8t-24.5 6t-14.5 2.5q-7 0 -16 -8l-33 -31l-55 35l30 51q14 24 30 37t36 13q23 0 63 -12q26 -7 55.5 -14.5t43.5 -10.5q11 -3 16 4l29 31l59 -36z" />
    <glyph glyph-name="hungarumlaut" unicode="&#x2dd;" 
d="M114 560l-59 49l141 183l85 -74zM307 560l-58 49l141 183l84 -74z" />
    <glyph glyph-name="uni0394" unicode="&#x394;" horiz-adv-x="715" 
d="M9 0l253 724h183l261 -724h-697zM340 586h-6l-152 -473h319z" />
    <glyph glyph-name="uni03A9" unicode="&#x3a9;" horiz-adv-x="811" 
d="M453 0v190q24 9 49.5 27t46.5 45.5t35 65.5t14 87q0 54 -13 92t-37 61.5t-57.5 34.5t-74.5 11q-40 0 -74 -13t-58.5 -39t-38 -65.5t-13.5 -92.5q0 -79 36.5 -133t93.5 -80v-191h-322v174h104l13 -57q2 -8 5 -9.5t11 -1.5h85v38q-91 34 -137.5 103.5t-46.5 166.5
q0 71 23.5 130.5t68 102t108.5 66.5t144 24q87 0 150 -21t104 -60.5t61 -95.5t20 -126q0 -56 -16.5 -102t-43.5 -82t-62.5 -62.5t-74.5 -43.5v-38h82q8 0 11 1.5t5 9.5l13 57h104v-174h-318z" />
    <glyph glyph-name="uni03BC" unicode="&#x3bc;" horiz-adv-x="629" 
d="M418 0l-8 54h-6q-22 -26 -53.5 -46t-75.5 -20q-14 0 -28.5 3.5t-25.5 8.5l-3 -4l19 -172h-156v697h151v-331q0 -13 1 -27.5t6.5 -26.5t17 -20t31.5 -8q53 0 100 44v369h151v-415q0 -10 2.5 -14t11.5 -5l50 -7v-80h-185z" />
    <glyph glyph-name="pi" unicode="&#x3c0;" horiz-adv-x="671" 
d="M411 0v421h-152v-421h-212v79l45 7q11 2 13.5 4.5t2.5 13.5v309q0 11 -2.5 14.5t-13.5 5.5l-49 7v81h585v-81l-50 -8q-11 -2 -13.5 -5t-2.5 -14v-307q0 -12 2.5 -15t13.5 -5l45 -7v-79h-212z" />
    <glyph glyph-name="afii10023" unicode="&#x401;" horiz-adv-x="630" 
d="M285 851q0 -32 -19.5 -51t-51.5 -19t-51.5 19t-19.5 51t19.5 50.5t51.5 18.5t51.5 -18.5t19.5 -50.5zM493 851q0 -32 -19.5 -51t-51.5 -19t-51.5 19t-19.5 51t19.5 50.5t51.5 18.5t51.5 -18.5t19.5 -50.5zM38 0v78l63 7q11 2 13.5 5.5t2.5 14.5v513q0 11 -2.5 15t-13.5 5
l-63 7v79h532v-202l-110 5l-14 76q-3 13 -17 13h-157v-197h234v-111h-234v-201h179q8 0 11 1.5t5 9.5l16 88h109v-206h-554z" />
    <glyph glyph-name="afii10051" unicode="&#x402;" horiz-adv-x="820" 
d="M791 212q0 -42 -11 -82.5t-37 -71.5t-67.5 -50t-103.5 -19q-21 0 -44.5 3t-43.5 8l8 109q12 -3 26.5 -4.5t35.5 -1.5q43 0 64 26t21 73q0 61 -34 84.5t-91 23.5q-26 0 -50 -3.5t-49 -8.5v-298h-234v79l63 7q11 1 13.5 4.5t2.5 15.5v509h-93q-8 0 -11 -1.5t-5 -9.5
l-16 -82l-109 -5v207h677v-207l-109 5l-16 82q-2 8 -5 9.5t-11 1.5h-147v-204q23 5 58 10.5t80 5.5q54 0 97.5 -14.5t75 -42t48.5 -67.5t17 -91z" />
    <glyph glyph-name="afii10052" unicode="&#x403;" horiz-adv-x="607" 
d="M244 767l-35 66l206 122l51 -99zM38 0v79l63 7q11 1 13.5 5t2.5 15v511q0 11 -2.5 14.5t-13.5 5.5l-63 7v80h540v-213l-109 5l-16 88q-2 8 -5 9.5t-11 1.5h-165v-509q0 -11 2.5 -14.5t13.5 -4.5l142 -8v-79h-392z" />
    <glyph glyph-name="afii10053" unicode="&#x404;" horiz-adv-x="680" 
d="M632 43q-22 -13 -51 -23.5t-61 -17.5t-65.5 -10.5t-65.5 -3.5q-96 0 -163.5 26t-111 75t-63.5 118.5t-20 157.5q0 81 23 149t69 117.5t115 77.5t162 28q64 0 125.5 -15t103.5 -42v-196l-110 9l-17 98q-1 14 -15 17q-20 5 -42 9t-47 4q-86 0 -139.5 -50.5t-64.5 -154.5
h263v-112h-263q12 -104 64.5 -152.5t136.5 -48.5q25 0 51 3t46 9q9 2 12.5 6t5.5 15l15 93h107v-186z" />
    <glyph glyph-name="afii10054" unicode="&#x405;" horiz-adv-x="593" 
d="M419 512l-12 81q-2 9 -4.5 13t-7.5 6q-12 4 -30 7.5t-43 3.5q-57 0 -84.5 -23.5t-27.5 -61.5q0 -25 12 -41.5t31.5 -28t46 -20t54.5 -17.5q36 -11 71.5 -25t64.5 -37.5t47 -60t18 -92.5q0 -61 -22.5 -104.5t-60.5 -71t-89.5 -40t-108.5 -12.5q-34 0 -68.5 4t-65.5 10
t-56 13t-39 14v195h112l20 -95q2 -9 4.5 -12.5t12.5 -5.5q9 -2 32 -6.5t52 -4.5q61 0 93.5 23.5t32.5 69.5q0 24 -10 40.5t-27 28t-39.5 19.5t-47.5 15q-37 11 -76 23t-71.5 35t-53 60.5t-20.5 97.5q0 58 20.5 100.5t56.5 70t85 41t106 13.5q65 0 118 -13t87 -27v-195z" />
    <glyph glyph-name="afii10055" unicode="&#x406;" horiz-adv-x="404" 
d="M36 0v78l73 7q11 1 13.5 5t2.5 15v512q0 11 -2.5 15t-13.5 5l-73 7v80h336v-80l-77 -8q-11 -2 -13.5 -5t-2.5 -14v-511q0 -12 2.5 -15t13.5 -5l77 -8v-78h-336z" />
    <glyph glyph-name="afii10056" unicode="&#x407;" horiz-adv-x="404" 
d="M27 851q0 32 20 50.5t52 18.5t51.5 -18.5t19.5 -50.5t-19.5 -51t-51.5 -19t-52 19t-20 51zM235 851q0 32 20 50.5t52 18.5t51.5 -18.5t19.5 -50.5t-19.5 -51t-51.5 -19t-52 19t-20 51zM36 0v78l73 7q11 1 13.5 5t2.5 15v512q0 11 -2.5 15t-13.5 5l-73 7v80h336v-80
l-77 -8q-11 -2 -13.5 -5t-2.5 -14v-511q0 -12 2.5 -15t13.5 -5l77 -8v-78h-336z" />
    <glyph glyph-name="afii10057" unicode="&#x408;" horiz-adv-x="520" 
d="M257 618q0 11 -3 14.5t-13 4.5l-90 7v80h344v-80l-67 -8q-11 -2 -13.5 -4.5t-2.5 -13.5v-455q0 -89 -44.5 -132t-144.5 -43q-30 0 -59 3.5t-54.5 9t-44.5 12.5t-30 14v178l112 -8l10 -72q1 -10 11 -13q5 -2 16 -4t24 -2q28 0 38.5 13t10.5 45v454z" />
    <glyph glyph-name="afii10058" unicode="&#x409;" horiz-adv-x="1032" 
d="M999 228q0 -60 -20.5 -103t-56.5 -71t-85.5 -41t-107.5 -13h-311v79l64 7q11 1 13.5 5t2.5 15v509h-170q1 -44 0.5 -93t-2 -98t-5 -95.5t-9.5 -85.5q-7 -49 -23.5 -93.5t-47.5 -80t-80 -58t-121 -27.5l-23 135q38 5 65 17.5t45.5 36t30 58t17.5 82.5q6 51 9 128.5
t2 168.5q0 17 -3 21t-14 6l-64 7v80h659v-79l-95 -9q-10 -2 -13.5 -5.5t-3.5 -13.5v-182h108q69 0 114.5 -15.5t73.5 -43.5t39.5 -65.5t11.5 -82.5zM710 108q28 0 51.5 5.5t41 18.5t27 34.5t9.5 54.5t-9 54t-25.5 33.5t-38.5 17.5t-48 5h-66v-223h58z" />
    <glyph glyph-name="afii10059" unicode="&#x40a;" horiz-adv-x="1057" 
d="M272 417h251v200q0 12 -2.5 15.5t-13.5 4.5l-63 7v80h345v-79l-95 -9q-9 -2 -12.5 -5.5t-3.5 -13.5v-200h107q71 0 117.5 -14t74.5 -40t39.5 -63t11.5 -82q0 -56 -20.5 -97t-56.5 -68t-85.5 -40t-107.5 -13h-314v79l63 7q11 1 13.5 5t2.5 15v203h-251v-203q0 -12 2.5 -15
t13.5 -5l67 -8v-78h-317v78l63 7q11 2 13.5 5.5t2.5 14.5v512q0 11 -2.5 15t-13.5 5l-63 7v80h317v-80l-67 -8q-11 -2 -13.5 -5t-2.5 -14v-200zM740 108q28 0 51.5 5t40.5 17t26.5 32.5t9.5 50.5q0 29 -9 47.5t-25 29t-38.5 14.5t-48.5 4h-69v-200h62z" />
    <glyph glyph-name="afii10060" unicode="&#x40b;" horiz-adv-x="870" 
d="M415 416q27 7 65 12.5t80 5.5q56 0 94 -13t61.5 -38t34 -61.5t10.5 -82.5v-133q0 -11 2.5 -14.5t13.5 -5.5l66 -8v-78h-236v218q0 54 -19 76t-68 22q-23 0 -50.5 -4.5t-53.5 -10.5v-194q0 -11 2.5 -15t13.5 -6l60 -8v-78h-312v79l65 7q11 2 13.5 5.5t2.5 17.5v506h-93
q-8 0 -11 -1.5t-5 -9.5l-16 -81l-109 -5v206h677v-206l-109 5l-16 81q-2 8 -5 9.5t-11 1.5h-147v-199z" />
    <glyph glyph-name="afii10061" unicode="&#x40c;" horiz-adv-x="771" 
d="M336 767l-35 66l206 122l51 -99zM272 423h63q33 0 51 11.5t33 50.5l58 148q20 51 55 77.5t94 26.5q20 0 38 -2.5t34 -5.5l-6 -106q-18 3 -31 3q-20 0 -33 -9.5t-21 -32.5l-44 -122q-15 -43 -41 -60.5t-48 -24.5v-2q29 -9 49 -30.5t44 -68.5l84 -160q6 -12 12 -18t18 -8
l63 -10v-80h-220q-26 72 -59.5 138t-58.5 113q-19 35 -36.5 47.5t-49.5 12.5h-48v-204q0 -12 2.5 -15t13.5 -5l68 -8v-79h-318v79l63 7q11 2 13.5 5.5t2.5 15.5v511q0 11 -2.5 14.5t-13.5 5.5l-63 7v79h317v-79l-67 -8q-11 -2 -13.5 -5t-2.5 -14v-195z" />
    <glyph glyph-name="afii10062" unicode="&#x40e;" horiz-adv-x="703" 
d="M383 867q33 0 49.5 19t27.5 56l94 -26q-16 -64 -57.5 -99t-115.5 -35t-117.5 34.5t-55.5 97.5l100 29q5 -35 22.5 -55.5t52.5 -20.5zM424 145q-20 -48 -41.5 -78.5t-46.5 -48t-55 -24t-69 -6.5q-36 0 -76.5 9.5t-67.5 25.5l40 108q16 -9 41 -16t51 -7q32 0 48 14t30 48
l-188 443q-5 11 -11 15.5t-15 6.5l-45 11l10 78h295v-78l-74 -9l118 -323h6l127 323l-70 9l10 78h248v-78l-42 -11q-14 -4 -19.5 -10.5t-11.5 -20.5z" />
    <glyph glyph-name="afii10145" unicode="&#x40f;" horiz-adv-x="794" 
d="M36 0v80l65 7q11 2 13.5 5.5t2.5 14.5v511q0 12 -2.5 15t-13.5 5l-65 8v78h309v-78l-57 -8q-11 -2 -13.5 -5t-2.5 -15v-510h250v510q0 12 -2.5 15t-13.5 5l-59 8v78h309v-78l-64 -8q-11 -2 -13.5 -5t-2.5 -15v-511q0 -11 2.5 -15t13.5 -5l64 -7v-80h-274q-9 0 -11.5 -3.5
t-3.5 -9.5l-18 -148l-99 4l-19 144q-1 13 -13 13h-282z" />
    <glyph glyph-name="afii10017" unicode="&#x410;" horiz-adv-x="759" 
d="M440 0v78l82 9l-36 104h-248l-35 -104l79 -9v-78h-279v78l44 11q9 2 15.5 6t9.5 13l219 616h177l218 -618q3 -9 9 -12t15 -5l46 -11v-78h-316zM367 571h-6l-92 -272h187z" />
    <glyph glyph-name="afii10018" unicode="&#x411;" horiz-adv-x="670" 
d="M38 79l63 7q11 1 13.5 5t2.5 15v511q0 11 -2.5 14.5t-13.5 5.5l-63 7v80h535v-210l-108 4l-17 86q-2 8 -5 9.5t-11 1.5h-160v-209h131q65 0 110 -14t73.5 -39t41 -59.5t12.5 -75.5q0 -58 -20 -99.5t-55.5 -67.5t-85.5 -38.5t-110 -12.5h-331v79zM350 108q29 0 52.5 4.5
t41 16.5t27 32t9.5 50q0 29 -10 47t-27 28t-39.5 13.5t-48.5 3.5h-83v-195h78z" />
    <glyph glyph-name="afii10019" unicode="&#x412;" horiz-adv-x="668" 
d="M38 0v78l63 7q11 2 13.5 5.5t2.5 14.5v512q0 11 -2.5 15t-13.5 5l-63 7v80h337q64 0 106.5 -13.5t67.5 -37.5t35 -56.5t10 -69.5q0 -36 -10.5 -63.5t-27.5 -48.5t-39 -34.5t-45 -21.5v-3q86 -10 126.5 -56t40.5 -121q0 -55 -20.5 -93.5t-57 -61.5t-86.5 -33.5t-109 -10.5
h-328zM340 108q32 0 57.5 4.5t43.5 16.5t28 32.5t10 53.5q0 31 -10 51.5t-26.5 32.5t-39 16.5t-48.5 4.5h-84v-212h69zM311 420q27 0 51.5 4t43.5 15t30 31t11 52q0 31 -9 49.5t-25.5 28t-38.5 12.5t-48 3h-55v-195h40z" />
    <glyph glyph-name="afii10020" unicode="&#x413;" horiz-adv-x="607" 
d="M38 0v79l63 7q11 1 13.5 5t2.5 15v511q0 11 -2.5 14.5t-13.5 5.5l-63 7v80h540v-213l-109 5l-16 88q-2 8 -5 9.5t-11 1.5h-165v-509q0 -11 2.5 -14.5t13.5 -4.5l142 -8v-79h-392z" />
    <glyph glyph-name="afii10021" unicode="&#x414;" horiz-adv-x="791" 
d="M175 0q-13 0 -14 -13l-21 -131l-111 -7v259h57q30 36 51 74.5t34 86.5t19 108t6 138v102q0 11 -2.5 15t-13.5 5l-63 7v80h638v-80l-67 -8q-11 -2 -13.5 -5t-2.5 -15v-508h79v-259l-110 7l-19 132q-1 12 -15 12h-432zM341 509q0 -65 -4 -121t-14.5 -105.5t-28 -92.5
t-45.5 -82h269v507h-177v-106z" />
    <glyph glyph-name="afii10022" unicode="&#x415;" horiz-adv-x="630" 
d="M38 0v78l63 7q11 2 13.5 5.5t2.5 14.5v513q0 11 -2.5 15t-13.5 5l-63 7v79h532v-202l-110 5l-14 76q-3 13 -17 13h-157v-197h234v-111h-234v-201h179q8 0 11 1.5t5 9.5l16 88h109v-206h-554z" />
    <glyph glyph-name="afii10024" unicode="&#x416;" horiz-adv-x="1089" 
d="M621 424h40q33 0 50.5 12.5t31.5 51.5l50 138q21 59 58 85t100 26q18 0 36.5 -2.5t30.5 -5.5l-6 -107q-16 3 -34 3q-26 -2 -37.5 -16t-23.5 -50l-31 -92q-14 -43 -35.5 -62.5t-47.5 -27.5v-2q28 -8 46.5 -29.5t38.5 -60.5l85 -169q6 -12 12 -18t18 -8l66 -10v-80h-221
q-27 72 -59.5 139t-56.5 114q-19 35 -37.5 47t-48.5 12h-25v-205q0 -12 2.5 -15t13.5 -5l54 -8v-79h-295v79l56 7q10 2 13 4.5t3 16.5v205h-31q-29 0 -46.5 -12t-37.5 -48q-12 -22 -26.5 -51.5t-29.5 -62.5t-30 -68t-28 -70h-220v80l67 10q13 2 17.5 5.5t9.5 14.5l84 163
q24 48 44 69.5t49 30.5v2q-22 7 -47 26t-39 62l-34 103q-11 31 -23 44.5t-38 15.5q-12 0 -29 -3l-8 105q17 4 40.5 6.5t40.5 2.5q60 0 89.5 -22.5t45.5 -65.5l51 -137q10 -26 17.5 -43t17 -27t22.5 -14t33 -4h39v194q0 11 -2.5 14.5t-13.5 5.5l-59 7v79h304v-79l-60 -8
q-11 -2 -13.5 -5t-2.5 -14v-194z" />
    <glyph glyph-name="afii10025" unicode="&#x417;" horiz-adv-x="604" 
d="M308 737q127 0 186.5 -47t59.5 -135q0 -35 -11 -63.5t-29.5 -50.5t-43 -37t-52.5 -23v-4q31 -6 58.5 -19t48.5 -34.5t33 -51.5t12 -71q0 -99 -75 -156t-216 -57q-31 0 -64.5 3.5t-64.5 10t-57 15.5t-43 19v180h111l20 -86q1 -8 4 -11t12 -6q19 -7 41 -9.5t42 -2.5
q57 0 94 26.5t37 81.5q0 56 -35 77t-87 21h-106v113h59q79 0 117.5 32.5t38.5 81.5q0 53 -30.5 73.5t-74.5 20.5q-24 0 -44 -3.5t-39 -8.5q-12 -4 -15 -17l-16 -85l-111 -8v171q20 12 46.5 22.5t58 19t66 13.5t69.5 5z" />
    <glyph glyph-name="afii10026" unicode="&#x418;" horiz-adv-x="830" 
d="M482 0v78l63 7q11 2 13.5 5.5t2.5 14.5v411h-5l-286 -516h-232v78l63 7q11 2 13.5 5.5t2.5 14.5v512q0 11 -2.5 15t-13.5 5l-63 7v80h314v-80l-67 -8q-11 -2 -13.5 -5t-2.5 -14v-390h5l277 497h245v-80l-67 -8q-11 -2 -13.5 -5t-2.5 -14v-511q0 -12 2.5 -15t13.5 -5
l67 -8v-78h-314z" />
    <glyph glyph-name="afii10027" unicode="&#x419;" horiz-adv-x="830" 
d="M443 867q33 0 49.5 19t27.5 56l94 -26q-16 -64 -57.5 -99t-115.5 -35t-117.5 34.5t-55.5 97.5l100 29q5 -35 22.5 -55.5t52.5 -20.5zM482 0v78l63 7q11 2 13.5 5.5t2.5 14.5v411h-5l-286 -516h-232v78l63 7q11 2 13.5 5.5t2.5 14.5v512q0 11 -2.5 15t-13.5 5l-63 7v80
h314v-80l-67 -8q-11 -2 -13.5 -5t-2.5 -14v-390h5l277 497h245v-80l-67 -8q-11 -2 -13.5 -5t-2.5 -14v-511q0 -12 2.5 -15t13.5 -5l67 -8v-78h-314z" />
    <glyph glyph-name="afii10028" unicode="&#x41a;" horiz-adv-x="771" 
d="M272 423h63q33 0 51 11.5t33 50.5l58 148q20 51 55 77.5t94 26.5q20 0 38 -2.5t34 -5.5l-6 -106q-18 3 -31 3q-20 0 -33 -9.5t-21 -32.5l-44 -122q-15 -43 -41 -60.5t-48 -24.5v-2q29 -9 49 -30.5t44 -68.5l84 -160q6 -12 12 -18t18 -8l63 -10v-80h-220q-26 72 -59.5 138
t-58.5 113q-19 35 -36.5 47.5t-49.5 12.5h-48v-204q0 -12 2.5 -15t13.5 -5l68 -8v-79h-318v79l63 7q11 2 13.5 5.5t2.5 15.5v511q0 11 -2.5 14.5t-13.5 5.5l-63 7v79h317v-79l-67 -8q-11 -2 -13.5 -5t-2.5 -14v-195z" />
    <glyph glyph-name="afii10029" unicode="&#x41b;" horiz-adv-x="791" 
d="M446 0v78l56 7q11 2 13.5 5.5t2.5 14.5v510h-184q1 -44 0.5 -93t-2 -98t-5.5 -95.5t-10 -85.5q-7 -49 -24 -94t-48.5 -80.5t-79.5 -58t-119 -25.5l-24 133q38 5 64.5 17.5t45 34.5t29.5 55t18 79q8 52 11 131.5t2 174.5q0 16 -3.5 20.5t-14.5 6.5l-65 7v80h646v-80
l-67 -8q-11 -2 -13.5 -5t-2.5 -15v-510q0 -12 2.5 -15t13.5 -5l67 -8v-78h-309z" />
    <glyph glyph-name="afii10030" unicode="&#x41c;" horiz-adv-x="966" 
d="M598 0v78l82 7q11 2 13.5 5.5t2.5 14.5v380h-4l-143 -341h-163l-141 342h-5v-380q0 -12 2.5 -15t13.5 -5l86 -8v-78h-304v78l63 7q11 2 13.5 5.5t2.5 14.5v513q0 11 -2.5 14.5t-13.5 5.5l-63 7v79h268l174 -453h4l183 453h260v-78l-67 -8q-11 -2 -13.5 -5t-2.5 -14v-514
q0 -10 3 -13.5t13 -5.5l67 -8v-78h-329z" />
    <glyph glyph-name="afii10031" unicode="&#x41d;" horiz-adv-x="819" 
d="M467 0v78l63 7q11 2 13.5 5.5t2.5 14.5v211h-274v-210q0 -12 2.5 -15t13.5 -5l67 -8v-78h-317v78l63 7q11 2 13.5 5.5t2.5 14.5v512q0 11 -2.5 15t-13.5 5l-63 7v80h317v-80l-67 -8q-11 -2 -13.5 -5t-2.5 -14v-189h274v189q0 11 -2.5 15t-13.5 5l-63 7v80h316v-80l-67 -8
q-11 -2 -13.5 -5t-2.5 -14v-511q0 -12 2.5 -15t13.5 -5l67 -8v-78h-316z" />
    <glyph glyph-name="afii10032" unicode="&#x41e;" horiz-adv-x="759" 
d="M375 -12q-91 0 -156 27.5t-107 77t-61.5 118t-19.5 149.5q0 80 22.5 149t67.5 119.5t112 79.5t156 29t153 -28.5t105.5 -78t61 -116t19.5 -141.5q0 -88 -21.5 -159t-65.5 -121.5t-110.5 -77.5t-155.5 -27zM381 111q42 0 76.5 13.5t59.5 44t38.5 78.5t13.5 117
q0 130 -48.5 188.5t-133.5 58.5q-43 0 -79 -14.5t-62 -45t-40.5 -77t-14.5 -111.5q0 -67 13.5 -115t38.5 -78.5t60 -44.5t78 -14z" />
    <glyph glyph-name="afii10033" unicode="&#x41f;" horiz-adv-x="798" 
d="M453 0v78l56 7q11 2 13.5 5.5t2.5 14.5v510h-253v-509q0 -12 2.5 -15t13.5 -5l60 -8v-78h-310v78l63 7q11 2 13.5 5.5t2.5 14.5v512q0 11 -2.5 15t-13.5 5l-63 7v80h724v-80l-67 -8q-11 -2 -13.5 -5t-2.5 -14v-511q0 -12 2.5 -15t13.5 -5l67 -8v-78h-309z" />
    <glyph glyph-name="afii10034" unicode="&#x420;" horiz-adv-x="647" 
d="M38 0v79l63 7q11 2 13.5 5.5t2.5 14.5v511q0 11 -2.5 15t-13.5 5l-63 7v80h339q69 0 115.5 -17t74.5 -46.5t39.5 -68t11.5 -81.5q0 -65 -19 -111.5t-54.5 -76t-86.5 -43t-114 -13.5h-73v-160q0 -12 2.5 -15t13.5 -5l143 -8v-79h-392zM321 374q25 0 49.5 4t44.5 17.5
t32.5 39t12.5 67.5q0 36 -10.5 58t-28 34.5t-41 16.5t-50.5 4h-59v-241h50z" />
    <glyph glyph-name="afii10035" unicode="&#x421;" horiz-adv-x="680" 
d="M632 43q-22 -13 -51 -23.5t-62 -17.5t-68 -10.5t-69 -3.5q-93 0 -159.5 26.5t-109 75t-62.5 118.5t-20 157q0 80 23 148t69.5 118t116.5 78t163 28q63 0 124 -15t103 -42v-196l-110 9l-16 98q-3 14 -16 18q-17 5 -40.5 8.5t-48.5 3.5q-96 0 -152 -64t-56 -192
q0 -134 53.5 -198.5t147.5 -64.5q25 0 52.5 3.5t47.5 9.5q9 2 12.5 6t5.5 15l15 93h107v-186z" />
    <glyph glyph-name="afii10036" unicode="&#x422;" horiz-adv-x="698" 
d="M151 0v79l103 7q11 1 13.5 5t2.5 15v509h-103q-8 0 -11 -1.5t-5 -9.5l-16 -82l-110 -5v207h644v-207l-109 5l-16 82q-2 8 -5 9.5t-11 1.5h-103v-509q0 -11 2.5 -14.5t13.5 -4.5l110 -8v-79h-400z" />
    <glyph glyph-name="afii10037" unicode="&#x423;" horiz-adv-x="703" 
d="M424 145q-20 -48 -41.5 -78.5t-46.5 -48t-55 -24t-69 -6.5q-36 0 -76.5 9.5t-67.5 25.5l40 108q16 -9 41 -16t51 -7q32 0 48 14t30 48l-188 443q-5 11 -11 15.5t-15 6.5l-45 11l10 78h295v-78l-74 -9l118 -323h6l127 323l-70 9l10 78h248v-78l-42 -11q-14 -4 -19.5 -10.5
t-11.5 -20.5z" />
    <glyph glyph-name="afii10038" unicode="&#x424;" horiz-adv-x="866" 
d="M835 376q0 -72 -26 -118t-71 -72.5t-105 -37.5t-128 -14v-30q0 -12 2.5 -15t13.5 -5l72 -5v-79h-320v79l69 4q11 1 13.5 5t2.5 15v30q-69 2 -129.5 10.5t-105 33t-70 68.5t-25.5 117q0 58 18.5 102t58 74t102.5 46t151 18v28q0 11 -2.5 14.5t-13.5 5.5l-70 7v80h320v-80
l-71 -7q-16 -1 -16 -19v-29q96 -1 159.5 -15.5t101.5 -42.5t53.5 -70t15.5 -98zM674 369q0 36 -10 59t-31 37t-54 20t-79 7v-249q93 2 133.5 31t40.5 95zM189 362q0 -65 40 -92t134 -28v250q-94 -2 -134 -33t-40 -97z" />
    <glyph glyph-name="afii10039" unicode="&#x425;" horiz-adv-x="773" 
d="M428 0v78l79 9l-136 183l-135 -183l77 -9v-78h-286v78l58 11q17 4 26 19l190 246l-200 264q-8 13 -24 17l-52 11l10 78h313v-78l-78 -9l130 -182l136 182l-77 9l10 78h264v-78l-49 -11q-9 -2 -14.5 -6.5t-10.5 -12.5l-187 -242l205 -266q6 -7 11 -12t14 -7l54 -11v-78
h-328z" />
    <glyph glyph-name="afii10040" unicode="&#x426;" horiz-adv-x="786" 
d="M642 -149l-20 137q-1 12 -15 12h-571v80l67 8q11 2 13.5 5t2.5 14v511q0 12 -2.5 15t-13.5 5l-67 8v78h309v-78l-56 -7q-11 -2 -13.5 -5.5t-2.5 -14.5v-511h241v510q0 12 -2.5 15t-13.5 5l-56 8v78h306v-78l-63 -7q-11 -2 -13.5 -5.5t-2.5 -14.5v-511h82v-264z" />
    <glyph glyph-name="afii10041" unicode="&#x427;" horiz-adv-x="727" 
d="M310 80l130 8q11 2 13.5 5t2.5 15v164q-34 -8 -70 -12t-68 -4q-66 0 -108.5 15.5t-67 42t-33.5 61t-9 72.5v170q0 18 -16 21l-55 8v78h292v-80l-51 -7q-11 -1 -13.5 -5t-2.5 -15v-150q0 -25 4.5 -44t15.5 -31.5t31.5 -19t51.5 -6.5q21 0 49 3t50 10v238q0 18 -16 21
l-42 8v78h292v-80l-64 -7q-11 -1 -13.5 -5t-2.5 -15v-511q0 -11 2.5 -14.5t13.5 -5.5l64 -7v-79h-380v80z" />
    <glyph glyph-name="afii10042" unicode="&#x428;" horiz-adv-x="1067" 
d="M34 80l67 8q11 2 13.5 5t2.5 14v511q0 12 -2.5 15t-13.5 5l-67 8v78h297v-78l-43 -7q-11 -2 -13.5 -6t-2.5 -15v-510h183v509q0 12 -2.5 16t-13.5 6l-48 7v78h282v-78l-47 -8q-11 -2 -13.5 -6t-2.5 -15v-509h185v508q0 12 -3 16t-14 6l-42 8v78h293v-78l-63 -7
q-11 -2 -13.5 -5.5t-2.5 -14.5v-517q0 -8 3 -11t13 -4l65 -7v-80h-997v80z" />
    <glyph glyph-name="afii10043" unicode="&#x429;" horiz-adv-x="1059" 
d="M787 108v508q0 12 -3.5 16t-14.5 6l-42 8v78h293v-78l-63 -7q-11 -2 -13.5 -5.5t-2.5 -14.5v-511h82v-264l-108 7l-22 137q-1 6 -4 9t-11 3h-844v80l67 8q11 2 13.5 5t2.5 14v511q0 12 -2.5 15t-13.5 5l-67 8v78h297v-78l-43 -7q-11 -2 -13.5 -6t-2.5 -15v-510h179v509
q0 12 -3 16t-14 6l-47 7v78h282v-78l-47 -8q-11 -2 -13.5 -6t-2.5 -15v-509h181z" />
    <glyph glyph-name="afii10044" unicode="&#x42a;" horiz-adv-x="798" 
d="M179 79l63 7q11 1 13.5 5t2.5 15v509h-82q-8 0 -11 -1.5t-5 -9.5l-17 -86l-108 -4v210h489v-81l-95 -8q-11 -2 -13.5 -5t-2.5 -14v-181h124q65 0 109 -14.5t71.5 -41.5t39.5 -65t12 -86q0 -60 -20.5 -103t-56.5 -70.5t-85 -41t-107 -13.5h-321v79zM481 108q56 0 92 24.5
t36 88.5q0 32 -9 53.5t-25 34.5t-38.5 18t-48.5 5h-75v-224h68z" />
    <glyph glyph-name="afii10045" unicode="&#x42b;" horiz-adv-x="998" 
d="M334 108q28 0 50.5 5.5t39 19t25.5 36t9 56.5q0 31 -9 51.5t-25 33t-38.5 17.5t-48.5 5h-65v-224h62zM32 724h351v-79l-95 -9q-11 -1 -13.5 -4.5t-2.5 -14.5v-182h107q67 0 113 -15t74 -42t40 -64.5t12 -83.5q0 -62 -19.5 -105.5t-55 -71.5t-84 -40.5t-106.5 -12.5h-315
v79l63 7q11 1 13.5 5t2.5 15v515q0 9 -3 12t-13 4l-69 7v80zM634 0v78l73 7q11 1 13.5 5t2.5 15v512q0 11 -2.5 15t-13.5 5l-73 7v80h337v-80l-77 -8q-11 -2 -13.5 -5t-2.5 -14v-511q0 -12 2.5 -15t13.5 -5l77 -8v-78h-337z" />
    <glyph glyph-name="afii10046" unicode="&#x42c;" horiz-adv-x="660" 
d="M32 724h351v-79l-95 -9q-11 -1 -13.5 -4.5t-2.5 -14.5v-182h113q67 0 113 -15t74 -42t40 -64.5t12 -83.5q0 -62 -19.5 -105.5t-55 -71.5t-84 -40.5t-106.5 -12.5h-321v79l63 7q11 1 13.5 5t2.5 15v515q0 9 -3 12t-13 4l-69 7v80zM340 108q28 0 50.5 5.5t39 19t25.5 36
t9 56.5q0 31 -9 51.5t-25 33t-38.5 17.5t-48.5 5h-71v-224h68z" />
    <glyph glyph-name="afii10047" unicode="&#x42d;" horiz-adv-x="680" 
d="M50 681q21 13 51 23t64 17.5t70 11.5t70 4q91 0 156 -24.5t107 -71t61.5 -114.5t19.5 -154q0 -82 -22 -152.5t-68 -122t-115.5 -81t-165.5 -29.5q-32 0 -65.5 3.5t-64.5 10.5t-58 17t-48 23v190h111l16 -98q3 -14 15 -17q20 -5 43 -9t48 -4q85 0 141 50.5t68 154.5h-254
v112h255q-11 103 -61 152t-128 49q-32 0 -59.5 -3t-47.5 -9q-8 -2 -11.5 -6t-5.5 -15l-16 -93h-106v185z" />
    <glyph glyph-name="afii10048" unicode="&#x42e;" horiz-adv-x="1057" 
d="M32 0v78l69 7q11 2 13.5 5.5t2.5 14.5v512q0 11 -2.5 15t-13.5 5l-69 7v80h330v-80l-74 -8q-11 -2 -13.5 -5t-2.5 -14v-197h120q7 69 30 127t63 100.5t97.5 66t133.5 23.5q84 0 143 -28.5t96 -78t54 -116t17 -141.5q0 -88 -19 -159t-58.5 -121.5t-99.5 -77.5t-142 -27
q-79 0 -136.5 23.5t-95.5 65.5t-59 101t-26 130h-118v-202q0 -12 2.5 -15t13.5 -5l74 -8v-78h-330zM709 111q37 0 66.5 13.5t50 44t31.5 78.5t11 117q0 131 -39 190.5t-114 59.5q-78 0 -122.5 -60.5t-44.5 -191.5q0 -134 42 -192.5t119 -58.5z" />
    <glyph glyph-name="afii10049" unicode="&#x42f;" horiz-adv-x="724" 
d="M18 80l63 10q16 2 20 6.5t9 15.5l59 128q16 34 34 57.5t55 36.5v3q-32 6 -60.5 19.5t-50 35.5t-34 53t-12.5 72q0 59 20.5 98.5t57 63.5t86.5 34.5t108 10.5h314v-79l-64 -7q-11 -2 -13 -5.5t-2 -13.5v-512q0 -12 2.5 -15.5t13.5 -4.5l63 -7v-80h-304v80l55 8q10 2 13 5
t3 14v186h-58q-25 0 -38.5 -12t-25.5 -38q-23 -50 -48.5 -112.5t-50.5 -130.5h-215v80zM454 615h-74q-51 0 -85.5 -23.5t-34.5 -83.5q0 -35 12 -57t31.5 -34t44.5 -16t52 -4h54v218z" />
    <glyph glyph-name="afii10065" unicode="&#x430;" horiz-adv-x="557" 
d="M362 0l-10 54l-5 1q-29 -28 -68.5 -47.5t-99.5 -19.5q-47 0 -76 14.5t-44.5 36.5t-20.5 48t-5 49q0 75 46.5 111.5t140.5 42.5l115 8v55q0 18 -1.5 32.5t-8.5 25t-20.5 16t-36.5 5.5q-18 0 -31.5 -2t-23 -9t-14 -20t-4.5 -36l-141 12q0 51 20.5 81t52.5 46.5t70 21.5
t72 5q57 0 97.5 -8.5t66 -29.5t37.5 -55.5t12 -87.5v-243q0 -12 2.5 -15t13.5 -5l48 -8v-79h-184zM335 215l-68 -5q-45 -3 -62.5 -16t-17.5 -43t16 -42.5t41 -12.5q26 0 50 11.5t41 24.5v83z" />
    <glyph glyph-name="afii10066" unicode="&#x431;" horiz-adv-x="569" 
d="M282 -12q-72 0 -119.5 22.5t-76.5 64.5t-41 102t-12 134q0 82 11.5 149.5t43 119t86.5 85.5t142 48q33 5 52 8.5t28.5 6.5t13 7.5t4.5 11.5l101 5q1 -8 1.5 -15.5t0.5 -14.5q0 -61 -32.5 -87t-92.5 -34q-71 -9 -118 -20t-77 -31t-45.5 -51.5t-24.5 -81.5q1 -1 3 -1
q26 45 74.5 70t114.5 25q59 0 100.5 -17.5t68 -50t39 -78.5t12.5 -103q0 -61 -14.5 -111.5t-45.5 -86.5t-79.5 -56t-117.5 -20zM286 93q48 0 72 38t24 129q0 79 -22 111t-68 32q-48 0 -74.5 -34.5t-26.5 -109.5q0 -89 23 -127.5t72 -38.5z" />
    <glyph glyph-name="afii10067" unicode="&#x432;" horiz-adv-x="564" 
d="M25 0v79l48 5q8 1 10 4t2 11v322q0 8 -2 10.5t-10 3.5l-48 5v81h313q48 0 80 -10t51 -27.5t27 -41t8 -50.5q0 -51 -28.5 -79t-63.5 -39v-3q65 -7 94.5 -39t29.5 -86q0 -40 -16 -68t-44 -45t-66 -25t-82 -8h-303zM305 100q38 0 58 13.5t20 45.5q0 20 -6 32.5t-16.5 19
t-24 9t-28.5 2.5h-73v-122h70zM296 313q29 0 49 11t20 44t-19 42t-45 9h-66v-106h61z" />
    <glyph glyph-name="afii10068" unicode="&#x433;" horiz-adv-x="484" 
d="M25 0v79l48 5q8 1 10 4t2 11v322q0 8 -2.5 10.5t-10.5 3.5l-47 5v81h433v-193l-107 4l-12 79q-1 8 -11 8h-92v-320q0 -8 2 -10.5t10 -3.5l105 -6v-79h-328z" />
    <glyph glyph-name="afii10069" unicode="&#x434;" horiz-adv-x="638" 
d="M160 0q-9 0 -11 -9l-15 -116l-107 -8v240h42q23 23 38 46.5t24 52t12.5 64t3.5 81.5v70q0 8 -2 10.5t-10 3.5l-49 5v81h523v-81l-50 -5q-8 -2 -10 -4t-2 -10v-314h62v-240l-106 8l-16 117q-2 4 -3.5 6t-6.5 2h-317zM285 335q0 -64 -11.5 -121t-47.5 -107h170v307h-111
v-79z" />
    <glyph glyph-name="afii10070" unicode="&#x435;" horiz-adv-x="525" 
d="M491 39q-47 -23 -97.5 -37t-107.5 -14q-72 0 -121.5 21t-80 58.5t-44 88t-13.5 108.5q0 68 19.5 118t53 83t79 49.5t96.5 16.5q50 0 90.5 -13.5t69 -42.5t44.5 -75t16 -111q0 -9 -0.5 -30.5t-1.5 -36.5h-306q4 -54 30 -86t88 -32q29 0 63.5 7.5t85.5 26.5zM347 317
q0 32 -6 52.5t-16.5 32.5t-24 16.5t-28.5 4.5q-32 0 -55.5 -22t-28.5 -84h159z" />
    <glyph glyph-name="afii10072" unicode="&#x436;" horiz-adv-x="871" 
d="M510 310h24q24 0 37 9t24 42l28 79q16 45 42.5 68t81.5 23q17 0 40 -3.5t39 -9.5l-11 -90q-12 3 -23 3q-30 0 -44 -38l-26 -70q-9 -24 -23 -35.5t-27 -16.5v-1q17 -5 31.5 -19.5t29.5 -44.5l51 -100q4 -8 8.5 -12.5t14.5 -6.5l53 -8v-79h-195q-23 57 -45 103.5t-38 75.5
q-13 23 -23 31.5t-34 8.5h-15v-120q0 -8 2 -10.5t10 -3.5l39 -6v-79h-250v79l40 6q7 1 9.5 3.5t2.5 10.5v120h-24q-26 0 -37.5 -9.5t-24.5 -32.5q-12 -22 -21 -41.5t-17.5 -39.5t-17.5 -43.5t-20 -52.5h-190v79l53 8q15 3 22 18l48 96q15 30 31.5 47t33.5 23v1
q-16 5 -31.5 18t-26.5 44l-24 67q-5 16 -13 23.5t-25 7.5q-14 0 -28 -3l-5 90q17 5 42 8.5t42 3.5q27 0 45 -6.5t30 -17.5t20 -25.5t14 -31.5l30 -77q8 -21 14.5 -33t13.5 -19t16.5 -9t22.5 -2h27v97q0 16 -12 20l-45 15l12 79h192v-211z" />
    <glyph glyph-name="afii10073" unicode="&#x437;" horiz-adv-x="489" 
d="M256 531q97 0 143 -34.5t46 -95.5q0 -27 -9 -48.5t-22.5 -37t-30.5 -26t-33 -16.5v-2q21 -5 41 -13t35 -22.5t24 -36t9 -52.5q0 -40 -18.5 -70t-50 -49.5t-72 -29.5t-85.5 -10q-61 0 -119.5 17t-96.5 48l52 93q10 -7 26.5 -16t37.5 -16.5t45 -12.5t48 -5q38 0 63 14.5
t25 45.5t-20.5 42t-48.5 11h-100v100h54q57 0 80.5 20.5t23.5 47.5q0 29 -19.5 43t-51.5 14q-27 0 -53 -8q-5 -2 -7.5 -4t-4.5 -9l-12 -55l-107 -8v135q15 8 38 16.5t50.5 15t58 10.5t61.5 4z" />
    <glyph glyph-name="afii10074" unicode="&#x438;" horiz-adv-x="652" 
d="M370 0v79l44 5q8 1 10 3.5t2 10.5v231h-4l-189 -329h-208v79l48 5q8 1 10 3.5t2 10.5v323q0 8 -2 10.5t-10 3.5l-48 5v81h261v-81l-48 -5q-8 -2 -10 -4t-2 -10v-246h4l197 346h203v-81l-50 -5q-9 -2 -11 -4t-2 -10v-322q0 -8 2 -10.5t11 -3.5l50 -6v-79h-260z" />
    <glyph glyph-name="afii10075" unicode="&#x439;" horiz-adv-x="652" 
d="M370 0v79l44 5q8 1 10 3.5t2 10.5v231h-4l-189 -329h-208v79l48 5q8 1 10 3.5t2 10.5v323q0 8 -2 10.5t-10 3.5l-48 5v81h261v-81l-48 -5q-8 -2 -10 -4t-2 -10v-246h4l197 346h203v-81l-50 -5q-9 -2 -11 -4t-2 -10v-322q0 -8 2 -10.5t11 -3.5l50 -6v-79h-260zM346 655
q34 0 51.5 20t28.5 60l94 -26q-17 -68 -59 -104t-117 -36t-118 36t-56 102l100 30q5 -38 23 -60t53 -22z" />
    <glyph glyph-name="afii10076" unicode="&#x43a;" horiz-adv-x="606" 
d="M269 308q23 0 37.5 9t27.5 44l24 66q8 22 18 41t24.5 33t34.5 22t47 8q19 0 39.5 -2.5t42.5 -10.5l-11 -91q-7 2 -13 2h-11q-21 0 -32 -10.5t-19 -33.5l-19 -52q-11 -31 -25 -44t-30 -18v-2q17 -5 31.5 -19.5t29.5 -43.5l54 -104q4 -7 7.5 -10t11.5 -5l53 -8v-79h-186
q-20 53 -40 96.5t-34 70.5q-8 16 -14.5 26t-13.5 15t-16.5 7t-23.5 2h-27v-118q0 -8 2 -11t10 -4l39 -5v-79h-262v79l48 5q8 1 10 3.5t2 12.5v322q0 8 -2 10.5t-10 3.5l-48 5v80h268v-80l-45 -6q-8 -1 -10 -4.5t-2 -12.5v-110h33z" />
    <glyph glyph-name="afii10077" unicode="&#x43b;" horiz-adv-x="625" 
d="M337 0v79l39 5q8 1 10.5 4t2.5 11v315h-114q-2 -62 -5.5 -113.5t-9.5 -102.5q-5 -45 -16 -83.5t-35 -67t-64 -45t-103 -18.5l-25 119q55 2 80 35t36 108q5 32 8.5 78t5.5 94q0 16 -14 17l-49 5v81h518v-81l-50 -5q-9 -2 -10.5 -4t-1.5 -10v-322q0 -8 1.5 -10.5t10.5 -3.5
l50 -6v-79h-265z" />
    <glyph glyph-name="afii10078" unicode="&#x43c;" horiz-adv-x="752" 
d="M453 0v79l61 5q12 1 12 14v238h-2l-91 -213h-136l-93 214h-2v-238q1 -8 2.5 -10.5t9.5 -3.5l64 -6v-79h-253v79l48 5q12 2 12 15v323q0 8 -2 10.5t-10 3.5l-48 5v80h236l114 -281h2l118 281h234v-79l-49 -6q-8 -1 -11 -4t-3 -12v-322q0 -8 2.5 -10t10.5 -3l50 -6v-79
h-276z" />
    <glyph glyph-name="afii10079" unicode="&#x43d;" horiz-adv-x="658" 
d="M370 0v79l40 5q8 1 10 3.5t2 10.5v117h-186v-116q0 -8 2 -10.5t10 -3.5l43 -6v-79h-266v79l48 5q8 1 10 4t2 11v322q0 8 -2 10.5t-10 3.5l-48 5v81h266v-81l-42 -5q-8 -2 -10.5 -4t-2.5 -10v-100h186v100q0 8 -2 10.5t-10 3.5l-40 5v81h266v-81l-50 -5q-8 -2 -10.5 -4.5
t-2.5 -10.5v-321q0 -8 2 -10.5t10 -3.5l51 -6v-79h-266z" />
    <glyph glyph-name="afii10080" unicode="&#x43e;" horiz-adv-x="581" 
d="M287 -12q-69 0 -118 20t-80.5 56.5t-46.5 87t-15 111.5q0 60 16.5 109.5t50 84.5t84 54.5t119.5 19.5t118 -19.5t80 -54.5t45 -83.5t14 -105.5q0 -64 -16 -115.5t-48.5 -88t-83 -56.5t-119.5 -20zM291 93q49 0 77 38t28 132q0 89 -26 124.5t-75 35.5t-79.5 -35.5
t-30.5 -125.5q0 -91 27.5 -130t78.5 -39z" />
    <glyph glyph-name="afii10081" unicode="&#x43f;" horiz-adv-x="640" 
d="M360 0v78l31 5q8 2 10.5 5.5t2.5 11.5v313h-168v-315q0 -8 2 -10.5t10 -3.5l35 -6v-78h-258v78l48 5q8 1 10 4t2 11v323q0 8 -2 10.5t-10 3.5l-48 5v81h592v-81l-50 -5q-8 -2 -10 -4t-2 -10v-323q0 -8 2 -10.5t10 -3.5l50 -6v-78h-257z" />
    <glyph glyph-name="afii10082" unicode="&#x440;" horiz-adv-x="615" 
d="M25 -212v80l40 6q11 2 14.5 6t3.5 15v505q0 17 -13 21l-53 19l11 81h176l9 -51l5 -2q36 29 81.5 46t88.5 17q42 0 77.5 -14t61 -44.5t39.5 -79t14 -118.5q0 -45 -9 -95.5t-32 -93t-63 -70.5t-102 -28q-80 0 -143 51v-143q0 -12 2.5 -15.5t13.5 -4.5l104 -9v-79h-326z
M233 143q17 -14 41.5 -26t52.5 -12q51 0 73 44t22 118q0 78 -23.5 111.5t-61.5 33.5q-32 0 -59.5 -12.5t-44.5 -23.5v-233z" />
    <glyph glyph-name="afii10083" unicode="&#x441;" horiz-adv-x="510" 
d="M479 37q-35 -21 -85 -35t-105 -14q-68 0 -117.5 20t-81.5 55.5t-47.5 84t-15.5 105.5q0 70 20.5 122.5t56.5 87t86.5 51.5t110.5 17q59 0 107 -13.5t71 -28.5v-157l-107 5l-12 66q-1 5 -3 9.5t-9 6.5q-9 3 -22.5 5t-28.5 2q-22 0 -42.5 -8t-35.5 -27t-24 -49t-9 -74
q0 -49 10 -81t27.5 -51t41 -27t50.5 -8q38 0 70 9.5t55 19.5z" />
    <glyph glyph-name="afii10084" unicode="&#x442;" horiz-adv-x="576" 
d="M125 0v80l77 5q8 0 10 3t2 11v315h-58q-11 0 -14 -11l-15 -73h-105v191h531v-191h-102l-15 74q-1 5 -3 7.5t-9 2.5h-58v-315q0 -8 1.5 -10.5t10.5 -3.5l82 -5v-80h-335z" />
    <glyph glyph-name="afii10085" unicode="&#x443;" horiz-adv-x="619" 
d="M60 -93q20 -9 43 -14.5t47 -5.5q35 0 54.5 16.5t36.5 58.5l14 35l-189 412q-6 17 -22 21l-41 10l16 81h265v-81l-63 -8l111 -264h5l108 264l-65 8l13 81h223v-81l-32 -6q-14 -2 -18.5 -6.5t-8.5 -13.5l-181 -445q-20 -50 -39.5 -86t-43.5 -59.5t-56 -34.5t-77 -11
q-25 0 -63 6.5t-71 26.5z" />
    <glyph glyph-name="afii10086" unicode="&#x444;" horiz-adv-x="809" 
d="M778 269q0 -74 -20.5 -126.5t-59 -86.5t-93.5 -50t-125 -18v-95q0 -12 3 -15t14 -5l50 -7v-79h-282v80l49 6q10 2 13 5t3 15v95q-86 0 -143.5 19t-92 53t-49 82t-14.5 106q0 80 23.5 133.5t64.5 85.5t95.5 46t115.5 15v106q0 17 -13 21l-55 19l12 81h206v-227
q159 0 228.5 -66.5t69.5 -192.5zM622 267q0 47 -10.5 76t-29.5 45t-45 21t-57 5v-310q27 0 52.5 5t45.5 22t32 49.5t12 86.5zM187 247q0 -48 12 -76.5t32 -44t45.5 -20t52.5 -4.5v310q-28 0 -53.5 -5.5t-45 -23t-31.5 -50t-12 -86.5z" />
    <glyph glyph-name="afii10087" unicode="&#x445;" horiz-adv-x="603" 
d="M309 0v78l47 9l-76 100l-83 -99l56 -9v-79h-240v78l45 9q9 2 14 5.5t12 11.5l132 146l-136 162q-7 8 -11 11t-13 6l-40 11l10 81h266v-81l-49 -8l74 -93l82 93l-55 8l10 81h221v-81l-46 -10q-9 -3 -13 -7.5t-12 -11.5l-122 -135l140 -171q8 -8 12.5 -12t13.5 -6l45 -8
v-79h-284z" />
    <glyph glyph-name="afii10088" unicode="&#x446;" horiz-adv-x="622" 
d="M494 -125l-16 113q-1 12 -14 12h-441v80l51 6q8 1 10 3.5t2 10.5v321q0 9 -2.5 11t-10.5 4l-50 6v79h260v-79l-33 -5q-13 -3 -13 -17v-313h148v313q0 9 -2.5 12.5t-11.5 5.5l-28 4v79h253v-79l-47 -5q-8 -2 -10 -4.5t-2 -10.5v-315h62v-240z" />
    <glyph glyph-name="afii10089" unicode="&#x447;" horiz-adv-x="597" 
d="M232 81l117 6q8 0 10 3t2 11v85q-23 -7 -55.5 -10.5t-58.5 -3.5q-55 0 -89.5 12t-54 32t-26 46t-6.5 53v106q0 14 -12 15l-38 6v79h243v-79l-28 -3q-8 -2 -10.5 -5t-2.5 -11v-91q0 -29 11.5 -45.5t51.5 -16.5q19 0 40 3t35 8v141q0 7 -1.5 10.5t-9.5 5.5l-27 4v79h245
v-81l-44 -4q-8 -1 -10.5 -4t-2.5 -11v-321q0 -8 2.5 -10.5t10.5 -3.5l46 -5v-81h-338v81z" />
    <glyph glyph-name="afii10090" unicode="&#x448;" horiz-adv-x="835" 
d="M22 80l51 6q8 1 10 3.5t2 10.5v322q0 8 -2 10.5t-10 3.5l-51 6v79h245v-79l-26 -5q-8 -2 -10 -4.5t-2 -10.5v-315h115v315q0 13 -13 16l-27 4v79h223v-79l-27 -5q-8 -2 -10 -4.5t-2 -10.5v-315h118v313q0 9 -3 12t-11 5l-28 5v79h245v-79l-47 -5q-8 -1 -10 -4t-2 -11
v-322q0 -9 2.5 -11t9.5 -3l50 -6v-80h-790v80z" />
    <glyph glyph-name="afii10091" unicode="&#x449;" horiz-adv-x="833" 
d="M22 80l51 6q8 1 10 3.5t2 10.5v322q0 8 -2 10.5t-10 3.5l-51 6v79h245v-79l-26 -5q-8 -2 -10 -4.5t-2 -10.5v-315h114v315q0 13 -13 16l-26 4v79h222v-79l-27 -5q-8 -2 -10 -4.5t-2 -10.5v-315h117v313q0 9 -3 12t-11 5l-28 5v79h245v-79l-47 -5q-8 -1 -10 -4t-2 -11
v-315h62v-240l-105 8l-17 117q-2 8 -10 8h-656v80z" />
    <glyph glyph-name="afii10092" unicode="&#x44a;" horiz-adv-x="646" 
d="M142 79l48 6q8 1 10 3.5t2 8.5v317h-49q-11 0 -14 -11l-10 -70l-106 -4v192h412v-80l-70 -6q-8 -1 -10 -3t-2 -10v-96h88q50 0 84.5 -11t55.5 -31.5t30.5 -48.5t9.5 -62q0 -46 -16 -79t-44 -54t-66 -30.5t-82 -9.5h-271v79zM398 100q35 0 54.5 15.5t19.5 53.5
q0 41 -22 53.5t-58 12.5h-39v-135h45z" />
    <glyph glyph-name="afii10093" unicode="&#x44b;" horiz-adv-x="818" 
d="M85 420q0 9 -3 12t-10 4l-54 5v80h300v-80l-69 -6q-10 -1 -11.5 -4.5t-1.5 -12.5v-93h86q91 0 136 -38.5t45 -113.5q0 -51 -19 -84.5t-51.5 -53t-76 -27.5t-92.5 -8h-239v79l49 5q11 1 11 13v323zM520 0v79l48 5q9 1 11 4t2 12v320q0 8 -2 11t-10 4l-51 5v81h280v-81
l-54 -6q-8 -1 -10 -4t-2 -11v-319q0 -9 2 -11.5t10 -3.5l54 -6v-79h-278zM279 100q35 0 54.5 15.5t19.5 52.5q0 40 -21.5 53.5t-54.5 13.5h-41v-135h43z" />
    <glyph glyph-name="afii10094" unicode="&#x44c;" horiz-adv-x="532" 
d="M85 420q0 9 -3 12t-10 4l-54 5v80h300v-80l-69 -6q-13 -1 -13 -14v-96h90q91 0 136 -38.5t45 -113.5q0 -45 -16 -78t-44.5 -54t-66.5 -31t-82 -10h-273v79l49 5q11 1 11 13v323zM283 100q35 0 54.5 16t19.5 52q0 40 -21.5 53.5t-54.5 13.5h-45v-135h47z" />
    <glyph glyph-name="afii10095" unicode="&#x44d;" horiz-adv-x="553" 
d="M197 311h167q-8 60 -40.5 88.5t-85.5 28.5q-20 0 -35.5 -1.5t-27.5 -6.5q-6 -2 -7.5 -5.5t-3.5 -11.5l-11 -63h-105v150q15 8 38.5 15t51.5 13t58.5 9.5t60.5 3.5q142 0 205.5 -69.5t63.5 -192.5q0 -60 -18 -111.5t-54.5 -89t-91 -59t-126.5 -21.5q-60 0 -114.5 15.5
t-92.5 41.5l44 98q20 -13 61.5 -27.5t90.5 -14.5q57 0 90.5 25t45.5 82h-164v103z" />
    <glyph glyph-name="afii10096" unicode="&#x44e;" horiz-adv-x="835" 
d="M561 -12q-57 0 -99 15.5t-70.5 44.5t-45 69.5t-21.5 90.5h-90v-108q0 -9 2 -11.5t11 -3.5l51 -6v-79h-278v79l51 5q8 1 10.5 4t2.5 11v321q0 8 -2.5 11t-10.5 4l-51 5v81h278v-81l-51 -6q-9 -1 -11 -3.5t-2 -11.5v-109h89q11 101 71.5 161t176.5 60q65 0 110 -19.5
t73 -54.5t40.5 -83.5t12.5 -105.5q0 -64 -14 -115.5t-44 -88t-77 -56.5t-112 -20zM565 93q44 0 65 38t21 132q0 89 -20 124.5t-62 35.5q-43 0 -66.5 -35.5t-23.5 -125.5q0 -91 20.5 -130t65.5 -39z" />
    <glyph glyph-name="afii10097" unicode="&#x44f;" horiz-adv-x="606" 
d="M371 419h-73q-29 0 -49 -12t-20 -46t21.5 -48.5t50.5 -14.5h70v121zM20 75l53 9q8 2 11.5 4t6.5 10l32 78q11 26 25.5 41.5t41.5 23.5v2q-21 5 -41 15t-36 25.5t-26 36.5t-10 49q0 45 15.5 74t42.5 46.5t63.5 24.5t77.5 7h305v-80l-50 -5q-6 -1 -7.5 -3.5t-1.5 -9.5v-325
q0 -8 2 -10.5t9 -3.5l48 -5v-79h-255v79l35 5q8 2 9 4t1 10v106h-56q-23 0 -32 -10t-17 -29q-15 -38 -29.5 -78t-29.5 -87h-187v75z" />
    <glyph glyph-name="afii10071" unicode="&#x451;" horiz-adv-x="525" 
d="M491 39q-47 -23 -97.5 -37t-107.5 -14q-72 0 -121.5 21t-80 58.5t-44 88t-13.5 108.5q0 68 19.5 118t53 83t79 49.5t96.5 16.5q50 0 90.5 -13.5t69 -42.5t44.5 -75t16 -111q0 -9 -0.5 -30.5t-1.5 -36.5h-306q4 -54 30 -86t88 -32q29 0 63.5 7.5t85.5 26.5zM347 317
q0 32 -6 52.5t-16.5 32.5t-24 16.5t-28.5 4.5q-32 0 -55.5 -22t-28.5 -84h159zM238 666q0 -32 -19.5 -51t-51.5 -19t-51.5 19t-19.5 51t19.5 51t51.5 19t51.5 -19t19.5 -51zM446 666q0 -32 -19.5 -51t-51.5 -19t-51.5 19t-19.5 51t19.5 51t51.5 19t51.5 -19t19.5 -51z" />
    <glyph glyph-name="afii10099" unicode="&#x452;" horiz-adv-x="604" 
d="M236 -93q32 -9 58 -9q35 0 58 15.5t37.5 50.5t20.5 90.5t6 135.5q0 100 -16 144t-60 44q-35 0 -61 -13t-41 -24v-235q0 -12 2.5 -15t13.5 -5l48 -7v-79h-276v80l45 6q11 2 13.5 5.5t2.5 14.5v430h-57v86h57v12q0 17 -13 21l-55 19l11 81h206v-133h155v-86h-155v-92
q38 25 77.5 39t81.5 14q49 0 81 -20.5t51.5 -60t27.5 -96.5t8 -131q0 -97 -12.5 -173.5t-41 -129t-75 -80.5t-114.5 -28q-23 0 -51 4t-54 14z" />
    <glyph glyph-name="afii10100" unicode="&#x453;" horiz-adv-x="484" 
d="M183 561l-56 50l153 174l82 -78zM25 0v79l48 5q8 1 10 4t2 11v322q0 8 -2.5 10.5t-10.5 3.5l-47 5v81h433v-193l-107 4l-12 79q-1 8 -11 8h-92v-320q0 -8 2 -10.5t10 -3.5l105 -6v-79h-328z" />
    <glyph glyph-name="afii10101" unicode="&#x454;" horiz-adv-x="545" 
d="M354 210h-165q14 -60 48.5 -85t90.5 -25q46 0 84.5 14.5t60.5 28.5l44 -97q-46 -31 -103 -44.5t-111 -13.5q-73 0 -125.5 19t-86 53.5t-49 84.5t-15.5 111q0 60 17.5 110.5t53.5 87t91.5 57t131.5 20.5q24 0 50 -3t50.5 -8t46.5 -13t38 -18v-156l-107 7l-8 63
q-1 8 -3 11.5t-9 5.5q-20 7 -57 7q-54 0 -88.5 -27t-43.5 -87h164v-103z" />
    <glyph glyph-name="afii10102" unicode="&#x455;" horiz-adv-x="487" 
d="M338 364l-10 52q-1 12 -10 14q-10 3 -27 5.5t-37 2.5q-38 0 -58 -13.5t-20 -37.5q0 -15 9.5 -25t25.5 -17t37 -12t44 -10q30 -7 60 -16.5t54 -27.5t39 -46.5t15 -72.5q0 -46 -17.5 -78.5t-48 -53.5t-71.5 -30.5t-89 -9.5q-34 0 -66.5 4t-59.5 9.5t-46 12t-26 10.5v145
l107 -8l10 -57q1 -7 3 -10t9 -5q9 -3 28.5 -6.5t48.5 -3.5q40 0 61.5 12t21.5 40q0 30 -26.5 42t-64.5 19q-31 6 -65.5 13.5t-63 25t-47 47t-18.5 78.5q0 47 18.5 80t49 54t70.5 31t83 10q30 0 58.5 -3t53 -7.5t43.5 -9.5t29 -9v-145z" />
    <glyph glyph-name="afii10103" unicode="&#x456;" horiz-adv-x="316" 
d="M240 691q0 -43 -23.5 -66.5t-67.5 -23.5q-43 0 -66.5 23.5t-23.5 66.5t23.5 65.5t66.5 22.5q44 0 67.5 -22.5t23.5 -65.5zM20 0v79l51 7q11 2 13.5 5.5t2.5 14.5v294q0 17 -13 21l-54 19l11 81h207v-415q0 -12 2.5 -15t13.5 -5l51 -7v-79h-285z" />
    <glyph glyph-name="afii10104" unicode="&#x457;" horiz-adv-x="337" 
d="M-9 683q0 32 20 51t52 19t51.5 -19t19.5 -51t-19.5 -51t-51.5 -19t-52 19t-20 51zM164 683q0 32 20 51t52 19t51.5 -19t19.5 -51t-19.5 -51t-51.5 -19t-52 19t-20 51zM30 0v80l51 6q11 2 13.5 5.5t2.5 14.5v294q0 17 -13 21l-53 19l11 81h206v-415q0 -12 2.5 -15t13.5 -5
l51 -7v-79h-285z" />
    <glyph glyph-name="afii10105" unicode="&#x458;" horiz-adv-x="304" 
d="M85 400q0 17 -13 21l-57 19l12 81h209v-574q0 -91 -45 -130.5t-129 -39.5q-31 0 -58 5.5t-48.5 13.5t-37 16.5t-23.5 15.5l43 83q12 -8 36 -17t51 -9q31 0 45.5 17.5t14.5 69.5v428zM239 691q0 -43 -23.5 -66.5t-67.5 -23.5q-43 0 -67 23.5t-24 66.5t24 65.5t67 22.5
q44 0 67.5 -22.5t23.5 -65.5z" />
    <glyph glyph-name="afii10106" unicode="&#x459;" horiz-adv-x="833" 
d="M87 521h533v-80l-69 -6q-8 -1 -11 -2.5t-3 -9.5v-98h91q91 0 135.5 -38.5t44.5 -113.5q0 -45 -16 -78t-44 -54t-66.5 -31t-82.5 -10h-273v79l50 5q10 1 10 13v317h-108q-2 -60 -5.5 -112.5t-10.5 -103.5q-6 -45 -17 -83.5t-34.5 -66.5t-63 -45t-103.5 -19l-24 119
q27 2 46.5 9.5t33 23t22 41t13.5 62.5q5 33 8 80t6 99q1 16 -14 17l-48 5v81zM585 100q35 0 54.5 16t19.5 52q0 40 -21.5 53.5t-54.5 13.5h-46v-135h48z" />
    <glyph glyph-name="afii10107" unicode="&#x45a;" horiz-adv-x="825" 
d="M343 0v79l37 5q7 1 9 2.5t3 7.5v120h-156v-115q0 -8 2 -10.5t10 -3.5l40 -6v-79h-263v79l48 5q8 1 10 4t2 11v322q0 8 -2 10.5t-10 3.5l-48 5v81h263v-81l-39 -5q-8 -2 -10.5 -4t-2.5 -10v-108h156v109q0 8 -2 10t-10 3l-37 5v81h283v-80l-69 -6q-8 -1 -11 -3t-3 -11
v-108h78q94 0 136.5 -37.5t42.5 -108.5q0 -85 -54 -126t-155 -41h-248zM590 100q32 0 49 14.5t17 44.5q0 32 -20 43.5t-53 11.5h-40v-114h47z" />
    <glyph glyph-name="afii10108" unicode="&#x45b;" horiz-adv-x="624" 
d="M395 0v296q0 11 -1 26t-6.5 28t-16 22t-29.5 9q-28 0 -56.5 -11.5t-47.5 -25.5v-238q0 -12 2.5 -15t13.5 -5l48 -7v-79h-276v79l45 7q11 2 13.5 5.5t2.5 14.5v430h-57v86h57v12q0 17 -13 21l-55 19l11 81h206v-133h155v-86h-155v-94l5 -1q34 28 73 44t87 16
q80 0 112.5 -42t32.5 -120v-233q0 -12 2.5 -15t13.5 -5l50 -7v-79h-217z" />
    <glyph glyph-name="afii10109" unicode="&#x45c;" horiz-adv-x="606" 
d="M299 561l-56 50l153 174l82 -78zM269 308q23 0 37.5 9t27.5 44l24 66q8 22 18 41t24.5 33t34.5 22t47 8q19 0 39.5 -2.5t42.5 -10.5l-11 -91q-7 2 -13 2h-11q-21 0 -32 -10.5t-19 -33.5l-19 -52q-11 -31 -25 -44t-30 -18v-2q17 -5 31.5 -19.5t29.5 -43.5l54 -104
q4 -7 7.5 -10t11.5 -5l53 -8v-79h-186q-20 53 -40 96.5t-34 70.5q-8 16 -14.5 26t-13.5 15t-16.5 7t-23.5 2h-27v-118q0 -8 2 -11t10 -4l39 -5v-79h-262v79l48 5q8 1 10 3.5t2 12.5v322q0 8 -2 10.5t-10 3.5l-48 5v80h268v-80l-45 -6q-8 -1 -10 -4.5t-2 -12.5v-110h33z" />
    <glyph glyph-name="afii10110" unicode="&#x45e;" horiz-adv-x="619" 
d="M60 -93q20 -9 43 -14.5t47 -5.5q35 0 54.5 16.5t36.5 58.5l14 35l-189 412q-6 17 -22 21l-41 10l16 81h265v-81l-63 -8l111 -264h5l108 264l-65 8l13 81h223v-81l-32 -6q-14 -2 -18.5 -6.5t-8.5 -13.5l-181 -445q-20 -50 -39.5 -86t-43.5 -59.5t-56 -34.5t-77 -11
q-25 0 -63 6.5t-71 26.5zM334 655q34 0 51.5 20t28.5 60l94 -26q-17 -68 -59 -104t-117 -36t-118 36t-56 102l100 30q5 -38 23 -60t53 -22z" />
    <glyph glyph-name="afii10193" unicode="&#x45f;" horiz-adv-x="617" 
d="M24 0v78l48 6q8 2 10.5 5t2.5 11v320q0 9 -2.5 12.5t-10.5 4.5l-48 5v78h254v-78l-29 -4q-8 -2 -10.5 -4.5t-2.5 -10.5v-315h146v314q0 9 -2.5 11.5t-10.5 3.5l-33 5v78h254v-78l-45 -5q-8 -1 -10 -3.5t-2 -10.5v-325q0 -8 2 -11t10 -4l45 -5v-78h-206q-8 0 -9.5 -2.5
t-2.5 -6.5l-13 -129l-102 4l-17 125q-1 9 -10 9h-206z" />
    <glyph glyph-name="afii10050" unicode="&#x490;" horiz-adv-x="586" 
d="M38 0v79l63 7q11 1 13.5 5t2.5 15v511q0 11 -2.5 14.5t-13.5 5.5l-63 7v80h384q14 0 15 12l17 89l108 8v-218h-290v-509q0 -11 2.5 -14.5t13.5 -4.5l142 -8v-79h-392z" />
    <glyph glyph-name="afii10098" unicode="&#x491;" horiz-adv-x="465" 
d="M27 0v78l47 5q8 1 9.5 3.5t1.5 10.5v326q0 8 -2 10.5t-10 3.5l-46 5v78h282q13 0 14 10l13 72l111 9v-195h-211v-319q0 -7 1.5 -9.5t9.5 -3.5l102 -6v-78h-322z" />
    <glyph glyph-name="thinspace" unicode="&#x2009;" horiz-adv-x="125" 
 />
    <glyph glyph-name="endash" unicode="&#x2013;" 
d="M0 227v107h499v-107h-499z" />
    <glyph glyph-name="emdash" unicode="&#x2014;" horiz-adv-x="1000" 
d="M0 227v107h1000v-107h-1000z" />
    <glyph glyph-name="quoteleft" unicode="&#x2018;" horiz-adv-x="225" 
d="M170 537q-27 0 -50.5 2.5t-41 10t-28 22t-10.5 38.5q0 15 5.5 31t13.5 33l48 101l63 -19l-23 -99q-1 -8 5 -11l38 -13z" />
    <glyph glyph-name="quoteright" unicode="&#x2019;" horiz-adv-x="225" 
d="M55 556l23 99q3 9 -5 12l-38 12l20 96q27 0 50.5 -2.5t41 -10t28 -22t10.5 -38.5q0 -15 -5 -31t-13 -33l-48 -101z" />
    <glyph glyph-name="quotesinglbase" unicode="&#x201a;" horiz-adv-x="231" 
d="M66 -116l22 97q3 10 -5 13l-38 13l20 96q27 0 51 -2.5t41.5 -10t28 -22t10.5 -38.5q0 -15 -5.5 -31t-13.5 -34l-48 -100z" />
    <glyph glyph-name="quotedblleft" unicode="&#x201c;" horiz-adv-x="405" 
d="M170 537q-27 0 -50.5 2.5t-41 10t-28 22t-10.5 38.5q0 15 5.5 31t13.5 33l48 101l63 -19l-23 -99q-1 -8 5 -11l38 -13zM350 537q-27 0 -50.5 2.5t-41 10t-28 22t-10.5 38.5q0 15 5.5 31t13.5 33l48 101l63 -19l-23 -99q-1 -8 5 -11l38 -13z" />
    <glyph glyph-name="quotedblright" unicode="&#x201d;" horiz-adv-x="405" 
d="M55 556l23 99q3 9 -5 12l-38 12l20 96q27 0 50.5 -2.5t41 -10t28 -22t10.5 -38.5q0 -15 -5 -31t-13 -33l-48 -101zM235 556l23 99q3 9 -5 12l-38 12l20 96q27 0 50.5 -2.5t41 -10t28 -22t10.5 -38.5q0 -15 -5 -31t-13 -33l-48 -101z" />
    <glyph glyph-name="quotedblbase" unicode="&#x201e;" horiz-adv-x="411" 
d="M66 -116l22 97q3 10 -5 13l-38 13l20 96q27 0 51 -2.5t41.5 -10t28 -22t10.5 -38.5q0 -15 -5.5 -31t-13.5 -34l-48 -100zM246 -116l22 97q3 10 -5 13l-38 13l20 96q27 0 51 -2.5t41.5 -10t28 -22t10.5 -38.5q0 -15 -5.5 -31t-13.5 -34l-48 -100z" />
    <glyph glyph-name="dagger" unicode="&#x2020;" horiz-adv-x="402" 
d="M151 -83v189l-20 214l53 112h34l52 -112l-19 -214v-189h-100zM184 432l-83 -36h-74v104h74l83 -35v-33zM148 561v84h105v-84l-35 -96h-34zM302 396l-84 36v33l84 35h73v-104h-73z" />
    <glyph glyph-name="daggerdbl" unicode="&#x2021;" horiz-adv-x="438" 
d="M236 432l52 -111v-75l-52 -116h-34v-33h34l35 -96v-84h-105v84l36 96l-83 -36h-74v104h74l83 -35l-53 116v75l53 111l-83 -36h-74v104h74l83 -35l-36 96v84h105v-84l-35 -96l84 35h73v-104h-73l-84 36v33h-34v-33h34zM320 61l-84 36v33l84 35h73v-104h-73z" />
    <glyph glyph-name="bullet" unicode="&#x2022;" horiz-adv-x="412" 
d="M357 279q0 -73 -39 -109.5t-113 -36.5q-73 0 -111.5 36.5t-38.5 109.5t38.5 109.5t111.5 36.5q74 0 113 -36.5t39 -109.5z" />
    <glyph glyph-name="ellipsis" unicode="&#x2026;" horiz-adv-x="705" 
d="M211 66q0 -78 -85 -78q-86 0 -86 78t86 78q85 0 85 -78zM439 66q0 -78 -85 -78q-86 0 -86 78t86 78q85 0 85 -78zM665 66q0 -78 -85 -78q-86 0 -86 78t86 78q85 0 85 -78z" />
    <glyph glyph-name="perthousand" unicode="&#x2030;" horiz-adv-x="1127" 
d="M183 295q-42 0 -70.5 11.5t-46.5 32.5t-26 50t-8 64q0 81 40.5 124t117.5 43q79 0 115 -41.5t36 -116.5q0 -79 -40.5 -123t-117.5 -44zM133 -17l377 638h139l-376 -638h-140zM187 370q26 0 37.5 21t11.5 69q0 43 -11 63.5t-37 20.5q-50 0 -50 -85q0 -46 11.5 -67.5
t37.5 -21.5zM599 -12q-42 0 -70.5 11.5t-46.5 32.5t-26 50t-8 64q0 81 40.5 124t117.5 43q79 0 115 -41.5t36 -116.5q0 -79 -40.5 -123t-117.5 -44zM603 63q26 0 37.5 21t11.5 69q0 43 -11 63.5t-37 20.5q-50 0 -50 -85q0 -46 11.5 -67.5t37.5 -21.5zM936 -12
q-42 0 -70.5 11.5t-46.5 32.5t-26 50t-8 64q0 81 40.5 124t117.5 43q79 0 115 -41.5t36 -116.5q0 -79 -40.5 -123t-117.5 -44zM940 63q26 0 37.5 21t11.5 69q0 43 -11 63.5t-37 20.5q-50 0 -50 -85q0 -46 11.5 -67.5t37.5 -21.5z" />
    <glyph glyph-name="guilsinglleft" unicode="&#x2039;" horiz-adv-x="281" 
d="M121 103l-86 154l89 151h122l-80 -139q-4 -6 -4 -9.5t3 -9.5l76 -147h-120z" />
    <glyph glyph-name="guilsinglright" unicode="&#x203a;" horiz-adv-x="281" 
d="M39 103l77 144q3 7 3 10t-4 9l-80 142h122l89 -152l-86 -153h-121z" />
    <glyph glyph-name="fraction" unicode="&#x2044;" horiz-adv-x="183" 
d="M-162 -17l358 741h132l-357 -741h-133z" />
    <glyph glyph-name="Euro" unicode="&#x20ac;" horiz-adv-x="559" 
d="M231 265q8 -88 37 -127.5t83 -39.5q14 0 27 2t21 5q10 4 11 15l16 80l103 5v-174q-12 -7 -32.5 -15t-47 -14t-56 -10t-58.5 -4q-122 0 -188 70t-77 207h-76l20 117h56q8 72 32.5 124t61 85t82.5 48.5t97 15.5q29 0 57 -4t53 -10t45 -14t32 -16v-170l-104 5l-15 77
q-1 7 -3 11t-9 6q-17 7 -50 7q-22 0 -42 -8.5t-36 -27.5t-26.5 -50.5t-14.5 -78.5h150l-19 -117h-130z" />
    <glyph glyph-name="afii61352" unicode="&#x2116;" horiz-adv-x="1120" 
d="M472 0l-239 434v-328q0 -12 2.5 -15t13.5 -5l67 -8v-78h-278v78l63 7q11 2 13.5 5.5t2.5 14.5v426q0 11 -2.5 15t-13.5 5l-63 7v78h248l234 -435v328q0 11 -2.5 15t-13.5 5l-63 7v80h278v-80l-67 -8q-11 -2 -13.5 -5t-2.5 -14v-529h-164zM876 213q-48 0 -82 13t-55 36.5
t-30.5 55.5t-9.5 69q0 85 45.5 134t139.5 49q49 0 82.5 -13t54 -36t29.5 -54.5t9 -69.5q0 -83 -42.5 -133.5t-140.5 -50.5zM880 292q29 0 43 21t14 81q0 56 -13.5 77t-41.5 21q-29 0 -44.5 -20.5t-15.5 -78.5t14.5 -79.5t43.5 -21.5zM716 184h329v-96h-329v96z" />
    <glyph glyph-name="trademark" unicode="&#x2122;" horiz-adv-x="847" 
d="M92 348v51l54 5v255h-65l-6 -51h-51v116h332v-116h-51l-5 51h-67v-255l57 -5v-51h-198zM661 348v50l50 5v184l-69 -158h-79l-70 159v-185l53 -5v-50h-164v50l36 5v268l-36 4v49h130l94 -221l91 221h126v-49l-38 -4v-268l40 -5v-50h-164z" />
    <glyph glyph-name="partialdiff" unicode="&#x2202;" horiz-adv-x="580" 
d="M381 372q2 33 -1 67.5t-14.5 62t-34.5 45t-61 17.5q-39 0 -77 -16t-65 -37l-59 91q42 31 101 52t125 21q70 0 115.5 -25.5t72 -67.5t37 -96.5t10.5 -112.5q0 -70 -11.5 -139t-42 -124t-82.5 -88.5t-133 -33.5q-109 0 -167 52.5t-58 152.5q0 52 14.5 92.5t41.5 69t65 43.5
t84 15q48 0 82.5 -13t57.5 -28zM374 274q-20 15 -44.5 26t-53.5 11q-50 0 -68.5 -30.5t-18.5 -81.5q0 -18 3.5 -36.5t12.5 -32.5t24 -23t38 -9q30 0 50 15t32 40t17.5 56.5t7.5 64.5z" />
    <glyph glyph-name="product" unicode="&#x220f;" horiz-adv-x="766" 
d="M440 -176v78l63 7q11 2 13.5 5.5t2.5 14.5v683h-274v-682q0 -12 2.5 -15t13.5 -5l67 -8v-78h-317v78l63 7q11 2 13.5 5.5t2.5 14.5v688q0 11 -2.5 15t-13.5 5l-63 7v80h745v-80l-67 -8q-11 -2 -13.5 -5t-2.5 -14v-687q0 -12 2.5 -15t13.5 -5l67 -8v-78h-316z" />
    <glyph glyph-name="summation" unicode="&#x2211;" horiz-adv-x="627" 
d="M10 -176v83l230 355l-221 383v79h550v-202l-111 5l-14 76q-3 13 -17 13h-221l186 -330l-224 -341h282q8 0 11 1.5t5 9.5l16 88h110v-220h-582z" />
    <glyph glyph-name="minus" unicode="&#x2212;" horiz-adv-x="570" 
d="M92 265v116h387v-116h-387z" />
    <glyph glyph-name="radical" unicode="&#x221a;" horiz-adv-x="579" 
d="M247 0l-119 208q-6 10 -18 7l-62 -14l-38 86l165 80l121 -225l161 604l122 -30l-192 -716h-140z" />
    <glyph glyph-name="infinity" unicode="&#x221e;" horiz-adv-x="657" 
d="M329 256q-12 -13 -27.5 -26.5t-34.5 -24.5t-42 -18t-51 -7q-27 0 -52 8.5t-44.5 25.5t-31 43.5t-11.5 63.5q0 34 12 60.5t32.5 44.5t48.5 27.5t59 9.5q49 0 85.5 -22t62.5 -49q28 26 61.5 48.5t82.5 22.5q30 0 56 -8.5t45.5 -25.5t30.5 -44t11 -65q0 -33 -11.5 -59.5
t-30.5 -44.5t-44 -28t-53 -10t-51 7.5t-42 18.5t-34 25t-27 27zM275 325q-22 23 -40 38t-47 15q-26 0 -41.5 -16t-15.5 -40q0 -20 13 -38t37 -18q29 0 52 19.5t42 39.5zM388 325q19 -21 38.5 -39t47.5 -18q27 0 40 17.5t13 38.5q0 26 -13.5 40.5t-39.5 14.5t-46.5 -17
t-39.5 -37z" />
    <glyph glyph-name="integral" unicode="&#x222b;" horiz-adv-x="392" 
d="M52 -68q18 -9 35 -13t31 -4q21 0 32.5 13t7.5 56l-52 599q-4 44 9.5 72t35 44t47.5 22t47 6q37 0 67 -6t62 -17l-26 -98q-18 9 -35 13t-31 4q-21 0 -32.5 -14t-7.5 -55l52 -599q4 -45 -9 -73t-35 -43.5t-48 -21.5t-47 -6q-37 0 -67 6t-62 17z" />
    <glyph glyph-name="approxequal" unicode="&#x2248;" horiz-adv-x="570" 
d="M509 502q-5 -25 -11.5 -48t-18 -40.5t-28.5 -28t-42 -10.5q-27 0 -57 6t-59 12.5t-56 12.5t-49 6q-20 0 -30.5 -9t-24.5 -32l-72 33q21 53 46.5 84t71.5 31q29 0 57 -6t56 -13t54 -13t50 -6q17 0 24 10.5t15 31.5zM509 311q-5 -25 -11.5 -48t-18 -40.5t-28.5 -28
t-42 -10.5q-27 0 -57 6t-59 12.5t-56 12.5t-49 6q-20 0 -31 -9t-24 -32l-72 33q21 53 46 83.5t72 30.5q29 0 57 -6t56 -12.5t54 -12.5t50 -6q17 0 24 10.5t15 31.5z" />
    <glyph glyph-name="notequal" unicode="&#x2260;" horiz-adv-x="570" 
d="M279 130l-33 -88h-106q2 4 3.5 7.5t3.5 8.5l27 72h-82v117h126l26 69h-152v117h196l34 90h106l-34 -90h84v-117h-129l-26 -69h155v-117h-199z" />
    <glyph glyph-name="lessequal" unicode="&#x2264;" horiz-adv-x="570" 
d="M89 263v140l385 142l7 -117l-269 -91l270 -94l-6 -117zM89 0v116h387v-116h-387z" />
    <glyph glyph-name="greaterequal" unicode="&#x2265;" horiz-adv-x="570" 
d="M94 126l-6 117l270 94l-269 88l7 120l385 -142v-140zM94 0v116h387v-116h-387z" />
    <glyph glyph-name="lozenge" unicode="&#x25ca;" horiz-adv-x="570" 
d="M230 -17l-155 324l155 324h110l155 -324l-155 -324h-110zM381 307l-96 199l-97 -199l97 -206z" />
    <glyph glyph-name="breve.cyr" 
d="M251 655q34 0 51.5 20t28.5 60l94 -26q-17 -68 -59 -104t-117 -36t-118 36t-56 102l100 30q5 -38 23 -60t53 -22z" />
    <glyph glyph-name="hyphen.case" horiz-adv-x="311" 
d="M20 287v127h271v-127h-271z" />
    </font>
</defs>
</svg>
