<svg width="194" height="67" viewBox="0 0 194 67" fill="none" xmlns="http://www.w3.org/2000/svg">
    <path
        d="M74.4609 32.2529C72.9277 32.9951 70.9258 33.3662 68.4551 33.3662C65.2324 33.3662 62.6982 32.4189 60.8525 30.5244C59.0068 28.6299 58.084 26.1055 58.084 22.9512C58.084 19.5918 59.1191 16.8672 61.1895 14.7773C63.2695 12.6875 65.9648 11.6426 69.2754 11.6426C71.3262 11.6426 73.0547 11.9014 74.4609 12.4189V16.9746C73.0547 16.1348 71.4531 15.7148 69.6562 15.7148C67.6836 15.7148 66.0918 16.335 64.8809 17.5752C63.6699 18.8154 63.0645 20.4951 63.0645 22.6143C63.0645 24.6455 63.6357 26.2666 64.7783 27.4775C65.9209 28.6787 67.459 29.2793 69.3926 29.2793C71.2383 29.2793 72.9277 28.8301 74.4609 27.9316V32.2529ZM82.2979 33H77.6689V10.793H82.2979V33ZM99.6709 26.8184H89.8857C90.042 28.9961 91.4141 30.085 94.002 30.085C95.6523 30.085 97.1025 29.6943 98.3525 28.9131V32.2529C96.9658 32.9951 95.1641 33.3662 92.9473 33.3662C90.5254 33.3662 88.6455 32.6973 87.3076 31.3594C85.9697 30.0117 85.3008 28.1367 85.3008 25.7344C85.3008 23.2441 86.0234 21.2715 87.4688 19.8164C88.9141 18.3613 90.6914 17.6338 92.8008 17.6338C94.9883 17.6338 96.6777 18.2832 97.8691 19.582C99.0703 20.8809 99.6709 22.6436 99.6709 24.8701V26.8184ZM95.3789 23.9766C95.3789 21.8281 94.5098 20.7539 92.7715 20.7539C92.0293 20.7539 91.3848 21.0615 90.8379 21.6768C90.3008 22.292 89.9736 23.0586 89.8564 23.9766H95.3789ZM114.905 33H110.525V30.8467H110.467C109.461 32.5264 107.972 33.3662 105.999 33.3662C104.544 33.3662 103.396 32.9561 102.557 32.1357C101.727 31.3057 101.312 30.2021 101.312 28.8252C101.312 25.915 103.035 24.2354 106.482 23.7861L110.555 23.2441C110.555 21.6035 109.666 20.7832 107.889 20.7832C106.102 20.7832 104.402 21.3154 102.791 22.3799V18.8936C103.436 18.5615 104.314 18.2686 105.428 18.0146C106.551 17.7607 107.571 17.6338 108.489 17.6338C112.767 17.6338 114.905 19.7676 114.905 24.0352V33ZM110.555 26.9062V25.8955L107.83 26.2471C106.326 26.4424 105.574 27.1211 105.574 28.2832C105.574 28.8105 105.755 29.2451 106.116 29.5869C106.487 29.9189 106.985 30.085 107.61 30.085C108.479 30.085 109.188 29.7871 109.734 29.1914C110.281 28.5859 110.555 27.8242 110.555 26.9062ZM133.055 33H128.44V24.665C128.44 22.3408 127.61 21.1787 125.95 21.1787C125.149 21.1787 124.49 21.4863 123.973 22.1016C123.455 22.7168 123.196 23.498 123.196 24.4453V33H118.567V18H123.196V20.373H123.255C124.358 18.5469 125.965 17.6338 128.074 17.6338C131.395 17.6338 133.055 19.6943 133.055 23.8154V33ZM139.075 15.627C138.294 15.627 137.654 15.3975 137.156 14.9385C136.658 14.4697 136.409 13.8984 136.409 13.2246C136.409 12.5313 136.658 11.9648 137.156 11.5254C137.654 11.0859 138.294 10.8662 139.075 10.8662C139.866 10.8662 140.506 11.0859 140.994 11.5254C141.492 11.9648 141.741 12.5313 141.741 13.2246C141.741 13.9277 141.492 14.5039 140.994 14.9531C140.506 15.4023 139.866 15.627 139.075 15.627ZM141.36 33H136.731V18H141.36V33ZM159.744 33H155.13V24.665C155.13 22.3408 154.3 21.1787 152.64 21.1787C151.839 21.1787 151.18 21.4863 150.662 22.1016C150.145 22.7168 149.886 23.498 149.886 24.4453V33H145.257V18H149.886V20.373H149.944C151.048 18.5469 152.654 17.6338 154.764 17.6338C158.084 17.6338 159.744 19.6943 159.744 23.8154V33ZM178.128 31.2861C178.128 34.0693 177.322 36.2227 175.711 37.7461C174.1 39.2793 171.766 40.0459 168.709 40.0459C166.688 40.0459 165.086 39.7578 163.904 39.1816V35.2852C165.447 36.1836 167.005 36.6328 168.577 36.6328C170.14 36.6328 171.351 36.2178 172.21 35.3877C173.069 34.5674 173.499 33.4492 173.499 32.0332V30.8467H173.44C172.386 32.5264 170.828 33.3662 168.768 33.3662C166.854 33.3662 165.335 32.6924 164.212 31.3447C163.089 29.9971 162.527 28.1904 162.527 25.9248C162.527 23.3857 163.152 21.3691 164.402 19.875C165.652 18.3809 167.298 17.6338 169.339 17.6338C171.165 17.6338 172.532 18.3369 173.44 19.7432H173.499V18H178.128V31.2861ZM173.558 25.793V24.6064C173.558 23.6592 173.274 22.8535 172.708 22.1895C172.151 21.5156 171.424 21.1787 170.525 21.1787C169.5 21.1787 168.694 21.5791 168.108 22.3799C167.522 23.1807 167.229 24.3086 167.229 25.7637C167.229 27.0137 167.508 28.0049 168.064 28.7373C168.621 29.46 169.383 29.8213 170.35 29.8213C171.307 29.8213 172.078 29.4551 172.664 28.7227C173.26 27.9805 173.558 27.0039 173.558 25.793ZM63.75 53.6328C63.1354 54.0026 62.4062 54.1875 61.5625 54.1875C60.4219 54.1875 59.5 53.8177 58.7969 53.0781C58.099 52.3333 57.75 51.3698 57.75 50.1875C57.75 48.8698 58.1276 47.8125 58.8828 47.0156C59.638 46.2135 60.6458 45.8125 61.9062 45.8125C62.6094 45.8125 63.2292 45.9427 63.7656 46.2031V47.5156C63.1719 47.099 62.5365 46.8906 61.8594 46.8906C61.0417 46.8906 60.3698 47.1849 59.8438 47.7734C59.3229 48.3568 59.0625 49.125 59.0625 50.0781C59.0625 51.0156 59.3073 51.7552 59.7969 52.2969C60.2917 52.8385 60.9531 53.1094 61.7812 53.1094C62.4792 53.1094 63.1354 52.8776 63.75 52.4141V53.6328ZM75.9141 54H74.6406V47.0859H72.7812C72.5677 49.6745 72.2005 51.4922 71.6797 52.5391C71.1641 53.5859 70.4688 54.1094 69.5938 54.1094C69.3281 54.1094 69.099 54.0729 68.9062 54V52.8984C69.0885 52.9922 69.2865 53.0391 69.5 53.0391C70.6458 53.0391 71.3828 50.6927 71.7109 46H75.9141V54ZM82.0625 50.3672H79.7969V54H78.5156V46H79.7969V49.2812H82.0781C82.2135 48.1875 82.6146 47.3359 83.2812 46.7266C83.9531 46.1172 84.8125 45.8125 85.8594 45.8125C87 45.8125 87.8828 46.1719 88.5078 46.8906C89.138 47.6094 89.4531 48.6354 89.4531 49.9688C89.4531 51.2656 89.1172 52.2943 88.4453 53.0547C87.7734 53.8099 86.849 54.1875 85.6719 54.1875C84.5625 54.1875 83.6953 53.8542 83.0703 53.1875C82.4505 52.5156 82.1146 51.5755 82.0625 50.3672ZM85.75 46.8906C84.1562 46.8906 83.3594 47.9323 83.3594 50.0156C83.3594 52.0781 84.1667 53.1094 85.7812 53.1094C87.3594 53.1094 88.1484 52.0781 88.1484 50.0156C88.1484 47.9323 87.349 46.8906 85.75 46.8906ZM97.7188 42.0625V43.2656C97.5052 43.4219 97.1615 43.5391 96.6875 43.6172C95.5156 43.7943 94.6953 43.9661 94.2266 44.1328C93.763 44.2943 93.3802 44.6432 93.0781 45.1797C92.7812 45.7161 92.5911 46.5 92.5078 47.5312H92.5391C93.1641 46.625 94.0547 46.1719 95.2109 46.1719C96.2682 46.1719 97.1198 46.5339 97.7656 47.2578C98.4115 47.9818 98.7344 48.9375 98.7344 50.125C98.7344 51.349 98.3958 52.3333 97.7188 53.0781C97.0469 53.8177 96.1406 54.1875 95 54.1875C93.7708 54.1875 92.8229 53.7526 92.1562 52.8828C91.4948 52.0078 91.1641 50.7604 91.1641 49.1406C91.1641 47.8802 91.2839 46.8125 91.5234 45.9375C91.763 45.0573 92.0938 44.3958 92.5156 43.9531C92.9427 43.5104 93.4141 43.2057 93.9297 43.0391C94.4505 42.8724 95.3411 42.6771 96.6016 42.4531C97.1016 42.3385 97.474 42.2083 97.7188 42.0625ZM92.4922 48.7969V49.9062C92.4974 50.3229 92.5599 50.7318 92.6797 51.1328C92.7995 51.5339 92.9714 51.888 93.1953 52.1953C93.4193 52.5026 93.6823 52.7318 93.9844 52.8828C94.2917 53.0339 94.6406 53.1094 95.0312 53.1094C95.7448 53.1094 96.3203 52.8438 96.7578 52.3125C97.2005 51.776 97.4219 51.0911 97.4219 50.2578C97.4219 49.3411 97.1953 48.6146 96.7422 48.0781C96.2943 47.5365 95.6875 47.2656 94.9219 47.2656C93.849 47.2656 93.0391 47.776 92.4922 48.7969ZM104.141 54.1875C102.958 54.1875 102.013 53.8151 101.305 53.0703C100.602 52.3203 100.25 51.3281 100.25 50.0938C100.25 48.75 100.617 47.7005 101.352 46.9453C102.086 46.1901 103.078 45.8125 104.328 45.8125C105.521 45.8125 106.451 46.1797 107.117 46.9141C107.789 47.6484 108.125 48.6667 108.125 49.9688C108.125 51.2448 107.763 52.2682 107.039 53.0391C106.32 53.8047 105.354 54.1875 104.141 54.1875ZM104.234 46.8906C103.411 46.8906 102.76 47.1719 102.281 47.7344C101.802 48.2917 101.562 49.0625 101.562 50.0469C101.562 50.9948 101.805 51.7422 102.289 52.2891C102.773 52.8359 103.422 53.1094 104.234 53.1094C105.062 53.1094 105.698 52.8411 106.141 52.3047C106.589 51.7682 106.812 51.0052 106.812 50.0156C106.812 49.0156 106.589 48.2448 106.141 47.7031C105.698 47.1615 105.062 46.8906 104.234 46.8906ZM110.172 54V46H113.656C114.443 46 115.062 46.1745 115.516 46.5234C115.974 46.8724 116.203 47.349 116.203 47.9531C116.203 48.9896 115.693 49.6198 114.672 49.8438C115.896 50 116.508 50.6172 116.508 51.6953C116.508 52.3464 116.255 52.8932 115.75 53.3359C115.25 53.7786 114.628 54 113.883 54H110.172ZM111.453 47.0938V49.3438H113.375C114.406 49.3438 114.922 48.9427 114.922 48.1406C114.922 47.4427 114.458 47.0938 113.531 47.0938H111.453ZM111.453 50.4375V52.9062H113.672C114.708 52.9062 115.227 52.487 115.227 51.6484C115.227 50.8411 114.646 50.4375 113.484 50.4375H111.453ZM118.656 54V46H119.938V49.0703H122.094C122.911 49.0703 123.56 49.2839 124.039 49.7109C124.523 50.138 124.766 50.7344 124.766 51.5C124.766 52.2708 124.523 52.8802 124.039 53.3281C123.555 53.776 122.943 54 122.203 54H118.656ZM119.938 50.1719V52.9062H121.859C122.922 52.9062 123.453 52.4375 123.453 51.5C123.453 50.6146 122.917 50.1719 121.844 50.1719H119.938ZM130.266 50.3672H128V54H126.719V46H128V49.2812H130.281C130.417 48.1875 130.818 47.3359 131.484 46.7266C132.156 46.1172 133.016 45.8125 134.062 45.8125C135.203 45.8125 136.086 46.1719 136.711 46.8906C137.341 47.6094 137.656 48.6354 137.656 49.9688C137.656 51.2656 137.32 52.2943 136.648 53.0547C135.977 53.8099 135.052 54.1875 133.875 54.1875C132.766 54.1875 131.898 53.8542 131.273 53.1875C130.654 52.5156 130.318 51.5755 130.266 50.3672ZM133.953 46.8906C132.359 46.8906 131.562 47.9323 131.562 50.0156C131.562 52.0781 132.37 53.1094 133.984 53.1094C135.562 53.1094 136.352 52.0781 136.352 50.0156C136.352 47.9323 135.552 46.8906 133.953 46.8906Z"
        fill="white" />
    <g clip-path="url(#clip0)">
        <path
            d="M39.4834 10C38.8918 10.9567 25.4301 17.9 21.3901 24.415C17.3501 30.9317 16.1968 36.0617 17.6618 40.885C19.1268 45.7067 21.9268 45.49 23.5218 47.08C25.1184 48.67 27.2834 50.6017 30.7418 49.8217C35.2701 48.8 39.6334 45.7783 41.8051 37.3083C43.9751 28.8383 42.5518 21.42 41.6334 17.325C41.0757 14.8395 40.3575 12.3927 39.4834 10V10ZM39.2534 11.43L23.8868 47.405L22.9301 46.4433L39.2534 11.43Z"
            fill="white" />
    </g>
    <defs>
        <clipPath id="clip0">
            <rect x="10" y="10" width="40" height="40" rx="5" fill="white" />
        </clipPath>
    </defs>
</svg>