<svg width="17" height="17" viewBox="0 0 17 17" fill="none" xmlns="http://www.w3.org/2000/svg">
<path d="M16.3605 13.0554L12.5574 9.5976C12.3776 9.4342 12.1414 9.34706 11.8986 9.35457C11.6558 9.36207 11.4254 9.46364 11.256 9.63783L9.01724 11.9402C8.47835 11.8373 7.39497 11.4996 6.27978 10.3872C5.16458 9.27109 4.82684 8.1849 4.72674 7.64977L7.02729 5.41004C7.20169 5.24082 7.30341 5.01039 7.31092 4.76751C7.31843 4.52462 7.23114 4.28835 7.06752 4.10868L3.61061 0.306575C3.44693 0.126346 3.21943 0.0170237 2.97644 0.00182601C2.73345 -0.0133717 2.4941 0.0667524 2.30924 0.225181L0.279062 1.96625C0.117313 2.12859 0.020771 2.34464 0.00774831 2.57343C-0.00628516 2.80732 -0.273857 8.34769 4.02226 12.6456C7.77013 16.3925 12.4648 16.6667 13.7577 16.6667C13.9467 16.6667 14.0627 16.6611 14.0936 16.6592C14.3224 16.6464 14.5383 16.5494 14.6999 16.3869L16.44 14.3558C16.5991 14.1716 16.6798 13.9324 16.6649 13.6894C16.6501 13.4465 16.5408 13.2189 16.3605 13.0554Z" fill="white"/>
</svg>
