<svg width="45" height="45" viewBox="0 0 45 45" fill="none" xmlns="http://www.w3.org/2000/svg">
<path d="M41.6755 7.15896C38.4563 7.15896 35.8373 4.5399 35.8373 1.32082V0H9.16189V1.32082C9.16189 4.54008 6.54283 7.15896 3.32375 7.15896H2.00293V15.9426C2.00293 22.2544 3.90427 28.3322 7.50163 33.5186C11.099 38.7049 16.1252 42.6154 22.0369 44.8269L22.4996 45L22.9625 44.8269C28.8743 42.6154 33.9005 38.705 37.4976 33.5186C41.095 28.3322 42.9963 22.2544 42.9963 15.9426V7.15896H41.6755ZM40.3548 15.9426H40.3547C40.3547 21.7138 38.6161 27.2708 35.3269 32.0129C32.1322 36.6191 27.7044 40.1246 22.4995 42.1748C17.2948 40.1245 12.8669 36.6191 9.67218 32.0129C6.38305 27.2709 4.64457 21.7138 4.64457 15.9426V9.69794C8.26478 9.12929 11.1322 6.26186 11.7009 2.64164H33.2985C33.8671 6.26186 36.7345 9.12929 40.3548 9.69794V15.9426Z" fill="#205B59"/>
<path d="M28.3944 12.4089L19.6513 21.1521L16.6067 18.1075L11.0029 23.7113L19.6513 32.3597L33.9981 18.0128L28.3944 12.4089ZM14.7388 23.7115L16.6067 21.8436L19.6514 24.8882L28.3945 16.145L30.2624 18.0129L19.6514 28.624L14.7388 23.7115Z" fill="#205B59"/>
</svg>
