<svg width="45" height="45" viewBox="0 0 45 45" fill="none" xmlns="http://www.w3.org/2000/svg">
<path d="M6.31564 35.8695L10.5469 37.9847V42.7148C10.5469 43.2003 10.9404 43.5938 11.4258 43.5938H20.7422C21.2275 43.5938 21.6211 43.2003 21.6211 42.7148V31.2407C21.6211 28.548 19.6011 26.3149 16.9285 26.047C16.9182 26.0441 13.2108 25.4653 11.4907 23.7452L9.51688 21.7723C8.85278 21.1081 7.97001 20.7422 7.03125 20.7422V13.7109C7.03125 11.7724 5.45414 10.1953 3.51562 10.1953C1.57711 10.1953 0 11.7724 0 13.7109V25.65C0 27.7733 0.590098 29.8504 1.7064 31.6566C2.82261 33.4629 4.4165 34.9196 6.31564 35.8695ZM1.75781 13.7109C1.75781 12.7417 2.54637 11.9531 3.51562 11.9531C4.48488 11.9531 5.27344 12.7417 5.27344 13.7109V21.2134C4.20152 21.8332 3.51562 22.9888 3.51562 24.2578C3.51562 25.1965 3.88143 26.0792 4.54562 26.7434L9.04649 31.2451C9.38953 31.5883 9.94614 31.5885 10.2894 31.2452C10.6327 30.902 10.6327 30.3456 10.2895 30.0023L5.78865 25.5004C5.45643 25.1683 5.27344 24.727 5.27344 24.2578C5.27344 23.5139 5.74427 22.8477 6.4452 22.6001C6.44546 22.6 6.44572 22.5998 6.44599 22.5998H6.44607C7.05217 22.385 7.7712 22.5124 8.27411 23.0153L10.248 24.9884C12.2858 27.0261 16.7381 27.7929 16.7469 27.7954C18.5236 27.9735 19.8633 29.4547 19.8633 31.2407V41.8359H12.3047V37.4414C12.3047 37.1085 12.1165 36.8041 11.8188 36.6553L7.10183 34.2972C3.80558 32.6487 1.75781 29.3353 1.75781 25.65V13.7109Z" fill="#205B59"/>
<path d="M21.6211 21.6212C21.6211 22.1066 22.0147 22.5001 22.5 22.5001C22.9853 22.5001 23.3789 22.1066 23.3789 21.6212V18.9845H26.7434C31.6731 18.9845 35.6836 14.9739 35.6836 10.0442V5.80087C35.6836 5.44544 35.4694 5.1249 35.141 4.98884C34.8126 4.85279 34.4346 4.92802 34.1832 5.17939C33.2157 6.14698 31.9294 6.67977 30.5613 6.67977C27.6218 6.67977 25.0094 8.10597 23.3789 10.3025V2.28524C23.3789 1.79982 22.9853 1.40633 22.5 1.40633C22.0147 1.40633 21.6211 1.79982 21.6211 2.28524V6.787C19.9906 4.59044 17.3782 3.16415 14.4387 3.16415C13.0706 3.16415 11.7843 2.63135 10.8168 1.66377C10.5655 1.4124 10.1874 1.33708 9.85895 1.47322C9.5306 1.60936 9.31641 1.92981 9.31641 2.28524V6.5286C9.31641 11.4583 13.3269 15.4688 18.2566 15.4688H21.6211V21.6212ZM30.5613 8.43758C31.7588 8.43758 32.9098 8.13366 33.9258 7.56228V10.0442C33.9258 14.0047 30.7038 17.2266 26.7434 17.2266H25.1367L30.0586 13.5352C30.4469 13.2441 30.5256 12.6931 30.2344 12.3048C29.9432 11.9165 29.3923 11.8376 29.0039 12.129L23.3789 16.3477V15.62C23.3789 11.6597 26.6009 8.43758 30.5613 8.43758ZM11.0742 6.5286V4.04666C12.0903 4.61803 13.2412 4.92196 14.4387 4.92196C18.3991 4.92196 21.6211 8.14403 21.6211 12.1044V12.8321L15.9961 8.61337C15.6078 8.32218 15.0569 8.40085 14.7656 8.78915C14.4744 9.17745 14.5531 9.72843 14.9414 10.0196L19.8633 13.711H18.2566C14.2962 13.711 11.0742 10.489 11.0742 6.5286Z" fill="#205B59"/>
<path d="M40.3418 34.6289C40.8272 34.6289 41.2207 34.2354 41.2207 33.75C41.2207 33.2646 40.8272 32.8711 40.3418 32.8711C39.8564 32.8711 39.4629 33.2646 39.4629 33.75C39.4629 34.2354 39.8564 34.6289 40.3418 34.6289Z" fill="#205B59"/>
<path d="M41.4844 10.1953C39.5459 10.1953 37.9688 11.7724 37.9688 13.7109V20.7422C37.03 20.7422 36.1472 21.108 35.4833 21.772L33.5091 23.7453C31.8271 25.4275 28.0867 26.0438 28.0778 26.0464C25.3989 26.315 23.3789 28.548 23.3789 31.2408V42.7148C23.3789 43.2003 23.7725 43.5938 24.2578 43.5938H33.5742C34.0596 43.5938 34.4531 43.2003 34.4531 42.7148V37.9847L37.3298 36.5466C37.7639 36.3295 37.9399 35.8016 37.7229 35.3674C37.5059 34.9333 36.9782 34.7572 36.5438 34.9742L33.1812 36.6551C32.8835 36.8042 32.6953 37.1085 32.6953 37.4414V41.8359H25.1367V31.2407C25.1367 29.4547 26.4764 27.9735 28.2594 27.7947C28.2683 27.7922 32.6035 27.1368 34.7519 24.9884L36.7261 23.015C37.2291 22.512 37.9489 22.3852 38.5539 22.5997H38.554C38.5543 22.5998 38.5545 22.5999 38.5548 22.6C39.2557 22.8478 39.7266 23.514 39.7266 24.2578C39.7266 24.727 39.5436 25.1683 39.2114 25.5006L34.7106 30.0023C34.3673 30.3456 34.3674 30.9021 34.7106 31.2453C35.0538 31.5884 35.6104 31.5885 35.9536 31.2452L40.4545 26.7434C41.1186 26.0793 41.4844 25.1965 41.4844 24.2578C41.4844 22.9888 40.7985 21.8332 39.7266 21.2134V13.7109C39.7266 12.7417 40.5151 11.9531 41.4844 11.9531C42.4536 11.9531 43.2422 12.7417 43.2422 13.7109V25.65C43.2422 27.258 42.8364 28.8545 42.0686 30.2667C41.8366 30.6932 41.9944 31.2268 42.4209 31.4587C42.8473 31.6905 43.3811 31.5328 43.6129 31.1063C44.5204 29.4373 45 27.5505 45 25.65V13.7109C45 11.7724 43.4229 10.1953 41.4844 10.1953Z" fill="#205B59"/>
</svg>
