<svg width="45" height="45" viewBox="0 0 45 45" fill="none" xmlns="http://www.w3.org/2000/svg">
<path d="M1.62988 37.8956L3.02849 38.0418C3.37396 34.735 4.13889 31.4855 5.30485 28.3718L3.98808 27.8782C2.7802 31.1037 1.98777 34.4699 1.62988 37.8956Z" fill="#205B59"/>
<path d="M1.40625 42.1874V43.5936H2.8125V42.1874C2.8125 41.2671 2.84467 40.3373 2.90795 39.4236L1.50513 39.3262C1.43947 40.2722 1.40625 41.2349 1.40625 42.1874Z" fill="#205B59"/>
<path d="M9.84375 42.4834V43.5937H11.25V42.4834C11.2486 39.8338 11.5864 37.1948 12.2552 34.6309L10.8947 34.2751C10.1955 36.9552 9.84232 39.7137 9.84375 42.4834Z" fill="#205B59"/>
<path d="M15.6689 32.8408L16.6632 31.8466L18.0692 33.2526L17.075 34.2468L15.6689 32.8408Z" fill="#205B59"/>
<path d="M12.8574 30.0281L13.8516 29.0339L15.2576 30.4399L14.2634 31.4341L12.8574 30.0281Z" fill="#205B59"/>
<path d="M10.0449 27.2153L11.0391 26.2211L12.4451 27.6271L11.4509 28.6213L10.0449 27.2153Z" fill="#205B59"/>
<path d="M7.2334 24.4028L8.22762 23.4086L9.63362 24.8146L8.63941 25.8088L7.2334 24.4028Z" fill="#205B59"/>
<path d="M4.42188 21.5901L5.41609 20.5959L6.8221 22.0019L5.82788 22.9961L4.42188 21.5901Z" fill="#205B59"/>
<path d="M43.0965 35.6535L44.091 34.659L42.4788 33.0469L43.3878 32.1378C43.4531 32.0725 43.5049 31.995 43.5402 31.9097C43.5756 31.8244 43.5938 31.733 43.5938 31.6406C43.5938 31.5483 43.5756 31.4569 43.5402 31.3715C43.5049 31.2862 43.4531 31.2087 43.3878 31.1434L39.3009 27.0565L38.3065 28.0509L39.7869 29.5312L31.1434 38.1747L32.1378 39.1691L40.7812 30.5256L41.8963 31.6406L31.6406 41.8963L11.0441 21.2998C10.9232 21.1807 10.827 21.0389 10.7612 20.8826C10.6953 20.7262 10.6611 20.5583 10.6605 20.3886C10.6598 20.219 10.6927 20.0509 10.7574 19.894C10.822 19.7371 10.917 19.5946 11.037 19.4746C11.157 19.3546 11.2995 19.2596 11.4564 19.1949C11.6132 19.1303 11.7814 19.0973 11.951 19.098C12.1207 19.0986 12.2886 19.1329 12.4449 19.1987C12.6013 19.2645 12.7431 19.3607 12.8622 19.4816L19.1903 25.8097C19.2556 25.875 19.3331 25.9268 19.4184 25.9621C19.5037 25.9975 19.5952 26.0156 19.6875 26.0156C19.7798 26.0156 19.8713 25.9975 19.9566 25.9621C20.0419 25.9268 20.1194 25.875 20.1847 25.8097C20.25 25.7444 20.3018 25.6669 20.3371 25.5816C20.3725 25.4963 20.3906 25.4048 20.3906 25.3125C20.3906 25.2202 20.3725 25.1287 20.3371 25.0434C20.3018 24.9581 20.25 24.8806 20.1847 24.8153L13.8566 18.4872C13.7357 18.3681 13.6395 18.2263 13.5737 18.07C13.5078 17.9136 13.4736 17.7457 13.473 17.5761C13.4723 17.4064 13.5052 17.2383 13.5699 17.0814C13.6345 16.9245 13.7295 16.782 13.8495 16.662C13.9695 16.542 14.112 16.447 14.2689 16.3823C14.4257 16.3177 14.5939 16.2848 14.7635 16.2854C14.9332 16.2861 15.1011 16.3203 15.2574 16.3861C15.4138 16.452 15.5556 16.5481 15.6747 16.669L22.0028 22.9971C22.1347 23.1289 22.3135 23.203 22.4999 23.203C22.6864 23.203 22.8652 23.1289 22.997 22.9971C23.1244 22.8629 23.1954 22.6849 23.1954 22.4998C23.1954 22.3148 23.1244 22.1368 22.997 22.0025L16.6689 15.6744C16.548 15.5554 16.4519 15.4136 16.386 15.2572C16.3202 15.1008 16.2859 14.933 16.2853 14.7633C16.2846 14.5936 16.3176 14.4255 16.3822 14.2686C16.4468 14.1117 16.5418 13.9692 16.6618 13.8492C16.7818 13.7292 16.9243 13.6342 17.0812 13.5696C17.2381 13.5049 17.4062 13.472 17.5759 13.4726C17.7455 13.4733 17.9134 13.5075 18.0698 13.5734C18.2262 13.6392 18.368 13.7353 18.487 13.8562L24.8151 20.1843C24.947 20.3162 25.1258 20.3902 25.3122 20.3902C25.4987 20.3902 25.6775 20.3162 25.8093 20.1843C25.9373 20.0504 26.0086 19.8723 26.0086 19.6871C26.0086 19.5018 25.9373 19.3237 25.8093 19.1898L19.4812 12.8617C19.3603 12.7426 19.2642 12.6008 19.1983 12.4444C19.1325 12.2881 19.0983 12.1202 19.0976 11.9505C19.0969 11.7809 19.1299 11.6127 19.1945 11.4559C19.2591 11.299 19.3542 11.1564 19.4741 11.0365C19.5941 10.9165 19.7366 10.8214 19.8935 10.7568C20.0504 10.6922 20.2185 10.6592 20.3882 10.6599C20.5579 10.6605 20.7257 10.6948 20.8821 10.7606C21.0385 10.8264 21.1803 10.9226 21.2993 11.0435L29.7702 19.5144C29.8652 19.6056 29.9836 19.6686 30.1124 19.6964C30.2411 19.7242 30.375 19.7157 30.4991 19.6718C30.6233 19.6278 30.7328 19.5502 30.8153 19.4477C30.8979 19.3451 30.9504 19.2216 30.9668 19.0909L31.4572 14.4315C31.4887 14.1316 31.6321 13.8546 31.8588 13.6557C32.0855 13.4569 32.3788 13.3508 32.6803 13.3587C32.9817 13.3666 33.2691 13.4879 33.4851 13.6983C33.701 13.9088 33.8297 14.1929 33.8454 14.494L34.3366 23.8254C34.3456 23.9989 34.4187 24.1628 34.5415 24.2856L37.3394 27.0835L38.3338 26.0891L35.727 23.4826L35.6639 22.2836L37.9688 19.979C38.4114 19.5237 38.663 18.9162 38.6719 18.2812C38.6728 17.9658 38.6111 17.6533 38.4904 17.3619C38.3697 17.0705 38.1924 16.8059 37.9688 16.5835L35.1206 13.7353C34.9925 13.3513 34.7769 13.0024 34.4907 12.7161C34.2044 12.4299 33.8555 12.2143 33.4715 12.0863L23.9912 2.60613C23.2226 1.83796 22.1804 1.40638 21.0938 1.40625C20.0077 1.40937 18.9666 1.84049 18.1963 2.60613L6.1679 14.6347L7.16221 15.6291L19.1906 3.60062C19.6965 3.0977 20.3804 2.81453 21.0938 2.8125C21.8075 2.81265 22.492 3.09611 22.9968 3.60062L31.5782 12.1816C31.1781 12.3618 30.8301 12.6403 30.5666 12.9911L21.5792 4.41299L20.6083 5.4305L30.0431 14.4359L29.7229 17.4785L22.2941 10.0498C21.9103 9.66569 21.4194 9.40668 20.8857 9.30678C20.3521 9.20687 19.8007 9.27074 19.304 9.49C18.8073 9.70926 18.3886 10.0736 18.1028 10.5353C17.817 10.9969 17.6776 11.5342 17.7028 12.0765C17.6614 12.0747 17.6198 12.0738 17.5781 12.0737C17.2143 12.0736 16.8542 12.1473 16.5197 12.2904C16.1852 12.4335 15.8832 12.6429 15.6319 12.9061C15.3806 13.1692 15.1854 13.4806 15.0579 13.8214C14.9305 14.1621 14.8735 14.5252 14.8903 14.8887C14.8489 14.8869 14.8073 14.8859 14.7656 14.8859C14.4018 14.8858 14.0417 14.9595 13.7071 15.1026C13.3726 15.2457 13.0705 15.4552 12.8193 15.7183C12.568 15.9815 12.3728 16.2929 12.2453 16.6338C12.1179 16.9746 12.0609 17.3377 12.0778 17.7012C12.0364 17.6994 11.9948 17.6984 11.9531 17.6984C11.4207 17.6984 10.9003 17.8563 10.4577 18.1521C10.015 18.4479 9.67003 18.8683 9.4663 19.3602C9.26256 19.852 9.20925 20.3933 9.31309 20.9154C9.41693 21.4376 9.67326 21.9172 10.0497 22.2937L21.8572 34.1016L20.3906 35.5681L19.4816 34.659L18.4872 35.6535L19.3962 36.5625L18.9844 36.9741C18.7958 37.1568 18.5435 37.259 18.2809 37.259C18.0184 37.259 17.7661 37.1568 17.5775 36.9741L3.60053 22.9968C3.2242 22.6203 2.96794 22.1407 2.86416 21.6185C2.76038 21.0964 2.81372 20.5553 3.01746 20.0635C3.15225 19.7369 3.35046 19.4403 3.60062 19.1907L6.16614 16.6251L5.17175 15.6307L2.60631 18.1963C2.22581 18.5768 1.924 19.0285 1.71809 19.5256C1.51218 20.0228 1.40622 20.5556 1.40625 21.0938C1.40928 22.1799 1.84046 23.221 2.60622 23.9912L16.5834 37.9688C17.0384 38.4119 17.6461 38.6635 18.2812 38.6719C18.5967 38.6727 18.9091 38.611 19.2006 38.4903C19.492 38.3697 19.7566 38.1924 19.979 37.9688L22.8516 35.096L31.1434 43.3878C31.2087 43.4531 31.2862 43.5049 31.3715 43.5402C31.4569 43.5756 31.5483 43.5938 31.6406 43.5938C31.733 43.5938 31.8244 43.5756 31.9097 43.5402C31.995 43.5049 32.0725 43.4531 32.1378 43.3878L33.0469 42.4788L34.659 44.091L35.6535 43.0965L34.0413 41.4844L41.4844 34.0412L43.0965 35.6535ZM35.5264 19.6704L35.9162 20.0426L35.5646 20.3941L35.5264 19.6704ZM37.2507 18.2812C37.253 18.4109 37.2298 18.5397 37.1823 18.6603C37.1349 18.781 37.0641 18.8911 36.9741 18.9844L36.9108 19.0477L35.4186 17.6228L35.3297 15.9332L36.9741 17.5781C37.1546 17.7674 37.2539 18.0197 37.2507 18.2812Z" fill="#205B59"/>
<path d="M28.3715 5.30429L27.8779 3.98742C32.3107 2.32629 37.1226 1.45784 42.18 1.40625L42.1944 2.8125C37.3011 2.86233 32.6505 3.70064 28.3715 5.30429Z" fill="#205B59"/>
<path d="M35.3123 12.3127L35.001 10.9416C37.2542 10.4304 39.6025 10.1682 42.1802 10.1401L42.1955 11.5464C39.7186 11.5729 37.4671 11.8237 35.3123 12.3127Z" fill="#205B59"/>
</svg>
