<svg width="45" height="45" viewBox="0 0 45 45" fill="none" xmlns="http://www.w3.org/2000/svg">
<path d="M4.92188 18.1055C4.92245 17.5928 5.12635 17.1013 5.48885 16.7388C5.85134 16.3764 6.34282 16.1725 6.85547 16.1719H14.2383C14.7509 16.1725 15.2424 16.3764 15.6049 16.7388C15.9674 17.1013 16.1713 17.5928 16.1719 18.1055V21.7969H17.5781V18.1055C17.5771 17.22 17.2249 16.3711 16.5988 15.745C15.9727 15.1188 15.1238 14.7666 14.2383 14.7656H14.0625V10.7227C14.062 10.3032 13.8952 9.90111 13.5986 9.60452C13.302 9.30794 12.8999 9.1411 12.4805 9.14062H8.61328C8.19385 9.1411 7.79173 9.30794 7.49515 9.60452C7.19856 9.90111 7.03173 10.3032 7.03125 10.7227V14.7656H6.85547C5.97 14.7666 5.12108 15.1188 4.49496 15.745C3.86883 16.3711 3.51663 17.22 3.51562 18.1055V22.5H4.92188V18.1055ZM8.4375 10.7227C8.43755 10.6761 8.45609 10.6314 8.48904 10.5984C8.522 10.5655 8.56668 10.5469 8.61328 10.5469H12.4805C12.5271 10.5469 12.5718 10.5655 12.6047 10.5984C12.6377 10.6314 12.6562 10.6761 12.6562 10.7227V14.7656H8.4375V10.7227Z" fill="#205B59"/>
<path d="M14.7656 22.5V19.8633C14.7651 19.4438 14.5983 19.0417 14.3017 18.7451C14.0051 18.4486 13.603 18.2817 13.1836 18.2812H7.91016C7.49072 18.2817 7.08861 18.4486 6.79202 18.7451C6.49544 19.0417 6.3286 19.4438 6.32812 19.8633V22.5H7.73438V19.8633C7.73443 19.8167 7.75297 19.772 7.78592 19.739C7.81887 19.7061 7.86355 19.6876 7.91016 19.6875H13.1836C13.2302 19.6876 13.2749 19.7061 13.3078 19.739C13.3408 19.772 13.3593 19.8167 13.3594 19.8633V22.5H14.7656Z" fill="#205B59"/>
<path d="M6.32813 36.5625C5.91093 36.5625 5.5031 36.6862 5.15622 36.918C4.80933 37.1498 4.53897 37.4792 4.37932 37.8647C4.21966 38.2501 4.17789 38.6742 4.25928 39.0834C4.34067 39.4926 4.54157 39.8684 4.83657 40.1634C5.13157 40.4584 5.50743 40.6593 5.91661 40.7407C6.32579 40.8221 6.74991 40.7803 7.13535 40.6207C7.52079 40.461 7.85023 40.1907 8.08201 39.8438C8.31379 39.4969 8.4375 39.0891 8.4375 38.6719C8.43687 38.1126 8.21443 37.5765 7.81898 37.181C7.42353 36.7856 6.88737 36.5631 6.32813 36.5625ZM6.32813 39.375C6.18906 39.375 6.05312 39.3338 5.93749 39.2565C5.82186 39.1792 5.73174 39.0694 5.67852 38.941C5.62531 38.8125 5.61138 38.6711 5.63851 38.5347C5.66564 38.3983 5.73261 38.273 5.83094 38.1747C5.92928 38.0764 6.05456 38.0094 6.19095 37.9823C6.32735 37.9551 6.46872 37.9691 6.5972 38.0223C6.72568 38.0755 6.83549 38.1656 6.91275 38.2812C6.99001 38.3969 7.03125 38.5328 7.03125 38.6719C7.03104 38.8583 6.95689 39.037 6.82507 39.1688C6.69326 39.3006 6.51454 39.3748 6.32813 39.375Z" fill="#205B59"/>
<path d="M16.9348 14.3463C16.9744 14.436 17.0323 14.5164 17.1048 14.5824C17.1773 14.6484 17.2628 14.6985 17.3558 14.7296L19.4651 15.4327C19.5966 15.4765 19.738 15.4805 19.8717 15.4442C20.0054 15.4078 20.1254 15.3329 20.2166 15.2286L23.9063 11.0119V12.4346L19.1115 19.2843C19.0288 19.4025 18.9844 19.5432 18.9844 19.6875V21.7969H20.3906V19.9091L24.9754 13.3594H28.305L30.2344 19.7907V22.5H31.6406V19.6875C31.6406 19.6191 31.6306 19.551 31.611 19.4855L29.5313 12.5531V9.84375V9.84169C29.5313 9.83708 29.5312 9.83247 29.5311 9.82787L29.531 9.82455C29.5309 9.81974 29.5307 9.81493 29.5305 9.81012L29.5301 9.80384L29.5296 9.79564C29.5292 9.79015 29.5288 9.7847 29.5283 9.77925L29.5282 9.77773C29.5186 9.67449 29.4862 9.57469 29.4332 9.48553L26.6261 4.57305C26.5646 4.46542 26.4758 4.37596 26.3686 4.31374C26.2613 4.25152 26.1396 4.21875 26.0156 4.21875H17.5781C17.3916 4.21875 17.2128 4.29283 17.0809 4.42469C16.9491 4.55655 16.875 4.73539 16.875 4.92188V7.03125C16.875 7.17883 16.9214 7.32267 17.0077 7.44239C17.094 7.56212 17.2158 7.65166 17.3558 7.69834L18.3855 8.04156L18.3315 8.17642C18.2943 8.2696 18.2774 8.36967 18.282 8.46992C18.2866 8.57017 18.3126 8.66827 18.3583 8.75762C18.404 8.84697 18.4683 8.9255 18.5469 8.98794C18.6254 9.05038 18.7165 9.09528 18.8138 9.11961L18.9863 9.16275L16.9356 13.777C16.8958 13.8666 16.8751 13.9635 16.875 14.0615C16.8749 14.1596 16.8952 14.2566 16.9348 14.3463ZM25.3125 11.9531V10.5469H28.125V11.9531H25.3125ZM20.8666 5.625H25.6076L27.6165 9.14062H24.6959L19.9364 7.95075L20.8666 5.625ZM18.2813 6.52442V5.625H19.3521L18.9087 6.73355L18.2813 6.52442ZM20.3714 9.50897L22.8177 10.1206L19.4663 13.9507L18.5352 13.6404L20.3714 9.50897Z" fill="#205B59"/>
<path d="M43.4756 36.1725L39.5178 30.2357C39.3736 30.0188 39.1779 29.841 38.9482 29.7181C38.7185 29.5951 38.462 29.531 38.2015 29.5312H37.2656V7.73438H35.8594V29.5312H34.4531V2.98828C34.4532 2.94168 34.4717 2.897 34.5047 2.86404C34.5376 2.83109 34.5823 2.81255 34.6289 2.8125H35.6836C35.7302 2.81255 35.7749 2.83109 35.8078 2.86404C35.8408 2.897 35.8593 2.94168 35.8594 2.98828V6.32812H37.2656V2.98828C37.2651 2.56885 37.0983 2.16673 36.8017 1.87015C36.5051 1.57356 36.103 1.40673 35.6836 1.40625H34.6289C34.2095 1.40673 33.8074 1.57356 33.5108 1.87015C33.2142 2.16673 33.0474 2.56885 33.0469 2.98828V23.9062H25.3125C25.3125 23.7198 25.2384 23.5409 25.1066 23.4091C24.9747 23.2772 24.7959 23.2031 24.6094 23.2031H12.6562C12.4698 23.2031 12.2909 23.2772 12.1591 23.4091C12.0272 23.5409 11.9531 23.7198 11.9531 23.9062H2.10938C1.92289 23.9062 1.74405 23.9803 1.61219 24.1122C1.48033 24.2441 1.40625 24.4229 1.40625 24.6094V25.6641C1.40698 26.3165 1.66649 26.942 2.12785 27.4034C2.58921 27.8648 3.21473 28.1243 3.86719 28.125H4.21875V30.9375H5.625V28.125H11.9531V36.5625C11.9531 36.749 12.0272 36.9278 12.1591 37.0597C12.2909 37.1915 12.4698 37.2656 12.6562 37.2656H21.0938V35.8594H13.3594V33.75H23.9062V35.8594H22.5V37.2656H24.6094C24.7959 37.2656 24.9747 37.1915 25.1066 37.0597C25.2384 36.9278 25.3125 36.749 25.3125 36.5625V28.125H33.0469V29.5312H32.111C31.8505 29.531 31.594 29.5951 31.3643 29.7181C31.1346 29.841 30.9389 30.0188 30.7947 30.2357L26.8369 36.1725C26.7598 36.288 26.7187 36.4237 26.7188 36.5625V42.1875H9.76941C10.5107 41.4614 11.0036 40.5195 11.1775 39.4965C11.3514 38.4735 11.1975 37.4217 10.7378 36.4913C10.2782 35.561 9.53617 34.7998 8.61792 34.3165C7.69966 33.8331 6.65213 33.6524 5.625 33.8001V32.3438H4.21875V34.2253C3.20909 34.7042 2.39246 35.5124 1.90315 36.5171C1.41384 37.5217 1.281 38.663 1.52646 39.7532C1.77193 40.8434 2.38108 41.8176 3.25375 42.5156C4.12642 43.2136 5.21065 43.5938 6.32812 43.5938C6.44632 43.5938 6.56351 43.5896 6.67969 43.5813V43.5938H42.8906C43.0771 43.5938 43.2559 43.5197 43.3878 43.3878C43.5197 43.2559 43.5938 43.0771 43.5938 42.8906V36.5625C43.5938 36.4237 43.5527 36.288 43.4756 36.1725ZM23.9062 24.6094V29.5312H13.3594V24.6094H23.9062ZM3.86719 26.7188C3.58756 26.7184 3.31948 26.6072 3.12176 26.4095C2.92403 26.2118 2.81281 25.9437 2.8125 25.6641V25.3125H11.9531V26.7188H3.86719ZM13.3594 32.3438V30.9375H23.9062V32.3438H13.3594ZM25.3125 26.7188V25.3125H33.0469V26.7188H25.3125ZM2.8125 38.6719C2.8125 37.9766 3.01869 37.2968 3.40499 36.7187C3.79129 36.1406 4.34036 35.69 4.98275 35.4239C5.62515 35.1578 6.33203 35.0882 7.01399 35.2238C7.69595 35.3595 8.32238 35.6943 8.81405 36.186C9.30572 36.6776 9.64055 37.304 9.7762 37.986C9.91185 38.668 9.84223 39.3749 9.57614 40.0172C9.31005 40.6596 8.85944 41.2087 8.2813 41.595C7.70316 41.9813 7.02345 42.1875 6.32812 42.1875C5.39605 42.1864 4.50245 41.8157 3.84337 41.1566C3.18429 40.4976 2.81356 39.604 2.8125 38.6719ZM31.9647 31.0158C31.9808 30.9917 32.0025 30.9719 32.028 30.9583C32.0536 30.9446 32.0821 30.9375 32.111 30.9375H38.2015C38.2304 30.9375 38.2589 30.9446 38.2845 30.9583C38.31 30.9719 38.3317 30.9917 38.3478 31.0158L42.0456 36.5625H28.2669L31.9647 31.0158ZM39.375 42.1875V39.375H37.9688V42.1875H35.8594V39.375H34.4531V42.1875H32.3438V39.375H30.9375V42.1875H28.125V37.9688H42.1875V42.1875H39.375Z" fill="#205B59"/>
<path d="M32.3438 33.0469H33.75V34.4531H32.3438V33.0469Z" fill="#205B59"/>
<path d="M36.5625 33.0469H37.9688V34.4531H36.5625V33.0469Z" fill="#205B59"/>
<path d="M40.0781 11.25H41.4844V12.6562H40.0781V11.25Z" fill="#205B59"/>
<path d="M40.0781 14.0625H41.4844V15.4688H40.0781V14.0625Z" fill="#205B59"/>
<path d="M38.6719 12.6562H40.0781V14.0625H38.6719V12.6562Z" fill="#205B59"/>
<path d="M41.4844 12.6562H42.8906V14.0625H41.4844V12.6562Z" fill="#205B59"/>
<path d="M4.92188 3.51562H6.32812V4.92188H4.92188V3.51562Z" fill="#205B59"/>
<path d="M4.92188 6.32812H6.32812V7.73438H4.92188V6.32812Z" fill="#205B59"/>
<path d="M3.51562 4.92188H4.92188V6.32812H3.51562V4.92188Z" fill="#205B59"/>
<path d="M6.32812 4.92188H7.73438V6.32812H6.32812V4.92188Z" fill="#205B59"/>
</svg>
