<svg width="45" height="45" viewBox="0 0 45 45" fill="none" xmlns="http://www.w3.org/2000/svg">
<g clip-path="url(#clip0)">
<path d="M31.3763 13.824C31.2132 13.8241 31.0568 13.8889 30.9414 14.0043L20.2265 24.7192L14.0601 18.5525C13.9426 18.4413 13.787 18.3794 13.6252 18.3794C13.4635 18.3794 13.3079 18.4413 13.1904 18.5525L10.7045 21.0387C10.5892 21.1541 10.5244 21.3105 10.5244 21.4736C10.5244 21.6367 10.5892 21.7931 10.7045 21.9085L19.7927 30.996C19.8498 31.0532 19.9176 31.0986 19.9922 31.1295C20.0668 31.1605 20.1468 31.1764 20.2276 31.1764C20.3084 31.1764 20.3884 31.1605 20.463 31.1295C20.5376 31.0986 20.6054 31.0532 20.6625 30.996L34.2971 17.3603C34.4124 17.2449 34.4772 17.0884 34.4772 16.9253C34.4772 16.7621 34.4124 16.6057 34.2971 16.4902L31.8112 14.0043C31.6959 13.8889 31.5395 13.8241 31.3763 13.824ZM20.2265 29.691L12.0095 21.4736L13.6266 19.8564L19.7927 26.0239C19.8498 26.0811 19.9176 26.1264 19.9922 26.1574C20.0668 26.1883 20.1468 26.2042 20.2276 26.2042C20.3084 26.2042 20.3884 26.1883 20.463 26.1574C20.5376 26.1264 20.6054 26.0811 20.6625 26.0239L31.3763 15.3093L32.9935 16.9265L20.2265 29.691Z" fill="#205B59"/>
<path d="M22.4995 5.7417C19.185 5.7417 15.945 6.72456 13.1891 8.56598C10.4332 10.4074 8.28526 13.0247 7.01687 16.0869C5.74847 19.149 5.4166 22.5186 6.06322 25.7694C6.70985 29.0201 8.30592 32.0062 10.6496 34.3499C12.9933 36.6936 15.9793 38.2896 19.2301 38.9363C22.4809 39.5829 25.8504 39.251 28.9126 37.9826C31.9748 36.7142 34.5921 34.5663 36.4335 31.8104C38.2749 29.0545 39.2578 25.8145 39.2578 22.5C39.2528 18.0569 37.4855 13.7973 34.3438 10.6556C31.2021 7.51394 26.9425 5.74672 22.4995 5.7417ZM22.4995 38.0278C19.4284 38.0278 16.4262 37.1171 13.8727 35.4109C11.3192 33.7047 9.32893 31.2796 8.15367 28.4422C6.97841 25.6049 6.67091 22.4828 7.27005 19.4707C7.86919 16.4586 9.34808 13.6918 11.5197 11.5202C13.6913 9.34856 16.4581 7.86967 19.4702 7.27053C22.4823 6.67139 25.6044 6.97889 28.4417 8.15415C31.2791 9.32941 33.7042 11.3197 35.4104 13.8732C37.1166 16.4267 38.0273 19.4289 38.0273 22.5C38.0227 26.6168 36.3852 30.5636 33.4742 33.4747C30.5632 36.3857 26.6163 38.0231 22.4995 38.0278Z" fill="#205B59"/>
<path d="M44.3068 24.4734C44.7585 23.9149 45.005 23.2184 45.005 22.5001C45.005 21.7818 44.7585 21.0852 44.3068 20.5268L43.2985 19.2682C43.1052 19.0266 42.9729 18.7421 42.9128 18.4387C42.8526 18.1352 42.8664 17.8218 42.9529 17.5248L43.4029 15.9811C43.6005 15.2908 43.5584 14.5539 43.2835 13.8906C43.0086 13.2273 42.5171 12.6768 41.8891 12.3287L40.4803 11.5552C40.209 11.4066 39.9774 11.1949 39.8051 10.9379C39.6329 10.6809 39.525 10.3862 39.4907 10.0787L39.3149 8.47731C39.2397 7.76261 38.9214 7.09539 38.4132 6.58723C37.9051 6.07907 37.2379 5.76077 36.5232 5.68555L34.9218 5.50977C34.6143 5.47557 34.3196 5.36781 34.0626 5.19561C33.8056 5.02341 33.5938 4.79183 33.4452 4.52048L32.6718 3.11141C32.3291 2.47828 31.779 1.98229 31.1139 1.70665C30.4488 1.43101 29.7092 1.3925 29.0191 1.59759L27.4757 2.04723C27.1785 2.13358 26.865 2.14723 26.5615 2.08702C26.2579 2.02682 25.9733 1.89453 25.7316 1.7013L24.473 0.693015C23.9145 0.241454 23.2179 -0.00488281 22.4997 -0.00488281C21.7814 -0.00488281 21.0849 0.241454 20.5264 0.693015L19.2678 1.7013C19.026 1.89412 18.7415 2.02614 18.4381 2.08627C18.1348 2.1464 17.8214 2.13289 17.5244 2.04688L15.9807 1.59688C15.2904 1.39913 14.5535 1.44115 13.8902 1.71609C13.2268 1.99102 12.6763 2.48263 12.3283 3.11071L11.5548 4.51942C11.4062 4.79079 11.1945 5.02239 10.9375 5.19464C10.6805 5.3669 10.3858 5.47474 10.0783 5.50907L8.47691 5.68485C7.76221 5.76007 7.09499 6.07837 6.58683 6.58653C6.07867 7.09469 5.76037 7.76191 5.68515 8.47661L5.50937 10.078C5.47517 10.3855 5.36741 10.6802 5.19521 10.9372C5.02301 11.1942 4.79143 11.406 4.52007 11.5545L3.11101 12.328C2.47802 12.6709 1.98215 13.2209 1.70653 13.886C1.43091 14.551 1.39231 15.2906 1.59718 15.9807L2.04754 17.5237C2.13388 17.8209 2.14753 18.1344 2.08733 18.438C2.02712 18.7415 1.89483 19.0261 1.7016 19.2678L0.693317 20.5264C0.241572 21.0849 -0.00488281 21.7814 -0.00488281 22.4997C-0.00488281 23.218 0.241572 23.9146 0.693317 24.4731L1.7016 25.7316C1.89487 25.9732 2.02716 26.2577 2.08731 26.5611C2.14746 26.8646 2.1337 27.178 2.04718 27.475L1.59718 29.0188C1.39942 29.709 1.44135 30.4459 1.71614 31.1092C1.99093 31.7726 2.48237 32.3233 3.11031 32.6715L4.51902 33.4449C4.79038 33.5935 5.02198 33.8053 5.19424 34.0623C5.36649 34.3193 5.47434 34.614 5.50867 34.9215L5.68445 36.5229C5.75966 37.2376 6.07796 37.9048 6.58613 38.4129C7.09429 38.9211 7.76151 39.2394 8.47621 39.3146L10.0776 39.4904C10.3851 39.5246 10.6798 39.6324 10.9368 39.8046C11.1938 39.9768 11.4056 40.2083 11.5541 40.4797L12.3276 41.8888C12.6703 42.5219 13.2204 43.0179 13.8854 43.2935C14.5505 43.5692 15.2902 43.6077 15.9803 43.4026L17.5233 42.9522C17.8205 42.8661 18.134 42.8526 18.4375 42.9128C18.741 42.973 19.0256 43.1052 19.2674 43.2982L20.526 44.3065C21.0845 44.7582 21.781 45.0047 22.4993 45.0047C23.2176 45.0047 23.9142 44.7582 24.4727 44.3065L25.7312 43.2982C25.9728 43.105 26.2573 42.9727 26.5608 42.9126C26.8642 42.8524 27.1776 42.8662 27.4746 42.9526L29.0184 43.4026C29.7084 43.6074 30.448 43.5688 31.1129 43.2932C31.7779 43.0176 32.3279 42.5217 32.6707 41.8888L33.4442 40.48C33.5928 40.2087 33.8045 39.9771 34.0616 39.8048C34.3186 39.6326 34.6133 39.5247 34.9207 39.4904L36.5221 39.3146C37.2368 39.2394 37.904 38.9211 38.4122 38.4129C38.9203 37.9048 39.2387 37.2376 39.3139 36.5229L39.4896 34.9215C39.5238 34.614 39.6316 34.3193 39.8038 34.0623C39.976 33.8053 40.2076 33.5935 40.4789 33.4449L41.888 32.6715C42.521 32.3286 43.0169 31.7785 43.2925 31.1135C43.5681 30.4485 43.6067 29.7089 43.4018 29.0188L42.9515 27.4757C42.8651 27.1786 42.8515 26.865 42.9117 26.5615C42.9719 26.258 43.1042 25.9734 43.2974 25.7316L44.3068 24.4734ZM42.338 24.9631C42.0213 25.3591 41.8046 25.8254 41.7059 26.3227C41.6073 26.82 41.6297 27.3338 41.7713 27.8206L42.222 29.3636C42.3469 29.7847 42.3233 30.236 42.1551 30.6417C41.9869 31.0474 41.6843 31.383 41.2981 31.5922L39.8887 32.3656C39.4437 32.6095 39.0641 32.957 38.782 33.3787C38.4999 33.8004 38.3236 34.2839 38.268 34.7882L38.0922 36.3896C38.046 36.8257 37.8517 37.2327 37.5416 37.5427C37.2316 37.8528 36.8246 38.0471 36.3885 38.0933L34.7868 38.2691C34.2825 38.3249 33.7991 38.5013 33.3775 38.7835C32.9559 39.0657 32.6084 39.4452 32.3645 39.8901L31.5911 41.2992C31.3818 41.6852 31.0462 41.9876 30.6406 42.1558C30.235 42.324 29.7839 42.3477 29.3629 42.2231L27.8195 41.7727C27.3328 41.6309 26.8191 41.6083 26.3218 41.7069C25.8245 41.8055 25.3582 42.0223 24.9624 42.3391L23.7038 43.3474C23.363 43.6232 22.9378 43.7737 22.4993 43.7737C22.0609 43.7737 21.6357 43.6232 21.2949 43.3474L20.0363 42.3391C19.6404 42.0224 19.174 41.8056 18.6767 41.7069C18.1794 41.6083 17.6656 41.6308 17.1788 41.7724L15.6361 42.2227C15.215 42.3473 14.7639 42.3235 14.3583 42.1553C13.9527 41.9871 13.617 41.6848 13.4076 41.2988L12.6341 39.8894C12.3903 39.4445 12.0428 39.0649 11.6211 38.7827C11.1993 38.5006 10.7158 38.3243 10.2115 38.2687L8.61015 38.0929C8.1741 38.0468 7.76708 37.8524 7.45702 37.5424C7.14697 37.2323 6.95264 36.8253 6.90648 36.3893L6.7307 34.7875C6.67491 34.2833 6.49846 33.7999 6.21629 33.3782C5.93412 32.9566 5.55453 32.6092 5.10964 32.3653L3.70058 31.5918C3.31746 31.3795 3.01759 31.0436 2.84987 30.6389C2.68215 30.2343 2.65647 29.7848 2.77703 29.3636L3.22738 27.8203C3.3691 27.3335 3.39162 26.8198 3.29304 26.3226C3.19447 25.8253 2.97769 25.359 2.66101 24.9631L1.65203 23.7045C1.37633 23.3637 1.22591 22.9385 1.22591 22.5001C1.22591 22.0617 1.37633 21.6365 1.65203 21.2956L2.66031 20.037C2.97697 19.6411 3.19376 19.1748 3.29239 18.6775C3.39103 18.1801 3.36861 17.6664 3.22703 17.1795L2.77703 15.6365C2.6521 15.2154 2.67571 14.7642 2.84392 14.3585C3.01213 13.9527 3.31471 13.6171 3.70093 13.408L5.11035 12.6345C5.55529 12.3907 5.9349 12.0432 6.21702 11.6215C6.49914 11.1997 6.67546 10.7162 6.73105 10.2119L6.90683 8.61055C6.95332 8.17432 7.1481 7.76725 7.45863 7.45736C7.76916 7.14746 8.17663 6.95352 8.61297 6.90794L10.2147 6.73216C10.7189 6.67636 11.2024 6.49991 11.624 6.21774C12.0456 5.93557 12.3931 5.55598 12.6369 5.1111L13.4104 3.70204C13.6227 3.31942 13.9581 3.01983 14.3622 2.85197C14.7663 2.68411 15.2152 2.65784 15.6361 2.77743L17.1795 3.22778C17.6662 3.36956 18.1799 3.39211 18.6772 3.29353C19.1745 3.19495 19.6408 2.97814 20.0366 2.66141L21.2952 1.65243C21.6361 1.37666 22.0612 1.22622 22.4997 1.22622C22.9381 1.22622 23.3633 1.37666 23.7041 1.65243L24.9627 2.66071C25.3588 2.97719 25.8251 3.19387 26.3224 3.29249C26.8197 3.39112 27.3334 3.3688 27.8202 3.22743L29.3632 2.77743C29.7843 2.65297 30.2354 2.67681 30.641 2.84498C31.0467 3.01314 31.3823 3.31544 31.5918 3.70134L32.3652 5.11075C32.6091 5.55569 32.9566 5.9353 33.3783 6.21742C33.8 6.49954 34.2835 6.67586 34.7878 6.73145L36.3892 6.90723C36.8253 6.95339 37.2323 7.14772 37.5423 7.45778C37.8524 7.76783 38.0467 8.17486 38.0929 8.61091L38.2687 10.2126C38.3245 10.7169 38.5009 11.2003 38.7831 11.6219C39.0653 12.0436 39.4448 12.391 39.8897 12.6349L41.2988 13.4083C41.6819 13.6207 41.9818 13.9565 42.1496 14.3612C42.3174 14.7658 42.3432 15.2154 42.2227 15.6365L41.7723 17.1799C41.6306 17.6666 41.6081 18.1803 41.7067 18.6776C41.8053 19.1749 42.022 19.6412 42.3387 20.037L43.347 21.2956C43.6227 21.6365 43.7731 22.0617 43.7731 22.5001C43.7731 22.9385 43.6227 23.3637 43.347 23.7045L42.338 24.9631Z" fill="#205B59"/>
</g>
<defs>
<clipPath id="clip0">
<rect width="45" height="45" fill="white"/>
</clipPath>
</defs>
</svg>
