<svg viewBox="0 0 30 29" fill="none" xmlns="http://www.w3.org/2000/svg"><path d="M23.108 28.533c-.28 0-.56-.031-.833-.091a28.259 28.259 0 01-13.85-7.292 27.259 27.259 0 01-7.5-13.542A3.817 3.817 0 012.05 4.042L5.383.833a1.667 1.667 0 011.284-.45 1.667 1.667 0 011.208.725l4.167 6.159a1.334 1.334 0 01-.092 1.583l-2.092 2.5a15.783 15.783 0 003.475 4.908 16.052 16.052 0 005.059 3.409l2.591-2.059a1.367 1.367 0 011.55-.1l6.292 4.067a1.666 1.666 0 01.342 2.592l-3.25 3.216a3.95 3.95 0 01-2.809 1.15zM6.533 2.033L3.2 5.242a2.117 2.117 0 00-.625 2 25.584 25.584 0 007.008 12.716 26.584 26.584 0 0013.034 6.859A2.292 2.292 0 0024.7 26.2l3.25-3.217-6.075-3.925-2.783 2.217a.834.834 0 01-.767.142 16.715 16.715 0 01-6.133-3.959 16.242 16.242 0 01-4.059-6 .833.833 0 01.2-.791l2.25-2.692-4.05-5.942z" fill="#FE7B02"/></svg>