<svg xmlns="http://www.w3.org/2000/svg" width="38.061" height="38.061" viewBox="0 0 38.061 38.061">
  <g id="Сгруппировать_82" data-name="Сгруппировать 82" transform="translate(-146.391 -128.505)">
    <path id="Прямоугольник_119" data-name="Прямоугольник 119" d="M19.031,0h0a19.03,19.03,0,0,1,19.03,19.03v0a19.03,19.03,0,0,1-19.03,19.03h0A19.03,19.03,0,0,1,0,19.031v0A19.031,19.031,0,0,1,19.031,0Z" transform="translate(146.391 128.505)" fill="#222221"/>
    <path id="Контур_16" data-name="Контур 16" d="M162.522,159.039h4.632v-11.6h3.233l.344-3.884h-3.577v-2.212c0-.916.184-1.278,1.07-1.278h2.507v-4.031h-3.208c-3.447,0-5,1.518-5,4.424v3.1h-2.41v3.933h2.41Z" fill="#fff"/>
  </g>
</svg>
