<svg xmlns="http://www.w3.org/2000/svg" width="38.061" height="38.061" viewBox="0 0 38.061 38.061">
  <g id="Сгруппировать_86" data-name="Сгруппировать 86" transform="translate(-101.735 -764)">
    <g id="Сгруппировать_54" data-name="Сгруппировать 54" transform="translate(10.448 635.495)">
      <g id="Сгруппировать_53" data-name="Сгруппировать 53">
        <path id="Контур_26" data-name="Контур 26" d="M110.318,166.566h0a19.03,19.03,0,0,1-19.031-19.03h0a19.03,19.03,0,0,1,19.031-19.031h0a19.03,19.03,0,0,1,19.03,19.031h0A19.03,19.03,0,0,1,110.318,166.566Z" fill="#222221"/>
        <g id="Сгруппировать_52" data-name="Сгруппировать 52">
          <path id="Контур_27" data-name="Контур 27" d="M112.7,147.04h-7.688l.009,2.2H110.2a5.089,5.089,0,0,1-5.045,4.326,6.032,6.032,0,1,1,4.1-10.454l1.7-1.467a8.268,8.268,0,1,0-5.8,14.157c4.385,0,7.553-3.345,7.553-7.911Z" fill="#fff"/>
          <path id="Контур_28" data-name="Контур 28" d="M123.747,147.131h-3.174v-3.174h-2.025v3.174h-3.174v2.025h3.174v3.174h2.025v-3.174h3.174Z" fill="#fff"/>
        </g>
      </g>
    </g>
  </g>
</svg>
