<svg xmlns="http://www.w3.org/2000/svg" width="38.061" height="38.061" viewBox="0 0 38.061 38.061">
  <g id="Сгруппировать_84" data-name="Сгруппировать 84" transform="translate(-91.287 -182.43)">
    <path id="Контур_21" data-name="Контур 21" d="M110.318,220.491h0a19.03,19.03,0,0,1-19.031-19.03h0a19.03,19.03,0,0,1,19.031-19.031h0a19.03,19.03,0,0,1,19.03,19.031h0A19.03,19.03,0,0,1,110.318,220.491Z" fill="#222221"/>
    <g id="Сгруппировать_49" data-name="Сгруппировать 49">
      <g id="Сгруппировать_48" data-name="Сгруппировать 48">
        <rect id="Прямоугольник_120" data-name="Прямоугольник 120" width="3.939" height="12.724" transform="translate(101.688 197.219)" fill="#fff"/>
        <path id="Контур_22" data-name="Контур 22" d="M103.639,195.552a2.348,2.348,0,1,0-2.329-2.348A2.339,2.339,0,0,0,103.639,195.552Z" fill="#fff"/>
      </g>
      <path id="Контур_23" data-name="Контур 23" d="M111.923,203.263c0-1.788.823-2.854,2.4-2.854,1.448,0,2.144,1.023,2.144,2.854v6.679h3.92v-8.056c0-3.408-1.932-5.056-4.63-5.056a4.435,4.435,0,0,0-3.834,2.1v-1.713h-3.778v12.723h3.778Z" fill="#fff"/>
    </g>
  </g>
</svg>
