<svg width="45" height="45" viewBox="0 0 45 45" fill="none" xmlns="http://www.w3.org/2000/svg">
<path d="M30.2344 16.875H34.4531C35.0124 16.8744 35.5485 16.6519 35.944 16.2565C36.3394 15.861 36.5619 15.3249 36.5625 14.7656V14.0625C36.5625 12.9436 36.118 11.8706 35.3269 11.0794C34.5357 10.2882 33.4626 9.84375 32.3438 9.84375C31.2249 9.84375 30.1518 10.2882 29.3606 11.0794C28.5695 11.8706 28.125 12.9436 28.125 14.0625V14.7656C28.1256 15.3249 28.3481 15.861 28.7435 16.2565C29.139 16.6519 29.6751 16.8744 30.2344 16.875ZM29.5312 14.0625C29.5312 13.3166 29.8276 12.6012 30.355 12.0738C30.8825 11.5463 31.5978 11.25 32.3438 11.25C33.0897 11.25 33.805 11.5463 34.3325 12.0738C34.8599 12.6012 35.1562 13.3166 35.1562 14.0625V14.7656C35.156 14.952 35.0819 15.1308 34.9501 15.2626C34.8183 15.3944 34.6395 15.4685 34.4531 15.4688H30.2344C30.048 15.4685 29.8692 15.3944 29.7374 15.2626C29.6056 15.1308 29.5315 14.952 29.5312 14.7656V14.0625Z" fill="#205B59"/>
<path d="M39.375 32.4647V23.9062C39.375 23.3887 39.1488 22.9363 38.9492 22.5371C38.8125 22.2644 38.6719 21.9824 38.6719 21.7969C38.6719 21.6152 38.8103 21.3405 38.9443 21.0749C39.1465 20.6742 39.375 20.22 39.375 19.6875C39.375 19.1699 39.1488 18.7175 38.9492 18.3183C38.8125 18.0456 38.6719 17.7637 38.6719 17.5781C38.6719 17.3965 38.8103 17.1218 38.9443 16.8562C39.1465 16.4555 39.375 16.0013 39.375 15.4688V14.0595C39.3729 12.6925 38.9729 11.3556 38.2238 10.2121C37.4746 9.0686 36.4087 8.16796 35.1562 7.62012V2.73647C35.1563 2.58889 35.1098 2.44505 35.0236 2.32533C34.9373 2.2056 34.8155 2.11606 34.6755 2.06938L33.0108 1.51444C32.5776 1.37118 32.1099 1.37118 31.6767 1.51444L30.012 2.06938C29.872 2.11606 29.7502 2.2056 29.6639 2.32533C29.5777 2.44505 29.5312 2.58889 29.5312 2.73647V7.62012C28.2788 8.16796 27.2129 9.0686 26.4637 10.2121C25.7146 11.3556 25.3146 12.6925 25.3125 14.0595V15.4688C25.3125 16.0013 25.541 16.4555 25.7432 16.8562C25.877 17.1218 26.0156 17.3965 26.0156 17.5781C26.0156 17.7637 25.875 18.0456 25.7383 18.3183C25.5387 18.7175 25.3125 19.1699 25.3125 19.6875C25.3125 20.22 25.541 20.6742 25.7432 21.0749C25.877 21.3405 26.0156 21.6152 26.0156 21.7969C26.0156 21.9824 25.875 22.2644 25.7383 22.5371C25.5387 22.9363 25.3125 23.3887 25.3125 23.9062V32.3438H23.2031V17.5781C23.2031 17.0321 23.0757 16.4936 22.8312 16.0054C22.5867 15.5171 22.2317 15.0927 21.7944 14.7656H21.7969V10.5469C21.7969 10.3604 21.7228 10.1816 21.5909 10.0497C21.4591 9.91783 21.2802 9.84375 21.0938 9.84375H20.3906V7.03125H21.0938C21.8397 7.03125 22.555 6.73493 23.0825 6.20749C23.6099 5.68004 23.9062 4.96467 23.9062 4.21875C23.9062 3.47283 23.6099 2.75746 23.0825 2.23001C22.555 1.70257 21.8397 1.40625 21.0938 1.40625H7.73438C7.54789 1.40625 7.36905 1.48033 7.23719 1.61219C7.10533 1.74405 7.03125 1.92289 7.03125 2.10938H4.92188C4.73539 2.10938 4.55655 2.18345 4.42469 2.31532C4.29283 2.44718 4.21875 2.62602 4.21875 2.8125V5.625C4.21875 5.81148 4.29283 5.99032 4.42469 6.12218C4.55655 6.25405 4.73539 6.32812 4.92188 6.32812H7.03125C7.03125 6.51461 7.10533 6.69345 7.23719 6.82531C7.36905 6.95717 7.54789 7.03125 7.73438 7.03125H8.4375V9.14062C8.43729 9.32704 8.36314 9.50576 8.23133 9.63758C8.09951 9.76939 7.92079 9.84354 7.73438 9.84375C7.17493 9.84375 6.63841 10.066 6.24282 10.4616C5.84724 10.8572 5.625 11.3937 5.625 11.9531C5.625 12.5126 5.84724 13.0491 6.24282 13.4447C6.63841 13.8403 7.17493 14.0625 7.73438 14.0625C9.03929 14.061 10.2903 13.542 11.213 12.6193C12.1358 11.6966 12.6548 10.4455 12.6562 9.14062V7.03125H14.7656V9.84375H14.0625C13.876 9.84375 13.6972 9.91783 13.5653 10.0497C13.4335 10.1816 13.3594 10.3604 13.3594 10.5469V14.7656H13.3618C12.9246 15.0927 12.5696 15.5171 12.325 16.0054C12.0805 16.4936 11.9532 17.0321 11.9531 17.5781V18.2812C11.9525 18.8405 11.7301 19.3767 11.3346 19.7721C10.9392 20.1676 10.403 20.39 9.84375 20.3906H8.4375C7.50542 20.3917 6.61181 20.7624 5.95273 21.4215C5.29365 22.0806 4.92292 22.9742 4.92188 23.9062V40.0781C4.92292 41.0102 5.29365 41.9038 5.95273 42.5629C6.61181 43.222 7.50542 43.5927 8.4375 43.5938H39.375C39.5615 43.5938 39.7403 43.5197 39.8722 43.3878C40.004 43.2559 40.0781 43.0771 40.0781 42.8906V37.9688C40.2646 37.9688 40.4434 37.8947 40.5753 37.7628C40.7072 37.6309 40.7812 37.4521 40.7812 37.2656V34.4531C40.7807 34.0171 40.6452 33.5919 40.3935 33.2359C40.1417 32.8799 39.7859 32.6105 39.375 32.4647ZM5.625 4.92188V3.51562H7.03125V4.92188H5.625ZM13.3594 39.375H9.84375C9.65733 39.3748 9.47861 39.3006 9.3468 39.1688C9.21498 39.037 9.14083 38.8583 9.14062 38.6719V25.3125C9.14083 25.1261 9.21498 24.9474 9.3468 24.8155C9.47861 24.6837 9.65733 24.6096 9.84375 24.6094H15.4688C16.028 24.6087 16.5641 24.3863 16.9596 23.9908C17.355 23.5954 17.5775 23.0592 17.5781 22.5V18.9844C17.5781 18.7979 17.6522 18.6191 17.7841 18.4872C17.9159 18.3553 18.0948 18.2812 18.2812 18.2812C18.4677 18.2812 18.6466 18.3553 18.7784 18.4872C18.9103 18.6191 18.9844 18.7979 18.9844 18.9844V32.3438H14.7656C14.2064 32.3444 13.6702 32.5668 13.2748 32.9623C12.8793 33.3577 12.6569 33.8939 12.6562 34.4531V37.2656C12.6562 37.4521 12.7303 37.6309 12.8622 37.7628C12.9941 37.8947 13.1729 37.9688 13.3594 37.9688V39.375ZM14.0625 36.5625V34.4531C14.0627 34.2667 14.1369 34.088 14.2687 33.9562C14.4005 33.8244 14.5792 33.7502 14.7656 33.75H38.6719C38.8583 33.7502 39.037 33.8244 39.1688 33.9562C39.3006 34.088 39.3748 34.2667 39.375 34.4531V36.5625H14.0625ZM30.9375 3.24316L32.1214 2.84862C32.2658 2.80072 32.4217 2.80072 32.5661 2.84862L33.75 3.24316V4.21875H30.9375V3.24316ZM30.9375 5.625H33.75V7.17275C32.822 6.98408 31.8655 6.98408 30.9375 7.17275V5.625ZM26.7188 23.9062C26.7188 23.7207 26.8594 23.4388 26.996 23.166C27.1956 22.7668 27.4219 22.3145 27.4219 21.7969C27.4219 21.2809 27.1973 20.8353 26.9991 20.442C26.8613 20.1685 26.7188 19.8857 26.7188 19.6875C26.7188 19.502 26.8594 19.22 26.996 18.9473C27.1956 18.5481 27.4219 18.0957 27.4219 17.5781C27.4219 17.0621 27.1973 16.6165 26.9991 16.2233C26.8613 15.9498 26.7188 15.6669 26.7188 15.4688V14.0625C26.7125 12.5707 27.2991 11.1374 28.3495 10.0781C29.3999 9.01873 30.8282 8.42006 32.32 8.41377C33.8119 8.40748 35.2451 8.99407 36.3044 10.0445C37.3638 11.095 37.9625 12.5232 37.9688 14.015C37.9666 14.0465 37.9666 14.0781 37.9688 14.1095V15.4688C37.9688 15.6669 37.8262 15.9498 37.6884 16.2233C37.4902 16.6165 37.2656 17.0621 37.2656 17.5781C37.2656 18.0957 37.4919 18.5481 37.6915 18.9473C37.8281 19.22 37.9688 19.502 37.9688 19.6875C37.9688 19.8857 37.8262 20.1685 37.6884 20.442C37.4902 20.8353 37.2656 21.2809 37.2656 21.7969C37.2656 22.3145 37.4919 22.7668 37.6915 23.166C37.8281 23.4388 37.9688 23.7207 37.9688 23.9062V32.3438H35.8594V26.0156C35.8594 25.8291 35.7853 25.6503 35.6534 25.5184C35.5216 25.3866 35.3427 25.3125 35.1562 25.3125C34.9698 25.3125 34.7909 25.3866 34.6591 25.5184C34.5272 25.6503 34.4531 25.8291 34.4531 26.0156V32.3438H33.0469V26.0156C33.0469 25.8291 32.9728 25.6503 32.8409 25.5184C32.7091 25.3866 32.5302 25.3125 32.3438 25.3125C32.1573 25.3125 31.9784 25.3866 31.8466 25.5184C31.7147 25.6503 31.6406 25.8291 31.6406 26.0156V32.3438H30.2344V26.0156C30.2344 25.8291 30.1603 25.6503 30.0284 25.5184C29.8966 25.3866 29.7177 25.3125 29.5312 25.3125C29.3448 25.3125 29.1659 25.3866 29.0341 25.5184C28.9022 25.6503 28.8281 25.8291 28.8281 26.0156V32.3438H26.7188V23.9062ZM8.4375 2.8125H21.0938C21.4667 2.8125 21.8244 2.96066 22.0881 3.22438C22.3518 3.4881 22.5 3.84579 22.5 4.21875C22.5 4.59171 22.3518 4.9494 22.0881 5.21312C21.8244 5.47684 21.4667 5.625 21.0938 5.625H8.4375V2.8125ZM11.25 9.14062C11.249 10.0727 10.8782 10.9663 10.2191 11.6254C9.56006 12.2845 8.66646 12.6552 7.73438 12.6562C7.54789 12.6562 7.36905 12.5822 7.23719 12.4503C7.10533 12.3184 7.03125 12.1396 7.03125 11.9531C7.03125 11.7666 7.10533 11.5878 7.23719 11.4559C7.36905 11.3241 7.54789 11.25 7.73438 11.25C8.29362 11.2494 8.82979 11.0269 9.22523 10.6315C9.62068 10.236 9.84312 9.69987 9.84375 9.14062V7.03125H11.25V9.14062ZM16.1719 7.03125H18.9844V9.84375H16.1719V7.03125ZM14.7656 11.25H20.3906V14.1333C20.1592 14.0861 19.9237 14.0624 19.6875 14.0625H15.4688C15.2326 14.0624 14.997 14.0861 14.7656 14.1333V11.25ZM6.32812 40.0781V23.9062C6.32875 23.347 6.55119 22.8108 6.94664 22.4154C7.34209 22.0199 7.87825 21.7975 8.4375 21.7969H9.84375C10.6039 21.7977 11.3435 21.5508 11.9508 21.0938H14.0625C14.249 21.0938 14.4278 21.0197 14.5597 20.8878C14.6915 20.7559 14.7656 20.5771 14.7656 20.3906C14.7656 20.2041 14.6915 20.0253 14.5597 19.8934C14.4278 19.7616 14.249 19.6875 14.0625 19.6875H13.0649C13.2594 19.2442 13.3597 18.7653 13.3594 18.2812H14.0625C14.249 18.2812 14.4278 18.2072 14.5597 18.0753C14.6915 17.9434 14.7656 17.7646 14.7656 17.5781C14.7656 17.3916 14.6915 17.2128 14.5597 17.0809C14.4278 16.9491 14.249 16.875 14.0625 16.875H13.4803C13.6261 16.4641 13.8955 16.1083 14.2515 15.8565C14.6075 15.6048 15.0327 15.4693 15.4688 15.4688H19.6875C20.2467 15.4694 20.7829 15.6918 21.1784 16.0873C21.5738 16.4827 21.7962 17.0189 21.7969 17.5781V32.3438H20.3906V18.9844C20.3906 18.4249 20.1684 17.8884 19.7728 17.4928C19.3772 17.0972 18.8407 16.875 18.2812 16.875C17.7218 16.875 17.1853 17.0972 16.7897 17.4928C16.3941 17.8884 16.1719 18.4249 16.1719 18.9844V22.5C16.1717 22.6864 16.0975 22.8651 15.9657 22.997C15.8339 23.1288 15.6552 23.2029 15.4688 23.2031H9.84375C9.28451 23.2038 8.74836 23.4262 8.35292 23.8217C7.95747 24.2171 7.73503 24.7533 7.73438 25.3125V38.6719C7.73503 39.2311 7.95747 39.7673 8.35292 40.1627C8.74836 40.5582 9.28451 40.7806 9.84375 40.7812H13.3594V42.1875H8.4375C7.87825 42.1869 7.34209 41.9644 6.94664 41.569C6.55119 41.1735 6.32875 40.6374 6.32812 40.0781ZM38.6719 42.1875H37.2656V40.0781C37.2656 39.8916 37.1915 39.7128 37.0597 39.5809C36.9278 39.4491 36.749 39.375 36.5625 39.375C36.376 39.375 36.1972 39.4491 36.0653 39.5809C35.9335 39.7128 35.8594 39.8916 35.8594 40.0781V42.1875H34.4531V40.0781C34.4531 39.8916 34.379 39.7128 34.2472 39.5809C34.1153 39.4491 33.9365 39.375 33.75 39.375C33.5635 39.375 33.3847 39.4491 33.2528 39.5809C33.121 39.7128 33.0469 39.8916 33.0469 40.0781V42.1875H31.6406V40.0781C31.6406 39.8916 31.5665 39.7128 31.4347 39.5809C31.3028 39.4491 31.124 39.375 30.9375 39.375C30.751 39.375 30.5722 39.4491 30.4403 39.5809C30.3085 39.7128 30.2344 39.8916 30.2344 40.0781V42.1875H28.8281V40.0781C28.8281 39.8916 28.754 39.7128 28.6222 39.5809C28.4903 39.4491 28.3115 39.375 28.125 39.375C27.9385 39.375 27.7597 39.4491 27.6278 39.5809C27.496 39.7128 27.4219 39.8916 27.4219 40.0781V42.1875H26.0156V40.0781C26.0156 39.8916 25.9415 39.7128 25.8097 39.5809C25.6778 39.4491 25.499 39.375 25.3125 39.375C25.126 39.375 24.9472 39.4491 24.8153 39.5809C24.6835 39.7128 24.6094 39.8916 24.6094 40.0781V42.1875H23.2031V40.0781C23.2031 39.8916 23.129 39.7128 22.9972 39.5809C22.8653 39.4491 22.6865 39.375 22.5 39.375C22.3135 39.375 22.1347 39.4491 22.0028 39.5809C21.871 39.7128 21.7969 39.8916 21.7969 40.0781V42.1875H20.3906V40.0781C20.3906 39.8916 20.3165 39.7128 20.1847 39.5809C20.0528 39.4491 19.874 39.375 19.6875 39.375C19.501 39.375 19.3222 39.4491 19.1903 39.5809C19.0585 39.7128 18.9844 39.8916 18.9844 40.0781V42.1875H17.5781V40.0781C17.5781 39.8916 17.504 39.7128 17.3722 39.5809C17.2403 39.4491 17.0615 39.375 16.875 39.375C16.6885 39.375 16.5097 39.4491 16.3778 39.5809C16.246 39.7128 16.1719 39.8916 16.1719 40.0781V42.1875H14.7656V37.9688H38.6719V42.1875Z" fill="#205B59"/>
</svg>
