<svg width="45" height="45" viewBox="0 0 45 45" fill="none" xmlns="http://www.w3.org/2000/svg">
<g clip-path="url(#clip0)">
<path d="M0.750162 45.0868H36.7501C37.1644 45.0868 37.5002 44.7511 37.5002 44.337V37.5869H42.75C43.1644 37.5869 43.5001 37.2511 43.5001 36.8371V29.3368C43.5001 28.9228 43.1644 28.587 42.75 28.587H37.5002V21.8369C37.5002 21.4225 37.1644 21.0868 36.7501 21.0868H35.3737C35.4794 20.5965 35.3675 20.0843 35.0671 19.6826L31.6781 15.1651L33.243 13.9913C33.9382 13.4708 34.3265 12.6365 34.2774 11.7693L34.2023 10.4187C34.1817 10.0523 34.3458 9.70009 34.6393 9.48002L36.2038 8.30654L36.8623 9.18407C36.9815 9.34303 37.159 9.44843 37.356 9.47658C37.391 9.48139 37.4264 9.48414 37.4621 9.48379C37.6245 9.48414 37.7824 9.43127 37.9122 9.33376L44.1003 4.69168C45.0939 3.94632 45.2954 2.53629 44.55 1.54237L44.1332 0.986184C43.3868 -0.00636594 41.9775 -0.207211 40.9832 0.537116L34.7959 5.17886C34.4646 5.42742 34.3973 5.89778 34.6458 6.22908L35.304 7.10662L33.7395 8.28044C33.0442 8.80092 32.6556 9.63486 32.705 10.5021L32.7799 11.8527C32.8008 12.2191 32.6367 12.5716 32.3432 12.7914L30.7786 13.9652L27.3893 9.44775C27.0347 8.96743 26.4586 8.70273 25.8629 8.74634C25.2947 8.78753 24.7869 9.11712 24.5174 9.61941L18.3548 21.0868H0.750162C0.335771 21.0868 0 21.4225 0 21.8369V29.3368C0 29.7512 0.335771 30.087 0.750162 30.087H5.99993V36.0869H0.750162C0.335771 36.0869 0 36.4227 0 36.8371V44.337C0 44.7511 0.335771 45.0868 0.750162 45.0868ZM41.8834 1.73669C42.2144 1.48812 42.6844 1.55507 42.9333 1.88638L43.3501 2.44256C43.5983 2.77387 43.531 3.24354 43.2001 3.49211L37.6118 7.68443L36.2952 5.92868L41.8834 1.73669ZM13.5002 37.5869H24V43.5868H13.5002V37.5869ZM19.5001 30.087H30V36.0869H19.5001V30.087ZM36.0002 43.5868H25.5V37.5869H36.0002V43.5868ZM42.0002 36.0869H31.5V30.087H42.0002V36.0869ZM36.0002 28.587H25.5V24.2196L33.1767 22.5868H36.0002V28.587ZM25.8392 10.3301C25.8646 10.2776 25.9175 10.2439 25.9759 10.2422L25.9906 10.2415C26.0703 10.2429 26.1441 10.2824 26.1894 10.3476L29.578 14.8651L26.484 17.1863C26.1527 17.4348 26.0854 17.9048 26.334 18.2365C26.5825 18.5678 27.0525 18.6348 27.3842 18.3865L30.4782 16.0653L33.8672 20.5828C33.9211 20.6487 33.9369 20.7376 33.9084 20.8176C33.8905 20.8732 33.8435 20.9141 33.7858 20.9244L18.9065 24.0885C18.8141 24.1029 18.7214 24.0634 18.6682 23.9865C18.6085 23.9144 18.5965 23.8141 18.6373 23.7297L25.8392 10.3301ZM17.4687 24.8867C17.8683 25.4363 18.5542 25.6983 19.2186 25.5555L24 24.5385V28.587H13.5002V22.5868H17.5483L17.3159 23.0193C16.9945 23.6178 17.0546 24.3487 17.4687 24.8867ZM1.49998 25.5871H2.99996C3.41435 25.5871 3.75012 25.2513 3.75012 24.8369C3.75012 24.4228 3.41435 24.0871 2.99996 24.0871H1.49998V22.5868H12.0002V28.587H1.49998V25.5871ZM7.49991 30.087H18.0001V36.0869H7.49991V30.087ZM1.49998 37.5869H12.0002V43.5868H1.49998V37.5869Z" fill="#205B59"/>
<path d="M9.74995 24.837C9.74995 24.4229 9.41418 24.0872 8.99978 24.0872H5.99982C5.58577 24.0872 5.25 24.4229 5.25 24.837C5.25 25.2514 5.58577 25.5871 5.99982 25.5871H8.99978C9.41418 25.5871 9.74995 25.2514 9.74995 24.837Z" fill="#205B59"/>
</g>
<defs>
<clipPath id="clip0">
<rect width="45" height="45" fill="white"/>
</clipPath>
</defs>
</svg>
