<svg width="45" height="45" viewBox="0 0 45 45" fill="none" xmlns="http://www.w3.org/2000/svg">
<path d="M1.77194 18.7965L3.23012 19.594L4.02766 21.0522C4.08821 21.1629 4.17743 21.2552 4.28597 21.3196C4.3945 21.3839 4.51835 21.4179 4.64453 21.4179C4.7707 21.4179 4.89455 21.3839 5.00308 21.3196C5.11162 21.2552 5.20084 21.1629 5.26139 21.0522L6.05884 19.594L7.51702 18.7965C7.62771 18.736 7.72007 18.6468 7.78441 18.5382C7.84875 18.4297 7.88271 18.3059 7.88271 18.1797C7.88271 18.0535 7.84875 17.9297 7.78441 17.8211C7.72007 17.7126 7.62771 17.6234 7.51702 17.5628L6.05884 16.7653L5.26139 15.3071C5.20084 15.1964 5.11162 15.104 5.00308 15.0397C4.89455 14.9754 4.7707 14.9414 4.64453 14.9414C4.51835 14.9414 4.3945 14.9754 4.28597 15.0397C4.17743 15.104 4.08821 15.1964 4.02766 15.3071L3.23012 16.7653L1.77194 17.5628C1.66125 17.6234 1.56888 17.7126 1.50454 17.8211C1.4402 17.9297 1.40625 18.0535 1.40625 18.1797C1.40625 18.3059 1.4402 18.4297 1.50454 18.5382C1.56888 18.6468 1.66125 18.736 1.77194 18.7965ZM4.0856 17.9002C4.20358 17.8357 4.30058 17.7387 4.36509 17.6207L4.64458 17.1099L4.92396 17.6207C4.98847 17.7387 5.08547 17.8357 5.20345 17.9002L5.71432 18.1797L5.20345 18.4591C5.08547 18.5236 4.98846 18.6206 4.92396 18.7386L4.64458 19.2494L4.36509 18.7386C4.30059 18.6206 4.20358 18.5236 4.0856 18.4591L3.57473 18.1797L4.0856 17.9002Z" fill="#205B59"/>
<path d="M9.35788 8.77701L10.8161 9.57446L11.6135 11.0326C11.6741 11.1433 11.7633 11.2357 11.8718 11.3C11.9803 11.3644 12.1042 11.3983 12.2304 11.3983C12.3565 11.3983 12.4804 11.3644 12.5889 11.3C12.6975 11.2357 12.7867 11.1433 12.8472 11.0326L13.6448 9.57446L15.103 8.77701C15.2136 8.71646 15.306 8.62724 15.3703 8.51871C15.4347 8.41017 15.4686 8.28632 15.4686 8.16015C15.4686 8.03398 15.4347 7.91013 15.3703 7.80159C15.306 7.69306 15.2136 7.60384 15.103 7.54329L13.6448 6.74575L12.8472 5.28756C12.7867 5.17687 12.6975 5.08451 12.5889 5.02017C12.4804 4.95583 12.3565 4.92188 12.2304 4.92188C12.1042 4.92188 11.9803 4.95583 11.8718 5.02017C11.7633 5.08451 11.6741 5.17687 11.6135 5.28756L10.8161 6.74575L9.35788 7.54329C9.24718 7.60384 9.15482 7.69306 9.09048 7.80159C9.02614 7.91013 8.99219 8.03398 8.99219 8.16015C8.99219 8.28632 9.02614 8.41017 9.09048 8.51871C9.15482 8.62724 9.24718 8.71646 9.35788 8.77701ZM11.6715 7.88068C11.7895 7.81618 11.8865 7.71917 11.951 7.60119L12.2304 7.09032L12.5099 7.60119C12.5744 7.71917 12.6714 7.81617 12.7894 7.88068L13.3002 8.16017L12.7894 8.43955C12.6714 8.50406 12.5744 8.60106 12.5099 8.71904L12.2304 9.22991L11.951 8.71904C11.8865 8.60106 11.7895 8.50405 11.6715 8.43955L11.1607 8.16017L11.6715 7.88068Z" fill="#205B59"/>
<path d="M34.1016 23.9062H8.4375V25.3125H34.1016C34.3812 25.3128 34.6493 25.424 34.847 25.6217C35.0447 25.8195 35.1559 26.0876 35.1562 26.3672V29.5312H34.9805C34.095 29.5323 33.2461 29.8845 32.62 30.5106C31.9938 31.1367 31.6416 31.9856 31.6406 32.8711V33.0469H29.2936C29.4505 32.7174 29.5317 32.3571 29.5312 31.9922V29.8828C29.5305 29.2304 29.271 28.6048 28.8097 28.1435C28.3483 27.6821 27.7228 27.4226 27.0703 27.4219H24.9609C24.3085 27.4226 23.683 27.6821 23.2216 28.1435C22.7602 28.6048 22.5007 29.2304 22.5 29.8828V31.9922C22.4996 32.3571 22.5808 32.7174 22.7377 33.0469H21.6211C21.1121 33.0469 20.6099 33.1633 20.1529 33.3873C19.6959 33.6112 19.2962 33.9368 18.9844 34.339C18.6726 33.9368 18.2728 33.6112 17.8158 33.3873C17.3588 33.1633 16.8566 33.0469 16.3477 33.0469H15.2311C15.388 32.7174 15.4692 32.3571 15.4688 31.9922V29.8828C15.468 29.2304 15.2085 28.6048 14.7472 28.1435C14.2858 27.6821 13.6603 27.4226 13.0078 27.4219H10.8984C10.246 27.4226 9.62046 27.6821 9.1591 28.1435C8.69774 28.6048 8.43823 29.2304 8.4375 29.8828V31.9922C8.43707 32.3571 8.51828 32.7174 8.67517 33.0469H6.32812V32.8711C6.32712 31.9856 5.97492 31.1367 5.34879 30.5106C4.72267 29.8845 3.87375 29.5323 2.98828 29.5312H2.8125V26.3672C2.8128 26.0876 2.92402 25.8195 3.12175 25.6217C3.31947 25.424 3.58756 25.3128 3.86719 25.3125H7.03125V23.9062H3.86719C3.21473 23.907 2.58921 24.1665 2.12785 24.6278C1.66649 25.0892 1.40698 25.7147 1.40625 26.3672V42.8906C1.40625 43.0771 1.48033 43.2559 1.61219 43.3878C1.74405 43.5197 1.92289 43.5938 2.10938 43.5938H5.625C5.81148 43.5938 5.99032 43.5197 6.12218 43.3878C6.25405 43.2559 6.32812 43.0771 6.32812 42.8906V41.4844H27.4219V40.0781H6.32812V38.6719H31.6406V40.0781H28.8281V41.4844H31.6406V42.8906C31.6406 43.0771 31.7147 43.2559 31.8466 43.3878C31.9784 43.5197 32.1573 43.5938 32.3438 43.5938H35.8594C36.0459 43.5938 36.2247 43.5197 36.3566 43.3878C36.4884 43.2559 36.5625 43.0771 36.5625 42.8906V26.3672C36.5618 25.7147 36.3023 25.0892 35.8409 24.6278C35.3795 24.1665 34.754 23.907 34.1016 23.9062ZM23.9062 31.9922V29.8828C23.9066 29.6032 24.0178 29.3351 24.2155 29.1374C24.4132 28.9396 24.6813 28.8284 24.9609 28.8281H27.0703C27.3499 28.8284 27.618 28.9396 27.8158 29.1374C28.0135 29.3351 28.1247 29.6032 28.125 29.8828V31.9922C28.1247 32.2718 28.0135 32.5399 27.8158 32.7376C27.618 32.9354 27.3499 33.0466 27.0703 33.0469H24.9609C24.6813 33.0466 24.4132 32.9354 24.2155 32.7376C24.0178 32.5399 23.9066 32.2718 23.9062 31.9922ZM9.84375 31.9922V29.8828C9.84406 29.6032 9.95527 29.3351 10.153 29.1374C10.3507 28.9396 10.6188 28.8284 10.8984 28.8281H13.0078C13.2874 28.8284 13.5555 28.9396 13.7533 29.1374C13.951 29.3351 14.0622 29.6032 14.0625 29.8828V31.9922C14.0622 32.2718 13.951 32.5399 13.7533 32.7376C13.5555 32.9354 13.2874 33.0466 13.0078 33.0469H10.8984C10.6188 33.0466 10.3507 32.9354 10.153 32.7376C9.95527 32.5399 9.84406 32.2718 9.84375 31.9922ZM4.92188 42.1875H2.8125V30.9375H2.98828C3.50093 30.9381 3.99241 31.142 4.3549 31.5045C4.7174 31.867 4.9213 32.3584 4.92188 32.8711V42.1875ZM6.32812 34.4531H16.3477C16.8603 34.4537 17.3518 34.6576 17.7143 35.0201C18.0768 35.3826 18.2807 35.8741 18.2812 36.3867V37.2656H6.32812V34.4531ZM19.6875 37.2656V36.3867C19.6881 35.8741 19.892 35.3826 20.2545 35.0201C20.617 34.6576 21.1084 34.4537 21.6211 34.4531H31.6406V37.2656H19.6875ZM35.1562 42.1875H33.0469V32.8711C33.0475 32.3584 33.2514 31.867 33.6138 31.5045C33.9763 31.142 34.4678 30.9381 34.9805 30.9375H35.1562V42.1875Z" fill="#205B59"/>
<path d="M43.5938 7.03125V2.10938C43.5938 1.92289 43.5197 1.74405 43.3878 1.61219C43.2559 1.48033 43.0771 1.40625 42.8906 1.40625H17.5781C17.3916 1.40625 17.2128 1.48033 17.0809 1.61219C16.9491 1.74405 16.875 1.92289 16.875 2.10938V22.5H18.2812V21.0938H42.1875V23.9062H37.9688V25.3125H42.1875V30.9375H37.9688V32.3438H42.1875V42.1875H37.9688V43.5938H42.8906C43.0771 43.5938 43.2559 43.5197 43.3878 43.3878C43.5197 43.2559 43.5938 43.0771 43.5938 42.8906V8.4375H42.1875V11.25H35.1562V2.8125H42.1875V7.03125H43.5938ZM33.75 11.25H26.7188V2.8125H33.75V11.25ZM18.2812 2.8125H25.3125V11.25H18.2812V2.8125ZM18.2812 12.6562H33.75V19.6875H18.2812V12.6562ZM42.1875 19.6875H39.375V12.6562H42.1875V19.6875ZM37.9688 12.6562V19.6875H35.1562V12.6562H37.9688Z" fill="#205B59"/>
<path d="M19.6875 14.7656H21.0938V17.5781H19.6875V14.7656Z" fill="#205B59"/>
<path d="M22.5 6.32812H23.9062V7.73438H22.5V6.32812Z" fill="#205B59"/>
<path d="M28.125 6.32812H29.5312V7.73438H28.125V6.32812Z" fill="#205B59"/>
<path d="M37.2656 8.4375H40.0781V9.84375H37.2656V8.4375Z" fill="#205B59"/>
<path d="M37.9688 35.8594H39.375V38.6719H37.9688V35.8594Z" fill="#205B59"/>
</svg>
