<svg width="45" height="45" viewBox="0 0 45 45" fill="none" xmlns="http://www.w3.org/2000/svg">
<path d="M17.5781 21.0938H16.875C16.6885 21.0938 16.5097 21.1678 16.3778 21.2997C16.246 21.4316 16.1719 21.6104 16.1719 21.7969V23.9062C16.1719 24.0927 16.246 24.2715 16.3779 24.4034L17.5781 25.6036V27.4219C17.578 27.5309 17.6033 27.6385 17.652 27.7362L18.9844 30.4003V33.0469C18.9844 33.2334 19.0585 33.4122 19.1903 33.5441C19.3222 33.6759 19.501 33.75 19.6875 33.75H20.3906V42.8906C20.3906 43.0771 20.4647 43.2559 20.5966 43.3878C20.7284 43.5197 20.9073 43.5938 21.0938 43.5938H23.9062C24.0927 43.5938 24.2716 43.5197 24.4034 43.3878C24.5353 43.2559 24.6094 43.0771 24.6094 42.8906V33.75H25.3125C25.499 33.75 25.6778 33.6759 25.8097 33.5441C25.9415 33.4122 26.0156 33.2334 26.0156 33.0469V30.4003L27.3516 27.7362C27.399 27.6383 27.4231 27.5307 27.4219 27.4219V25.6036L28.6221 24.4034C28.754 24.2715 28.8281 24.0927 28.8281 23.9062V21.7969C28.8281 21.6104 28.754 21.4316 28.6222 21.2997C28.4903 21.1678 28.3115 21.0938 28.125 21.0938H27.4219V14.7656C27.4219 14.5791 27.3478 14.4003 27.2159 14.2684C27.0841 14.1366 26.9052 14.0625 26.7188 14.0625H23.9062C23.7198 14.0625 23.5409 14.1366 23.4091 14.2684C23.2772 14.4003 23.2031 14.5791 23.2031 14.7656V21.0938H21.7969V14.7656C21.7969 14.5791 21.7228 14.4003 21.5909 14.2684C21.4591 14.1366 21.2802 14.0625 21.0938 14.0625H18.2812C18.0948 14.0625 17.9159 14.1366 17.7841 14.2684C17.6522 14.4003 17.5781 14.5791 17.5781 14.7656V21.0938ZM23.2031 42.1875H21.7969V36.5625H23.2031V42.1875ZM23.2031 35.1562H21.7969V33.75H23.2031V35.1562ZM24.6094 32.3438H20.3906V30.9375H24.6094V32.3438ZM24.6094 15.4688H26.0156V21.0938H24.6094V15.4688ZM18.9844 15.4688H20.3906V21.0938H18.9844V15.4688ZM27.4219 22.5V23.6152L26.2216 24.8154C26.0898 24.9472 26.0157 25.126 26.0156 25.3125V27.2559L24.878 29.5312H20.122L18.9844 27.2559V25.3125C18.9843 25.126 18.9102 24.9472 18.7784 24.8154L17.5781 23.6152V22.5H27.4219Z" fill="#205B59"/>
<path d="M20.3906 23.9062H24.6094V25.3125H20.3906V23.9062Z" fill="#205B59"/>
<path d="M20.3906 26.7188H24.6094V28.125H20.3906V26.7188Z" fill="#205B59"/>
<path d="M25.9243 1.76273C25.863 1.65452 25.7741 1.56451 25.6666 1.50188C25.5592 1.43925 25.437 1.40625 25.3126 1.40625H21.797C21.6716 1.40624 21.5485 1.43975 21.4405 1.50329C21.3324 1.56684 21.2433 1.65811 21.1824 1.76766L17.6667 8.09578C17.6072 8.20281 17.5767 8.32353 17.5782 8.44599C17.5797 8.56845 17.6131 8.6884 17.6752 8.79396C17.7373 8.89953 17.8259 8.98704 17.9322 9.04784C18.0385 9.10865 18.1588 9.14063 18.2813 9.14062H21.0938V11.9531C21.0938 12.0997 21.1396 12.2426 21.2249 12.3619C21.3101 12.4811 21.4305 12.5708 21.5691 12.6183C21.6425 12.6433 21.7195 12.6561 21.797 12.6562C21.904 12.6562 22.0096 12.6318 22.1057 12.5847C22.2019 12.5377 22.286 12.4693 22.3517 12.3848L27.2737 6.05672C27.3545 5.95284 27.4045 5.82836 27.4181 5.69744C27.4316 5.56653 27.4082 5.43444 27.3504 5.3162C27.2926 5.19796 27.2027 5.09832 27.0911 5.02861C26.9795 4.95889 26.8505 4.92192 26.7189 4.92188H24.4457L25.9152 2.47148C25.9794 2.36474 26.014 2.24287 26.0156 2.11835C26.0172 1.99382 25.9857 1.8711 25.9243 1.76273ZM25.281 6.32812L22.5001 9.90352V8.4375C22.5001 8.25102 22.426 8.07218 22.2941 7.94032C22.1623 7.80845 21.9834 7.73438 21.797 7.73438H19.4766L22.2118 2.8125H24.0709L22.6013 5.26289C22.5373 5.36952 22.5026 5.49123 22.501 5.61561C22.4993 5.73999 22.5307 5.86259 22.5919 5.97088C22.6531 6.07918 22.7419 6.16931 22.8493 6.23207C22.9567 6.29483 23.0788 6.32798 23.2032 6.32812H25.281Z" fill="#205B59"/>
<path d="M9.84375 16.875H13.3594V18.2812H9.84375V16.875Z" fill="#205B59"/>
<path d="M10.8291 13.2224L11.6724 12.098L14.4848 14.2073L13.6415 15.3318L10.8291 13.2224Z" fill="#205B59"/>
<path d="M10.8281 21.9375L13.6406 19.8281L14.4839 20.9526L11.6715 23.0619L10.8281 21.9375Z" fill="#205B59"/>
<path d="M31.6406 16.875H35.1562V18.2812H31.6406V16.875Z" fill="#205B59"/>
<path d="M30.5137 14.1969L33.326 12.0875L34.1693 13.212L31.3569 15.3213L30.5137 14.1969Z" fill="#205B59"/>
<path d="M30.5186 20.9602L31.3619 19.8358L34.1744 21.9451L33.3311 23.0696L30.5186 20.9602Z" fill="#205B59"/>
</svg>
