<svg width="45" height="45" viewBox="0 0 45 45" fill="none" xmlns="http://www.w3.org/2000/svg">
<path d="M15.4865 16.0747H2.48701C2.32573 16.0747 2.17106 16.0107 2.05702 15.8966C1.94297 15.7826 1.87891 15.6279 1.87891 15.4666C1.87891 15.3053 1.94297 15.1507 2.05702 15.0366C2.17106 14.9226 2.32573 14.8585 2.48701 14.8585H15.4865C15.6478 14.8585 15.8025 14.9226 15.9165 15.0366C16.0306 15.1507 16.0947 15.3053 16.0947 15.4666C16.0947 15.6279 16.0306 15.7826 15.9165 15.8966C15.8025 16.0107 15.6478 16.0747 15.4865 16.0747Z" fill="#205B59"/>
<path d="M2.48701 33.4825C2.32573 33.4825 2.17106 33.4184 2.05702 33.3044C1.94297 33.1904 1.87891 33.0357 1.87891 32.8744V31.0683C1.87891 30.907 1.94297 30.7524 2.05702 30.6383C2.17106 30.5243 2.32573 30.4602 2.48701 30.4602C2.64829 30.4602 2.80297 30.5243 2.91701 30.6383C3.03105 30.7524 3.09512 30.907 3.09512 31.0683V32.8744C3.09512 33.0357 3.03105 33.1904 2.91701 33.3044C2.80297 33.4184 2.64829 33.4825 2.48701 33.4825Z" fill="#205B59"/>
<path d="M15.4894 43.7838H2.488C2.32672 43.7838 2.17204 43.7197 2.058 43.6057C1.94396 43.4917 1.87989 43.337 1.87989 43.1757V37.1311C1.87989 36.9698 1.94396 36.8152 2.058 36.7011C2.17204 36.5871 2.32672 36.523 2.488 36.523C2.64928 36.523 2.80395 36.5871 2.918 36.7011C3.03204 36.8152 3.09611 36.9698 3.09611 37.1311V42.5676H14.8812V31.8892C14.8814 31.7748 14.9138 31.6627 14.9748 31.5659C15.0358 31.4691 15.1229 31.3915 15.226 31.3419L41.7602 18.5777C41.4223 17.749 40.7944 17.0714 39.9937 16.6716C39.193 16.2718 38.2741 16.177 37.4086 16.405L15.6462 22.2118C15.5562 22.2358 15.4618 22.2389 15.3704 22.2206C15.2789 22.2024 15.1929 22.1634 15.119 22.1066C15.045 22.0498 14.9852 21.9768 14.9439 21.8932C14.9027 21.8095 14.8813 21.7176 14.8812 21.6243V13.1838C14.8763 12.8618 14.9281 12.5415 15.0345 12.2376C17.3648 5.76854 29.8869 5.19935 33.0089 5.15921V2.46286L17.0765 3.23455C9.27145 3.72773 5.86847 5.85246 4.38955 7.54664C3.59132 8.35839 3.13117 9.443 3.10219 10.5811V12.7289C3.10232 12.7582 3.10029 12.7875 3.09611 12.8165V20.7912C3.09611 20.9525 3.03204 21.1072 2.918 21.2212C2.80395 21.3353 2.64928 21.3993 2.488 21.3993C2.32672 21.3993 2.17204 21.3353 2.058 21.2212C1.94396 21.1072 1.87989 20.9525 1.87989 20.7912V12.7277C1.87973 12.6986 1.88177 12.6696 1.88597 12.6408V10.6298C1.89661 9.20368 2.44748 7.83467 3.42753 6.79867C5.78516 4.04759 10.3539 2.43975 17.0078 2.01894L33.2169 1.23509C33.3474 1.2289 33.4778 1.24934 33.6002 1.29517C33.7225 1.34099 33.8343 1.41125 33.9286 1.50165C34.0229 1.59205 34.0979 1.70071 34.1489 1.82101C34.1998 1.94131 34.2258 2.07072 34.2252 2.20137V5.4061C34.2257 5.66164 34.1248 5.90693 33.9447 6.08819C33.7645 6.26945 33.5199 6.37187 33.2644 6.373C31.7441 6.3809 18.3487 6.62536 16.1765 12.6541C16.1191 12.8247 16.0922 13.004 16.0969 13.1838V20.8326L37.0954 15.2289C38.2988 14.911 39.5781 15.0629 40.6736 15.6538C41.7691 16.2447 42.5987 17.2303 42.9941 18.4105C43.0673 18.6289 43.0586 18.8664 42.9698 19.079C42.881 19.2915 42.7181 19.4645 42.5112 19.5659L16.0975 32.2711V43.1757C16.0975 43.337 16.0334 43.4917 15.9193 43.6057C15.8053 43.7197 15.6506 43.7838 15.4894 43.7838Z" fill="#205B59"/>
<path d="M2.48701 27.4197C2.32573 27.4197 2.17106 27.3556 2.05702 27.2416C1.94297 27.1275 1.87891 26.9728 1.87891 26.8116V25.0481C1.87891 24.8868 1.94297 24.7321 2.05702 24.6181C2.17106 24.504 2.32573 24.4399 2.48701 24.4399C2.64829 24.4399 2.80297 24.504 2.91701 24.6181C3.03105 24.7321 3.09512 24.8868 3.09512 25.0481V26.8116C3.09512 26.9728 3.03105 27.1275 2.91701 27.2416C2.80297 27.3556 2.64829 27.4197 2.48701 27.4197Z" fill="#205B59"/>
<path d="M38.6755 26.6248H34.0302C33.896 26.6247 33.7631 26.5981 33.6392 26.5465C33.5152 26.495 33.4027 26.4196 33.3079 26.3245C33.2132 26.2295 33.1381 26.1167 33.0869 25.9926C33.0357 25.8685 33.0095 25.7356 33.0098 25.6014V23.1635C33.0098 23.0022 33.0738 22.8475 33.1879 22.7335C33.3019 22.6194 33.4566 22.5554 33.6179 22.5554C33.7792 22.5554 33.9338 22.6194 34.0479 22.7335C34.1619 22.8475 34.226 23.0022 34.226 23.1635V25.4086H38.4828V20.5365C38.4828 20.3752 38.5468 20.2205 38.6609 20.1065C38.7749 19.9924 38.9296 19.9283 39.0909 19.9283C39.2521 19.9283 39.4068 19.9924 39.5209 20.1065C39.6349 20.2205 39.699 20.3752 39.699 20.5365V25.6014C39.6991 25.7358 39.6728 25.869 39.6214 25.9932C39.57 26.1175 39.4946 26.2304 39.3996 26.3254C39.3045 26.4205 39.1916 26.4959 39.0674 26.5472C38.9431 26.5986 38.81 26.625 38.6755 26.6248Z" fill="#205B59"/>
<path d="M15.4865 40.0209H2.48701C2.32573 40.0209 2.17106 39.9568 2.05702 39.8428C1.94297 39.7288 1.87891 39.5741 1.87891 39.4128C1.87891 39.2515 1.94297 39.0968 2.05702 38.9828C2.17106 38.8688 2.32573 38.8047 2.48701 38.8047H15.4865C15.6478 38.8047 15.8025 38.8688 15.9165 38.9828C16.0306 39.0968 16.0947 39.2515 16.0947 39.4128C16.0947 39.5741 16.0306 39.7288 15.9165 39.8428C15.8025 39.9568 15.6478 40.0209 15.4865 40.0209Z" fill="#205B59"/>
<path d="M36.3541 42.7574C35.3272 42.7562 34.3427 42.3478 33.6165 41.6218C32.8903 40.8957 32.4818 39.9112 32.4805 38.8843C32.4805 36.9609 35.4955 32.11 35.8391 31.5633C35.8975 31.4812 35.9747 31.4143 36.0642 31.3681C36.1538 31.3219 36.2531 31.2979 36.3538 31.2979C36.4546 31.2979 36.5539 31.3219 36.6434 31.3681C36.733 31.4143 36.8102 31.4812 36.8686 31.5633C37.2128 32.1106 40.2278 36.9609 40.2278 38.8843C40.2265 39.9112 39.8179 40.8957 39.0918 41.6218C38.3656 42.3478 37.381 42.7562 36.3541 42.7574ZM36.3541 33.0532C35.1647 35.0508 33.6967 37.8572 33.6967 38.8843C33.6967 39.5891 33.9767 40.2651 34.475 40.7634C34.9734 41.2618 35.6493 41.5418 36.3541 41.5418C37.0589 41.5418 37.7348 41.2618 38.2332 40.7634C38.7316 40.2651 39.0116 39.5891 39.0116 38.8843C39.0116 37.8548 37.5436 35.0508 36.3541 33.0532Z" fill="#205B59"/>
</svg>
