<svg width="45" height="45" viewBox="0 0 45 45" fill="none" xmlns="http://www.w3.org/2000/svg">
<path d="M34.4202 19.1372V12.0108C34.4393 8.78631 33.1514 5.68582 30.8523 3.42485C28.6295 1.21158 25.7198 0 22.6384 0C22.5907 0 22.5334 0 22.4857 0C15.9127 0.00953996 10.5703 5.39008 10.5703 12.0108V19.1372C8.08994 19.4329 6.27734 21.5126 6.27734 24.0312V40.0392C6.27734 42.7581 8.45245 45 11.1713 45H33.8288C36.5476 45 38.7228 42.7581 38.7228 40.0392V24.0312C38.7132 21.5222 36.9006 19.4329 34.4202 19.1372ZM12.4688 12.0108H12.4783C12.4783 6.43947 16.9716 1.87937 22.4953 1.87937H22.5048C25.1283 1.86983 27.6469 2.90969 29.5071 4.76044C31.4438 6.67797 32.5218 9.29192 32.5027 12.0108V19.1467H30.4039V12.0108C30.423 9.84524 29.5644 7.76553 28.0285 6.23914C26.5784 4.78906 24.6131 3.96862 22.5621 3.96862H22.5048C18.1164 3.96862 14.5676 7.57473 14.5676 12.0013V19.1467H12.4688V12.0108ZM28.5055 12.0108V19.1467H16.4851V12.0108C16.4851 8.63367 19.1754 5.88616 22.5144 5.88616H22.5716C24.1171 5.88616 25.6053 6.50625 26.7024 7.60335C27.8663 8.76722 28.5245 10.3604 28.5055 12.0108ZM36.9006 40.0678C36.9006 41.7373 35.5459 43.092 33.8765 43.092H11.2095C9.54001 43.092 8.18534 41.7373 8.18534 40.0678V24.0789C8.18534 22.4094 9.54001 21.0547 11.2095 21.0547H33.8765C35.5459 21.0547 36.9006 22.4094 36.9006 24.0789V40.0678Z" fill="#205B59"/>
<path d="M25.7955 31.4819C25.3758 30.0032 24.0306 28.9919 22.4947 28.9919C20.5963 28.9919 19.0508 30.5279 19.0508 32.4359C19.0508 33.9718 20.062 35.3169 21.5407 35.7367V38.4079C21.5407 38.9326 21.97 39.3619 22.4947 39.3619C23.0194 39.3619 23.4487 38.9326 23.4487 38.4079V35.7367C25.2708 35.212 26.3298 33.304 25.7955 31.4819ZM22.4947 33.9623C21.6456 33.9623 20.9588 33.2754 20.9588 32.4263C20.9588 31.5773 21.6456 30.8904 22.4947 30.8904C23.3438 30.8904 24.0306 31.5773 24.0306 32.4263C24.0306 33.2754 23.3438 33.9623 22.4947 33.9623Z" fill="#205B59"/>
</svg>
