<svg width="45" height="45" viewBox="0 0 45 45" fill="none" xmlns="http://www.w3.org/2000/svg">
<g clip-path="url(#clip0)">
<path d="M2.25 45.0001H6C6.63637 44.9981 7.24182 44.7253 7.665 44.2501H26.475C27.5756 44.2505 28.655 43.948 29.595 43.3756L43.65 34.8196C44.3146 34.4182 44.7826 33.7587 44.942 32.9988C45.1015 32.2389 44.938 31.447 44.4908 30.8123C44.4749 30.7862 44.4573 30.7612 44.4383 30.7373C43.7127 29.7734 42.4535 29.3791 41.3078 29.7571L36 31.5218V15.75H36.9825C37.6114 15.7534 38.1756 15.3641 38.3957 14.775C38.6157 14.1859 38.445 13.5221 37.968 13.1123L36 11.4135V3.00004C36 2.17161 35.3284 1.50004 34.5 1.50004H30.75C29.9216 1.50004 29.25 2.17161 29.25 3.00004V5.58604L23.475 0.600036C22.9127 0.122416 22.0873 0.122416 21.525 0.600036L7.02975 13.1145C6.55422 13.525 6.3848 14.1883 6.60526 14.7765C6.82571 15.3647 7.38934 15.7533 8.0175 15.75H9V26.2501H8.112C7.79531 25.3543 6.95009 24.754 6 24.7501H2.25C1.00736 24.7501 0 25.7574 0 27.0001V42.7501C0 43.9927 1.00736 45.0001 2.25 45.0001ZM41.775 31.1768C42.2896 31.0078 42.8552 31.1715 43.2 31.5893C43.2113 31.6079 43.2236 31.626 43.2368 31.6433C43.4578 31.9372 43.5439 32.3111 43.4737 32.6721C43.4035 33.0331 43.1836 33.3474 42.8685 33.5371L28.815 42.0946C28.1099 42.5235 27.3004 42.7503 26.475 42.7501H8.25V27.7501H9.6C10.9838 27.7516 12.3262 28.2225 13.4078 29.0858C14.755 30.1606 16.4266 30.7472 18.15 30.7501H22.0725C23.1184 30.7528 24.088 31.2976 24.6345 32.1893C24.6428 32.2081 24.6518 32.2253 24.6593 32.2388C25.1304 32.9252 25.1093 33.8362 24.6068 34.5001H20.04C18.5592 34.501 17.1116 34.9393 15.879 35.7601L15.3315 36.1276C14.9877 36.3587 14.8964 36.8248 15.1275 37.1686C15.3586 37.5124 15.8247 37.6037 16.1685 37.3726L16.7115 37.0081C17.6973 36.3512 18.8554 36.0005 20.04 36.0001H26.7075C27.1121 36.0006 27.5139 35.9344 27.897 35.8043L41.775 31.1768ZM27.75 34.2751L27.417 34.3861C27.1884 34.4627 26.9487 34.5012 26.7075 34.5001H26.2988C26.6296 33.5043 26.5107 32.4139 25.9733 31.5128C25.9613 31.487 25.9478 31.4619 25.9328 31.4378C25.1172 30.0843 23.6542 29.2548 22.074 29.2501H18.15C17.8485 29.2476 17.5477 29.2225 17.25 29.1751V27.7501C17.25 24.8506 19.6005 22.5 22.5 22.5C25.3995 22.5 27.75 24.8506 27.75 27.7501V34.2751ZM30.75 3.00004H34.5V10.119L30.75 6.88129V3.00004ZM12 15.75C12.4142 15.75 12.75 15.4143 12.75 15C12.75 14.5858 12.4142 14.25 12 14.25H8.01225L22.5 1.73779L29.475 7.76029L36.9825 14.25H27C26.5858 14.25 26.25 14.5858 26.25 15C26.25 15.4143 26.5858 15.75 27 15.75H34.5V32.0251L29.25 33.7748V27.7501C29.25 24.0221 26.2279 21 22.5 21C18.7721 21 15.75 24.0221 15.75 27.7501V28.7521C15.2455 28.5378 14.7724 28.256 14.3438 27.9143C13.2361 27.0335 11.9052 26.4783 10.5 26.3108V15.75H12ZM1.5 27.0001C1.5 26.5858 1.83579 26.2501 2.25 26.2501H6C6.41421 26.2501 6.75 26.5858 6.75 27.0001V42.7501C6.75 43.1643 6.41421 43.5001 6 43.5001H2.25C1.83579 43.5001 1.5 43.1643 1.5 42.7501V27.0001Z" fill="#205B59"/>
<path d="M9 3.75C9.41421 3.75 9.75 3.41421 9.75 3V1.5C9.75 1.08579 9.41421 0.75 9 0.75C8.58579 0.75 8.25 1.08579 8.25 1.5V3C8.25 3.41421 8.58579 3.75 9 3.75Z" fill="#205B59"/>
<path d="M9 5.25012C8.58579 5.25012 8.25 5.58591 8.25 6.00012V7.50012C8.25 7.91434 8.58579 8.25013 9 8.25013C9.41421 8.25013 9.75 7.91434 9.75 7.50012V6.00012C9.75 5.58591 9.41421 5.25012 9 5.25012Z" fill="#205B59"/>
<path d="M10.5 5.25012H12C12.4142 5.25012 12.75 4.91434 12.75 4.50012C12.75 4.08591 12.4142 3.75012 12 3.75012H10.5C10.0858 3.75012 9.75 4.08591 9.75 4.50012C9.75 4.91434 10.0858 5.25012 10.5 5.25012Z" fill="#205B59"/>
<path d="M6 5.25012H7.5C7.91422 5.25012 8.25 4.91434 8.25 4.50012C8.25 4.08591 7.91422 3.75012 7.5 3.75012H6C5.58579 3.75012 5.25 4.08591 5.25 4.50012C5.25 4.91434 5.58579 5.25012 6 5.25012Z" fill="#205B59"/>
<path d="M41.6249 22.1251C41.8238 22.125 42.0145 22.046 42.1551 21.9053L43.2801 20.7803C43.5643 20.486 43.5603 20.0182 43.271 19.7289C42.9817 19.4396 42.5139 19.4356 42.2196 19.7198L41.0946 20.8448C40.8802 21.0593 40.816 21.3818 40.9321 21.6621C41.0482 21.9423 41.3216 22.125 41.6249 22.1251Z" fill="#205B59"/>
<path d="M38.8452 23.0947L37.7202 24.2197C37.5252 24.408 37.447 24.6869 37.5157 24.9491C37.5843 25.2113 37.7891 25.4161 38.0513 25.4847C38.3135 25.5534 38.5924 25.4752 38.7807 25.2802L39.9057 24.1552C40.1899 23.8609 40.1858 23.3931 39.8965 23.1038C39.6073 22.8145 39.1395 22.8105 38.8452 23.0947Z" fill="#205B59"/>
<path d="M42.2193 25.2802C42.5136 25.5644 42.9814 25.5603 43.2707 25.271C43.56 24.9817 43.5641 24.514 43.2798 24.2197L42.1548 23.0947C41.8605 22.8105 41.3928 22.8145 41.1035 23.1038C40.8142 23.3931 40.8101 23.8609 41.0943 24.1552L42.2193 25.2802Z" fill="#205B59"/>
<path d="M37.7196 19.7197C37.4268 20.0126 37.4268 20.4873 37.7196 20.7802L38.8446 21.9052C39.1389 22.1894 39.6067 22.1854 39.896 21.8961C40.1853 21.6068 40.1893 21.139 39.9051 20.8447L38.7801 19.7197C38.4872 19.4269 38.0125 19.4269 37.7196 19.7197Z" fill="#205B59"/>
<path d="M15 15.75C17.07 15.7525 18.7475 17.43 18.75 19.5C18.75 19.9142 19.0858 20.25 19.5 20.25C19.9142 20.25 20.25 19.9142 20.25 19.5C20.2525 17.43 21.93 15.7525 24 15.75C24.4142 15.75 24.75 15.4142 24.75 15C24.75 14.5858 24.4142 14.25 24 14.25C21.93 14.2475 20.2525 12.57 20.25 10.5C20.25 10.0858 19.9142 9.75 19.5 9.75C19.0858 9.75 18.75 10.0858 18.75 10.5C18.7475 12.57 17.07 14.2475 15 14.25C14.5858 14.25 14.25 14.5858 14.25 15C14.25 15.4142 14.5858 15.75 15 15.75ZM19.5 13.2C19.9448 13.9373 20.5627 14.5552 21.3 15C20.5627 15.4448 19.9448 16.0627 19.5 16.8C19.0552 16.0627 18.4373 15.4448 17.7 15C18.4373 14.5552 19.0552 13.9373 19.5 13.2Z" fill="#205B59"/>
</g>
<defs>
<clipPath id="clip0">
<rect width="45" height="45" fill="white"/>
</clipPath>
</defs>
</svg>
