<svg width="45" height="45" viewBox="0 0 45 45" fill="none" xmlns="http://www.w3.org/2000/svg">
<path d="M36.9141 21.2695H33.8403L33.8379 15.6512C33.8356 13.9089 34.3736 12.2087 35.3779 10.7849C36.2152 9.61494 36.6311 8.19562 36.5576 6.75876C36.4418 4.20308 34.7355 1.89094 32.3116 1.00518C32.2319 0.976062 32.1464 0.966604 32.0622 0.977606C31.9781 0.988607 31.8979 1.01974 31.8284 1.06837C31.7588 1.117 31.7021 1.18168 31.6629 1.25693C31.6237 1.33218 31.6033 1.41578 31.6033 1.50062L31.6043 6.29233L28.6765 6.29171L28.6755 1.49411C28.6754 1.40949 28.655 1.32612 28.616 1.25104C28.577 1.17596 28.5205 1.11137 28.4512 1.06273C28.382 1.01409 28.302 0.982834 28.2182 0.971593C28.1343 0.960352 28.049 0.969459 27.9693 0.998145C27.0479 1.33791 26.2161 1.88353 25.5374 2.59342C24.8588 3.30331 24.3511 4.15875 24.0531 5.09456C23.755 6.03036 23.6746 7.02185 23.8177 7.99347C23.9609 8.96509 24.324 9.89121 24.8793 10.7013C25.8939 12.1481 26.4411 13.8709 26.4473 15.638L26.4498 21.2695H22.571C20.9121 21.2695 19.7743 21.9647 19.0926 23.4325C18.7088 24.25 18.1022 24.9426 17.3424 25.4306C16.5825 25.9187 15.7004 26.1824 14.7974 26.1914H14.1523C13.7159 24.7851 12.5 23.8467 11.0329 23.8081C10.5829 23.7941 10.1345 23.8704 9.71448 24.0325C9.29441 24.1947 8.91111 24.4394 8.58722 24.7522C8.26334 25.065 8.00543 25.4396 7.82876 25.8537C7.65208 26.2679 7.56022 26.7133 7.55859 27.1635V40.3992C7.55859 42.2436 9.00809 43.7823 10.8519 43.8308C11.6629 43.8608 12.4571 43.5946 13.0863 43.0819C13.7154 42.5692 14.1365 41.845 14.2708 41.0446H15.4951C17.5455 41.0496 19.5535 41.6291 21.2913 42.7173C23.2207 43.9189 25.3975 44.0332 27.6448 44.0332H33.6696C34.17 44.0318 34.6593 43.8857 35.0785 43.6124C35.4977 43.3392 35.8289 42.9505 36.0322 42.4933C36.2354 42.036 36.3021 41.5298 36.2241 41.0355C36.1461 40.5412 35.9268 40.0801 35.5926 39.7076C36.0195 39.5324 36.3922 39.2469 36.6725 38.8804C36.9527 38.5138 37.1306 38.0793 37.1878 37.6215C37.2451 37.1636 37.1796 36.6987 36.9981 36.2744C36.8167 35.8502 36.5257 35.4817 36.1551 35.2068C36.4791 34.9608 36.7424 34.6439 36.9248 34.2803C37.1072 33.9167 37.2039 33.5161 37.2075 33.1093C37.2111 32.7026 37.1214 32.3004 36.9454 31.9337C36.7693 31.5669 36.5116 31.2454 36.192 30.9937C36.6128 30.6886 36.9261 30.258 37.087 29.7638C37.2478 29.2695 37.248 28.737 37.0874 28.2427C36.9268 27.7484 36.6138 27.3176 36.1932 27.0122C35.7726 26.7069 35.2661 26.5426 34.7463 26.5429H33.8379V26.4449C36.0352 26.3043 37.4414 24.5222 37.4414 21.8395V21.7604C37.4414 21.4689 37.2052 21.2695 36.9141 21.2695ZM36.1535 29.0039C36.1536 29.1887 36.1173 29.3716 36.0466 29.5423C35.9759 29.7131 35.8723 29.8682 35.7416 29.9988C35.6109 30.1294 35.4557 30.2329 35.2849 30.3035C35.1142 30.3741 34.9312 30.4103 34.7464 30.4101H31.7007C31.5609 30.4101 31.4267 30.4657 31.3279 30.5646C31.229 30.6635 31.1734 30.7976 31.1734 30.9375C31.1734 31.0773 31.229 31.2115 31.3279 31.3104C31.4267 31.4093 31.5609 31.4648 31.7007 31.4648H34.5484C34.9796 31.4648 35.3932 31.6361 35.6981 31.9411C36.0031 32.246 36.1744 32.6596 36.1744 33.0908C36.1744 33.522 36.0031 33.9356 35.6981 34.2405C35.3932 34.5455 34.9796 34.7168 34.5484 34.7168H31.7007C31.5609 34.7163 31.4265 34.7713 31.3273 34.8699C31.2281 34.9684 31.172 35.1024 31.1715 35.2422C31.171 35.3821 31.2261 35.5164 31.3246 35.6157C31.4232 35.7149 31.5571 35.771 31.697 35.7715H34.613C35.0209 35.7715 35.4121 35.9335 35.7006 36.222C35.989 36.5104 36.1511 36.9016 36.1511 37.3095C36.1511 37.7175 35.989 38.1087 35.7006 38.3971C35.4121 38.6856 35.0209 38.8476 34.613 38.8476H30.4143C30.2744 38.8476 30.1403 38.9032 30.0414 39.0021C29.9425 39.101 29.8869 39.2351 29.8869 39.375C29.8869 39.5148 29.9425 39.649 30.0414 39.7479C30.1403 39.8468 30.2744 39.9023 30.4143 39.9023H33.6696C34.0775 39.9023 34.4687 40.0644 34.7572 40.3528C35.0456 40.6413 35.2077 41.0325 35.2077 41.4404C35.2077 41.8483 35.0456 42.2395 34.7572 42.528C34.4687 42.8164 34.0775 42.9785 33.6696 42.9785H27.6448C25.5563 42.9785 23.5416 42.8764 21.8485 41.8222C19.9435 40.6299 17.7425 39.9952 15.4951 39.9902H14.3262V33.75C14.3262 33.6101 14.2706 33.476 14.1717 33.3771C14.0728 33.2782 13.9387 33.2226 13.7988 33.2226C13.659 33.2226 13.5248 33.2782 13.4259 33.3771C13.327 33.476 13.2715 33.6101 13.2715 33.75V40.413C13.2715 41.677 12.2852 42.7484 11.0219 42.7908C10.7101 42.8012 10.3994 42.7489 10.1082 42.637C9.81696 42.5251 9.55116 42.3558 9.32655 42.1393C9.10193 41.9228 8.92306 41.6634 8.80054 41.3765C8.67802 41.0896 8.61434 40.781 8.61328 40.469V27.2197C8.61328 25.9557 9.59959 24.8844 10.8633 24.8419C11.175 24.8316 11.4857 24.8839 11.7769 24.9958C12.0681 25.1077 12.3338 25.2769 12.5584 25.4934C12.7829 25.7099 12.9618 25.9693 13.0843 26.2562C13.2068 26.5431 13.2704 26.8516 13.2715 27.1635V30.0586C13.2715 30.1984 13.327 30.3326 13.4259 30.4315C13.5248 30.5303 13.659 30.5859 13.7988 30.5859C13.9387 30.5859 14.0728 30.5303 14.1717 30.4315C14.2706 30.3326 14.3262 30.1984 14.3262 30.0586V27.2461H14.7974C15.8984 27.2297 16.9731 26.9067 17.9008 26.3134C18.8285 25.7202 19.5725 24.8801 20.0492 23.8874C20.3889 23.156 20.9825 22.3242 22.571 22.3242H26.4503L26.452 26.1466C26.3187 25.9833 26.2357 25.7849 26.2129 25.5754C26.2053 25.5065 26.1842 25.4398 26.1507 25.3792C26.1173 25.3185 26.0723 25.265 26.0182 25.2217C25.9641 25.1784 25.902 25.1462 25.8355 25.1269C25.769 25.1077 25.6993 25.1017 25.6304 25.1093C25.5616 25.117 25.4949 25.1381 25.4342 25.1715C25.3736 25.2049 25.3201 25.2499 25.2768 25.304C25.2335 25.3581 25.2013 25.4202 25.182 25.4867C25.1627 25.5533 25.1568 25.623 25.1644 25.6918C25.2194 26.2139 25.4653 26.6972 25.855 27.049C26.2446 27.4007 26.7505 27.5961 27.2754 27.5976H34.7462C34.9309 27.5974 35.114 27.6336 35.2847 27.7042C35.4555 27.7748 35.6107 27.8783 35.7414 28.0089C35.8721 28.1395 35.9758 28.2947 36.0465 28.4654C36.1172 28.6361 36.1536 28.8191 36.1535 29.0039H36.1535ZM29.6859 17.1495C29.6841 17.0867 29.6948 17.0241 29.7174 16.9655C29.74 16.9068 29.7742 16.8533 29.8178 16.808C29.9079 16.7245 30.0242 16.6748 30.1469 16.6674C30.2752 16.6676 30.3983 16.7182 30.4897 16.8082C30.5811 16.8983 30.6335 17.0206 30.6356 17.1489L30.6444 26.5434H29.6902L29.6859 17.1495ZM31.7011 26.5429L31.6981 17.1642C31.6978 16.9637 31.6578 16.7651 31.5806 16.5801C31.5033 16.395 31.3902 16.227 31.2478 16.0858C31.1054 15.9446 30.9365 15.8329 30.7507 15.7572C30.565 15.6814 30.3662 15.6431 30.1656 15.6445C29.9651 15.641 29.7658 15.6776 29.5795 15.7521C29.3932 15.8266 29.2237 15.9375 29.0809 16.0784C28.938 16.2192 28.8247 16.3872 28.7476 16.5724C28.6704 16.7576 28.631 16.9563 28.6317 17.1569L28.6355 26.5429H27.5069L27.502 15.6378C27.4961 13.6564 26.8834 11.7244 25.7464 10.1016C25.1281 9.20578 24.799 8.14203 24.8036 7.05354C24.8023 6.08237 25.0634 5.12888 25.5593 4.29387C26.0552 3.45885 26.7675 2.77335 27.6209 2.30982L27.622 6.8274C27.6217 6.96817 27.6769 7.10338 27.7756 7.20373C27.8743 7.30409 28.0086 7.3615 28.1493 7.36354L32.1317 7.38278C32.2737 7.37604 32.4075 7.31418 32.5046 7.21034C32.604 7.10446 32.6593 6.96458 32.659 6.81932L32.658 2.31492C34.3048 3.20745 35.4189 4.92844 35.5039 6.80613C35.5659 8.00702 35.2189 9.19345 34.5196 10.1716C33.388 11.7748 32.7814 13.6893 32.7832 15.6515L32.7879 26.5429H31.7011ZM33.8421 25.3872L33.8408 22.3242H36.3691C36.2539 23.742 35.5409 25.2378 33.8421 25.3872Z" fill="#205B59"/>
<path d="M11.3379 29.2312C11.198 29.2312 11.0639 29.2868 10.965 29.3857C10.8661 29.4846 10.8105 29.6187 10.8105 29.7585V37.6015C10.8105 37.7413 10.8661 37.8755 10.965 37.9743C11.0639 38.0732 11.198 38.1288 11.3379 38.1288C11.4778 38.1288 11.6119 38.0732 11.7108 37.9743C11.8097 37.8755 11.8652 37.7413 11.8652 37.6015V29.7585C11.8652 29.6187 11.8097 29.4846 11.7108 29.3857C11.6119 29.2868 11.4778 29.2312 11.3379 29.2312Z" fill="#205B59"/>
<path d="M11.3379 26.6553C11.198 26.6553 11.0639 26.7108 10.965 26.8097C10.8661 26.9086 10.8105 27.0428 10.8105 27.1826V27.7165C10.8105 27.8563 10.8661 27.9905 10.965 28.0893C11.0639 28.1882 11.198 28.2438 11.3379 28.2438C11.4778 28.2438 11.6119 28.1882 11.7108 28.0893C11.8097 27.9905 11.8652 27.8563 11.8652 27.7165V27.1826C11.8652 27.0428 11.8097 26.9086 11.7108 26.8097C11.6119 26.7108 11.4778 26.6553 11.3379 26.6553Z" fill="#205B59"/>
</svg>
