<svg width="45" height="45" viewBox="0 0 45 45" fill="none" xmlns="http://www.w3.org/2000/svg">
<path d="M29.1032 34.9691C28.8813 33.5594 28.2909 32.2334 27.3916 31.1253C26.4924 30.0173 25.3164 29.1665 23.9826 28.6591L25.2853 24.0996C25.3152 23.995 25.3205 23.8848 25.3006 23.7778C25.2807 23.6707 25.2362 23.5698 25.1707 23.4829C25.1051 23.396 25.0203 23.3255 24.9229 23.2769C24.8255 23.2284 24.7181 23.2031 24.6092 23.2031H17.578C17.4691 23.2031 17.3618 23.2284 17.2643 23.2769C17.1669 23.3255 17.0821 23.396 17.0166 23.4829C16.951 23.5698 16.9066 23.6707 16.8867 23.7778C16.8668 23.8848 16.872 23.995 16.9019 24.0996L18.2046 28.6593C16.8708 29.1666 15.6948 30.0174 14.7956 31.1255C13.8964 32.2336 13.3059 33.5596 13.0841 34.9693L12.6034 38.0139C12.5083 38.6161 12.5449 39.2318 12.7106 39.8185C12.8763 40.4052 13.1671 40.949 13.5632 41.4125C13.9592 41.876 14.451 42.2481 15.0047 42.5033C15.5584 42.7585 16.1608 42.8906 16.7705 42.8906H25.4168C26.0264 42.8906 26.6288 42.7585 27.1825 42.5033C27.7362 42.2481 28.228 41.876 28.624 41.4125C29.0201 40.949 29.311 40.4052 29.4767 39.8185C29.6424 39.2318 29.6789 38.6161 29.5838 38.0139L29.1032 34.9691ZM18.5102 24.6094H23.6771L22.6301 28.2738C21.6154 28.0754 20.5718 28.0754 19.5571 28.2738L18.5102 24.6094ZM27.5551 40.4989C27.2912 40.8081 26.9633 41.0564 26.5941 41.2265C26.225 41.3966 25.8233 41.4846 25.4168 41.4844H16.7705C16.364 41.4844 15.9624 41.3964 15.5932 41.2263C15.224 41.0562 14.8961 40.8081 14.6321 40.4991C14.368 40.1901 14.174 39.8275 14.0636 39.4364C13.9531 39.0452 13.9287 38.6348 13.9921 38.2333L14.4728 35.1885C14.6816 33.8648 15.2824 32.6341 16.1978 31.6554C17.1132 30.6767 18.301 29.995 19.6077 29.6982L17.0062 33.341L18.1505 34.1583L20.3905 31.0222V34.4531H21.7967V31.0222L24.0371 34.1587L25.1814 33.3413L22.5798 29.6986C23.8865 29.9953 25.0742 30.6771 25.9895 31.6557C26.9048 32.6343 27.5057 33.8649 27.7145 35.1885L28.1953 38.2333C28.2589 38.6348 28.2345 39.0453 28.124 39.4364C28.0135 39.8276 27.8194 40.1901 27.5551 40.4989Z" fill="#205B59"/>
<path d="M40.141 28.7198C39.963 26.9414 39.2737 25.2527 38.1564 23.8576C37.0391 22.4626 35.5417 21.421 33.8452 20.8588L35.1291 16.3652C35.159 16.2606 35.1642 16.1504 35.1443 16.0434C35.1245 15.9364 35.08 15.8354 35.0144 15.7485C34.9489 15.6616 34.8641 15.5911 34.7667 15.5426C34.6692 15.494 34.5619 15.4687 34.453 15.4688H27.4218C27.3129 15.4687 27.2056 15.494 27.1081 15.5426C27.0107 15.5911 26.9259 15.6616 26.8603 15.7485C26.7948 15.8354 26.7503 15.9364 26.7304 16.0434C26.7106 16.1504 26.7158 16.2606 26.7457 16.3652L28.0294 20.8584C27.1674 21.1436 26.3523 21.5547 25.6104 22.0781L26.4207 23.2274C27.2716 22.6263 28.2344 22.2019 29.2522 21.9793L26.1848 25.558L27.2525 26.4731L30.2343 22.9945V27.4219H31.6405V22.9945L34.6223 26.4732L35.69 25.5581L32.6221 21.9788C34.2394 22.3299 35.7034 23.1854 36.8033 24.422C37.9031 25.6586 38.582 27.2125 38.7421 28.8597L39.6953 38.3919C39.7345 38.783 39.6912 39.1779 39.5683 39.5512C39.4455 39.9244 39.2457 40.2678 38.982 40.5592C38.7183 40.8506 38.3965 41.0834 38.0372 41.2428C37.678 41.4021 37.2894 41.4844 36.8964 41.4844H30.2343V42.8906H36.8964C37.4858 42.8906 38.0687 42.7671 38.6074 42.5281C39.1462 42.289 39.6289 41.9397 40.0244 41.5027C40.4199 41.0657 40.7194 40.5506 40.9037 39.9907C41.088 39.4309 41.1529 38.8386 41.0942 38.2521L40.141 28.7198ZM28.3539 16.875H33.5209L32.4789 20.5217C31.4585 20.3475 30.416 20.3469 29.3954 20.5199L28.3539 16.875Z" fill="#205B59"/>
<path d="M39.0313 20.6967C38.1731 19.9196 37.2075 19.27 36.1643 18.7679L35.5547 20.0352C37.1374 20.7971 38.5075 21.9381 39.5431 23.3569C40.5788 24.7757 41.248 26.4283 41.4913 28.1679L42.8841 27.974C42.4918 25.1718 41.1283 22.5963 39.0313 20.6967Z" fill="#205B59"/>
<path d="M6.04326 40.5501C5.77968 40.256 5.58091 39.9097 5.45986 39.5338C5.33882 39.1578 5.29821 38.7606 5.34066 38.368L7.21721 21.1038C7.50095 18.4611 8.66736 15.9912 10.528 14.0932C12.3886 12.1951 14.8348 10.9798 17.4713 10.6436L13.5069 15.7406L14.617 16.6039L18.2807 11.893V18.2812H19.687V11.893L23.3507 16.6039L24.4607 15.7407L20.4979 10.6457C23.2175 11.0011 25.7307 12.2853 27.6121 14.2809L28.6369 13.3179C27.0712 11.6564 25.1039 10.4262 22.9247 9.74593L24.8732 3.00832C24.9036 2.90356 24.9092 2.79317 24.8895 2.68588C24.8699 2.57859 24.8256 2.47734 24.76 2.39013C24.6945 2.30293 24.6096 2.23217 24.512 2.18344C24.4144 2.13471 24.3068 2.10935 24.1978 2.10938H13.6509C13.543 2.1094 13.4365 2.13426 13.3397 2.18204C13.243 2.22982 13.1585 2.29923 13.0929 2.3849C13.0272 2.47057 12.9822 2.57019 12.9613 2.67606C12.9403 2.78193 12.944 2.8912 12.9721 2.9954L14.809 9.81105C12.3993 10.6092 10.2702 12.0841 8.67602 14.0597C7.08189 16.0352 6.09011 18.4279 5.81914 20.9519L3.94267 38.216C3.87865 38.805 3.93941 39.4009 4.12098 39.9648C4.30256 40.5288 4.60089 41.0482 4.99654 41.4892C5.39219 41.9302 5.87629 42.2829 6.41732 42.5243C6.95835 42.7658 7.54417 42.8906 8.13664 42.8906H11.9526V41.4844H8.13664C7.7417 41.4841 7.35123 41.4008 6.99058 41.2399C6.62994 41.0789 6.30717 40.8439 6.04326 40.5501ZM14.5687 3.51562H23.2626L21.5616 9.39735C20.7129 9.22714 19.8494 9.14114 18.9838 9.14062C18.0363 9.14024 17.0915 9.24088 16.1653 9.44086L14.5687 3.51562Z" fill="#205B59"/>
<path d="M4.42169 20.7998C4.64149 18.7901 5.27365 16.8473 6.2786 15.093C7.28356 13.3388 8.6397 11.8107 10.2622 10.6045L9.42521 9.47461C7.64691 10.7964 6.16049 12.471 5.05896 14.3936C3.95742 16.3162 3.26447 18.4453 3.02344 20.648L2.60156 24.5334L3.99902 24.6853L4.42169 20.7998Z" fill="#205B59"/>
<path d="M2.44871 25.9397L2.2959 27.3459L3.69392 27.4979L3.84673 26.0916L2.44871 25.9397Z" fill="#205B59"/>
</svg>
