<svg width="45" height="45" viewBox="0 0 45 45" fill="none" xmlns="http://www.w3.org/2000/svg">
<g clip-path="url(#clip0)">
<path d="M22.5553 0C10.1486 0 0.0556641 10.093 0.0556641 22.5001C0.0556641 34.9067 10.1486 45.0001 22.5553 45.0001C34.9616 45.0001 45.0546 34.9067 45.0546 22.5001C45.0546 10.093 34.9616 0 22.5553 0ZM22.5553 43.1657C11.1605 43.1657 1.89007 33.8945 1.89007 22.5001C1.89007 11.1052 11.1605 1.83441 22.5553 1.83441C33.9497 1.83441 43.2202 11.1052 43.2202 22.5001C43.2202 33.8945 33.9497 43.1657 22.5553 43.1657Z" fill="#205B59"/>
<path d="M34.1756 13.5282L18.1773 29.5261L10.9349 22.2841C10.5767 21.9259 9.99635 21.9259 9.63778 22.2841C9.27959 22.6423 9.27959 23.2227 9.63778 23.5812L17.5288 31.4718C17.7079 31.6509 17.9426 31.7403 18.1773 31.7403C18.4121 31.7403 18.6468 31.6509 18.8259 31.4718L35.4728 14.8254C35.831 14.4672 35.831 13.8864 35.4728 13.5282C35.1146 13.17 34.5338 13.17 34.1756 13.5282Z" fill="#205B59"/>
</g>
<defs>
<clipPath id="clip0">
<rect width="45" height="45" fill="white"/>
</clipPath>
</defs>
</svg>
