<svg width="30" height="30" viewBox="0 0 30 30" fill="none" xmlns="http://www.w3.org/2000/svg">
<path d="M28.2907 23.5646L22.5861 18.3778C22.3165 18.1327 21.9621 18.002 21.5979 18.0133C21.2337 18.0246 20.8881 18.1769 20.6341 18.4382L17.2759 21.8918C16.4675 21.7374 14.8425 21.2308 13.1697 19.5623C11.4969 17.8881 10.9903 16.2588 10.8401 15.4561L14.2909 12.0965C14.5525 11.8427 14.7051 11.497 14.7164 11.1327C14.7276 10.7684 14.5967 10.414 14.3513 10.1445L9.16591 4.44131C8.92039 4.17096 8.57914 4.00698 8.21466 3.98418C7.85017 3.96139 7.49116 4.08157 7.21386 4.31922L4.16859 6.93083C3.92597 7.17433 3.78116 7.49841 3.76162 7.84159C3.74057 8.19242 3.33922 16.503 9.78339 22.9499C15.4052 28.5703 22.4472 28.9814 24.3866 28.9814C24.6701 28.9814 24.8441 28.973 24.8904 28.9702C25.2336 28.951 25.5575 28.8056 25.7998 28.5618L28.41 25.5152C28.6486 25.2388 28.7697 24.8801 28.7474 24.5156C28.7251 24.1512 28.5612 23.8098 28.2907 23.5646Z" fill="#205B59"/>
</svg>
