<svg width="45" height="45" viewBox="0 0 45 45" fill="none" xmlns="http://www.w3.org/2000/svg">
<path d="M34.9914 29.4456C35.3555 29.4456 35.6506 29.1505 35.6506 28.7865V3.2959C35.6506 1.4785 34.1721 0 32.3547 0H12.6445C10.8271 0 9.34863 1.4785 9.34863 3.2959V41.7041C9.34863 43.5215 10.8271 45 12.6445 45H32.3548C34.1722 45 35.6507 43.5215 35.6507 41.7041V31.8626C35.6507 31.4986 35.3556 31.2035 34.9915 31.2035C34.6275 31.2035 34.3323 31.4986 34.3323 31.8626V41.7041C34.3323 42.7946 33.4453 43.6816 32.3548 43.6816H12.6445C11.5541 43.6816 10.667 42.7946 10.667 41.7041V3.2959C10.667 2.20544 11.5541 1.31836 12.6445 1.31836H16.7344V3.2632C16.7344 4.11126 17.4245 4.80129 18.2725 4.80129H26.7268C27.5749 4.80129 28.2649 4.11126 28.2649 3.2632V1.31836H32.3548C33.4453 1.31836 34.3323 2.20544 34.3323 3.2959V28.7865C34.3322 29.1505 34.6274 29.4456 34.9914 29.4456ZM26.9465 3.2632C26.9465 3.38432 26.8479 3.48293 26.7268 3.48293H18.2725C18.1514 3.48293 18.0528 3.38432 18.0528 3.2632V1.31836H26.9465V3.2632ZM31.6955 35.4036C31.6955 34.5555 31.0055 33.8655 30.1574 33.8655H14.8418C13.9937 33.8655 13.3037 34.5555 13.3037 35.4036V36.7219C13.3037 37.57 13.9937 38.26 14.8418 38.26H30.1575C31.0056 38.26 31.6956 37.57 31.6956 36.7219V35.4036H31.6955ZM30.3772 36.7219C30.3772 36.843 30.2786 36.9417 30.1574 36.9417H14.8418C14.7207 36.9417 14.6221 36.843 14.6221 36.7219V35.4036C14.6221 35.2825 14.7207 35.1838 14.8418 35.1838H30.1575C30.2786 35.1838 30.3773 35.2825 30.3773 35.4036V36.7219H30.3772ZM16.9769 10.3126C16.7148 10.06 16.2975 10.0675 16.0449 10.3297C14.4262 12.0088 13.5348 14.2182 13.5348 16.551C13.5348 21.4588 17.6286 25.5159 22.4996 25.5159C27.3958 25.5159 31.4645 21.5024 31.4645 16.551C31.4645 11.6078 27.4429 7.58619 22.4996 7.58619C21.1762 7.58619 19.9014 7.86806 18.7109 8.42396C18.3811 8.57795 18.2385 8.97029 18.3925 9.30015C18.5466 9.63 18.9389 9.77256 19.2687 9.61857C20.2833 9.14476 21.3704 8.90455 22.4997 8.90455C26.716 8.90455 30.1462 12.3347 30.1462 16.551C30.1462 18.4449 29.4538 20.18 28.3093 21.5169C27.8434 20.0604 26.835 18.8097 25.4991 18.0495C25.8337 17.5104 26.0275 16.8752 26.0275 16.1953V15.1013C26.0275 13.1561 24.4449 11.5735 22.4997 11.5735C20.5545 11.5735 18.972 13.1561 18.972 15.1013V16.1953C18.972 16.8752 19.1658 17.5104 19.5003 18.0495C18.1645 18.8098 17.156 20.0605 16.6901 21.5169C15.5456 20.18 14.8532 18.4449 14.8532 16.551C14.8532 14.5613 15.6135 12.6768 16.9941 11.2447C17.2467 10.9826 17.239 10.5653 16.9769 10.3126ZM20.2902 15.1012C20.2902 13.8829 21.2814 12.8918 22.4996 12.8918C23.7179 12.8918 24.709 13.8829 24.709 15.1012V16.1953C24.709 17.4135 23.7179 18.4046 22.4996 18.4046C21.2814 18.4046 20.2902 17.4135 20.2902 16.1953V15.1012ZM20.4297 19.0494C21.0115 19.4726 21.7267 19.7231 22.4996 19.7231C23.2725 19.7231 23.9876 19.4726 24.5695 19.0494C25.9593 19.7208 26.9566 21.0479 27.2119 22.569C25.9124 23.5888 24.2758 24.1975 22.4996 24.1975C20.7234 24.1975 19.0869 23.5887 17.7874 22.569C18.0426 21.0478 19.0399 19.7208 20.4297 19.0494ZM13.9629 39.7266C13.5988 39.7266 13.3037 40.0217 13.3037 40.3857C13.3037 40.7498 13.5988 41.0449 13.9629 41.0449H31.0364C31.4005 41.0449 31.6956 40.7498 31.6956 40.3857C31.6956 40.0217 31.4005 39.7266 31.0364 39.7266H13.9629ZM31.6955 29.6907C31.6955 28.8426 31.0055 28.1526 30.1574 28.1526H14.8418C13.9937 28.1526 13.3037 28.8426 13.3037 29.6907V31.009C13.3037 31.8571 13.9937 32.5471 14.8418 32.5471H30.1575C31.0056 32.5471 31.6956 31.8571 31.6956 31.009V29.6907H31.6955ZM30.3772 31.009C30.3772 31.1302 30.2786 31.2288 30.1574 31.2288H14.8418C14.7207 31.2288 14.6221 31.1302 14.6221 31.009V29.6907C14.6221 29.5696 14.7207 29.471 14.8418 29.471H30.1575C30.2786 29.471 30.3773 29.5696 30.3773 29.6907V31.009H30.3772Z" fill="#205B59"/>
</svg>
