<svg width="45" height="45" viewBox="0 0 45 45" fill="none" xmlns="http://www.w3.org/2000/svg">
<g clip-path="url(#clip0)">
<path d="M15.166 34.4446C15.1546 34.3883 15.1379 34.3329 15.1159 34.2793C15.0939 34.2266 15.0667 34.1756 15.0351 34.1282C15.0034 34.0798 14.9665 34.035 14.9261 33.9946C14.8856 33.9541 14.8408 33.9172 14.7925 33.8856C14.745 33.8539 14.694 33.8267 14.6404 33.8047C14.5877 33.7828 14.5323 33.7652 14.4761 33.7546C14.3627 33.7318 14.2458 33.7318 14.1333 33.7546C14.0771 33.7652 14.0217 33.7828 13.9681 33.8047C13.9153 33.8267 13.8644 33.8539 13.8169 33.8856C13.7686 33.9172 13.7237 33.9541 13.6833 33.9946C13.6429 34.035 13.606 34.0798 13.5743 34.1282C13.5418 34.1756 13.5154 34.2266 13.4935 34.2793C13.4715 34.3329 13.4539 34.3883 13.4434 34.4446C13.4319 34.5008 13.4258 34.5588 13.4258 34.616C13.4258 34.6731 13.4319 34.7311 13.4434 34.7873C13.4539 34.8436 13.4715 34.899 13.4935 34.9517C13.5154 35.0053 13.5418 35.0563 13.5743 35.1037C13.606 35.1521 13.6429 35.1969 13.6833 35.2373C13.7237 35.2778 13.7686 35.3147 13.8169 35.3463C13.8644 35.378 13.9153 35.4053 13.9681 35.4273C14.0217 35.4492 14.0771 35.4668 14.1333 35.4774C14.1896 35.4888 14.2476 35.4949 14.3047 35.4949C14.3618 35.4949 14.4198 35.4888 14.4761 35.4774C14.5323 35.4668 14.5877 35.4492 14.6404 35.4273C14.694 35.4053 14.745 35.378 14.7925 35.3463C14.8408 35.3147 14.8856 35.2778 14.9261 35.2373C14.9665 35.1969 15.0034 35.1521 15.0351 35.1037C15.0667 35.0563 15.0939 35.0053 15.1159 34.9517C15.1379 34.899 15.1546 34.8436 15.166 34.7873C15.1774 34.7311 15.1836 34.6731 15.1836 34.616C15.1836 34.5588 15.1774 34.5008 15.166 34.4446Z" fill="#205B59"/>
<path d="M40.4291 34.7154C40.4256 34.7066 40.4221 34.6979 40.4184 34.6893C39.6095 32.7964 37.7123 32.0967 35.467 32.8636L29.3439 34.5569C28.9898 33.4848 28.1068 32.5725 26.8582 32.1091C26.8505 32.1063 26.8428 32.1035 26.8349 32.1009L20.1042 29.8164C19.544 29.0923 17.7892 27.2394 14.5035 27.2394C12.2074 27.2394 10.1762 28.8146 9.01406 30.5315H0.878906C0.393486 30.5315 0 30.925 0 31.4104V42.4914C0 42.9768 0.393486 43.3703 0.878906 43.3703H6.10462C6.59004 43.3703 6.98353 42.9768 6.98353 42.4914V41.7325H9.43418C9.9196 41.7325 10.3131 41.3391 10.3131 40.8536V40.6007C11.7417 40.7253 12.2115 40.9963 13.5236 41.7528C14.5325 42.3347 16.0575 43.214 18.8038 44.4488C18.8165 44.4545 18.8294 44.46 18.8423 44.4651C19.3694 44.6724 20.3998 44.9981 21.67 44.9981C22.5542 44.9981 23.5549 44.8402 24.582 44.3746L38.1163 39.5287C38.1404 39.5201 38.1641 39.5104 38.1873 39.4997C39.4808 38.9046 41.4084 37.2274 40.4291 34.7154ZM5.22571 41.6124H1.75781V32.2892H5.22571V41.6124ZM8.55527 39.9746H6.98353V32.2892H8.55527V39.9746ZM37.485 37.8875L23.9567 42.7312C23.9448 42.7355 23.9287 42.7418 23.9171 42.7465C23.9052 42.7514 23.8933 42.7565 23.8816 42.7618C21.9975 43.6277 20.2066 43.1094 19.5047 42.8364C16.852 41.6428 15.4361 40.8264 14.4017 40.2299C12.9634 39.4005 12.2704 39.0008 10.3131 38.8392V31.7603C11.1462 30.3948 12.7618 28.9971 14.5036 28.9971C17.4907 28.9971 18.7564 30.9399 18.8061 31.0183C18.9134 31.1929 19.0784 31.3244 19.2724 31.3903L26.2575 33.761C27.3731 34.1798 27.9627 35.1351 27.6917 36.0879C27.5666 36.5278 27.2776 36.8928 26.8781 37.1154C26.482 37.3361 26.0241 37.3907 25.5876 37.2699L17.7132 34.7745C17.2502 34.6278 16.7564 34.8841 16.6098 35.3469C16.4631 35.8096 16.7194 36.3035 17.1822 36.4502L25.0703 38.9499C25.0786 38.9526 25.087 38.9551 25.0954 38.9575C25.4103 39.047 25.7309 39.0913 26.0496 39.0913C26.6331 39.0913 27.2101 38.9427 27.7337 38.6509C28.5434 38.1998 29.129 37.4603 29.3825 36.5686C29.4027 36.4974 29.4206 36.4262 29.4362 36.355L36.0352 34.5269C36.9883 34.2014 38.2395 34.084 38.7965 35.367C39.3731 36.8732 37.8745 37.7017 37.485 37.8875Z" fill="#205B59"/>
<path d="M31.5575 11.5613C31.5461 11.5051 31.5294 11.4497 31.5065 11.3961C31.4846 11.3434 31.4582 11.2924 31.4257 11.2449C31.394 11.1966 31.3571 11.1518 31.3167 11.1113C31.2763 11.0709 31.2314 11.034 31.1831 11.0023C31.1356 10.9707 31.0847 10.9435 31.0319 10.9215C30.9783 10.8995 30.9229 10.8819 30.8676 10.8714C30.7542 10.8485 30.6373 10.8485 30.5239 10.8714C30.4677 10.8819 30.4123 10.8995 30.3596 10.9215C30.306 10.9435 30.255 10.9707 30.2075 11.0023C30.1592 11.034 30.1144 11.0709 30.0739 11.1113C30.0335 11.1518 29.9966 11.1966 29.9649 11.2449C29.9333 11.2924 29.9061 11.3434 29.8841 11.3961C29.8621 11.4497 29.8445 11.5051 29.834 11.5613C29.8226 11.6176 29.8164 11.6756 29.8164 11.7327C29.8164 11.7898 29.8226 11.8479 29.834 11.9041C29.8445 11.9604 29.8621 12.0157 29.8841 12.0685C29.9061 12.1221 29.9333 12.173 29.9649 12.2205C29.9966 12.2688 30.0335 12.3137 30.0739 12.3541C30.1144 12.3945 30.1592 12.4314 30.2075 12.4631C30.255 12.4947 30.306 12.522 30.3596 12.5439C30.4123 12.5659 30.4677 12.5826 30.5239 12.594C30.5802 12.6055 30.6382 12.6116 30.6953 12.6116C30.7524 12.6116 30.8104 12.6055 30.8676 12.594C30.9229 12.5826 30.9783 12.5659 31.0319 12.5439C31.0847 12.522 31.1356 12.4947 31.1831 12.4631C31.2314 12.4314 31.2763 12.3945 31.3167 12.3541C31.3571 12.3137 31.394 12.2688 31.4257 12.2205C31.4582 12.173 31.4846 12.1221 31.5065 12.0685C31.5294 12.0157 31.5461 11.9604 31.5575 11.9041C31.5689 11.8479 31.5742 11.7898 31.5742 11.7327C31.5742 11.6756 31.5689 11.6176 31.5575 11.5613Z" fill="#205B59"/>
<path d="M44.1209 2.97855H38.8952C38.4098 2.97855 38.0163 3.37204 38.0163 3.85746V4.6163H35.5657C35.0802 4.6163 34.6868 5.00979 34.6868 5.49521V5.74816C33.2582 5.62344 32.7883 5.35256 31.4764 4.596C30.4674 4.01416 28.9424 3.13482 26.1961 1.90004C26.1833 1.89424 26.1705 1.88888 26.1574 1.88378C25.2635 1.53205 22.9206 0.839995 20.4182 1.97405L16.8815 3.24038L13.9004 0.259302C13.5571 -0.0839111 13.0006 -0.0839111 12.6574 0.259302L2.87008 10.0465C2.5535 10.3632 2.49277 10.9123 2.87008 11.2896L19.5945 28.014C19.8622 28.2817 20.4888 28.3627 20.8376 28.014L29.773 19.0787C30.0053 19.0987 30.2463 19.1096 30.4962 19.1096C32.7924 19.1096 34.8236 17.5344 35.9856 15.8175H44.1209C44.6064 15.8175 44.9998 15.424 44.9998 14.9386V3.85746C44.9998 3.37204 44.6064 2.97855 44.1209 2.97855ZM13.2788 2.12373L15.282 4.12693C14.6865 4.49519 13.9981 4.69224 13.2788 4.69224C12.5594 4.69224 11.871 4.49528 11.2756 4.12693L13.2788 2.12373ZM6.7378 12.6713L4.73459 10.668L6.7378 8.66481C7.10606 9.26027 7.30311 9.94872 7.30311 10.668C7.30311 11.3873 7.10615 12.0758 6.7378 12.6713ZM20.2161 26.1495L18.2132 24.1467C19.4361 23.392 20.9959 23.392 22.2189 24.1467L20.2161 26.1495ZM23.4852 22.8805C21.543 21.4716 18.8892 21.4716 16.947 22.8805L8.00404 13.9375C8.69038 12.9935 9.06092 11.8596 9.06092 10.668C9.06092 9.4763 8.69046 8.34251 8.00404 7.39857L10.0094 5.39326C10.9534 6.07959 12.0872 6.45014 13.2789 6.45014C14.4706 6.45014 15.6044 6.07959 16.5483 5.39326L18.4493 7.29424C18.0391 7.3548 17.6391 7.48998 17.2661 7.69784C16.6361 8.04887 16.1418 8.57455 15.834 9.21052C14.8426 9.39413 13.9248 9.8741 13.2048 10.594C11.2514 12.5475 11.2514 15.7259 13.2049 17.6793C14.1815 18.656 15.4645 19.1444 16.7475 19.1444C18.0304 19.1444 19.3135 18.656 20.2902 17.6793C20.9256 17.0439 21.3708 16.2629 21.5938 15.4117L24.5613 16.4189C24.2272 17.9664 24.5694 19.5945 25.4923 20.8733L23.4852 22.8805ZM18.1416 14.2397C18.1493 14.2425 18.1571 14.2453 18.1649 14.248L19.9224 14.8445C19.7896 15.4435 19.4893 15.9942 19.0472 16.4364C17.7791 17.7043 15.7158 17.7044 14.4479 16.4364C13.1798 15.1684 13.1798 13.1051 14.4479 11.837C14.7538 11.531 15.1147 11.2919 15.5081 11.1297C15.6703 12.4799 16.6425 13.6834 18.1416 14.2397ZM26.7588 19.6068C26.4195 19.054 26.2275 18.423 26.1972 17.7791C26.6182 18.0834 27.1327 18.3816 27.7473 18.6183L26.7588 19.6068ZM34.6867 14.5882C33.8536 15.9538 32.238 17.3516 30.4962 17.3516C30.1703 17.3516 29.8649 17.3284 29.5793 17.2871C29.5782 17.2869 29.5771 17.2867 29.5759 17.2865C27.6778 17.0108 26.6568 15.932 26.3203 15.5049C26.3023 15.4785 26.226 15.3786 26.2146 15.362C26.1122 15.179 25.9444 15.0319 25.7303 14.9592L18.7423 12.5875C17.6271 12.1689 17.0376 11.214 17.3078 10.2616C17.308 10.261 17.3081 10.2604 17.3083 10.2598C17.3086 10.2591 17.3088 10.2583 17.3089 10.2576C17.4345 9.81899 17.723 9.45521 18.1217 9.23311C18.5177 9.01242 18.9755 8.95766 19.4122 9.07869L27.2865 11.574C27.7494 11.7209 28.2433 11.4644 28.3899 11.0016C28.5365 10.5389 28.2803 10.045 27.8176 9.89827L21.5549 7.9137L21.5003 7.85903C21.4997 7.8585 21.4992 7.85789 21.4986 7.85736L18.2563 4.61507L21.0431 3.61716C21.0525 3.61374 21.0641 3.60943 21.0735 3.60565C21.0758 3.60468 21.0804 3.60292 21.0827 3.60196C21.0946 3.59712 21.1064 3.59203 21.1181 3.58667C23.0021 2.72077 24.793 3.23906 25.495 3.51205C28.1478 4.70569 29.5637 5.5221 30.5982 6.11862C32.0364 6.94804 32.7294 7.34768 34.6867 7.50931V14.5882ZM38.0163 14.0595H36.4446V6.37412H38.0163V14.0595ZM43.242 14.0595H39.7741V4.73636H43.242V14.0595Z" fill="#205B59"/>
</g>
<defs>
<clipPath id="clip0">
<rect width="45" height="45" fill="white"/>
</clipPath>
</defs>
</svg>
