<svg width="45" height="45" viewBox="0 0 45 45" fill="none" xmlns="http://www.w3.org/2000/svg">
<g clip-path="url(#clip0)">
<path d="M3.41602 13.1141H10.368C10.732 13.1141 11.0272 12.8191 11.0272 12.455C11.0272 12.0908 10.732 11.7958 10.368 11.7958H3.41602C3.05197 11.7958 2.75684 12.0908 2.75684 12.455C2.75684 12.8191 3.05188 13.1141 3.41602 13.1141Z" fill="#205B59"/>
<path d="M10.13 16.2876H7.38379C7.01975 16.2876 6.72461 16.5826 6.72461 16.9468C6.72461 17.3109 7.01975 17.606 7.38379 17.606H10.13C10.4941 17.606 10.7892 17.3109 10.7892 16.9468C10.7892 16.5826 10.4941 16.2876 10.13 16.2876Z" fill="#205B59"/>
<path d="M0.65918 20.8588H7.38387C7.74791 20.8588 8.04305 20.5637 8.04305 20.1996C8.04305 19.8355 7.74791 19.5404 7.38387 19.5404H0.65918C0.295137 19.5404 0 19.8355 0 20.1996C0 20.5637 0.295137 20.8588 0.65918 20.8588Z" fill="#205B59"/>
<path d="M11.0272 32.5449C11.0272 32.1808 10.732 31.8857 10.368 31.8857H3.41602C3.05197 31.8857 2.75684 32.1808 2.75684 32.5449C2.75684 32.9091 3.05197 33.2041 3.41602 33.2041H10.368C10.732 33.2041 11.0272 32.9091 11.0272 32.5449Z" fill="#205B59"/>
<path d="M10.13 27.394H7.38379C7.01975 27.394 6.72461 27.6891 6.72461 28.0532C6.72461 28.4174 7.01975 28.7124 7.38379 28.7124H10.13C10.4941 28.7124 10.7892 28.4174 10.7892 28.0532C10.7892 27.6891 10.4941 27.394 10.13 27.394Z" fill="#205B59"/>
<path d="M8.04305 24.8004C8.04305 24.4363 7.74791 24.1412 7.38387 24.1412H0.65918C0.295137 24.1412 0 24.4363 0 24.8004C0 25.1645 0.295137 25.4596 0.65918 25.4596H7.38387C7.74791 25.4596 8.04305 25.1645 8.04305 24.8004Z" fill="#205B59"/>
<path d="M28.083 14.5749C28.4471 14.5749 28.7422 14.2798 28.7422 13.9157V12.9095C28.7422 12.5454 28.4471 12.2504 28.083 12.2504C27.7189 12.2504 27.4238 12.5454 27.4238 12.9095V13.9157C27.4238 14.2798 27.7189 14.5749 28.083 14.5749Z" fill="#205B59"/>
<path d="M35.3319 15.2523C35.0744 14.995 34.6571 14.995 34.3997 15.2523L33.6882 15.9638C33.4308 16.2213 33.4308 16.6386 33.6882 16.8961C33.9458 17.1535 34.363 17.1534 34.6204 16.8961L35.3319 16.1846C35.5893 15.9272 35.5893 15.5099 35.3319 15.2523Z" fill="#205B59"/>
<path d="M36.668 21.8408C36.3038 21.8408 36.0088 22.1359 36.0088 22.5C36.0088 22.8641 36.3038 23.1592 36.668 23.1592H37.6741C38.0382 23.1592 38.3332 22.8641 38.3332 22.5C38.3332 22.1359 38.0382 21.8408 37.6741 21.8408H36.668Z" fill="#205B59"/>
<path d="M34.6205 28.1038C34.3629 27.8464 33.9456 27.8464 33.6882 28.1038C33.4308 28.3613 33.4308 28.7786 33.6882 29.036L34.3997 29.7475C34.6573 30.0049 35.0745 30.0049 35.3319 29.7475C35.5894 29.49 35.5894 29.0727 35.3319 28.8153L34.6205 28.1038Z" fill="#205B59"/>
<path d="M27.4238 31.0842V32.0903C27.4238 32.4544 27.7189 32.7495 28.083 32.7495C28.4471 32.7495 28.7422 32.4544 28.7422 32.0903V31.0842C28.7422 30.7201 28.4471 30.425 28.083 30.425C27.7189 30.425 27.4238 30.7202 27.4238 31.0842Z" fill="#205B59"/>
<path d="M21.5471 28.1038L20.8357 28.8153C20.5782 29.0728 20.5782 29.4901 20.8357 29.7475C21.0932 30.0049 21.5105 30.0049 21.7678 29.7475L22.4793 29.036C22.7367 28.7785 22.7367 28.3612 22.4793 28.1038C22.2219 27.8464 21.8046 27.8464 21.5471 28.1038Z" fill="#205B59"/>
<path d="M18.4932 21.8408C18.1291 21.8408 17.834 22.1359 17.834 22.5C17.834 22.8641 18.1291 23.1592 18.4932 23.1592H19.4993C19.8634 23.1592 20.1585 22.8641 20.1585 22.5C20.1585 22.1359 19.8634 21.8408 19.4993 21.8408H18.4932Z" fill="#205B59"/>
<path d="M22.4803 15.9638L21.7688 15.2523C21.5114 14.995 21.094 14.995 20.8366 15.2523C20.5792 15.5099 20.5792 15.9272 20.8366 16.1846L21.5481 16.8961C21.8056 17.1535 22.2229 17.1534 22.4803 16.8961C22.7377 16.6386 22.7377 16.2213 22.4803 15.9638Z" fill="#205B59"/>
<path d="M31.6276 22.4999C31.6276 22.1358 31.3326 21.8407 30.9685 21.8407H28.7422V16.9467C28.7422 16.5825 28.4471 16.2875 28.083 16.2875C27.7189 16.2875 27.4238 16.5825 27.4238 16.9467V22.4999C27.4238 22.8641 27.7189 23.1591 28.083 23.1591H30.9685C31.3325 23.1591 31.6276 22.8641 31.6276 22.4999Z" fill="#205B59"/>
<path d="M40.5831 22.3912C40.9465 22.3691 41.2232 22.0567 41.2011 21.6933C40.7818 14.7761 35.02 9.35754 28.0839 9.35754C20.8371 9.35754 14.9414 15.2532 14.9414 22.5001C14.9414 29.7469 20.8371 35.6426 28.0839 35.6426C34.5763 35.6426 40.1161 30.8857 41.0798 24.4666C41.1339 24.1066 40.8858 23.771 40.5258 23.7169C40.1666 23.6631 39.8301 23.9108 39.776 24.271C38.9103 30.0379 33.9308 34.3243 28.0839 34.3243C21.5641 34.3243 16.2598 29.02 16.2598 22.5002C16.2598 15.9804 21.5641 10.676 28.0839 10.676C34.3242 10.676 39.5079 15.5505 39.8851 21.7733C39.9071 22.1365 40.2193 22.4123 40.5831 22.3912Z" fill="#205B59"/>
<path d="M28.0842 5.58362C25.7656 5.58362 23.4939 6.06464 21.4029 6.9642H9.77246C9.40842 6.9642 9.11328 7.25925 9.11328 7.62338C9.11328 7.98751 9.40842 8.28256 9.77246 8.28256H18.923C17.6858 9.07885 16.5468 10.0393 15.5426 11.1481C15.2982 11.4179 15.3188 11.8348 15.5886 12.0792C15.8585 12.3236 16.2752 12.3029 16.5197 12.0331C19.473 8.7722 23.6882 6.90198 28.0842 6.90198C36.685 6.90198 43.6823 13.8992 43.6823 22.5C43.6823 31.1007 36.6851 38.0981 28.0842 38.0981C19.4834 38.0981 12.4862 31.1008 12.4862 22.5C12.4862 19.4882 13.3465 16.5649 14.9741 14.0462C15.1717 13.7404 15.084 13.3324 14.7782 13.1348C14.4724 12.9373 14.0644 13.0249 13.8668 13.3307C12.101 16.0631 11.1678 19.2337 11.1678 22.5C11.1678 28.456 14.2621 33.7024 18.9272 36.7175H9.77255C9.40851 36.7175 9.11337 37.0125 9.11337 37.3766C9.11337 37.7408 9.40851 38.0358 9.77255 38.0358H21.3939C23.447 38.9234 25.7091 39.4164 28.0843 39.4164C37.412 39.4164 45.0007 31.8278 45.0007 22.5C45.0007 13.1723 37.412 5.58362 28.0842 5.58362Z" fill="#205B59"/>
</g>
<defs>
<clipPath id="clip0">
<rect width="45" height="45" fill="white"/>
</clipPath>
</defs>
</svg>
