<svg width="45" height="45" viewBox="0 0 45 45" fill="none" xmlns="http://www.w3.org/2000/svg">
<g clip-path="url(#clip0)">
<path d="M31.3763 13.8237C31.2132 13.8238 31.0568 13.8887 30.9414 14.0041L20.2265 24.719L14.0601 18.5522C13.9426 18.4411 13.787 18.3791 13.6252 18.3791C13.4635 18.3791 13.3079 18.4411 13.1904 18.5522L10.7045 21.0385C10.5892 21.1539 10.5244 21.3103 10.5244 21.4734C10.5244 21.6365 10.5892 21.7929 10.7045 21.9083L19.7927 30.9958C19.8498 31.053 19.9176 31.0983 19.9922 31.1293C20.0668 31.1602 20.1468 31.1761 20.2276 31.1761C20.3084 31.1761 20.3884 31.1602 20.463 31.1293C20.5376 31.0983 20.6054 31.053 20.6625 30.9958L34.2971 17.3601C34.4124 17.2447 34.4772 17.0882 34.4772 16.925C34.4772 16.7619 34.4124 16.6054 34.2971 16.49L31.8112 14.0041C31.6959 13.8887 31.5395 13.8238 31.3763 13.8237ZM20.2265 29.6908L12.0095 21.4734L13.6266 19.8562L19.7927 26.0237C19.8498 26.0808 19.9176 26.1262 19.9922 26.1571C20.0668 26.1881 20.1468 26.204 20.2276 26.204C20.3084 26.204 20.3884 26.1881 20.463 26.1571C20.5376 26.1262 20.6054 26.0808 20.6625 26.0237L31.3763 15.3091L32.9935 16.9263L20.2265 29.6908Z" fill="#205B59"/>
<path d="M22.4995 5.7417C19.185 5.7417 15.945 6.72456 13.1891 8.56598C10.4332 10.4074 8.28526 13.0247 7.01687 16.0869C5.74847 19.149 5.4166 22.5186 6.06322 25.7694C6.70985 29.0201 8.30592 32.0062 10.6496 34.3499C12.9933 36.6936 15.9793 38.2896 19.2301 38.9363C22.4809 39.5829 25.8504 39.251 28.9126 37.9826C31.9748 36.7142 34.5921 34.5663 36.4335 31.8104C38.2749 29.0545 39.2578 25.8145 39.2578 22.5C39.2528 18.0569 37.4855 13.7973 34.3438 10.6556C31.2021 7.51394 26.9425 5.74672 22.4995 5.7417ZM22.4995 38.0278C19.4284 38.0278 16.4262 37.1171 13.8727 35.4109C11.3192 33.7047 9.32893 31.2796 8.15367 28.4422C6.97841 25.6049 6.67091 22.4828 7.27005 19.4707C7.86919 16.4586 9.34808 13.6918 11.5197 11.5202C13.6913 9.34856 16.4581 7.86967 19.4702 7.27053C22.4823 6.67139 25.6044 6.97889 28.4417 8.15415C31.2791 9.32941 33.7042 11.3197 35.4104 13.8732C37.1166 16.4267 38.0273 19.4289 38.0273 22.5C38.0227 26.6168 36.3852 30.5636 33.4742 33.4747C30.5632 36.3857 26.6163 38.0231 22.4995 38.0278Z" fill="#205B59"/>
<path d="M44.3068 24.4733C44.7585 23.9148 45.005 23.2183 45.005 22.5C45.005 21.7817 44.7585 21.0851 44.3068 20.5266L43.2985 19.268C43.1052 19.0265 42.9729 18.742 42.9128 18.4386C42.8526 18.1351 42.8664 17.8217 42.9529 17.5247L43.4029 15.9809C43.6005 15.2907 43.5584 14.5538 43.2835 13.8905C43.0086 13.2272 42.5171 12.6766 41.8891 12.3286L40.4803 11.5551C40.209 11.4065 39.9774 11.1948 39.8051 10.9377C39.6329 10.6807 39.525 10.386 39.4907 10.0786L39.3149 8.47719C39.2397 7.76249 38.9214 7.09527 38.4132 6.58711C37.9051 6.07895 37.2379 5.76065 36.5232 5.68543L34.9218 5.50965C34.6143 5.47545 34.3196 5.36769 34.0626 5.19549C33.8056 5.02328 33.5938 4.79171 33.4452 4.52035L32.6718 3.11129C32.3291 2.47816 31.779 1.98216 31.1139 1.70653C30.4488 1.43089 29.7092 1.39238 29.0191 1.59746L27.4757 2.04711C27.1785 2.13346 26.865 2.14711 26.5615 2.0869C26.2579 2.0267 25.9733 1.8944 25.7316 1.70117L24.473 0.692893C23.9145 0.241332 23.2179 -0.00500488 22.4997 -0.00500488C21.7814 -0.00500488 21.0849 0.241332 20.5264 0.692893L19.2678 1.70117C19.026 1.894 18.7415 2.02602 18.4381 2.08615C18.1348 2.14628 17.8214 2.13277 17.5244 2.04676L15.9807 1.59676C15.2904 1.39901 14.5535 1.44103 13.8902 1.71596C13.2268 1.99089 12.6763 2.48251 12.3283 3.11059L11.5548 4.5193C11.4062 4.79066 11.1945 5.02226 10.9375 5.19452C10.6805 5.36677 10.3858 5.47462 10.0783 5.50895L8.47691 5.68473C7.76221 5.75994 7.09499 6.07824 6.58683 6.58641C6.07867 7.09457 5.76037 7.76178 5.68515 8.47649L5.50937 10.0779C5.47517 10.3853 5.36741 10.68 5.19521 10.9371C5.02301 11.1941 4.79143 11.4058 4.52007 11.5544L3.11101 12.3279C2.47802 12.6707 1.98215 13.2208 1.70653 13.8858C1.43091 14.5509 1.39231 15.2905 1.59718 15.9806L2.04754 17.5236C2.13388 17.8208 2.14753 18.1343 2.08733 18.4378C2.02712 18.7414 1.89483 19.026 1.7016 19.2677L0.693317 20.5263C0.241572 21.0848 -0.00488281 21.7813 -0.00488281 22.4996C-0.00488281 23.2179 0.241572 23.9145 0.693317 24.4729L1.7016 25.7315C1.89487 25.9731 2.02716 26.2576 2.08731 26.561C2.14746 26.8645 2.1337 27.1779 2.04718 27.4749L1.59718 29.0186C1.39942 29.7089 1.44135 30.4458 1.71614 31.1091C1.99093 31.7725 2.48237 32.3232 3.11031 32.6714L4.51902 33.4448C4.79038 33.5934 5.02198 33.8052 5.19424 34.0622C5.36649 34.3192 5.47434 34.6139 5.50867 34.9214L5.68445 36.5227C5.75966 37.2374 6.07796 37.9047 6.58613 38.4128C7.09429 38.921 7.76151 39.2393 8.47621 39.3145L10.0776 39.4903C10.3851 39.5245 10.6798 39.6322 10.9368 39.8044C11.1938 39.9766 11.4056 40.2082 11.5541 40.4796L12.3276 41.8886C12.6703 42.5218 13.2204 43.0178 13.8854 43.2934C14.5505 43.569 15.2902 43.6075 15.9803 43.4025L17.5233 42.9521C17.8205 42.866 18.134 42.8525 18.4375 42.9127C18.741 42.9729 19.0256 43.1051 19.2674 43.298L20.526 44.3063C21.0845 44.7581 21.781 45.0045 22.4993 45.0045C23.2176 45.0045 23.9142 44.7581 24.4727 44.3063L25.7312 43.298C25.9728 43.1049 26.2573 42.9726 26.5608 42.9125C26.8642 42.8523 27.1776 42.866 27.4746 42.9525L29.0184 43.4025C29.7084 43.6073 30.448 43.5687 31.1129 43.2931C31.7779 43.0175 32.3279 42.5216 32.6707 41.8886L33.4442 40.4799C33.5928 40.2086 33.8045 39.977 34.0616 39.8047C34.3186 39.6324 34.6133 39.5246 34.9207 39.4903L36.5221 39.3145C37.2368 39.2393 37.904 38.921 38.4122 38.4128C38.9203 37.9047 39.2387 37.2374 39.3139 36.5227L39.4896 34.9214C39.5238 34.6139 39.6316 34.3192 39.8038 34.0622C39.976 33.8051 40.2076 33.5934 40.4789 33.4448L41.888 32.6714C42.521 32.3285 43.0169 31.7784 43.2925 31.1134C43.5681 30.4483 43.6067 29.7088 43.4018 29.0186L42.9515 27.4756C42.8651 27.1785 42.8515 26.8649 42.9117 26.5614C42.9719 26.2578 43.1042 25.9732 43.2974 25.7315L44.3068 24.4733ZM42.338 24.963C42.0213 25.359 41.8046 25.8253 41.7059 26.3226C41.6073 26.8199 41.6297 27.3337 41.7713 27.8205L42.222 29.3635C42.3469 29.7846 42.3233 30.2358 42.1551 30.6416C41.9869 31.0473 41.6843 31.3829 41.2981 31.5921L39.8887 32.3655C39.4437 32.6094 39.0641 32.9569 38.782 33.3786C38.4999 33.8003 38.3236 34.2838 38.268 34.7881L38.0922 36.3895C38.046 36.8255 37.8517 37.2326 37.5416 37.5426C37.2316 37.8527 36.8246 38.047 36.3885 38.0932L34.7868 38.2689C34.2825 38.3247 33.7991 38.5012 33.3775 38.7834C32.9559 39.0655 32.6084 39.4451 32.3645 39.89L31.5911 41.2991C31.3818 41.6851 31.0462 41.9875 30.6406 42.1557C30.235 42.3238 29.7839 42.3476 29.3629 42.223L27.8195 41.7726C27.3328 41.6308 26.8191 41.6082 26.3218 41.7068C25.8245 41.8054 25.3582 42.0222 24.9624 42.339L23.7038 43.3473C23.363 43.6231 22.9378 43.7736 22.4993 43.7736C22.0609 43.7736 21.6357 43.6231 21.2949 43.3473L20.0363 42.339C19.6404 42.0223 19.174 41.8054 18.6767 41.7068C18.1794 41.6082 17.6656 41.6306 17.1788 41.7723L15.6361 42.2226C15.215 42.3471 14.7639 42.3233 14.3583 42.1552C13.9527 41.987 13.617 41.6847 13.4076 41.2987L12.6341 39.8893C12.3903 39.4444 12.0428 39.0648 11.6211 38.7826C11.1993 38.5005 10.7158 38.3242 10.2115 38.2686L8.61015 38.0928C8.1741 38.0467 7.76708 37.8523 7.45702 37.5423C7.14697 37.2322 6.95264 36.8252 6.90648 36.3891L6.7307 34.7874C6.67491 34.2832 6.49846 33.7998 6.21629 33.3781C5.93412 32.9565 5.55453 32.609 5.10964 32.3652L3.70058 31.5917C3.31746 31.3794 3.01759 31.0435 2.84987 30.6388C2.68215 30.2342 2.65647 29.7846 2.77703 29.3635L3.22738 27.8202C3.3691 27.3334 3.39162 26.8197 3.29304 26.3224C3.19447 25.8252 2.97769 25.3589 2.66101 24.963L1.65203 23.7044C1.37633 23.3635 1.22591 22.9384 1.22591 22.5C1.22591 22.0615 1.37633 21.6364 1.65203 21.2955L2.66031 20.0369C2.97697 19.641 3.19376 19.1747 3.29239 18.6773C3.39103 18.18 3.36861 17.6663 3.22703 17.1794L2.77703 15.6364C2.6521 15.2153 2.67571 14.7641 2.84392 14.3584C3.01213 13.9526 3.31471 13.617 3.70093 13.4079L5.11035 12.6344C5.55529 12.3906 5.9349 12.0431 6.21702 11.6213C6.49914 11.1996 6.67546 10.7161 6.73105 10.2118L6.90683 8.61043C6.95332 8.1742 7.1481 7.76713 7.45863 7.45723C7.76916 7.14734 8.17663 6.9534 8.61297 6.90781L10.2147 6.73203C10.7189 6.67624 11.2024 6.49979 11.624 6.21762C12.0456 5.93545 12.3931 5.55586 12.6369 5.11098L13.4104 3.70192C13.6227 3.3193 13.9581 3.01971 14.3622 2.85185C14.7663 2.68399 15.2152 2.65772 15.6361 2.77731L17.1795 3.22766C17.6662 3.36943 18.1799 3.39199 18.6772 3.29341C19.1745 3.19483 19.6408 2.97802 20.0366 2.66129L21.2952 1.65231C21.6361 1.37654 22.0612 1.22609 22.4997 1.22609C22.9381 1.22609 23.3633 1.37654 23.7041 1.65231L24.9627 2.66059C25.3588 2.97707 25.8251 3.19374 26.3224 3.29237C26.8197 3.39099 27.3334 3.36868 27.8202 3.22731L29.3632 2.77731C29.7843 2.65285 30.2354 2.67669 30.641 2.84486C31.0467 3.01302 31.3823 3.31532 31.5918 3.70121L32.3652 5.11063C32.6091 5.55557 32.9566 5.93517 33.3783 6.2173C33.8 6.49942 34.2835 6.67574 34.7878 6.73133L36.3892 6.90711C36.8253 6.95327 37.2323 7.1476 37.5423 7.45765C37.8524 7.76771 38.0467 8.17473 38.0929 8.61078L38.2687 10.2125C38.3245 10.7168 38.5009 11.2002 38.7831 11.6218C39.0653 12.0434 39.4448 12.3909 39.8897 12.6348L41.2988 13.4082C41.6819 13.6206 41.9818 13.9564 42.1496 14.3611C42.3174 14.7657 42.3432 15.2153 42.2227 15.6364L41.7723 17.1798C41.6306 17.6665 41.6081 18.1802 41.7067 18.6775C41.8053 19.1748 42.022 19.641 42.3387 20.0369L43.347 21.2955C43.6227 21.6364 43.7731 22.0615 43.7731 22.5C43.7731 22.9384 43.6227 23.3635 43.347 23.7044L42.338 24.963Z" fill="#205B59"/>
</g>
<defs>
<clipPath id="clip0">
<rect width="45" height="45" fill="white"/>
</clipPath>
</defs>
</svg>
