<svg width="20" height="20" fill="none" xmlns="http://www.w3.org/2000/svg"><path d="M19.514 4.802l-5.07 3.614v10.198c0 .38-.19.705-.573.978-.381.272-.839.408-1.371.408s-.99-.136-1.371-.408c-.383-.273-.573-.599-.573-.978V13.86H9.444v4.753c0 .38-.19.705-.572.978-.382.272-.84.408-1.372.408-.532 0-.99-.136-1.372-.408-.381-.273-.572-.599-.572-.978V8.416L.486 4.802C.162 4.571 0 4.29 0 3.96c0-.33.162-.61.486-.841.336-.231.732-.347 1.19-.347.457 0 .847.116 1.171.347L6.806 5.94h6.388l3.959-2.822c.324-.231.717-.347 1.18-.347.463 0 .857.116 1.18.347.325.24.487.522.487.848 0 .325-.162.604-.486.835zm-5.625-2.03c0 .768-.38 1.421-1.137 1.962-.758.54-1.676.81-2.752.81-1.076 0-1.994-.27-2.752-.81-.758-.54-1.137-1.194-1.137-1.962 0-.767.38-1.42 1.137-1.961C8.006.27 8.924 0 10 0c1.076 0 1.994.27 2.752.81.758.541 1.137 1.195 1.137 1.962z" fill="#797629"/></svg>