<svg xmlns="http://www.w3.org/2000/svg" viewBox="0 0 101.623 101.623"><path d="M81.09 17.089c-10.917-10.917-28.681-10.917-39.598 0-9.957 9.957-10.828 25.605-2.624 36.564l-4.854 4.854a7.24 7.24 0 00-6.572 1.978l-20.86 20.86a7.25 7.25 0 0010.253 10.253l20.859-20.859a7.241 7.241 0 001.977-6.571l4.854-4.854c10.959 8.205 26.607 7.333 36.564-2.624 10.918-10.919 10.918-28.684.001-39.601zM47.149 51.031c-7.798-7.799-7.798-20.486 0-28.284 7.798-7.798 20.486-7.799 28.285 0 7.799 7.798 7.797 20.486 0 28.284-7.799 7.798-20.486 7.798-28.285 0zM7.123 5.978H28v-4H7.123A7.13 7.13 0 000 9.102v20.877h4V9.102a3.126 3.126 0 013.123-3.124zm90.5 65.667v20.877c0 1.724-1.4 3.124-3.123 3.124H73.623v4H94.5c3.928 0 7.123-3.195 7.123-7.124V71.645h-4z" data-original="#000000" class="active-path" data-old_color="#000000" fill="#FFF"/></svg>