<svg width="45" height="45" viewBox="0 0 45 45" fill="none" xmlns="http://www.w3.org/2000/svg">
<g clip-path="url(#clip0)">
<path d="M43.3728 2.28813H38.898V1.6269C38.898 0.728805 38.1697 0 37.2711 0H34.4232C33.5247 0 32.7963 0.728805 32.7963 1.6269V2.29769C16.119 2.69588 2.69552 16.1193 2.29734 32.7967H1.6269C0.728179 32.7967 0 33.5249 0 34.4236V37.2715C0 38.1702 0.728179 38.8984 1.6269 38.8984H2.28813V43.3732C2.28813 44.2719 3.01631 45.0001 3.91503 45.0001H14.39C15.2881 45.0001 16.0169 44.2717 16.0169 43.3732V38.8984H16.6781C17.5762 38.8984 18.305 38.17 18.305 37.2715V34.4236C18.305 33.525 17.5762 32.7967 16.6781 32.7967H15.2709C15.6599 23.2865 23.2861 15.6603 32.7963 15.2713V16.6781C32.7963 17.5769 33.5245 18.305 34.4232 18.305H37.2711C38.1698 18.305 38.898 17.5769 38.898 16.6781V16.0169H43.3728C44.2715 16.0169 44.9997 15.2887 44.9997 14.39V3.91503C44.9997 3.01693 44.2714 2.28813 43.3728 2.28813ZM14.4915 43.3732C14.4915 43.4291 14.4459 43.4746 14.39 43.4746H3.91494C3.85872 43.4746 3.81349 43.4294 3.81349 43.3732V38.8984H14.4915V43.3732ZM16.7796 34.4236V37.2715C16.7796 37.3274 16.734 37.3729 16.6781 37.3729H16.0169H2.28813H1.6269C1.57068 37.3729 1.52545 37.3277 1.52545 37.2715V34.4236C1.52545 34.3673 1.57068 34.3221 1.6269 34.3221H2.28795H15.254H16.6781C16.734 34.3221 16.7796 34.3677 16.7796 34.4236ZM22.1184 17.3566V16.0171C22.1184 15.5958 21.777 15.2544 21.3558 15.2544H19.8303V12.9663C19.8303 12.545 19.4889 12.2036 19.0676 12.2036H16.7795C16.3582 12.2036 16.0168 12.545 16.0168 12.9663C16.0168 13.3875 16.3582 13.729 16.7795 13.729H18.3049V16.0171C18.3049 16.4383 18.6463 16.7798 19.0675 16.7798H20.593V18.3052C20.593 18.3809 20.6044 18.4539 20.6249 18.5229C16.5808 22.0039 13.9583 27.0894 13.7429 32.7967H3.82287C4.22044 16.9618 16.9615 4.22079 32.7963 3.82323V13.7433C28.8257 13.8931 25.1565 15.2087 22.1184 17.3566ZM37.3726 16.6781C37.3726 16.7344 37.3273 16.7796 37.2711 16.7796H34.4232C34.367 16.7796 34.3218 16.7344 34.3218 16.6781V15.2543V2.28831V1.6269C34.3218 1.57103 34.3673 1.52545 34.4232 1.52545H37.2711C37.327 1.52545 37.3726 1.57103 37.3726 1.6269V2.28813V16.0169V16.6781ZM43.4743 14.39C43.4743 14.4462 43.4291 14.4915 43.3728 14.4915H38.898V3.81358H43.3728C43.4287 3.81358 43.4743 3.85916 43.4743 3.91503V14.39Z" fill="#205B59"/>
<path d="M25.8032 20.9316C25.5011 20.4803 24.8374 20.4803 24.5354 20.9317L22.2961 24.2785C20.8761 26.5565 20.8749 28.6044 22.3906 30.1202C23.9256 31.6553 26.4137 31.6553 27.9486 30.1202C29.4685 28.5995 29.4671 26.2496 28.0277 24.2561L25.8032 20.9316ZM26.87 29.0418C25.9309 29.9809 24.4087 29.9809 23.4694 29.0416C22.5138 28.086 22.5145 26.8118 23.5774 25.106L25.1695 22.7272L26.7757 25.1269C27.8195 26.5733 27.8203 28.0909 26.87 29.0418Z" fill="#205B59"/>
<path d="M34.1928 30.8467C33.8907 30.3954 33.227 30.3954 32.925 30.8468L30.6857 34.1936C29.2658 36.4716 29.2645 38.5196 30.7802 40.0353C32.3153 41.5703 34.8033 41.5703 36.3383 40.0353C37.8581 38.5146 37.8567 36.1647 36.4173 34.1712L34.1928 30.8467ZM35.2595 38.9569C34.3204 39.896 32.7982 39.896 31.859 38.9567C30.9033 38.001 30.904 36.7269 31.9669 35.0211L33.559 32.6423L35.1652 35.042C36.209 36.4885 36.2099 38.006 35.2595 38.9569Z" fill="#205B59"/>
</g>
<defs>
<clipPath id="clip0">
<rect width="45" height="45" fill="white"/>
</clipPath>
</defs>
</svg>
