<svg width="45" height="45" viewBox="0 0 45 45" fill="none" xmlns="http://www.w3.org/2000/svg">
<g clip-path="url(#clip0)">
<path d="M0.750162 45.0869H36.7501C37.1644 45.0869 37.5002 44.7511 37.5002 44.337V37.587H42.75C43.1644 37.587 43.5001 37.2512 43.5001 36.8371V29.3369C43.5001 28.9228 43.1644 28.5871 42.75 28.5871H37.5002V21.837C37.5002 21.4226 37.1644 21.0868 36.7501 21.0868H35.3737C35.4794 20.5965 35.3675 20.0843 35.0671 19.6826L31.6781 15.1651L33.243 13.9913C33.9382 13.4708 34.3265 12.6366 34.2774 11.7693L34.2023 10.4187C34.1817 10.0524 34.3458 9.70012 34.6393 9.48005L36.2038 8.30657L36.8623 9.1841C36.9815 9.34306 37.159 9.44846 37.356 9.47661C37.391 9.48142 37.4264 9.48417 37.4621 9.48382C37.6245 9.48417 37.7824 9.4313 37.9122 9.33379L44.1003 4.69171C45.0939 3.94635 45.2954 2.53632 44.55 1.5424L44.1332 0.986214C43.3868 -0.00633542 41.9775 -0.20718 40.9832 0.537146L34.7959 5.17889C34.4646 5.42745 34.3973 5.89781 34.6458 6.22911L35.304 7.10665L33.7395 8.28047C33.0442 8.80095 32.6556 9.63489 32.705 10.5021L32.7799 11.8528C32.8008 12.2191 32.6367 12.5717 32.3432 12.7914L30.7786 13.9652L27.3893 9.44778C27.0347 8.96747 26.4586 8.70276 25.8629 8.74637C25.2947 8.78756 24.7869 9.11716 24.5174 9.61944L18.3548 21.0868H0.750162C0.335771 21.0868 0 21.4226 0 21.837V29.3369C0 29.7513 0.335771 30.087 0.750162 30.087H5.99993V36.087H0.750162C0.335771 36.087 0 36.4227 0 36.8371V44.337C0 44.7511 0.335771 45.0869 0.750162 45.0869ZM41.8834 1.73672C42.2144 1.48815 42.6844 1.5551 42.9333 1.88641L43.3501 2.44259C43.5983 2.7739 43.531 3.24357 43.2001 3.49214L37.6118 7.68446L36.2952 5.92871L41.8834 1.73672ZM13.5002 37.587H24V43.5869H13.5002V37.587ZM19.5001 30.087H30V36.087H19.5001V30.087ZM36.0002 43.5869H25.5V37.587H36.0002V43.5869ZM42.0002 36.087H31.5V30.087H42.0002V36.087ZM36.0002 28.5871H25.5V24.2196L33.1767 22.5868H36.0002V28.5871ZM25.8392 10.3301C25.8646 10.2776 25.9175 10.2439 25.9759 10.2422L25.9906 10.2415C26.0703 10.2429 26.1441 10.2824 26.1894 10.3476L29.578 14.8651L26.484 17.1863C26.1527 17.4349 26.0854 17.9049 26.334 18.2365C26.5825 18.5678 27.0525 18.6348 27.3842 18.3866L30.4782 16.0653L33.8672 20.5828C33.9211 20.6487 33.9369 20.7376 33.9084 20.8176C33.8905 20.8733 33.8435 20.9141 33.7858 20.9244L18.9065 24.0885C18.8141 24.1029 18.7214 24.0634 18.6682 23.9865C18.6085 23.9144 18.5965 23.8142 18.6373 23.7297L25.8392 10.3301ZM17.4687 24.8867C17.8683 25.4364 18.5542 25.6983 19.2186 25.5555L24 24.5386V28.5871H13.5002V22.5868H17.5483L17.3159 23.0194C16.9945 23.6178 17.0546 24.3487 17.4687 24.8867ZM1.49998 25.5871H2.99996C3.41435 25.5871 3.75012 25.2513 3.75012 24.8369C3.75012 24.4229 3.41435 24.0871 2.99996 24.0871H1.49998V22.5868H12.0002V28.5871H1.49998V25.5871ZM7.49991 30.087H18.0001V36.087H7.49991V30.087ZM1.49998 37.587H12.0002V43.5869H1.49998V37.587Z" fill="#205B59"/>
<path d="M9.74995 24.8369C9.74995 24.4229 9.41418 24.0871 8.99978 24.0871H5.99982C5.58577 24.0871 5.25 24.4229 5.25 24.8369C5.25 25.2513 5.58577 25.5871 5.99982 25.5871H8.99978C9.41418 25.5871 9.74995 25.2513 9.74995 24.8369Z" fill="#205B59"/>
</g>
<defs>
<clipPath id="clip0">
<rect width="45" height="45" fill="white"/>
</clipPath>
</defs>
</svg>
